%TF.GenerationSoftware,KiCad,Pcbnew,(5.1.9)-1*%
%TF.CreationDate,2021-05-10T08:30:50+10:00*%
%TF.ProjectId,FlightBridgePCB,466c6967-6874-4427-9269-646765504342,rev?*%
%TF.SameCoordinates,Original*%
%TF.FileFunction,Paste,Top*%
%TF.FilePolarity,Positive*%
%FSLAX46Y46*%
G04 Gerber Fmt 4.6, Leading zero omitted, Abs format (unit mm)*
G04 Created by KiCad (PCBNEW (5.1.9)-1) date 2021-05-10 08:30:50*
%MOMM*%
%LPD*%
G01*
G04 APERTURE LIST*
%ADD10R,0.550000X1.500000*%
%ADD11R,1.500000X0.550000*%
%ADD12R,0.900000X0.800000*%
%ADD13R,4.500000X2.000000*%
G04 APERTURE END LIST*
%TO.C,C8*%
G36*
G01*
X170862500Y-89883000D02*
X170862500Y-88933000D01*
G75*
G02*
X171112500Y-88683000I250000J0D01*
G01*
X171787500Y-88683000D01*
G75*
G02*
X172037500Y-88933000I0J-250000D01*
G01*
X172037500Y-89883000D01*
G75*
G02*
X171787500Y-90133000I-250000J0D01*
G01*
X171112500Y-90133000D01*
G75*
G02*
X170862500Y-89883000I0J250000D01*
G01*
G37*
G36*
G01*
X168787500Y-89883000D02*
X168787500Y-88933000D01*
G75*
G02*
X169037500Y-88683000I250000J0D01*
G01*
X169712500Y-88683000D01*
G75*
G02*
X169962500Y-88933000I0J-250000D01*
G01*
X169962500Y-89883000D01*
G75*
G02*
X169712500Y-90133000I-250000J0D01*
G01*
X169037500Y-90133000D01*
G75*
G02*
X168787500Y-89883000I0J250000D01*
G01*
G37*
%TD*%
%TO.C,C7*%
G36*
G01*
X168449500Y-78453000D02*
X168449500Y-77503000D01*
G75*
G02*
X168699500Y-77253000I250000J0D01*
G01*
X169374500Y-77253000D01*
G75*
G02*
X169624500Y-77503000I0J-250000D01*
G01*
X169624500Y-78453000D01*
G75*
G02*
X169374500Y-78703000I-250000J0D01*
G01*
X168699500Y-78703000D01*
G75*
G02*
X168449500Y-78453000I0J250000D01*
G01*
G37*
G36*
G01*
X166374500Y-78453000D02*
X166374500Y-77503000D01*
G75*
G02*
X166624500Y-77253000I250000J0D01*
G01*
X167299500Y-77253000D01*
G75*
G02*
X167549500Y-77503000I0J-250000D01*
G01*
X167549500Y-78453000D01*
G75*
G02*
X167299500Y-78703000I-250000J0D01*
G01*
X166624500Y-78703000D01*
G75*
G02*
X166374500Y-78453000I0J250000D01*
G01*
G37*
%TD*%
D10*
%TO.C,U1*%
X164500000Y-96200000D03*
X163700000Y-96200000D03*
X162900000Y-96200000D03*
X162100000Y-96200000D03*
X161300000Y-96200000D03*
X160500000Y-96200000D03*
X159700000Y-96200000D03*
X158900000Y-96200000D03*
X158100000Y-96200000D03*
X157300000Y-96200000D03*
X156500000Y-96200000D03*
X155700000Y-96200000D03*
X154900000Y-96200000D03*
X154100000Y-96200000D03*
X153300000Y-96200000D03*
X152500000Y-96200000D03*
D11*
X150800000Y-94500000D03*
X150800000Y-93700000D03*
X150800000Y-92900000D03*
X150800000Y-92100000D03*
X150800000Y-91300000D03*
X150800000Y-90500000D03*
X150800000Y-89700000D03*
X150800000Y-88900000D03*
X150800000Y-88100000D03*
X150800000Y-87300000D03*
X150800000Y-86500000D03*
X150800000Y-85700000D03*
X150800000Y-84900000D03*
X150800000Y-84100000D03*
X150800000Y-83300000D03*
X150800000Y-82500000D03*
D10*
X152500000Y-80800000D03*
X153300000Y-80800000D03*
X154100000Y-80800000D03*
X154900000Y-80800000D03*
X155700000Y-80800000D03*
X156500000Y-80800000D03*
X157300000Y-80800000D03*
X158100000Y-80800000D03*
X158900000Y-80800000D03*
X159700000Y-80800000D03*
X160500000Y-80800000D03*
X161300000Y-80800000D03*
X162100000Y-80800000D03*
X162900000Y-80800000D03*
X163700000Y-80800000D03*
X164500000Y-80800000D03*
D11*
X166200000Y-82500000D03*
X166200000Y-83300000D03*
X166200000Y-84100000D03*
X166200000Y-84900000D03*
X166200000Y-85700000D03*
X166200000Y-86500000D03*
X166200000Y-87300000D03*
X166200000Y-88100000D03*
X166200000Y-88900000D03*
X166200000Y-89700000D03*
X166200000Y-90500000D03*
X166200000Y-91300000D03*
X166200000Y-92100000D03*
X166200000Y-92900000D03*
X166200000Y-93700000D03*
X166200000Y-94500000D03*
%TD*%
%TO.C,C4*%
G36*
G01*
X135603000Y-76665500D02*
X134653000Y-76665500D01*
G75*
G02*
X134403000Y-76415500I0J250000D01*
G01*
X134403000Y-75740500D01*
G75*
G02*
X134653000Y-75490500I250000J0D01*
G01*
X135603000Y-75490500D01*
G75*
G02*
X135853000Y-75740500I0J-250000D01*
G01*
X135853000Y-76415500D01*
G75*
G02*
X135603000Y-76665500I-250000J0D01*
G01*
G37*
G36*
G01*
X135603000Y-78740500D02*
X134653000Y-78740500D01*
G75*
G02*
X134403000Y-78490500I0J250000D01*
G01*
X134403000Y-77815500D01*
G75*
G02*
X134653000Y-77565500I250000J0D01*
G01*
X135603000Y-77565500D01*
G75*
G02*
X135853000Y-77815500I0J-250000D01*
G01*
X135853000Y-78490500D01*
G75*
G02*
X135603000Y-78740500I-250000J0D01*
G01*
G37*
%TD*%
%TO.C,C3*%
G36*
G01*
X127729000Y-76612500D02*
X126779000Y-76612500D01*
G75*
G02*
X126529000Y-76362500I0J250000D01*
G01*
X126529000Y-75687500D01*
G75*
G02*
X126779000Y-75437500I250000J0D01*
G01*
X127729000Y-75437500D01*
G75*
G02*
X127979000Y-75687500I0J-250000D01*
G01*
X127979000Y-76362500D01*
G75*
G02*
X127729000Y-76612500I-250000J0D01*
G01*
G37*
G36*
G01*
X127729000Y-78687500D02*
X126779000Y-78687500D01*
G75*
G02*
X126529000Y-78437500I0J250000D01*
G01*
X126529000Y-77762500D01*
G75*
G02*
X126779000Y-77512500I250000J0D01*
G01*
X127729000Y-77512500D01*
G75*
G02*
X127979000Y-77762500I0J-250000D01*
G01*
X127979000Y-78437500D01*
G75*
G02*
X127729000Y-78687500I-250000J0D01*
G01*
G37*
%TD*%
D12*
%TO.C,Q2*%
X123587000Y-88519000D03*
X125587000Y-87569000D03*
X125587000Y-89469000D03*
%TD*%
%TO.C,R10*%
G36*
G01*
X129321000Y-89858001D02*
X129321000Y-88957999D01*
G75*
G02*
X129570999Y-88708000I249999J0D01*
G01*
X130271001Y-88708000D01*
G75*
G02*
X130521000Y-88957999I0J-249999D01*
G01*
X130521000Y-89858001D01*
G75*
G02*
X130271001Y-90108000I-249999J0D01*
G01*
X129570999Y-90108000D01*
G75*
G02*
X129321000Y-89858001I0J249999D01*
G01*
G37*
G36*
G01*
X127321000Y-89858001D02*
X127321000Y-88957999D01*
G75*
G02*
X127570999Y-88708000I249999J0D01*
G01*
X128271001Y-88708000D01*
G75*
G02*
X128521000Y-88957999I0J-249999D01*
G01*
X128521000Y-89858001D01*
G75*
G02*
X128271001Y-90108000I-249999J0D01*
G01*
X127570999Y-90108000D01*
G75*
G02*
X127321000Y-89858001I0J249999D01*
G01*
G37*
%TD*%
%TO.C,R9*%
G36*
G01*
X123374999Y-84839000D02*
X124275001Y-84839000D01*
G75*
G02*
X124525000Y-85088999I0J-249999D01*
G01*
X124525000Y-85789001D01*
G75*
G02*
X124275001Y-86039000I-249999J0D01*
G01*
X123374999Y-86039000D01*
G75*
G02*
X123125000Y-85789001I0J249999D01*
G01*
X123125000Y-85088999D01*
G75*
G02*
X123374999Y-84839000I249999J0D01*
G01*
G37*
G36*
G01*
X123374999Y-82839000D02*
X124275001Y-82839000D01*
G75*
G02*
X124525000Y-83088999I0J-249999D01*
G01*
X124525000Y-83789001D01*
G75*
G02*
X124275001Y-84039000I-249999J0D01*
G01*
X123374999Y-84039000D01*
G75*
G02*
X123125000Y-83789001I0J249999D01*
G01*
X123125000Y-83088999D01*
G75*
G02*
X123374999Y-82839000I249999J0D01*
G01*
G37*
%TD*%
%TO.C,R6*%
G36*
G01*
X122282000Y-75241999D02*
X122282000Y-76142001D01*
G75*
G02*
X122032001Y-76392000I-249999J0D01*
G01*
X121331999Y-76392000D01*
G75*
G02*
X121082000Y-76142001I0J249999D01*
G01*
X121082000Y-75241999D01*
G75*
G02*
X121331999Y-74992000I249999J0D01*
G01*
X122032001Y-74992000D01*
G75*
G02*
X122282000Y-75241999I0J-249999D01*
G01*
G37*
G36*
G01*
X124282000Y-75241999D02*
X124282000Y-76142001D01*
G75*
G02*
X124032001Y-76392000I-249999J0D01*
G01*
X123331999Y-76392000D01*
G75*
G02*
X123082000Y-76142001I0J249999D01*
G01*
X123082000Y-75241999D01*
G75*
G02*
X123331999Y-74992000I249999J0D01*
G01*
X124032001Y-74992000D01*
G75*
G02*
X124282000Y-75241999I0J-249999D01*
G01*
G37*
%TD*%
%TO.C,R5*%
G36*
G01*
X122298000Y-78035999D02*
X122298000Y-78936001D01*
G75*
G02*
X122048001Y-79186000I-249999J0D01*
G01*
X121347999Y-79186000D01*
G75*
G02*
X121098000Y-78936001I0J249999D01*
G01*
X121098000Y-78035999D01*
G75*
G02*
X121347999Y-77786000I249999J0D01*
G01*
X122048001Y-77786000D01*
G75*
G02*
X122298000Y-78035999I0J-249999D01*
G01*
G37*
G36*
G01*
X124298000Y-78035999D02*
X124298000Y-78936001D01*
G75*
G02*
X124048001Y-79186000I-249999J0D01*
G01*
X123347999Y-79186000D01*
G75*
G02*
X123098000Y-78936001I0J249999D01*
G01*
X123098000Y-78035999D01*
G75*
G02*
X123347999Y-77786000I249999J0D01*
G01*
X124048001Y-77786000D01*
G75*
G02*
X124298000Y-78035999I0J-249999D01*
G01*
G37*
%TD*%
%TO.C,R4*%
G36*
G01*
X147049999Y-90400000D02*
X147950001Y-90400000D01*
G75*
G02*
X148200000Y-90649999I0J-249999D01*
G01*
X148200000Y-91350001D01*
G75*
G02*
X147950001Y-91600000I-249999J0D01*
G01*
X147049999Y-91600000D01*
G75*
G02*
X146800000Y-91350001I0J249999D01*
G01*
X146800000Y-90649999D01*
G75*
G02*
X147049999Y-90400000I249999J0D01*
G01*
G37*
G36*
G01*
X147049999Y-88400000D02*
X147950001Y-88400000D01*
G75*
G02*
X148200000Y-88649999I0J-249999D01*
G01*
X148200000Y-89350001D01*
G75*
G02*
X147950001Y-89600000I-249999J0D01*
G01*
X147049999Y-89600000D01*
G75*
G02*
X146800000Y-89350001I0J249999D01*
G01*
X146800000Y-88649999D01*
G75*
G02*
X147049999Y-88400000I249999J0D01*
G01*
G37*
%TD*%
%TO.C,R3*%
G36*
G01*
X143803999Y-90400000D02*
X144704001Y-90400000D01*
G75*
G02*
X144954000Y-90649999I0J-249999D01*
G01*
X144954000Y-91350001D01*
G75*
G02*
X144704001Y-91600000I-249999J0D01*
G01*
X143803999Y-91600000D01*
G75*
G02*
X143554000Y-91350001I0J249999D01*
G01*
X143554000Y-90649999D01*
G75*
G02*
X143803999Y-90400000I249999J0D01*
G01*
G37*
G36*
G01*
X143803999Y-88400000D02*
X144704001Y-88400000D01*
G75*
G02*
X144954000Y-88649999I0J-249999D01*
G01*
X144954000Y-89350001D01*
G75*
G02*
X144704001Y-89600000I-249999J0D01*
G01*
X143803999Y-89600000D01*
G75*
G02*
X143554000Y-89350001I0J249999D01*
G01*
X143554000Y-88649999D01*
G75*
G02*
X143803999Y-88400000I249999J0D01*
G01*
G37*
%TD*%
%TO.C,R2*%
G36*
G01*
X140549999Y-90400000D02*
X141450001Y-90400000D01*
G75*
G02*
X141700000Y-90649999I0J-249999D01*
G01*
X141700000Y-91350001D01*
G75*
G02*
X141450001Y-91600000I-249999J0D01*
G01*
X140549999Y-91600000D01*
G75*
G02*
X140300000Y-91350001I0J249999D01*
G01*
X140300000Y-90649999D01*
G75*
G02*
X140549999Y-90400000I249999J0D01*
G01*
G37*
G36*
G01*
X140549999Y-88400000D02*
X141450001Y-88400000D01*
G75*
G02*
X141700000Y-88649999I0J-249999D01*
G01*
X141700000Y-89350001D01*
G75*
G02*
X141450001Y-89600000I-249999J0D01*
G01*
X140549999Y-89600000D01*
G75*
G02*
X140300000Y-89350001I0J249999D01*
G01*
X140300000Y-88649999D01*
G75*
G02*
X140549999Y-88400000I249999J0D01*
G01*
G37*
%TD*%
%TO.C,D5*%
G36*
G01*
X118864500Y-76092001D02*
X118864500Y-75291999D01*
G75*
G02*
X119114499Y-75042000I249999J0D01*
G01*
X119939501Y-75042000D01*
G75*
G02*
X120189500Y-75291999I0J-249999D01*
G01*
X120189500Y-76092001D01*
G75*
G02*
X119939501Y-76342000I-249999J0D01*
G01*
X119114499Y-76342000D01*
G75*
G02*
X118864500Y-76092001I0J249999D01*
G01*
G37*
G36*
G01*
X116939500Y-76092001D02*
X116939500Y-75291999D01*
G75*
G02*
X117189499Y-75042000I249999J0D01*
G01*
X118014501Y-75042000D01*
G75*
G02*
X118264500Y-75291999I0J-249999D01*
G01*
X118264500Y-76092001D01*
G75*
G02*
X118014501Y-76342000I-249999J0D01*
G01*
X117189499Y-76342000D01*
G75*
G02*
X116939500Y-76092001I0J249999D01*
G01*
G37*
%TD*%
%TO.C,D4*%
G36*
G01*
X118971500Y-78886001D02*
X118971500Y-78085999D01*
G75*
G02*
X119221499Y-77836000I249999J0D01*
G01*
X120046501Y-77836000D01*
G75*
G02*
X120296500Y-78085999I0J-249999D01*
G01*
X120296500Y-78886001D01*
G75*
G02*
X120046501Y-79136000I-249999J0D01*
G01*
X119221499Y-79136000D01*
G75*
G02*
X118971500Y-78886001I0J249999D01*
G01*
G37*
G36*
G01*
X117046500Y-78886001D02*
X117046500Y-78085999D01*
G75*
G02*
X117296499Y-77836000I249999J0D01*
G01*
X118121501Y-77836000D01*
G75*
G02*
X118371500Y-78085999I0J-249999D01*
G01*
X118371500Y-78886001D01*
G75*
G02*
X118121501Y-79136000I-249999J0D01*
G01*
X117296499Y-79136000D01*
G75*
G02*
X117046500Y-78886001I0J249999D01*
G01*
G37*
%TD*%
%TO.C,D3*%
G36*
G01*
X147900001Y-94162500D02*
X147099999Y-94162500D01*
G75*
G02*
X146850000Y-93912501I0J249999D01*
G01*
X146850000Y-93087499D01*
G75*
G02*
X147099999Y-92837500I249999J0D01*
G01*
X147900001Y-92837500D01*
G75*
G02*
X148150000Y-93087499I0J-249999D01*
G01*
X148150000Y-93912501D01*
G75*
G02*
X147900001Y-94162500I-249999J0D01*
G01*
G37*
G36*
G01*
X147900001Y-96087500D02*
X147099999Y-96087500D01*
G75*
G02*
X146850000Y-95837501I0J249999D01*
G01*
X146850000Y-95012499D01*
G75*
G02*
X147099999Y-94762500I249999J0D01*
G01*
X147900001Y-94762500D01*
G75*
G02*
X148150000Y-95012499I0J-249999D01*
G01*
X148150000Y-95837501D01*
G75*
G02*
X147900001Y-96087500I-249999J0D01*
G01*
G37*
%TD*%
%TO.C,D2*%
G36*
G01*
X144654001Y-94162500D02*
X143853999Y-94162500D01*
G75*
G02*
X143604000Y-93912501I0J249999D01*
G01*
X143604000Y-93087499D01*
G75*
G02*
X143853999Y-92837500I249999J0D01*
G01*
X144654001Y-92837500D01*
G75*
G02*
X144904000Y-93087499I0J-249999D01*
G01*
X144904000Y-93912501D01*
G75*
G02*
X144654001Y-94162500I-249999J0D01*
G01*
G37*
G36*
G01*
X144654001Y-96087500D02*
X143853999Y-96087500D01*
G75*
G02*
X143604000Y-95837501I0J249999D01*
G01*
X143604000Y-95012499D01*
G75*
G02*
X143853999Y-94762500I249999J0D01*
G01*
X144654001Y-94762500D01*
G75*
G02*
X144904000Y-95012499I0J-249999D01*
G01*
X144904000Y-95837501D01*
G75*
G02*
X144654001Y-96087500I-249999J0D01*
G01*
G37*
%TD*%
%TO.C,D1*%
G36*
G01*
X141400001Y-94162500D02*
X140599999Y-94162500D01*
G75*
G02*
X140350000Y-93912501I0J249999D01*
G01*
X140350000Y-93087499D01*
G75*
G02*
X140599999Y-92837500I249999J0D01*
G01*
X141400001Y-92837500D01*
G75*
G02*
X141650000Y-93087499I0J-249999D01*
G01*
X141650000Y-93912501D01*
G75*
G02*
X141400001Y-94162500I-249999J0D01*
G01*
G37*
G36*
G01*
X141400001Y-96087500D02*
X140599999Y-96087500D01*
G75*
G02*
X140350000Y-95837501I0J249999D01*
G01*
X140350000Y-95012499D01*
G75*
G02*
X140599999Y-94762500I249999J0D01*
G01*
X141400001Y-94762500D01*
G75*
G02*
X141650000Y-95012499I0J-249999D01*
G01*
X141650000Y-95837501D01*
G75*
G02*
X141400001Y-96087500I-249999J0D01*
G01*
G37*
%TD*%
D13*
%TO.C,Y1*%
X163389000Y-77000000D03*
X154889000Y-77000000D03*
%TD*%
%TO.C,R1*%
G36*
G01*
X172501000Y-78428001D02*
X172501000Y-77527999D01*
G75*
G02*
X172750999Y-77278000I249999J0D01*
G01*
X173451001Y-77278000D01*
G75*
G02*
X173701000Y-77527999I0J-249999D01*
G01*
X173701000Y-78428001D01*
G75*
G02*
X173451001Y-78678000I-249999J0D01*
G01*
X172750999Y-78678000D01*
G75*
G02*
X172501000Y-78428001I0J249999D01*
G01*
G37*
G36*
G01*
X170501000Y-78428001D02*
X170501000Y-77527999D01*
G75*
G02*
X170750999Y-77278000I249999J0D01*
G01*
X171451001Y-77278000D01*
G75*
G02*
X171701000Y-77527999I0J-249999D01*
G01*
X171701000Y-78428001D01*
G75*
G02*
X171451001Y-78678000I-249999J0D01*
G01*
X170750999Y-78678000D01*
G75*
G02*
X170501000Y-78428001I0J249999D01*
G01*
G37*
%TD*%
%TO.C,C2*%
G36*
G01*
X167592500Y-75217000D02*
X167592500Y-76167000D01*
G75*
G02*
X167342500Y-76417000I-250000J0D01*
G01*
X166667500Y-76417000D01*
G75*
G02*
X166417500Y-76167000I0J250000D01*
G01*
X166417500Y-75217000D01*
G75*
G02*
X166667500Y-74967000I250000J0D01*
G01*
X167342500Y-74967000D01*
G75*
G02*
X167592500Y-75217000I0J-250000D01*
G01*
G37*
G36*
G01*
X169667500Y-75217000D02*
X169667500Y-76167000D01*
G75*
G02*
X169417500Y-76417000I-250000J0D01*
G01*
X168742500Y-76417000D01*
G75*
G02*
X168492500Y-76167000I0J250000D01*
G01*
X168492500Y-75217000D01*
G75*
G02*
X168742500Y-74967000I250000J0D01*
G01*
X169417500Y-74967000D01*
G75*
G02*
X169667500Y-75217000I0J-250000D01*
G01*
G37*
%TD*%
%TO.C,C1*%
G36*
G01*
X151351000Y-75601500D02*
X150401000Y-75601500D01*
G75*
G02*
X150151000Y-75351500I0J250000D01*
G01*
X150151000Y-74676500D01*
G75*
G02*
X150401000Y-74426500I250000J0D01*
G01*
X151351000Y-74426500D01*
G75*
G02*
X151601000Y-74676500I0J-250000D01*
G01*
X151601000Y-75351500D01*
G75*
G02*
X151351000Y-75601500I-250000J0D01*
G01*
G37*
G36*
G01*
X151351000Y-77676500D02*
X150401000Y-77676500D01*
G75*
G02*
X150151000Y-77426500I0J250000D01*
G01*
X150151000Y-76751500D01*
G75*
G02*
X150401000Y-76501500I250000J0D01*
G01*
X151351000Y-76501500D01*
G75*
G02*
X151601000Y-76751500I0J-250000D01*
G01*
X151601000Y-77426500D01*
G75*
G02*
X151351000Y-77676500I-250000J0D01*
G01*
G37*
%TD*%
M02*
