%TF.GenerationSoftware,KiCad,Pcbnew,5.1.10-88a1d61d58~88~ubuntu20.04.1*%
%TF.CreationDate,2021-05-06T15:24:52+10:00*%
%TF.ProjectId,FlightBridgePCB,466c6967-6874-4427-9269-646765504342,rev?*%
%TF.SameCoordinates,Original*%
%TF.FileFunction,Legend,Top*%
%TF.FilePolarity,Positive*%
%FSLAX46Y46*%
G04 Gerber Fmt 4.6, Leading zero omitted, Abs format (unit mm)*
G04 Created by KiCad (PCBNEW 5.1.10-88a1d61d58~88~ubuntu20.04.1) date 2021-05-06 15:24:52*
%MOMM*%
%LPD*%
G01*
G04 APERTURE LIST*
%ADD10C,0.150000*%
%ADD11C,0.125000*%
%ADD12C,0.010000*%
%ADD13C,0.120000*%
G04 APERTURE END LIST*
D10*
X154003952Y-86701380D02*
X154003952Y-87415666D01*
X153956333Y-87558523D01*
X153861095Y-87653761D01*
X153718238Y-87701380D01*
X153623000Y-87701380D01*
X154956333Y-87701380D02*
X154480142Y-87701380D01*
X154480142Y-86701380D01*
X155861095Y-87606142D02*
X155813476Y-87653761D01*
X155670619Y-87701380D01*
X155575380Y-87701380D01*
X155432523Y-87653761D01*
X155337285Y-87558523D01*
X155289666Y-87463285D01*
X155242047Y-87272809D01*
X155242047Y-87129952D01*
X155289666Y-86939476D01*
X155337285Y-86844238D01*
X155432523Y-86749000D01*
X155575380Y-86701380D01*
X155670619Y-86701380D01*
X155813476Y-86749000D01*
X155861095Y-86796619D01*
X156575380Y-86701380D02*
X156575380Y-87415666D01*
X156527761Y-87558523D01*
X156432523Y-87653761D01*
X156289666Y-87701380D01*
X156194428Y-87701380D01*
X157527761Y-87701380D02*
X157051571Y-87701380D01*
X157051571Y-86701380D01*
X158432523Y-87606142D02*
X158384904Y-87653761D01*
X158242047Y-87701380D01*
X158146809Y-87701380D01*
X158003952Y-87653761D01*
X157908714Y-87558523D01*
X157861095Y-87463285D01*
X157813476Y-87272809D01*
X157813476Y-87129952D01*
X157861095Y-86939476D01*
X157908714Y-86844238D01*
X158003952Y-86749000D01*
X158146809Y-86701380D01*
X158242047Y-86701380D01*
X158384904Y-86749000D01*
X158432523Y-86796619D01*
X159146809Y-86701380D02*
X159146809Y-87415666D01*
X159099190Y-87558523D01*
X159003952Y-87653761D01*
X158861095Y-87701380D01*
X158765857Y-87701380D01*
X160099190Y-87701380D02*
X159623000Y-87701380D01*
X159623000Y-86701380D01*
X161003952Y-87606142D02*
X160956333Y-87653761D01*
X160813476Y-87701380D01*
X160718238Y-87701380D01*
X160575380Y-87653761D01*
X160480142Y-87558523D01*
X160432523Y-87463285D01*
X160384904Y-87272809D01*
X160384904Y-87129952D01*
X160432523Y-86939476D01*
X160480142Y-86844238D01*
X160575380Y-86749000D01*
X160718238Y-86701380D01*
X160813476Y-86701380D01*
X160956333Y-86749000D01*
X161003952Y-86796619D01*
X161718238Y-86701380D02*
X161718238Y-87415666D01*
X161670619Y-87558523D01*
X161575380Y-87653761D01*
X161432523Y-87701380D01*
X161337285Y-87701380D01*
X162670619Y-87701380D02*
X162194428Y-87701380D01*
X162194428Y-86701380D01*
X163575380Y-87606142D02*
X163527761Y-87653761D01*
X163384904Y-87701380D01*
X163289666Y-87701380D01*
X163146809Y-87653761D01*
X163051571Y-87558523D01*
X163003952Y-87463285D01*
X162956333Y-87272809D01*
X162956333Y-87129952D01*
X163003952Y-86939476D01*
X163051571Y-86844238D01*
X163146809Y-86749000D01*
X163289666Y-86701380D01*
X163384904Y-86701380D01*
X163527761Y-86749000D01*
X163575380Y-86796619D01*
D11*
X139029285Y-89130000D02*
X139029285Y-89296666D01*
X139291190Y-89296666D02*
X138791190Y-89296666D01*
X138791190Y-89058571D01*
X139243571Y-88582380D02*
X139267380Y-88606190D01*
X139291190Y-88677619D01*
X139291190Y-88725238D01*
X139267380Y-88796666D01*
X139219761Y-88844285D01*
X139172142Y-88868095D01*
X139076904Y-88891904D01*
X139005476Y-88891904D01*
X138910238Y-88868095D01*
X138862619Y-88844285D01*
X138815000Y-88796666D01*
X138791190Y-88725238D01*
X138791190Y-88677619D01*
X138815000Y-88606190D01*
X138838809Y-88582380D01*
X138791190Y-88058571D02*
X138791190Y-87772857D01*
X139291190Y-87915714D02*
X138791190Y-87915714D01*
X139029285Y-87606190D02*
X139029285Y-87439523D01*
X139291190Y-87368095D02*
X139291190Y-87606190D01*
X138791190Y-87606190D01*
X138791190Y-87368095D01*
X139291190Y-86915714D02*
X139291190Y-87153809D01*
X138791190Y-87153809D01*
X139029285Y-86749047D02*
X139029285Y-86582380D01*
X139291190Y-86510952D02*
X139291190Y-86749047D01*
X138791190Y-86749047D01*
X138791190Y-86510952D01*
X139291190Y-86296666D02*
X138791190Y-86296666D01*
X139148333Y-86130000D01*
X138791190Y-85963333D01*
X139291190Y-85963333D01*
X133219142Y-86816380D02*
X133290571Y-86840190D01*
X133409619Y-86840190D01*
X133457238Y-86816380D01*
X133481047Y-86792571D01*
X133504857Y-86744952D01*
X133504857Y-86697333D01*
X133481047Y-86649714D01*
X133457238Y-86625904D01*
X133409619Y-86602095D01*
X133314380Y-86578285D01*
X133266761Y-86554476D01*
X133242952Y-86530666D01*
X133219142Y-86483047D01*
X133219142Y-86435428D01*
X133242952Y-86387809D01*
X133266761Y-86364000D01*
X133314380Y-86340190D01*
X133433428Y-86340190D01*
X133504857Y-86364000D01*
X133885809Y-86578285D02*
X133957238Y-86602095D01*
X133981047Y-86625904D01*
X134004857Y-86673523D01*
X134004857Y-86744952D01*
X133981047Y-86792571D01*
X133957238Y-86816380D01*
X133909619Y-86840190D01*
X133719142Y-86840190D01*
X133719142Y-86340190D01*
X133885809Y-86340190D01*
X133933428Y-86364000D01*
X133957238Y-86387809D01*
X133981047Y-86435428D01*
X133981047Y-86483047D01*
X133957238Y-86530666D01*
X133933428Y-86554476D01*
X133885809Y-86578285D01*
X133719142Y-86578285D01*
X134219142Y-86340190D02*
X134219142Y-86744952D01*
X134242952Y-86792571D01*
X134266761Y-86816380D01*
X134314380Y-86840190D01*
X134409619Y-86840190D01*
X134457238Y-86816380D01*
X134481047Y-86792571D01*
X134504857Y-86744952D01*
X134504857Y-86340190D01*
X134719142Y-86816380D02*
X134790571Y-86840190D01*
X134909619Y-86840190D01*
X134957238Y-86816380D01*
X134981047Y-86792571D01*
X135004857Y-86744952D01*
X135004857Y-86697333D01*
X134981047Y-86649714D01*
X134957238Y-86625904D01*
X134909619Y-86602095D01*
X134814380Y-86578285D01*
X134766761Y-86554476D01*
X134742952Y-86530666D01*
X134719142Y-86483047D01*
X134719142Y-86435428D01*
X134742952Y-86387809D01*
X134766761Y-86364000D01*
X134814380Y-86340190D01*
X134933428Y-86340190D01*
X135004857Y-86364000D01*
X147304142Y-97254190D02*
X147304142Y-96754190D01*
X147589857Y-97254190D01*
X147589857Y-96754190D01*
X144553761Y-97381190D02*
X144387095Y-97143095D01*
X144268047Y-97381190D02*
X144268047Y-96881190D01*
X144458523Y-96881190D01*
X144506142Y-96905000D01*
X144529952Y-96928809D01*
X144553761Y-96976428D01*
X144553761Y-97047857D01*
X144529952Y-97095476D01*
X144506142Y-97119285D01*
X144458523Y-97143095D01*
X144268047Y-97143095D01*
X140850952Y-97238333D02*
X141089047Y-97238333D01*
X140803333Y-97381190D02*
X140970000Y-96881190D01*
X141136666Y-97381190D01*
X148471142Y-80498190D02*
X148756857Y-80498190D01*
X148614000Y-80998190D02*
X148614000Y-80498190D01*
X148923523Y-80736285D02*
X149090190Y-80736285D01*
X149161619Y-80998190D02*
X148923523Y-80998190D01*
X148923523Y-80498190D01*
X149161619Y-80498190D01*
X149614000Y-80998190D02*
X149375904Y-80998190D01*
X149375904Y-80498190D01*
X149780666Y-80736285D02*
X149947333Y-80736285D01*
X150018761Y-80998190D02*
X149780666Y-80998190D01*
X149780666Y-80498190D01*
X150018761Y-80498190D01*
X150233047Y-80998190D02*
X150233047Y-80498190D01*
X150399714Y-80855333D01*
X150566380Y-80498190D01*
X150566380Y-80998190D01*
X151185428Y-80998190D02*
X151185428Y-80498190D01*
X151375904Y-80498190D01*
X151423523Y-80522000D01*
X151447333Y-80545809D01*
X151471142Y-80593428D01*
X151471142Y-80664857D01*
X151447333Y-80712476D01*
X151423523Y-80736285D01*
X151375904Y-80760095D01*
X151185428Y-80760095D01*
X151685428Y-80998190D02*
X151685428Y-80498190D01*
X110978190Y-77529428D02*
X111478190Y-77362761D01*
X110978190Y-77196095D01*
X111216285Y-76862761D02*
X111240095Y-76791333D01*
X111263904Y-76767523D01*
X111311523Y-76743714D01*
X111382952Y-76743714D01*
X111430571Y-76767523D01*
X111454380Y-76791333D01*
X111478190Y-76838952D01*
X111478190Y-77029428D01*
X110978190Y-77029428D01*
X110978190Y-76862761D01*
X111002000Y-76815142D01*
X111025809Y-76791333D01*
X111073428Y-76767523D01*
X111121047Y-76767523D01*
X111168666Y-76791333D01*
X111192476Y-76815142D01*
X111216285Y-76862761D01*
X111216285Y-77029428D01*
X111335333Y-76553238D02*
X111335333Y-76315142D01*
X111478190Y-76600857D02*
X110978190Y-76434190D01*
X111478190Y-76267523D01*
X110978190Y-76172285D02*
X110978190Y-75886571D01*
X111478190Y-76029428D02*
X110978190Y-76029428D01*
X111002000Y-83438952D02*
X110978190Y-83486571D01*
X110978190Y-83558000D01*
X111002000Y-83629428D01*
X111049619Y-83677047D01*
X111097238Y-83700857D01*
X111192476Y-83724666D01*
X111263904Y-83724666D01*
X111359142Y-83700857D01*
X111406761Y-83677047D01*
X111454380Y-83629428D01*
X111478190Y-83558000D01*
X111478190Y-83510380D01*
X111454380Y-83438952D01*
X111430571Y-83415142D01*
X111263904Y-83415142D01*
X111263904Y-83510380D01*
X111478190Y-83200857D02*
X110978190Y-83200857D01*
X111478190Y-82915142D01*
X110978190Y-82915142D01*
X111478190Y-82677047D02*
X110978190Y-82677047D01*
X110978190Y-82558000D01*
X111002000Y-82486571D01*
X111049619Y-82438952D01*
X111097238Y-82415142D01*
X111192476Y-82391333D01*
X111263904Y-82391333D01*
X111359142Y-82415142D01*
X111406761Y-82438952D01*
X111454380Y-82486571D01*
X111478190Y-82558000D01*
X111478190Y-82677047D01*
X110564500Y-90344523D02*
X110540690Y-90392142D01*
X110540690Y-90463571D01*
X110564500Y-90535000D01*
X110612119Y-90582619D01*
X110659738Y-90606428D01*
X110754976Y-90630238D01*
X110826404Y-90630238D01*
X110921642Y-90606428D01*
X110969261Y-90582619D01*
X111016880Y-90535000D01*
X111040690Y-90463571D01*
X111040690Y-90415952D01*
X111016880Y-90344523D01*
X110993071Y-90320714D01*
X110826404Y-90320714D01*
X110826404Y-90415952D01*
X111040690Y-90106428D02*
X110540690Y-90106428D01*
X111040690Y-89820714D01*
X110540690Y-89820714D01*
X111040690Y-89582619D02*
X110540690Y-89582619D01*
X110540690Y-89463571D01*
X110564500Y-89392142D01*
X110612119Y-89344523D01*
X110659738Y-89320714D01*
X110754976Y-89296904D01*
X110826404Y-89296904D01*
X110921642Y-89320714D01*
X110969261Y-89344523D01*
X111016880Y-89392142D01*
X111040690Y-89463571D01*
X111040690Y-89582619D01*
X111040690Y-88820714D02*
X111040690Y-89106428D01*
X111040690Y-88963571D02*
X110540690Y-88963571D01*
X110612119Y-89011190D01*
X110659738Y-89058809D01*
X110683547Y-89106428D01*
X112106166Y-91249285D02*
X112082357Y-91273095D01*
X112010928Y-91320714D01*
X111963309Y-91344523D01*
X111891880Y-91368333D01*
X111772833Y-91392142D01*
X111677595Y-91392142D01*
X111558547Y-91368333D01*
X111487119Y-91344523D01*
X111439500Y-91320714D01*
X111368071Y-91273095D01*
X111344261Y-91249285D01*
X111891880Y-91082619D02*
X111915690Y-91011190D01*
X111915690Y-90892142D01*
X111891880Y-90844523D01*
X111868071Y-90820714D01*
X111820452Y-90796904D01*
X111772833Y-90796904D01*
X111725214Y-90820714D01*
X111701404Y-90844523D01*
X111677595Y-90892142D01*
X111653785Y-90987380D01*
X111629976Y-91035000D01*
X111606166Y-91058809D01*
X111558547Y-91082619D01*
X111510928Y-91082619D01*
X111463309Y-91058809D01*
X111439500Y-91035000D01*
X111415690Y-90987380D01*
X111415690Y-90868333D01*
X111439500Y-90796904D01*
X111582357Y-90630238D02*
X111915690Y-90535000D01*
X111677595Y-90439761D01*
X111915690Y-90344523D01*
X111582357Y-90249285D01*
X111915690Y-90058809D02*
X111582357Y-90058809D01*
X111415690Y-90058809D02*
X111439500Y-90082619D01*
X111463309Y-90058809D01*
X111439500Y-90035000D01*
X111415690Y-90058809D01*
X111463309Y-90058809D01*
X111582357Y-89892142D02*
X111582357Y-89701666D01*
X111415690Y-89820714D02*
X111844261Y-89820714D01*
X111891880Y-89796904D01*
X111915690Y-89749285D01*
X111915690Y-89701666D01*
X111891880Y-89320714D02*
X111915690Y-89368333D01*
X111915690Y-89463571D01*
X111891880Y-89511190D01*
X111868071Y-89535000D01*
X111820452Y-89558809D01*
X111677595Y-89558809D01*
X111629976Y-89535000D01*
X111606166Y-89511190D01*
X111582357Y-89463571D01*
X111582357Y-89368333D01*
X111606166Y-89320714D01*
X111915690Y-89106428D02*
X111415690Y-89106428D01*
X111915690Y-88892142D02*
X111653785Y-88892142D01*
X111606166Y-88915952D01*
X111582357Y-88963571D01*
X111582357Y-89035000D01*
X111606166Y-89082619D01*
X111629976Y-89106428D01*
X111891880Y-88463571D02*
X111915690Y-88511190D01*
X111915690Y-88606428D01*
X111891880Y-88654047D01*
X111844261Y-88677857D01*
X111653785Y-88677857D01*
X111606166Y-88654047D01*
X111582357Y-88606428D01*
X111582357Y-88511190D01*
X111606166Y-88463571D01*
X111653785Y-88439761D01*
X111701404Y-88439761D01*
X111749023Y-88677857D01*
X111915690Y-88011190D02*
X111415690Y-88011190D01*
X111891880Y-88011190D02*
X111915690Y-88058809D01*
X111915690Y-88154047D01*
X111891880Y-88201666D01*
X111868071Y-88225476D01*
X111820452Y-88249285D01*
X111677595Y-88249285D01*
X111629976Y-88225476D01*
X111606166Y-88201666D01*
X111582357Y-88154047D01*
X111582357Y-88058809D01*
X111606166Y-88011190D01*
X112106166Y-87820714D02*
X112082357Y-87796904D01*
X112010928Y-87749285D01*
X111963309Y-87725476D01*
X111891880Y-87701666D01*
X111772833Y-87677857D01*
X111677595Y-87677857D01*
X111558547Y-87701666D01*
X111487119Y-87725476D01*
X111439500Y-87749285D01*
X111368071Y-87796904D01*
X111344261Y-87820714D01*
X140017904Y-76488785D02*
X139851238Y-76488785D01*
X139851238Y-76750690D02*
X139851238Y-76250690D01*
X140089333Y-76250690D01*
X140351238Y-76750690D02*
X140303619Y-76726880D01*
X140279809Y-76679261D01*
X140279809Y-76250690D01*
X140541714Y-76750690D02*
X140541714Y-76417357D01*
X140541714Y-76250690D02*
X140517904Y-76274500D01*
X140541714Y-76298309D01*
X140565523Y-76274500D01*
X140541714Y-76250690D01*
X140541714Y-76298309D01*
X140994095Y-76417357D02*
X140994095Y-76822119D01*
X140970285Y-76869738D01*
X140946476Y-76893547D01*
X140898857Y-76917357D01*
X140827428Y-76917357D01*
X140779809Y-76893547D01*
X140994095Y-76726880D02*
X140946476Y-76750690D01*
X140851238Y-76750690D01*
X140803619Y-76726880D01*
X140779809Y-76703071D01*
X140756000Y-76655452D01*
X140756000Y-76512595D01*
X140779809Y-76464976D01*
X140803619Y-76441166D01*
X140851238Y-76417357D01*
X140946476Y-76417357D01*
X140994095Y-76441166D01*
X141232190Y-76750690D02*
X141232190Y-76250690D01*
X141446476Y-76750690D02*
X141446476Y-76488785D01*
X141422666Y-76441166D01*
X141375047Y-76417357D01*
X141303619Y-76417357D01*
X141256000Y-76441166D01*
X141232190Y-76464976D01*
X141613142Y-76417357D02*
X141803619Y-76417357D01*
X141684571Y-76250690D02*
X141684571Y-76679261D01*
X141708380Y-76726880D01*
X141756000Y-76750690D01*
X141803619Y-76750690D01*
X142136952Y-76488785D02*
X142208380Y-76512595D01*
X142232190Y-76536404D01*
X142256000Y-76584023D01*
X142256000Y-76655452D01*
X142232190Y-76703071D01*
X142208380Y-76726880D01*
X142160761Y-76750690D01*
X141970285Y-76750690D01*
X141970285Y-76250690D01*
X142136952Y-76250690D01*
X142184571Y-76274500D01*
X142208380Y-76298309D01*
X142232190Y-76345928D01*
X142232190Y-76393547D01*
X142208380Y-76441166D01*
X142184571Y-76464976D01*
X142136952Y-76488785D01*
X141970285Y-76488785D01*
X142470285Y-76750690D02*
X142470285Y-76417357D01*
X142470285Y-76512595D02*
X142494095Y-76464976D01*
X142517904Y-76441166D01*
X142565523Y-76417357D01*
X142613142Y-76417357D01*
X142779809Y-76750690D02*
X142779809Y-76417357D01*
X142779809Y-76250690D02*
X142756000Y-76274500D01*
X142779809Y-76298309D01*
X142803619Y-76274500D01*
X142779809Y-76250690D01*
X142779809Y-76298309D01*
X143232190Y-76750690D02*
X143232190Y-76250690D01*
X143232190Y-76726880D02*
X143184571Y-76750690D01*
X143089333Y-76750690D01*
X143041714Y-76726880D01*
X143017904Y-76703071D01*
X142994095Y-76655452D01*
X142994095Y-76512595D01*
X143017904Y-76464976D01*
X143041714Y-76441166D01*
X143089333Y-76417357D01*
X143184571Y-76417357D01*
X143232190Y-76441166D01*
X143684571Y-76417357D02*
X143684571Y-76822119D01*
X143660761Y-76869738D01*
X143636952Y-76893547D01*
X143589333Y-76917357D01*
X143517904Y-76917357D01*
X143470285Y-76893547D01*
X143684571Y-76726880D02*
X143636952Y-76750690D01*
X143541714Y-76750690D01*
X143494095Y-76726880D01*
X143470285Y-76703071D01*
X143446476Y-76655452D01*
X143446476Y-76512595D01*
X143470285Y-76464976D01*
X143494095Y-76441166D01*
X143541714Y-76417357D01*
X143636952Y-76417357D01*
X143684571Y-76441166D01*
X144113142Y-76726880D02*
X144065523Y-76750690D01*
X143970285Y-76750690D01*
X143922666Y-76726880D01*
X143898857Y-76679261D01*
X143898857Y-76488785D01*
X143922666Y-76441166D01*
X143970285Y-76417357D01*
X144065523Y-76417357D01*
X144113142Y-76441166D01*
X144136952Y-76488785D01*
X144136952Y-76536404D01*
X143898857Y-76584023D01*
X145017904Y-76750690D02*
X144851238Y-76512595D01*
X144732190Y-76750690D02*
X144732190Y-76250690D01*
X144922666Y-76250690D01*
X144970285Y-76274500D01*
X144994095Y-76298309D01*
X145017904Y-76345928D01*
X145017904Y-76417357D01*
X144994095Y-76464976D01*
X144970285Y-76488785D01*
X144922666Y-76512595D01*
X144732190Y-76512595D01*
X145422666Y-76726880D02*
X145375047Y-76750690D01*
X145279809Y-76750690D01*
X145232190Y-76726880D01*
X145208380Y-76679261D01*
X145208380Y-76488785D01*
X145232190Y-76441166D01*
X145279809Y-76417357D01*
X145375047Y-76417357D01*
X145422666Y-76441166D01*
X145446476Y-76488785D01*
X145446476Y-76536404D01*
X145208380Y-76584023D01*
X145613142Y-76417357D02*
X145732190Y-76750690D01*
X145851238Y-76417357D01*
X146375047Y-76250690D02*
X146684571Y-76250690D01*
X146517904Y-76441166D01*
X146589333Y-76441166D01*
X146636952Y-76464976D01*
X146660761Y-76488785D01*
X146684571Y-76536404D01*
X146684571Y-76655452D01*
X146660761Y-76703071D01*
X146636952Y-76726880D01*
X146589333Y-76750690D01*
X146446476Y-76750690D01*
X146398857Y-76726880D01*
X146375047Y-76703071D01*
X138339333Y-77578071D02*
X138315523Y-77601880D01*
X138244095Y-77625690D01*
X138196476Y-77625690D01*
X138125047Y-77601880D01*
X138077428Y-77554261D01*
X138053619Y-77506642D01*
X138029809Y-77411404D01*
X138029809Y-77339976D01*
X138053619Y-77244738D01*
X138077428Y-77197119D01*
X138125047Y-77149500D01*
X138196476Y-77125690D01*
X138244095Y-77125690D01*
X138315523Y-77149500D01*
X138339333Y-77173309D01*
X138625047Y-77625690D02*
X138577428Y-77601880D01*
X138553619Y-77578071D01*
X138529809Y-77530452D01*
X138529809Y-77387595D01*
X138553619Y-77339976D01*
X138577428Y-77316166D01*
X138625047Y-77292357D01*
X138696476Y-77292357D01*
X138744095Y-77316166D01*
X138767904Y-77339976D01*
X138791714Y-77387595D01*
X138791714Y-77530452D01*
X138767904Y-77578071D01*
X138744095Y-77601880D01*
X138696476Y-77625690D01*
X138625047Y-77625690D01*
X139006000Y-77292357D02*
X139006000Y-77625690D01*
X139006000Y-77339976D02*
X139029809Y-77316166D01*
X139077428Y-77292357D01*
X139148857Y-77292357D01*
X139196476Y-77316166D01*
X139220285Y-77363785D01*
X139220285Y-77625690D01*
X139458380Y-77292357D02*
X139458380Y-77625690D01*
X139458380Y-77339976D02*
X139482190Y-77316166D01*
X139529809Y-77292357D01*
X139601238Y-77292357D01*
X139648857Y-77316166D01*
X139672666Y-77363785D01*
X139672666Y-77625690D01*
X139982190Y-77625690D02*
X139934571Y-77601880D01*
X139910761Y-77578071D01*
X139886952Y-77530452D01*
X139886952Y-77387595D01*
X139910761Y-77339976D01*
X139934571Y-77316166D01*
X139982190Y-77292357D01*
X140053619Y-77292357D01*
X140101238Y-77316166D01*
X140125047Y-77339976D01*
X140148857Y-77387595D01*
X140148857Y-77530452D01*
X140125047Y-77578071D01*
X140101238Y-77601880D01*
X140053619Y-77625690D01*
X139982190Y-77625690D01*
X140363142Y-77625690D02*
X140363142Y-77292357D01*
X140363142Y-77387595D02*
X140386952Y-77339976D01*
X140410761Y-77316166D01*
X140458380Y-77292357D01*
X140506000Y-77292357D01*
X141339333Y-77625690D02*
X141172666Y-77387595D01*
X141053619Y-77625690D02*
X141053619Y-77125690D01*
X141244095Y-77125690D01*
X141291714Y-77149500D01*
X141315523Y-77173309D01*
X141339333Y-77220928D01*
X141339333Y-77292357D01*
X141315523Y-77339976D01*
X141291714Y-77363785D01*
X141244095Y-77387595D01*
X141053619Y-77387595D01*
X141767904Y-77625690D02*
X141767904Y-77363785D01*
X141744095Y-77316166D01*
X141696476Y-77292357D01*
X141601238Y-77292357D01*
X141553619Y-77316166D01*
X141767904Y-77601880D02*
X141720285Y-77625690D01*
X141601238Y-77625690D01*
X141553619Y-77601880D01*
X141529809Y-77554261D01*
X141529809Y-77506642D01*
X141553619Y-77459023D01*
X141601238Y-77435214D01*
X141720285Y-77435214D01*
X141767904Y-77411404D01*
X142220285Y-77292357D02*
X142220285Y-77697119D01*
X142196476Y-77744738D01*
X142172666Y-77768547D01*
X142125047Y-77792357D01*
X142053619Y-77792357D01*
X142006000Y-77768547D01*
X142220285Y-77601880D02*
X142172666Y-77625690D01*
X142077428Y-77625690D01*
X142029809Y-77601880D01*
X142006000Y-77578071D01*
X141982190Y-77530452D01*
X141982190Y-77387595D01*
X142006000Y-77339976D01*
X142029809Y-77316166D01*
X142077428Y-77292357D01*
X142172666Y-77292357D01*
X142220285Y-77316166D01*
X142672666Y-77292357D02*
X142672666Y-77697119D01*
X142648857Y-77744738D01*
X142625047Y-77768547D01*
X142577428Y-77792357D01*
X142506000Y-77792357D01*
X142458380Y-77768547D01*
X142672666Y-77601880D02*
X142625047Y-77625690D01*
X142529809Y-77625690D01*
X142482190Y-77601880D01*
X142458380Y-77578071D01*
X142434571Y-77530452D01*
X142434571Y-77387595D01*
X142458380Y-77339976D01*
X142482190Y-77316166D01*
X142529809Y-77292357D01*
X142625047Y-77292357D01*
X142672666Y-77316166D01*
X143125047Y-77625690D02*
X143125047Y-77363785D01*
X143101238Y-77316166D01*
X143053619Y-77292357D01*
X142958380Y-77292357D01*
X142910761Y-77316166D01*
X143125047Y-77601880D02*
X143077428Y-77625690D01*
X142958380Y-77625690D01*
X142910761Y-77601880D01*
X142886952Y-77554261D01*
X142886952Y-77506642D01*
X142910761Y-77459023D01*
X142958380Y-77435214D01*
X143077428Y-77435214D01*
X143125047Y-77411404D01*
X143291714Y-77292357D02*
X143482190Y-77292357D01*
X143363142Y-77125690D02*
X143363142Y-77554261D01*
X143386952Y-77601880D01*
X143434571Y-77625690D01*
X143482190Y-77625690D01*
X143577428Y-77292357D02*
X143767904Y-77292357D01*
X143648857Y-77125690D02*
X143648857Y-77554261D01*
X143672666Y-77601880D01*
X143720285Y-77625690D01*
X143767904Y-77625690D01*
X144529809Y-77125690D02*
X144434571Y-77125690D01*
X144386952Y-77149500D01*
X144363142Y-77173309D01*
X144315523Y-77244738D01*
X144291714Y-77339976D01*
X144291714Y-77530452D01*
X144315523Y-77578071D01*
X144339333Y-77601880D01*
X144386952Y-77625690D01*
X144482190Y-77625690D01*
X144529809Y-77601880D01*
X144553619Y-77578071D01*
X144577428Y-77530452D01*
X144577428Y-77411404D01*
X144553619Y-77363785D01*
X144529809Y-77339976D01*
X144482190Y-77316166D01*
X144386952Y-77316166D01*
X144339333Y-77339976D01*
X144315523Y-77363785D01*
X144291714Y-77411404D01*
X145148857Y-77101880D02*
X144720285Y-77744738D01*
X145410761Y-77125690D02*
X145458380Y-77125690D01*
X145506000Y-77149500D01*
X145529809Y-77173309D01*
X145553619Y-77220928D01*
X145577428Y-77316166D01*
X145577428Y-77435214D01*
X145553619Y-77530452D01*
X145529809Y-77578071D01*
X145506000Y-77601880D01*
X145458380Y-77625690D01*
X145410761Y-77625690D01*
X145363142Y-77601880D01*
X145339333Y-77578071D01*
X145315523Y-77530452D01*
X145291714Y-77435214D01*
X145291714Y-77316166D01*
X145315523Y-77220928D01*
X145339333Y-77173309D01*
X145363142Y-77149500D01*
X145410761Y-77125690D01*
X146029809Y-77125690D02*
X145791714Y-77125690D01*
X145767904Y-77363785D01*
X145791714Y-77339976D01*
X145839333Y-77316166D01*
X145958380Y-77316166D01*
X146006000Y-77339976D01*
X146029809Y-77363785D01*
X146053619Y-77411404D01*
X146053619Y-77530452D01*
X146029809Y-77578071D01*
X146006000Y-77601880D01*
X145958380Y-77625690D01*
X145839333Y-77625690D01*
X145791714Y-77601880D01*
X145767904Y-77578071D01*
X146625047Y-77101880D02*
X146196476Y-77744738D01*
X146767904Y-77173309D02*
X146791714Y-77149500D01*
X146839333Y-77125690D01*
X146958380Y-77125690D01*
X147006000Y-77149500D01*
X147029809Y-77173309D01*
X147053619Y-77220928D01*
X147053619Y-77268547D01*
X147029809Y-77339976D01*
X146744095Y-77625690D01*
X147053619Y-77625690D01*
X147363142Y-77125690D02*
X147410761Y-77125690D01*
X147458380Y-77149500D01*
X147482190Y-77173309D01*
X147506000Y-77220928D01*
X147529809Y-77316166D01*
X147529809Y-77435214D01*
X147506000Y-77530452D01*
X147482190Y-77578071D01*
X147458380Y-77601880D01*
X147410761Y-77625690D01*
X147363142Y-77625690D01*
X147315523Y-77601880D01*
X147291714Y-77578071D01*
X147267904Y-77530452D01*
X147244095Y-77435214D01*
X147244095Y-77316166D01*
X147267904Y-77220928D01*
X147291714Y-77173309D01*
X147315523Y-77149500D01*
X147363142Y-77125690D01*
X147720285Y-77173309D02*
X147744095Y-77149500D01*
X147791714Y-77125690D01*
X147910761Y-77125690D01*
X147958380Y-77149500D01*
X147982190Y-77173309D01*
X148006000Y-77220928D01*
X148006000Y-77268547D01*
X147982190Y-77339976D01*
X147696476Y-77625690D01*
X148006000Y-77625690D01*
X148482190Y-77625690D02*
X148196476Y-77625690D01*
X148339333Y-77625690D02*
X148339333Y-77125690D01*
X148291714Y-77197119D01*
X148244095Y-77244738D01*
X148196476Y-77268547D01*
X167874190Y-86979047D02*
X167874190Y-86669523D01*
X168064666Y-86836190D01*
X168064666Y-86764761D01*
X168088476Y-86717142D01*
X168112285Y-86693333D01*
X168159904Y-86669523D01*
X168278952Y-86669523D01*
X168326571Y-86693333D01*
X168350380Y-86717142D01*
X168374190Y-86764761D01*
X168374190Y-86907619D01*
X168350380Y-86955238D01*
X168326571Y-86979047D01*
X167874190Y-86526666D02*
X168374190Y-86360000D01*
X167874190Y-86193333D01*
X167874190Y-86074285D02*
X167874190Y-85764761D01*
X168064666Y-85931428D01*
X168064666Y-85860000D01*
X168088476Y-85812380D01*
X168112285Y-85788571D01*
X168159904Y-85764761D01*
X168278952Y-85764761D01*
X168326571Y-85788571D01*
X168350380Y-85812380D01*
X168374190Y-85860000D01*
X168374190Y-86002857D01*
X168350380Y-86050476D01*
X168326571Y-86074285D01*
X168374190Y-84605714D02*
X167874190Y-84605714D01*
X168231333Y-84439047D01*
X167874190Y-84272380D01*
X168374190Y-84272380D01*
X167874190Y-83939047D02*
X167874190Y-83843809D01*
X167898000Y-83796190D01*
X167945619Y-83748571D01*
X168040857Y-83724761D01*
X168207523Y-83724761D01*
X168302761Y-83748571D01*
X168350380Y-83796190D01*
X168374190Y-83843809D01*
X168374190Y-83939047D01*
X168350380Y-83986666D01*
X168302761Y-84034285D01*
X168207523Y-84058095D01*
X168040857Y-84058095D01*
X167945619Y-84034285D01*
X167898000Y-83986666D01*
X167874190Y-83939047D01*
X168350380Y-83534285D02*
X168374190Y-83462857D01*
X168374190Y-83343809D01*
X168350380Y-83296190D01*
X168326571Y-83272380D01*
X168278952Y-83248571D01*
X168231333Y-83248571D01*
X168183714Y-83272380D01*
X168159904Y-83296190D01*
X168136095Y-83343809D01*
X168112285Y-83439047D01*
X168088476Y-83486666D01*
X168064666Y-83510476D01*
X168017047Y-83534285D01*
X167969428Y-83534285D01*
X167921809Y-83510476D01*
X167898000Y-83486666D01*
X167874190Y-83439047D01*
X167874190Y-83320000D01*
X167898000Y-83248571D01*
X168374190Y-83034285D02*
X167874190Y-83034285D01*
X167898000Y-81660952D02*
X167874190Y-81708571D01*
X167874190Y-81780000D01*
X167898000Y-81851428D01*
X167945619Y-81899047D01*
X167993238Y-81922857D01*
X168088476Y-81946666D01*
X168159904Y-81946666D01*
X168255142Y-81922857D01*
X168302761Y-81899047D01*
X168350380Y-81851428D01*
X168374190Y-81780000D01*
X168374190Y-81732380D01*
X168350380Y-81660952D01*
X168326571Y-81637142D01*
X168159904Y-81637142D01*
X168159904Y-81732380D01*
X168374190Y-81422857D02*
X167874190Y-81422857D01*
X168374190Y-81137142D01*
X167874190Y-81137142D01*
X168374190Y-80899047D02*
X167874190Y-80899047D01*
X167874190Y-80780000D01*
X167898000Y-80708571D01*
X167945619Y-80660952D01*
X167993238Y-80637142D01*
X168088476Y-80613333D01*
X168159904Y-80613333D01*
X168255142Y-80637142D01*
X168302761Y-80660952D01*
X168350380Y-80708571D01*
X168374190Y-80780000D01*
X168374190Y-80899047D01*
X130123380Y-92459857D02*
X130147190Y-92388428D01*
X130147190Y-92269380D01*
X130123380Y-92221761D01*
X130099571Y-92197952D01*
X130051952Y-92174142D01*
X130004333Y-92174142D01*
X129956714Y-92197952D01*
X129932904Y-92221761D01*
X129909095Y-92269380D01*
X129885285Y-92364619D01*
X129861476Y-92412238D01*
X129837666Y-92436047D01*
X129790047Y-92459857D01*
X129742428Y-92459857D01*
X129694809Y-92436047D01*
X129671000Y-92412238D01*
X129647190Y-92364619D01*
X129647190Y-92245571D01*
X129671000Y-92174142D01*
X129885285Y-91793190D02*
X129909095Y-91721761D01*
X129932904Y-91697952D01*
X129980523Y-91674142D01*
X130051952Y-91674142D01*
X130099571Y-91697952D01*
X130123380Y-91721761D01*
X130147190Y-91769380D01*
X130147190Y-91959857D01*
X129647190Y-91959857D01*
X129647190Y-91793190D01*
X129671000Y-91745571D01*
X129694809Y-91721761D01*
X129742428Y-91697952D01*
X129790047Y-91697952D01*
X129837666Y-91721761D01*
X129861476Y-91745571D01*
X129885285Y-91793190D01*
X129885285Y-91959857D01*
X129647190Y-91459857D02*
X130051952Y-91459857D01*
X130099571Y-91436047D01*
X130123380Y-91412238D01*
X130147190Y-91364619D01*
X130147190Y-91269380D01*
X130123380Y-91221761D01*
X130099571Y-91197952D01*
X130051952Y-91174142D01*
X129647190Y-91174142D01*
X130123380Y-90959857D02*
X130147190Y-90888428D01*
X130147190Y-90769380D01*
X130123380Y-90721761D01*
X130099571Y-90697952D01*
X130051952Y-90674142D01*
X130004333Y-90674142D01*
X129956714Y-90697952D01*
X129932904Y-90721761D01*
X129909095Y-90769380D01*
X129885285Y-90864619D01*
X129861476Y-90912238D01*
X129837666Y-90936047D01*
X129790047Y-90959857D01*
X129742428Y-90959857D01*
X129694809Y-90936047D01*
X129671000Y-90912238D01*
X129647190Y-90864619D01*
X129647190Y-90745571D01*
X129671000Y-90674142D01*
X132298285Y-92511380D02*
X132298285Y-92678047D01*
X132560190Y-92678047D02*
X132060190Y-92678047D01*
X132060190Y-92439952D01*
X132512571Y-91963761D02*
X132536380Y-91987571D01*
X132560190Y-92059000D01*
X132560190Y-92106619D01*
X132536380Y-92178047D01*
X132488761Y-92225666D01*
X132441142Y-92249476D01*
X132345904Y-92273285D01*
X132274476Y-92273285D01*
X132179238Y-92249476D01*
X132131619Y-92225666D01*
X132084000Y-92178047D01*
X132060190Y-92106619D01*
X132060190Y-92059000D01*
X132084000Y-91987571D01*
X132107809Y-91963761D01*
X132060190Y-91439952D02*
X132060190Y-91154238D01*
X132560190Y-91297095D02*
X132060190Y-91297095D01*
X132536380Y-90797095D02*
X132560190Y-90844714D01*
X132560190Y-90939952D01*
X132536380Y-90987571D01*
X132488761Y-91011380D01*
X132298285Y-91011380D01*
X132250666Y-90987571D01*
X132226857Y-90939952D01*
X132226857Y-90844714D01*
X132250666Y-90797095D01*
X132298285Y-90773285D01*
X132345904Y-90773285D01*
X132393523Y-91011380D01*
X132560190Y-90487571D02*
X132536380Y-90535190D01*
X132488761Y-90559000D01*
X132060190Y-90559000D01*
X132536380Y-90106619D02*
X132560190Y-90154238D01*
X132560190Y-90249476D01*
X132536380Y-90297095D01*
X132488761Y-90320904D01*
X132298285Y-90320904D01*
X132250666Y-90297095D01*
X132226857Y-90249476D01*
X132226857Y-90154238D01*
X132250666Y-90106619D01*
X132298285Y-90082809D01*
X132345904Y-90082809D01*
X132393523Y-90320904D01*
X132560190Y-89868523D02*
X132226857Y-89868523D01*
X132274476Y-89868523D02*
X132250666Y-89844714D01*
X132226857Y-89797095D01*
X132226857Y-89725666D01*
X132250666Y-89678047D01*
X132298285Y-89654238D01*
X132560190Y-89654238D01*
X132298285Y-89654238D02*
X132250666Y-89630428D01*
X132226857Y-89582809D01*
X132226857Y-89511380D01*
X132250666Y-89463761D01*
X132298285Y-89439952D01*
X132560190Y-89439952D01*
X134751000Y-92455952D02*
X134727190Y-92503571D01*
X134727190Y-92575000D01*
X134751000Y-92646428D01*
X134798619Y-92694047D01*
X134846238Y-92717857D01*
X134941476Y-92741666D01*
X135012904Y-92741666D01*
X135108142Y-92717857D01*
X135155761Y-92694047D01*
X135203380Y-92646428D01*
X135227190Y-92575000D01*
X135227190Y-92527380D01*
X135203380Y-92455952D01*
X135179571Y-92432142D01*
X135012904Y-92432142D01*
X135012904Y-92527380D01*
X135227190Y-92217857D02*
X134727190Y-92217857D01*
X135227190Y-91932142D01*
X134727190Y-91932142D01*
X135227190Y-91694047D02*
X134727190Y-91694047D01*
X134727190Y-91575000D01*
X134751000Y-91503571D01*
X134798619Y-91455952D01*
X134846238Y-91432142D01*
X134941476Y-91408333D01*
X135012904Y-91408333D01*
X135108142Y-91432142D01*
X135155761Y-91455952D01*
X135203380Y-91503571D01*
X135227190Y-91575000D01*
X135227190Y-91694047D01*
X137267190Y-92170238D02*
X137267190Y-92408333D01*
X137505285Y-92432142D01*
X137481476Y-92408333D01*
X137457666Y-92360714D01*
X137457666Y-92241666D01*
X137481476Y-92194047D01*
X137505285Y-92170238D01*
X137552904Y-92146428D01*
X137671952Y-92146428D01*
X137719571Y-92170238D01*
X137743380Y-92194047D01*
X137767190Y-92241666D01*
X137767190Y-92360714D01*
X137743380Y-92408333D01*
X137719571Y-92432142D01*
X137267190Y-92003571D02*
X137767190Y-91836904D01*
X137267190Y-91670238D01*
X115931190Y-79105047D02*
X115931190Y-78795523D01*
X116121666Y-78962190D01*
X116121666Y-78890761D01*
X116145476Y-78843142D01*
X116169285Y-78819333D01*
X116216904Y-78795523D01*
X116335952Y-78795523D01*
X116383571Y-78819333D01*
X116407380Y-78843142D01*
X116431190Y-78890761D01*
X116431190Y-79033619D01*
X116407380Y-79081238D01*
X116383571Y-79105047D01*
X115931190Y-78652666D02*
X116431190Y-78486000D01*
X115931190Y-78319333D01*
X115931190Y-78200285D02*
X115931190Y-77890761D01*
X116121666Y-78057428D01*
X116121666Y-77986000D01*
X116145476Y-77938380D01*
X116169285Y-77914571D01*
X116216904Y-77890761D01*
X116335952Y-77890761D01*
X116383571Y-77914571D01*
X116407380Y-77938380D01*
X116431190Y-77986000D01*
X116431190Y-78128857D01*
X116407380Y-78176476D01*
X116383571Y-78200285D01*
X115931190Y-75787238D02*
X115931190Y-76025333D01*
X116169285Y-76049142D01*
X116145476Y-76025333D01*
X116121666Y-75977714D01*
X116121666Y-75858666D01*
X116145476Y-75811047D01*
X116169285Y-75787238D01*
X116216904Y-75763428D01*
X116335952Y-75763428D01*
X116383571Y-75787238D01*
X116407380Y-75811047D01*
X116431190Y-75858666D01*
X116431190Y-75977714D01*
X116407380Y-76025333D01*
X116383571Y-76049142D01*
X115931190Y-75620571D02*
X116431190Y-75453904D01*
X115931190Y-75287238D01*
D12*
%TO.C,G\u002A\u002A\u002A*%
G36*
X144716937Y-78464412D02*
G01*
X145613070Y-78885452D01*
X146374949Y-79515206D01*
X146980849Y-80339423D01*
X147044053Y-80454500D01*
X147212493Y-80805969D01*
X147314019Y-81136143D01*
X147364725Y-81529904D01*
X147380705Y-82072134D01*
X147381161Y-82232500D01*
X147370987Y-82823454D01*
X147329676Y-83246326D01*
X147241040Y-83586593D01*
X147088894Y-83929731D01*
X147042946Y-84018558D01*
X146651397Y-84608919D01*
X146142846Y-85160112D01*
X145593185Y-85597720D01*
X145233439Y-85792949D01*
X144909593Y-85994881D01*
X144554801Y-86311941D01*
X144405432Y-86479108D01*
X144100977Y-86816466D01*
X143881031Y-86986993D01*
X143771500Y-86972671D01*
X143764000Y-86925193D01*
X143816696Y-86774650D01*
X143944015Y-86507302D01*
X143949297Y-86497060D01*
X144134594Y-86138735D01*
X143629948Y-86106000D01*
X144272000Y-86106000D01*
X144318467Y-86210535D01*
X144356666Y-86190666D01*
X144371866Y-86039947D01*
X144356666Y-86021333D01*
X144281165Y-86038766D01*
X144272000Y-86106000D01*
X143629948Y-86106000D01*
X143219047Y-86079346D01*
X142233724Y-85911059D01*
X141400375Y-85540308D01*
X140710045Y-84961144D01*
X140153779Y-84167619D01*
X140055346Y-83977638D01*
X139821334Y-83458155D01*
X139694433Y-83023298D01*
X139693939Y-83018581D01*
X139845747Y-83018581D01*
X139942520Y-83333075D01*
X140168346Y-83826832D01*
X140215579Y-83922046D01*
X140743433Y-84723161D01*
X141432181Y-85328685D01*
X142291252Y-85746971D01*
X142813224Y-85886951D01*
X143337799Y-85961221D01*
X143785768Y-85963837D01*
X144077925Y-85888859D01*
X144088710Y-85881805D01*
X144271115Y-85645392D01*
X144414105Y-85253492D01*
X144514641Y-84762685D01*
X144569684Y-84229551D01*
X144576195Y-83710672D01*
X144531136Y-83262628D01*
X144431468Y-82942000D01*
X144274152Y-82805369D01*
X144254008Y-82804000D01*
X144166434Y-82708370D01*
X144171067Y-82641998D01*
X144122233Y-82444328D01*
X143954242Y-82162805D01*
X143908135Y-82102248D01*
X143608001Y-81724500D01*
X143657606Y-82264250D01*
X143676378Y-82602474D01*
X143626189Y-82758642D01*
X143472034Y-82802417D01*
X143386356Y-82804078D01*
X143199046Y-82787466D01*
X143110432Y-82694640D01*
X143093114Y-82461297D01*
X143110365Y-82156358D01*
X143128825Y-81779144D01*
X143101256Y-81599816D01*
X143005966Y-81563426D01*
X142888115Y-81593337D01*
X142673630Y-81610889D01*
X142621000Y-81542558D01*
X142524213Y-81412456D01*
X142486504Y-81407000D01*
X142410655Y-81484804D01*
X142430500Y-81534000D01*
X142426465Y-81651291D01*
X142385078Y-81661000D01*
X142234172Y-81560813D01*
X142204470Y-81502250D01*
X142090642Y-81419484D01*
X142035136Y-81450133D01*
X142047565Y-81590359D01*
X142230703Y-81801083D01*
X142282948Y-81844833D01*
X142552098Y-82144739D01*
X142600448Y-82436699D01*
X142559782Y-82594723D01*
X142455380Y-82689432D01*
X142230335Y-82741005D01*
X141827740Y-82769621D01*
X141638615Y-82777776D01*
X141163100Y-82789963D01*
X140894859Y-82772545D01*
X140788035Y-82716892D01*
X140794952Y-82619026D01*
X140786082Y-82471075D01*
X140574585Y-82423380D01*
X140539087Y-82423000D01*
X140273578Y-82486934D01*
X140208000Y-82613500D01*
X140106340Y-82781872D01*
X140017500Y-82804000D01*
X139872561Y-82852504D01*
X139845747Y-83018581D01*
X139693939Y-83018581D01*
X139644177Y-82544175D01*
X139640802Y-82358097D01*
X139730013Y-82358097D01*
X139783077Y-82533574D01*
X139904436Y-82470495D01*
X140077886Y-82166175D01*
X140131051Y-82042000D01*
X140462000Y-82042000D01*
X140508467Y-82146535D01*
X140546666Y-82126666D01*
X140561608Y-81978500D01*
X140716000Y-81978500D01*
X140779500Y-82042000D01*
X140843000Y-81978500D01*
X140779500Y-81915000D01*
X140716000Y-81978500D01*
X140561608Y-81978500D01*
X140561866Y-81975947D01*
X140546666Y-81957333D01*
X140471165Y-81974766D01*
X140462000Y-82042000D01*
X140131051Y-82042000D01*
X140144645Y-82010250D01*
X140290691Y-81648492D01*
X140401113Y-81374042D01*
X140426022Y-81311750D01*
X140376790Y-81198690D01*
X140204281Y-81153000D01*
X140727685Y-81153000D01*
X141038358Y-81819750D01*
X141256992Y-82217660D01*
X141447337Y-82428495D01*
X141530939Y-82451381D01*
X141743409Y-82495667D01*
X141793418Y-82546631D01*
X141975822Y-82671741D01*
X142159551Y-82576218D01*
X142170498Y-82559711D01*
X142125812Y-82418507D01*
X141923615Y-82217403D01*
X141860493Y-82170063D01*
X141557237Y-81862502D01*
X141527392Y-81724500D01*
X141605000Y-81724500D01*
X141668500Y-81788000D01*
X141732000Y-81724500D01*
X141668500Y-81661000D01*
X141605000Y-81724500D01*
X141527392Y-81724500D01*
X141490553Y-81554162D01*
X141630400Y-81305399D01*
X141674226Y-81208149D01*
X141527359Y-81162236D01*
X141255242Y-81152999D01*
X140727685Y-81153000D01*
X140204281Y-81153000D01*
X140194271Y-81150349D01*
X139994112Y-81180966D01*
X139910361Y-81248250D01*
X139858273Y-81421375D01*
X139792819Y-81752227D01*
X139761446Y-81946750D01*
X139730013Y-82358097D01*
X139640802Y-82358097D01*
X139638163Y-82212686D01*
X139636500Y-81291774D01*
X138112500Y-81412018D01*
X138668299Y-81153900D01*
X138817540Y-81089500D01*
X139192000Y-81089500D01*
X139255500Y-81153000D01*
X139319000Y-81089500D01*
X139255500Y-81026000D01*
X139192000Y-81089500D01*
X138817540Y-81089500D01*
X139067855Y-80981486D01*
X139119106Y-80962500D01*
X139700000Y-80962500D01*
X139763500Y-81026000D01*
X139827000Y-80962500D01*
X139763500Y-80899000D01*
X139700000Y-80962500D01*
X139119106Y-80962500D01*
X139314047Y-80890285D01*
X139954000Y-80890285D01*
X140074685Y-80946124D01*
X140411485Y-80999489D01*
X140926513Y-81047613D01*
X141581884Y-81087726D01*
X142339711Y-81117061D01*
X143162110Y-81132850D01*
X143287750Y-81133872D01*
X143744402Y-81144096D01*
X144002552Y-81178591D01*
X144117598Y-81254577D01*
X144144938Y-81389268D01*
X144145000Y-81400291D01*
X144084384Y-81616993D01*
X143956256Y-81645051D01*
X143855470Y-81502250D01*
X143751041Y-81408560D01*
X143705036Y-81430433D01*
X143721638Y-81568242D01*
X143879294Y-81802807D01*
X143941649Y-81873636D01*
X144272000Y-82229904D01*
X144272000Y-81728485D01*
X144653000Y-81728485D01*
X144732735Y-81896120D01*
X144894122Y-81877647D01*
X144962275Y-81801307D01*
X144928464Y-81666805D01*
X144842770Y-81614793D01*
X144679451Y-81634952D01*
X144653000Y-81728485D01*
X144272000Y-81728485D01*
X144272000Y-81691452D01*
X144283696Y-81353566D01*
X144356572Y-81198490D01*
X144547309Y-81155072D01*
X144700949Y-81153000D01*
X145123458Y-81231626D01*
X145345711Y-81465271D01*
X145364764Y-81850586D01*
X145355298Y-81897707D01*
X145335807Y-82200178D01*
X145407564Y-82354904D01*
X145531394Y-82543389D01*
X145542000Y-82620995D01*
X145446610Y-82760055D01*
X145245700Y-82800492D01*
X145067155Y-82736317D01*
X145023973Y-82645250D01*
X144998445Y-82551662D01*
X144949890Y-82645250D01*
X144782038Y-82792408D01*
X144712523Y-82804000D01*
X144606723Y-82855752D01*
X144628273Y-83050614D01*
X144668471Y-83174791D01*
X144714844Y-83489471D01*
X144715805Y-83965171D01*
X144678522Y-84514411D01*
X144610158Y-85049712D01*
X144517882Y-85483595D01*
X144467371Y-85629750D01*
X144440276Y-85811058D01*
X144492465Y-85852000D01*
X144605910Y-85753057D01*
X144865356Y-85753057D01*
X145265464Y-85546153D01*
X145621058Y-85325727D01*
X146010657Y-85033355D01*
X146106694Y-84951938D01*
X146481216Y-84520832D01*
X146834050Y-83940334D01*
X147110235Y-83312863D01*
X147240159Y-82839718D01*
X147280825Y-82568671D01*
X147242220Y-82516815D01*
X147089726Y-82653300D01*
X147062031Y-82680968D01*
X146786927Y-82869402D01*
X146560419Y-82931000D01*
X146329449Y-83041459D01*
X146225407Y-83280250D01*
X146121837Y-83594433D01*
X146021760Y-83782439D01*
X145884017Y-83993325D01*
X145704902Y-84308487D01*
X145680696Y-84353939D01*
X145466426Y-84742522D01*
X145215509Y-85174747D01*
X145162602Y-85262778D01*
X144865356Y-85753057D01*
X144605910Y-85753057D01*
X144609189Y-85750198D01*
X144812746Y-85479646D01*
X145064826Y-85092628D01*
X145141052Y-84966883D01*
X145387048Y-84541093D01*
X145571924Y-84195630D01*
X145664100Y-83990333D01*
X145669000Y-83966434D01*
X145755771Y-83795198D01*
X145845436Y-83704671D01*
X146049970Y-83392332D01*
X146078917Y-83012809D01*
X145925406Y-82680224D01*
X145908215Y-82662215D01*
X145711121Y-82310739D01*
X146179014Y-82310739D01*
X146228826Y-82512841D01*
X146288125Y-82550000D01*
X146386723Y-82439994D01*
X146410731Y-82366995D01*
X146558000Y-82366995D01*
X146629008Y-82531135D01*
X146685000Y-82550000D01*
X146787187Y-82443311D01*
X146812000Y-82288504D01*
X146763110Y-82112899D01*
X146685000Y-82105500D01*
X146568143Y-82289253D01*
X146558000Y-82366995D01*
X146410731Y-82366995D01*
X146474468Y-82173201D01*
X146478625Y-82153125D01*
X146552200Y-81717682D01*
X146552139Y-81713916D01*
X146695026Y-81713916D01*
X146718376Y-81878637D01*
X146761729Y-81880604D01*
X146792046Y-81710628D01*
X146771755Y-81637187D01*
X146715363Y-81589082D01*
X146695026Y-81713916D01*
X146552139Y-81713916D01*
X146548622Y-81498775D01*
X146463054Y-81469452D01*
X146367500Y-81534000D01*
X146255839Y-81725471D01*
X146190514Y-82016333D01*
X146179014Y-82310739D01*
X145711121Y-82310739D01*
X145705665Y-82301010D01*
X145697484Y-81882575D01*
X145862907Y-81484710D01*
X146181168Y-81185216D01*
X146319875Y-81119854D01*
X146398495Y-81003588D01*
X146290209Y-80816746D01*
X146039296Y-80593964D01*
X145690034Y-80369880D01*
X145286701Y-80179129D01*
X144995533Y-80083889D01*
X144645567Y-80002107D01*
X144342520Y-79963555D01*
X144015055Y-79970419D01*
X143591833Y-80024885D01*
X143001518Y-80129139D01*
X142900033Y-80148103D01*
X142264659Y-80273766D01*
X141651307Y-80406370D01*
X141146728Y-80526631D01*
X140923666Y-80587402D01*
X140531352Y-80694751D01*
X140224473Y-80761323D01*
X140129916Y-80771999D01*
X139970417Y-80840532D01*
X139954000Y-80890285D01*
X139314047Y-80890285D01*
X139419999Y-80851036D01*
X139520860Y-80821300D01*
X139772643Y-80662231D01*
X139847896Y-80574583D01*
X140223760Y-80574583D01*
X140225263Y-80576161D01*
X140362920Y-80569091D01*
X140652789Y-80497748D01*
X140779500Y-80459257D01*
X141107595Y-80372117D01*
X141614192Y-80257829D01*
X142227394Y-80131887D01*
X142811500Y-80021293D01*
X143464663Y-79906130D01*
X143932696Y-79837381D01*
X144279800Y-79812979D01*
X144570174Y-79830855D01*
X144868020Y-79888943D01*
X145097497Y-79947672D01*
X145609925Y-80132866D01*
X146061724Y-80383174D01*
X146395208Y-80658342D01*
X146552689Y-80918113D01*
X146558000Y-80966853D01*
X146648355Y-81111339D01*
X146850039Y-81243948D01*
X147058983Y-81312460D01*
X147168482Y-81273173D01*
X147136869Y-81113274D01*
X147014250Y-80807010D01*
X146888744Y-80544136D01*
X146358557Y-79756228D01*
X145681183Y-79151014D01*
X144893768Y-78736442D01*
X144033460Y-78520459D01*
X143137405Y-78511013D01*
X142242752Y-78716051D01*
X141386648Y-79143520D01*
X141144400Y-79315169D01*
X140893745Y-79547625D01*
X140629611Y-79853922D01*
X140398739Y-80169933D01*
X140247875Y-80431530D01*
X140223760Y-80574583D01*
X139847896Y-80574583D01*
X140046024Y-80343824D01*
X140138916Y-80198571D01*
X140708554Y-79456691D01*
X141434243Y-78870090D01*
X142266144Y-78465748D01*
X143154417Y-78270645D01*
X143708273Y-78266335D01*
X144716937Y-78464412D01*
G37*
X144716937Y-78464412D02*
X145613070Y-78885452D01*
X146374949Y-79515206D01*
X146980849Y-80339423D01*
X147044053Y-80454500D01*
X147212493Y-80805969D01*
X147314019Y-81136143D01*
X147364725Y-81529904D01*
X147380705Y-82072134D01*
X147381161Y-82232500D01*
X147370987Y-82823454D01*
X147329676Y-83246326D01*
X147241040Y-83586593D01*
X147088894Y-83929731D01*
X147042946Y-84018558D01*
X146651397Y-84608919D01*
X146142846Y-85160112D01*
X145593185Y-85597720D01*
X145233439Y-85792949D01*
X144909593Y-85994881D01*
X144554801Y-86311941D01*
X144405432Y-86479108D01*
X144100977Y-86816466D01*
X143881031Y-86986993D01*
X143771500Y-86972671D01*
X143764000Y-86925193D01*
X143816696Y-86774650D01*
X143944015Y-86507302D01*
X143949297Y-86497060D01*
X144134594Y-86138735D01*
X143629948Y-86106000D01*
X144272000Y-86106000D01*
X144318467Y-86210535D01*
X144356666Y-86190666D01*
X144371866Y-86039947D01*
X144356666Y-86021333D01*
X144281165Y-86038766D01*
X144272000Y-86106000D01*
X143629948Y-86106000D01*
X143219047Y-86079346D01*
X142233724Y-85911059D01*
X141400375Y-85540308D01*
X140710045Y-84961144D01*
X140153779Y-84167619D01*
X140055346Y-83977638D01*
X139821334Y-83458155D01*
X139694433Y-83023298D01*
X139693939Y-83018581D01*
X139845747Y-83018581D01*
X139942520Y-83333075D01*
X140168346Y-83826832D01*
X140215579Y-83922046D01*
X140743433Y-84723161D01*
X141432181Y-85328685D01*
X142291252Y-85746971D01*
X142813224Y-85886951D01*
X143337799Y-85961221D01*
X143785768Y-85963837D01*
X144077925Y-85888859D01*
X144088710Y-85881805D01*
X144271115Y-85645392D01*
X144414105Y-85253492D01*
X144514641Y-84762685D01*
X144569684Y-84229551D01*
X144576195Y-83710672D01*
X144531136Y-83262628D01*
X144431468Y-82942000D01*
X144274152Y-82805369D01*
X144254008Y-82804000D01*
X144166434Y-82708370D01*
X144171067Y-82641998D01*
X144122233Y-82444328D01*
X143954242Y-82162805D01*
X143908135Y-82102248D01*
X143608001Y-81724500D01*
X143657606Y-82264250D01*
X143676378Y-82602474D01*
X143626189Y-82758642D01*
X143472034Y-82802417D01*
X143386356Y-82804078D01*
X143199046Y-82787466D01*
X143110432Y-82694640D01*
X143093114Y-82461297D01*
X143110365Y-82156358D01*
X143128825Y-81779144D01*
X143101256Y-81599816D01*
X143005966Y-81563426D01*
X142888115Y-81593337D01*
X142673630Y-81610889D01*
X142621000Y-81542558D01*
X142524213Y-81412456D01*
X142486504Y-81407000D01*
X142410655Y-81484804D01*
X142430500Y-81534000D01*
X142426465Y-81651291D01*
X142385078Y-81661000D01*
X142234172Y-81560813D01*
X142204470Y-81502250D01*
X142090642Y-81419484D01*
X142035136Y-81450133D01*
X142047565Y-81590359D01*
X142230703Y-81801083D01*
X142282948Y-81844833D01*
X142552098Y-82144739D01*
X142600448Y-82436699D01*
X142559782Y-82594723D01*
X142455380Y-82689432D01*
X142230335Y-82741005D01*
X141827740Y-82769621D01*
X141638615Y-82777776D01*
X141163100Y-82789963D01*
X140894859Y-82772545D01*
X140788035Y-82716892D01*
X140794952Y-82619026D01*
X140786082Y-82471075D01*
X140574585Y-82423380D01*
X140539087Y-82423000D01*
X140273578Y-82486934D01*
X140208000Y-82613500D01*
X140106340Y-82781872D01*
X140017500Y-82804000D01*
X139872561Y-82852504D01*
X139845747Y-83018581D01*
X139693939Y-83018581D01*
X139644177Y-82544175D01*
X139640802Y-82358097D01*
X139730013Y-82358097D01*
X139783077Y-82533574D01*
X139904436Y-82470495D01*
X140077886Y-82166175D01*
X140131051Y-82042000D01*
X140462000Y-82042000D01*
X140508467Y-82146535D01*
X140546666Y-82126666D01*
X140561608Y-81978500D01*
X140716000Y-81978500D01*
X140779500Y-82042000D01*
X140843000Y-81978500D01*
X140779500Y-81915000D01*
X140716000Y-81978500D01*
X140561608Y-81978500D01*
X140561866Y-81975947D01*
X140546666Y-81957333D01*
X140471165Y-81974766D01*
X140462000Y-82042000D01*
X140131051Y-82042000D01*
X140144645Y-82010250D01*
X140290691Y-81648492D01*
X140401113Y-81374042D01*
X140426022Y-81311750D01*
X140376790Y-81198690D01*
X140204281Y-81153000D01*
X140727685Y-81153000D01*
X141038358Y-81819750D01*
X141256992Y-82217660D01*
X141447337Y-82428495D01*
X141530939Y-82451381D01*
X141743409Y-82495667D01*
X141793418Y-82546631D01*
X141975822Y-82671741D01*
X142159551Y-82576218D01*
X142170498Y-82559711D01*
X142125812Y-82418507D01*
X141923615Y-82217403D01*
X141860493Y-82170063D01*
X141557237Y-81862502D01*
X141527392Y-81724500D01*
X141605000Y-81724500D01*
X141668500Y-81788000D01*
X141732000Y-81724500D01*
X141668500Y-81661000D01*
X141605000Y-81724500D01*
X141527392Y-81724500D01*
X141490553Y-81554162D01*
X141630400Y-81305399D01*
X141674226Y-81208149D01*
X141527359Y-81162236D01*
X141255242Y-81152999D01*
X140727685Y-81153000D01*
X140204281Y-81153000D01*
X140194271Y-81150349D01*
X139994112Y-81180966D01*
X139910361Y-81248250D01*
X139858273Y-81421375D01*
X139792819Y-81752227D01*
X139761446Y-81946750D01*
X139730013Y-82358097D01*
X139640802Y-82358097D01*
X139638163Y-82212686D01*
X139636500Y-81291774D01*
X138112500Y-81412018D01*
X138668299Y-81153900D01*
X138817540Y-81089500D01*
X139192000Y-81089500D01*
X139255500Y-81153000D01*
X139319000Y-81089500D01*
X139255500Y-81026000D01*
X139192000Y-81089500D01*
X138817540Y-81089500D01*
X139067855Y-80981486D01*
X139119106Y-80962500D01*
X139700000Y-80962500D01*
X139763500Y-81026000D01*
X139827000Y-80962500D01*
X139763500Y-80899000D01*
X139700000Y-80962500D01*
X139119106Y-80962500D01*
X139314047Y-80890285D01*
X139954000Y-80890285D01*
X140074685Y-80946124D01*
X140411485Y-80999489D01*
X140926513Y-81047613D01*
X141581884Y-81087726D01*
X142339711Y-81117061D01*
X143162110Y-81132850D01*
X143287750Y-81133872D01*
X143744402Y-81144096D01*
X144002552Y-81178591D01*
X144117598Y-81254577D01*
X144144938Y-81389268D01*
X144145000Y-81400291D01*
X144084384Y-81616993D01*
X143956256Y-81645051D01*
X143855470Y-81502250D01*
X143751041Y-81408560D01*
X143705036Y-81430433D01*
X143721638Y-81568242D01*
X143879294Y-81802807D01*
X143941649Y-81873636D01*
X144272000Y-82229904D01*
X144272000Y-81728485D01*
X144653000Y-81728485D01*
X144732735Y-81896120D01*
X144894122Y-81877647D01*
X144962275Y-81801307D01*
X144928464Y-81666805D01*
X144842770Y-81614793D01*
X144679451Y-81634952D01*
X144653000Y-81728485D01*
X144272000Y-81728485D01*
X144272000Y-81691452D01*
X144283696Y-81353566D01*
X144356572Y-81198490D01*
X144547309Y-81155072D01*
X144700949Y-81153000D01*
X145123458Y-81231626D01*
X145345711Y-81465271D01*
X145364764Y-81850586D01*
X145355298Y-81897707D01*
X145335807Y-82200178D01*
X145407564Y-82354904D01*
X145531394Y-82543389D01*
X145542000Y-82620995D01*
X145446610Y-82760055D01*
X145245700Y-82800492D01*
X145067155Y-82736317D01*
X145023973Y-82645250D01*
X144998445Y-82551662D01*
X144949890Y-82645250D01*
X144782038Y-82792408D01*
X144712523Y-82804000D01*
X144606723Y-82855752D01*
X144628273Y-83050614D01*
X144668471Y-83174791D01*
X144714844Y-83489471D01*
X144715805Y-83965171D01*
X144678522Y-84514411D01*
X144610158Y-85049712D01*
X144517882Y-85483595D01*
X144467371Y-85629750D01*
X144440276Y-85811058D01*
X144492465Y-85852000D01*
X144605910Y-85753057D01*
X144865356Y-85753057D01*
X145265464Y-85546153D01*
X145621058Y-85325727D01*
X146010657Y-85033355D01*
X146106694Y-84951938D01*
X146481216Y-84520832D01*
X146834050Y-83940334D01*
X147110235Y-83312863D01*
X147240159Y-82839718D01*
X147280825Y-82568671D01*
X147242220Y-82516815D01*
X147089726Y-82653300D01*
X147062031Y-82680968D01*
X146786927Y-82869402D01*
X146560419Y-82931000D01*
X146329449Y-83041459D01*
X146225407Y-83280250D01*
X146121837Y-83594433D01*
X146021760Y-83782439D01*
X145884017Y-83993325D01*
X145704902Y-84308487D01*
X145680696Y-84353939D01*
X145466426Y-84742522D01*
X145215509Y-85174747D01*
X145162602Y-85262778D01*
X144865356Y-85753057D01*
X144605910Y-85753057D01*
X144609189Y-85750198D01*
X144812746Y-85479646D01*
X145064826Y-85092628D01*
X145141052Y-84966883D01*
X145387048Y-84541093D01*
X145571924Y-84195630D01*
X145664100Y-83990333D01*
X145669000Y-83966434D01*
X145755771Y-83795198D01*
X145845436Y-83704671D01*
X146049970Y-83392332D01*
X146078917Y-83012809D01*
X145925406Y-82680224D01*
X145908215Y-82662215D01*
X145711121Y-82310739D01*
X146179014Y-82310739D01*
X146228826Y-82512841D01*
X146288125Y-82550000D01*
X146386723Y-82439994D01*
X146410731Y-82366995D01*
X146558000Y-82366995D01*
X146629008Y-82531135D01*
X146685000Y-82550000D01*
X146787187Y-82443311D01*
X146812000Y-82288504D01*
X146763110Y-82112899D01*
X146685000Y-82105500D01*
X146568143Y-82289253D01*
X146558000Y-82366995D01*
X146410731Y-82366995D01*
X146474468Y-82173201D01*
X146478625Y-82153125D01*
X146552200Y-81717682D01*
X146552139Y-81713916D01*
X146695026Y-81713916D01*
X146718376Y-81878637D01*
X146761729Y-81880604D01*
X146792046Y-81710628D01*
X146771755Y-81637187D01*
X146715363Y-81589082D01*
X146695026Y-81713916D01*
X146552139Y-81713916D01*
X146548622Y-81498775D01*
X146463054Y-81469452D01*
X146367500Y-81534000D01*
X146255839Y-81725471D01*
X146190514Y-82016333D01*
X146179014Y-82310739D01*
X145711121Y-82310739D01*
X145705665Y-82301010D01*
X145697484Y-81882575D01*
X145862907Y-81484710D01*
X146181168Y-81185216D01*
X146319875Y-81119854D01*
X146398495Y-81003588D01*
X146290209Y-80816746D01*
X146039296Y-80593964D01*
X145690034Y-80369880D01*
X145286701Y-80179129D01*
X144995533Y-80083889D01*
X144645567Y-80002107D01*
X144342520Y-79963555D01*
X144015055Y-79970419D01*
X143591833Y-80024885D01*
X143001518Y-80129139D01*
X142900033Y-80148103D01*
X142264659Y-80273766D01*
X141651307Y-80406370D01*
X141146728Y-80526631D01*
X140923666Y-80587402D01*
X140531352Y-80694751D01*
X140224473Y-80761323D01*
X140129916Y-80771999D01*
X139970417Y-80840532D01*
X139954000Y-80890285D01*
X139314047Y-80890285D01*
X139419999Y-80851036D01*
X139520860Y-80821300D01*
X139772643Y-80662231D01*
X139847896Y-80574583D01*
X140223760Y-80574583D01*
X140225263Y-80576161D01*
X140362920Y-80569091D01*
X140652789Y-80497748D01*
X140779500Y-80459257D01*
X141107595Y-80372117D01*
X141614192Y-80257829D01*
X142227394Y-80131887D01*
X142811500Y-80021293D01*
X143464663Y-79906130D01*
X143932696Y-79837381D01*
X144279800Y-79812979D01*
X144570174Y-79830855D01*
X144868020Y-79888943D01*
X145097497Y-79947672D01*
X145609925Y-80132866D01*
X146061724Y-80383174D01*
X146395208Y-80658342D01*
X146552689Y-80918113D01*
X146558000Y-80966853D01*
X146648355Y-81111339D01*
X146850039Y-81243948D01*
X147058983Y-81312460D01*
X147168482Y-81273173D01*
X147136869Y-81113274D01*
X147014250Y-80807010D01*
X146888744Y-80544136D01*
X146358557Y-79756228D01*
X145681183Y-79151014D01*
X144893768Y-78736442D01*
X144033460Y-78520459D01*
X143137405Y-78511013D01*
X142242752Y-78716051D01*
X141386648Y-79143520D01*
X141144400Y-79315169D01*
X140893745Y-79547625D01*
X140629611Y-79853922D01*
X140398739Y-80169933D01*
X140247875Y-80431530D01*
X140223760Y-80574583D01*
X139847896Y-80574583D01*
X140046024Y-80343824D01*
X140138916Y-80198571D01*
X140708554Y-79456691D01*
X141434243Y-78870090D01*
X142266144Y-78465748D01*
X143154417Y-78270645D01*
X143708273Y-78266335D01*
X144716937Y-78464412D01*
G36*
X143411196Y-85299876D02*
G01*
X143439796Y-85333152D01*
X143427123Y-85499196D01*
X143393847Y-85527796D01*
X143227803Y-85515123D01*
X143199203Y-85481847D01*
X143211876Y-85315803D01*
X143245152Y-85287203D01*
X143411196Y-85299876D01*
G37*
X143411196Y-85299876D02*
X143439796Y-85333152D01*
X143427123Y-85499196D01*
X143393847Y-85527796D01*
X143227803Y-85515123D01*
X143199203Y-85481847D01*
X143211876Y-85315803D01*
X143245152Y-85287203D01*
X143411196Y-85299876D01*
G36*
X142268196Y-84156876D02*
G01*
X142296796Y-84190152D01*
X142284123Y-84356196D01*
X142250847Y-84384796D01*
X142084803Y-84372123D01*
X142056203Y-84338847D01*
X142068876Y-84172803D01*
X142102152Y-84144203D01*
X142268196Y-84156876D01*
G37*
X142268196Y-84156876D02*
X142296796Y-84190152D01*
X142284123Y-84356196D01*
X142250847Y-84384796D01*
X142084803Y-84372123D01*
X142056203Y-84338847D01*
X142068876Y-84172803D01*
X142102152Y-84144203D01*
X142268196Y-84156876D01*
G36*
X143510000Y-84391500D02*
G01*
X143446500Y-84455000D01*
X143383000Y-84391500D01*
X143446500Y-84328000D01*
X143510000Y-84391500D01*
G37*
X143510000Y-84391500D02*
X143446500Y-84455000D01*
X143383000Y-84391500D01*
X143446500Y-84328000D01*
X143510000Y-84391500D01*
G36*
X143764000Y-83629500D02*
G01*
X143700500Y-83693000D01*
X143637000Y-83629500D01*
X143700500Y-83566000D01*
X143764000Y-83629500D01*
G37*
X143764000Y-83629500D02*
X143700500Y-83693000D01*
X143637000Y-83629500D01*
X143700500Y-83566000D01*
X143764000Y-83629500D01*
G36*
X141732000Y-83375500D02*
G01*
X141668500Y-83439000D01*
X141605000Y-83375500D01*
X141668500Y-83312000D01*
X141732000Y-83375500D01*
G37*
X141732000Y-83375500D02*
X141668500Y-83439000D01*
X141605000Y-83375500D01*
X141668500Y-83312000D01*
X141732000Y-83375500D01*
G36*
X142875000Y-83121500D02*
G01*
X142811500Y-83185000D01*
X142748000Y-83121500D01*
X142811500Y-83058000D01*
X142875000Y-83121500D01*
G37*
X142875000Y-83121500D02*
X142811500Y-83185000D01*
X142748000Y-83121500D01*
X142811500Y-83058000D01*
X142875000Y-83121500D01*
G36*
X142113000Y-82994500D02*
G01*
X142049500Y-83058000D01*
X141986000Y-82994500D01*
X142049500Y-82931000D01*
X142113000Y-82994500D01*
G37*
X142113000Y-82994500D02*
X142049500Y-83058000D01*
X141986000Y-82994500D01*
X142049500Y-82931000D01*
X142113000Y-82994500D01*
G36*
X146177000Y-84264500D02*
G01*
X146113500Y-84328000D01*
X146050000Y-84264500D01*
X146113500Y-84201000D01*
X146177000Y-84264500D01*
G37*
X146177000Y-84264500D02*
X146113500Y-84328000D01*
X146050000Y-84264500D01*
X146113500Y-84201000D01*
X146177000Y-84264500D01*
G36*
X141855309Y-79852643D02*
G01*
X141859000Y-79883000D01*
X141762356Y-80006309D01*
X141732000Y-80010000D01*
X141608690Y-79913356D01*
X141605000Y-79883000D01*
X141701643Y-79759690D01*
X141732000Y-79756000D01*
X141855309Y-79852643D01*
G37*
X141855309Y-79852643D02*
X141859000Y-79883000D01*
X141762356Y-80006309D01*
X141732000Y-80010000D01*
X141608690Y-79913356D01*
X141605000Y-79883000D01*
X141701643Y-79759690D01*
X141732000Y-79756000D01*
X141855309Y-79852643D01*
D13*
%TO.C,J4*%
X130108000Y-95166000D02*
X119828000Y-95166000D01*
X119828000Y-95166000D02*
X119828000Y-97826000D01*
X119828000Y-97826000D02*
X130108000Y-97826000D01*
X130108000Y-97826000D02*
X130108000Y-95166000D01*
X129158000Y-97826000D02*
X129158000Y-103826000D01*
X129158000Y-103826000D02*
X128398000Y-103826000D01*
X128398000Y-103826000D02*
X128398000Y-97826000D01*
X129098000Y-97826000D02*
X129098000Y-103826000D01*
X128978000Y-97826000D02*
X128978000Y-103826000D01*
X128858000Y-97826000D02*
X128858000Y-103826000D01*
X128738000Y-97826000D02*
X128738000Y-103826000D01*
X128618000Y-97826000D02*
X128618000Y-103826000D01*
X128498000Y-97826000D02*
X128498000Y-103826000D01*
X129158000Y-94836000D02*
X129158000Y-95166000D01*
X128398000Y-94836000D02*
X128398000Y-95166000D01*
X127508000Y-95166000D02*
X127508000Y-97826000D01*
X126618000Y-97826000D02*
X126618000Y-103826000D01*
X126618000Y-103826000D02*
X125858000Y-103826000D01*
X125858000Y-103826000D02*
X125858000Y-97826000D01*
X126618000Y-94768929D02*
X126618000Y-95166000D01*
X125858000Y-94768929D02*
X125858000Y-95166000D01*
X124968000Y-95166000D02*
X124968000Y-97826000D01*
X124078000Y-97826000D02*
X124078000Y-103826000D01*
X124078000Y-103826000D02*
X123318000Y-103826000D01*
X123318000Y-103826000D02*
X123318000Y-97826000D01*
X124078000Y-94768929D02*
X124078000Y-95166000D01*
X123318000Y-94768929D02*
X123318000Y-95166000D01*
X122428000Y-95166000D02*
X122428000Y-97826000D01*
X121538000Y-97826000D02*
X121538000Y-103826000D01*
X121538000Y-103826000D02*
X120778000Y-103826000D01*
X120778000Y-103826000D02*
X120778000Y-97826000D01*
X121538000Y-94768929D02*
X121538000Y-95166000D01*
X120778000Y-94768929D02*
X120778000Y-95166000D01*
X128778000Y-92456000D02*
X130048000Y-92456000D01*
X130048000Y-92456000D02*
X130048000Y-93726000D01*
%TO.C,J3*%
X138744000Y-95166000D02*
X131004000Y-95166000D01*
X131004000Y-95166000D02*
X131004000Y-97826000D01*
X131004000Y-97826000D02*
X138744000Y-97826000D01*
X138744000Y-97826000D02*
X138744000Y-95166000D01*
X137794000Y-97826000D02*
X137794000Y-103826000D01*
X137794000Y-103826000D02*
X137034000Y-103826000D01*
X137034000Y-103826000D02*
X137034000Y-97826000D01*
X137734000Y-97826000D02*
X137734000Y-103826000D01*
X137614000Y-97826000D02*
X137614000Y-103826000D01*
X137494000Y-97826000D02*
X137494000Y-103826000D01*
X137374000Y-97826000D02*
X137374000Y-103826000D01*
X137254000Y-97826000D02*
X137254000Y-103826000D01*
X137134000Y-97826000D02*
X137134000Y-103826000D01*
X137794000Y-94836000D02*
X137794000Y-95166000D01*
X137034000Y-94836000D02*
X137034000Y-95166000D01*
X136144000Y-95166000D02*
X136144000Y-97826000D01*
X135254000Y-97826000D02*
X135254000Y-103826000D01*
X135254000Y-103826000D02*
X134494000Y-103826000D01*
X134494000Y-103826000D02*
X134494000Y-97826000D01*
X135254000Y-94768929D02*
X135254000Y-95166000D01*
X134494000Y-94768929D02*
X134494000Y-95166000D01*
X133604000Y-95166000D02*
X133604000Y-97826000D01*
X132714000Y-97826000D02*
X132714000Y-103826000D01*
X132714000Y-103826000D02*
X131954000Y-103826000D01*
X131954000Y-103826000D02*
X131954000Y-97826000D01*
X132714000Y-94768929D02*
X132714000Y-95166000D01*
X131954000Y-94768929D02*
X131954000Y-95166000D01*
X137414000Y-92456000D02*
X138684000Y-92456000D01*
X138684000Y-92456000D02*
X138684000Y-93726000D01*
%TO.C,U2*%
X133156478Y-79308478D02*
G75*
G03*
X131318000Y-74870000I-1838478J1838478D01*
G01*
X129479522Y-79308478D02*
G75*
G02*
X131318000Y-74870000I1838478J1838478D01*
G01*
X129518000Y-79320000D02*
X133118000Y-79320000D01*
%TO.C,C8*%
X170151248Y-90143000D02*
X170673752Y-90143000D01*
X170151248Y-88673000D02*
X170673752Y-88673000D01*
%TO.C,C7*%
X167738248Y-78713000D02*
X168260752Y-78713000D01*
X167738248Y-77243000D02*
X168260752Y-77243000D01*
D10*
%TO.C,U1*%
X165675000Y-95100000D02*
X166950000Y-95100000D01*
X151325000Y-95675000D02*
X152000000Y-95675000D01*
X151325000Y-81325000D02*
X152000000Y-81325000D01*
X165675000Y-81325000D02*
X165000000Y-81325000D01*
X165675000Y-95675000D02*
X165000000Y-95675000D01*
X165675000Y-81325000D02*
X165675000Y-82000000D01*
X151325000Y-81325000D02*
X151325000Y-82000000D01*
X151325000Y-95675000D02*
X151325000Y-95000000D01*
X165675000Y-95675000D02*
X165675000Y-95100000D01*
D13*
%TO.C,C4*%
X135863000Y-77376752D02*
X135863000Y-76854248D01*
X134393000Y-77376752D02*
X134393000Y-76854248D01*
%TO.C,C3*%
X127989000Y-77323752D02*
X127989000Y-76801248D01*
X126519000Y-77323752D02*
X126519000Y-76801248D01*
%TO.C,Q2*%
X123827000Y-86939000D02*
X125287000Y-86939000D01*
X123827000Y-90099000D02*
X125987000Y-90099000D01*
X123827000Y-90099000D02*
X123827000Y-89169000D01*
X123827000Y-86939000D02*
X123827000Y-87869000D01*
%TO.C,Q1*%
X116745000Y-84509000D02*
X118255000Y-84509000D01*
X116745000Y-88210000D02*
X118255000Y-88210000D01*
X118255000Y-91480000D02*
X118255000Y-81240000D01*
X116745000Y-81240000D02*
X121386000Y-81240000D01*
X116745000Y-91480000D02*
X121386000Y-91480000D01*
X121386000Y-91480000D02*
X121386000Y-81240000D01*
X116745000Y-91480000D02*
X116745000Y-81240000D01*
%TO.C,R10*%
X128693936Y-90143000D02*
X129148064Y-90143000D01*
X128693936Y-88673000D02*
X129148064Y-88673000D01*
%TO.C,R9*%
X123090000Y-84211936D02*
X123090000Y-84666064D01*
X124560000Y-84211936D02*
X124560000Y-84666064D01*
%TO.C,J2*%
X174080000Y-79840000D02*
X168880000Y-79840000D01*
X174080000Y-84980000D02*
X174080000Y-79840000D01*
X168880000Y-87580000D02*
X168880000Y-79840000D01*
X174080000Y-84980000D02*
X171480000Y-84980000D01*
X171480000Y-84980000D02*
X171480000Y-87580000D01*
X171480000Y-87580000D02*
X168880000Y-87580000D01*
X174080000Y-86250000D02*
X174080000Y-87580000D01*
X174080000Y-87580000D02*
X172750000Y-87580000D01*
%TO.C,R6*%
X122909064Y-76427000D02*
X122454936Y-76427000D01*
X122909064Y-74957000D02*
X122454936Y-74957000D01*
%TO.C,R5*%
X122925064Y-79221000D02*
X122470936Y-79221000D01*
X122925064Y-77751000D02*
X122470936Y-77751000D01*
%TO.C,R4*%
X148235000Y-89772936D02*
X148235000Y-90227064D01*
X146765000Y-89772936D02*
X146765000Y-90227064D01*
%TO.C,R3*%
X144989000Y-89772936D02*
X144989000Y-90227064D01*
X143519000Y-89772936D02*
X143519000Y-90227064D01*
%TO.C,R2*%
X141735000Y-89772936D02*
X141735000Y-90227064D01*
X140265000Y-89772936D02*
X140265000Y-90227064D01*
%TO.C,D5*%
X119564500Y-74782000D02*
X116679500Y-74782000D01*
X116679500Y-74782000D02*
X116679500Y-76602000D01*
X116679500Y-76602000D02*
X119564500Y-76602000D01*
%TO.C,D4*%
X119671500Y-77576000D02*
X116786500Y-77576000D01*
X116786500Y-77576000D02*
X116786500Y-79396000D01*
X116786500Y-79396000D02*
X119671500Y-79396000D01*
%TO.C,D3*%
X146590000Y-93462500D02*
X146590000Y-96347500D01*
X146590000Y-96347500D02*
X148410000Y-96347500D01*
X148410000Y-96347500D02*
X148410000Y-93462500D01*
%TO.C,D2*%
X143344000Y-93462500D02*
X143344000Y-96347500D01*
X143344000Y-96347500D02*
X145164000Y-96347500D01*
X145164000Y-96347500D02*
X145164000Y-93462500D01*
%TO.C,D1*%
X140090000Y-93462500D02*
X140090000Y-96347500D01*
X140090000Y-96347500D02*
X141910000Y-96347500D01*
X141910000Y-96347500D02*
X141910000Y-93462500D01*
%TO.C,Y1*%
X152439000Y-79550000D02*
X165039000Y-79550000D01*
X152439000Y-74450000D02*
X152439000Y-79550000D01*
X165039000Y-74450000D02*
X152439000Y-74450000D01*
%TO.C,R1*%
X171873936Y-78713000D02*
X172328064Y-78713000D01*
X171873936Y-77243000D02*
X172328064Y-77243000D01*
%TO.C,C2*%
X168303752Y-74957000D02*
X167781248Y-74957000D01*
X168303752Y-76427000D02*
X167781248Y-76427000D01*
%TO.C,C1*%
X151611000Y-76312752D02*
X151611000Y-75790248D01*
X150141000Y-76312752D02*
X150141000Y-75790248D01*
%TO.C,J4*%
D10*
X130500380Y-98444333D02*
X131214666Y-98444333D01*
X131357523Y-98491952D01*
X131452761Y-98587190D01*
X131500380Y-98730047D01*
X131500380Y-98825285D01*
X130833714Y-97539571D02*
X131500380Y-97539571D01*
X130452761Y-97777666D02*
X131167047Y-98015761D01*
X131167047Y-97396714D01*
%TO.C,J3*%
X139136380Y-98444333D02*
X139850666Y-98444333D01*
X139993523Y-98491952D01*
X140088761Y-98587190D01*
X140136380Y-98730047D01*
X140136380Y-98825285D01*
X139136380Y-98063380D02*
X139136380Y-97444333D01*
X139517333Y-97777666D01*
X139517333Y-97634809D01*
X139564952Y-97539571D01*
X139612571Y-97491952D01*
X139707809Y-97444333D01*
X139945904Y-97444333D01*
X140041142Y-97491952D01*
X140088761Y-97539571D01*
X140136380Y-97634809D01*
X140136380Y-97920523D01*
X140088761Y-98015761D01*
X140041142Y-98063380D01*
%TO.C,U2*%
X130556095Y-73362380D02*
X130556095Y-74171904D01*
X130603714Y-74267142D01*
X130651333Y-74314761D01*
X130746571Y-74362380D01*
X130937047Y-74362380D01*
X131032285Y-74314761D01*
X131079904Y-74267142D01*
X131127523Y-74171904D01*
X131127523Y-73362380D01*
X131556095Y-73457619D02*
X131603714Y-73410000D01*
X131698952Y-73362380D01*
X131937047Y-73362380D01*
X132032285Y-73410000D01*
X132079904Y-73457619D01*
X132127523Y-73552857D01*
X132127523Y-73648095D01*
X132079904Y-73790952D01*
X131508476Y-74362380D01*
X132127523Y-74362380D01*
%TO.C,C8*%
D11*
X170329166Y-87906571D02*
X170305357Y-87930380D01*
X170233928Y-87954190D01*
X170186309Y-87954190D01*
X170114880Y-87930380D01*
X170067261Y-87882761D01*
X170043452Y-87835142D01*
X170019642Y-87739904D01*
X170019642Y-87668476D01*
X170043452Y-87573238D01*
X170067261Y-87525619D01*
X170114880Y-87478000D01*
X170186309Y-87454190D01*
X170233928Y-87454190D01*
X170305357Y-87478000D01*
X170329166Y-87501809D01*
X170614880Y-87668476D02*
X170567261Y-87644666D01*
X170543452Y-87620857D01*
X170519642Y-87573238D01*
X170519642Y-87549428D01*
X170543452Y-87501809D01*
X170567261Y-87478000D01*
X170614880Y-87454190D01*
X170710119Y-87454190D01*
X170757738Y-87478000D01*
X170781547Y-87501809D01*
X170805357Y-87549428D01*
X170805357Y-87573238D01*
X170781547Y-87620857D01*
X170757738Y-87644666D01*
X170710119Y-87668476D01*
X170614880Y-87668476D01*
X170567261Y-87692285D01*
X170543452Y-87716095D01*
X170519642Y-87763714D01*
X170519642Y-87858952D01*
X170543452Y-87906571D01*
X170567261Y-87930380D01*
X170614880Y-87954190D01*
X170710119Y-87954190D01*
X170757738Y-87930380D01*
X170781547Y-87906571D01*
X170805357Y-87858952D01*
X170805357Y-87763714D01*
X170781547Y-87716095D01*
X170757738Y-87692285D01*
X170710119Y-87668476D01*
%TO.C,C7*%
X170350666Y-75616571D02*
X170326857Y-75640380D01*
X170255428Y-75664190D01*
X170207809Y-75664190D01*
X170136380Y-75640380D01*
X170088761Y-75592761D01*
X170064952Y-75545142D01*
X170041142Y-75449904D01*
X170041142Y-75378476D01*
X170064952Y-75283238D01*
X170088761Y-75235619D01*
X170136380Y-75188000D01*
X170207809Y-75164190D01*
X170255428Y-75164190D01*
X170326857Y-75188000D01*
X170350666Y-75211809D01*
X170517333Y-75164190D02*
X170850666Y-75164190D01*
X170636380Y-75664190D01*
%TO.C,U1*%
X158119047Y-88226190D02*
X158119047Y-88630952D01*
X158142857Y-88678571D01*
X158166666Y-88702380D01*
X158214285Y-88726190D01*
X158309523Y-88726190D01*
X158357142Y-88702380D01*
X158380952Y-88678571D01*
X158404761Y-88630952D01*
X158404761Y-88226190D01*
X158904761Y-88726190D02*
X158619047Y-88726190D01*
X158761904Y-88726190D02*
X158761904Y-88226190D01*
X158714285Y-88297619D01*
X158666666Y-88345238D01*
X158619047Y-88369047D01*
%TO.C,C4*%
X133626571Y-77198833D02*
X133650380Y-77222642D01*
X133674190Y-77294071D01*
X133674190Y-77341690D01*
X133650380Y-77413119D01*
X133602761Y-77460738D01*
X133555142Y-77484547D01*
X133459904Y-77508357D01*
X133388476Y-77508357D01*
X133293238Y-77484547D01*
X133245619Y-77460738D01*
X133198000Y-77413119D01*
X133174190Y-77341690D01*
X133174190Y-77294071D01*
X133198000Y-77222642D01*
X133221809Y-77198833D01*
X133340857Y-76770261D02*
X133674190Y-76770261D01*
X133150380Y-76889309D02*
X133507523Y-77008357D01*
X133507523Y-76698833D01*
%TO.C,C3*%
X125752571Y-77145833D02*
X125776380Y-77169642D01*
X125800190Y-77241071D01*
X125800190Y-77288690D01*
X125776380Y-77360119D01*
X125728761Y-77407738D01*
X125681142Y-77431547D01*
X125585904Y-77455357D01*
X125514476Y-77455357D01*
X125419238Y-77431547D01*
X125371619Y-77407738D01*
X125324000Y-77360119D01*
X125300190Y-77288690D01*
X125300190Y-77241071D01*
X125324000Y-77169642D01*
X125347809Y-77145833D01*
X125300190Y-76979166D02*
X125300190Y-76669642D01*
X125490666Y-76836309D01*
X125490666Y-76764880D01*
X125514476Y-76717261D01*
X125538285Y-76693452D01*
X125585904Y-76669642D01*
X125704952Y-76669642D01*
X125752571Y-76693452D01*
X125776380Y-76717261D01*
X125800190Y-76764880D01*
X125800190Y-76907738D01*
X125776380Y-76955357D01*
X125752571Y-76979166D01*
%TO.C,Q2*%
X125809380Y-86379809D02*
X125761761Y-86356000D01*
X125714142Y-86308380D01*
X125642714Y-86236952D01*
X125595095Y-86213142D01*
X125547476Y-86213142D01*
X125571285Y-86332190D02*
X125523666Y-86308380D01*
X125476047Y-86260761D01*
X125452238Y-86165523D01*
X125452238Y-85998857D01*
X125476047Y-85903619D01*
X125523666Y-85856000D01*
X125571285Y-85832190D01*
X125666523Y-85832190D01*
X125714142Y-85856000D01*
X125761761Y-85903619D01*
X125785571Y-85998857D01*
X125785571Y-86165523D01*
X125761761Y-86260761D01*
X125714142Y-86308380D01*
X125666523Y-86332190D01*
X125571285Y-86332190D01*
X125976047Y-85879809D02*
X125999857Y-85856000D01*
X126047476Y-85832190D01*
X126166523Y-85832190D01*
X126214142Y-85856000D01*
X126237952Y-85879809D01*
X126261761Y-85927428D01*
X126261761Y-85975047D01*
X126237952Y-86046476D01*
X125952238Y-86332190D01*
X126261761Y-86332190D01*
%TO.C,J5*%
X116058190Y-83224666D02*
X116415333Y-83224666D01*
X116486761Y-83248476D01*
X116534380Y-83296095D01*
X116558190Y-83367523D01*
X116558190Y-83415142D01*
X116058190Y-82748476D02*
X116058190Y-82986571D01*
X116296285Y-83010380D01*
X116272476Y-82986571D01*
X116248666Y-82938952D01*
X116248666Y-82819904D01*
X116272476Y-82772285D01*
X116296285Y-82748476D01*
X116343904Y-82724666D01*
X116462952Y-82724666D01*
X116510571Y-82748476D01*
X116534380Y-82772285D01*
X116558190Y-82819904D01*
X116558190Y-82938952D01*
X116534380Y-82986571D01*
X116510571Y-83010380D01*
%TO.C,Q1*%
X116018809Y-86407619D02*
X115995000Y-86455238D01*
X115947380Y-86502857D01*
X115875952Y-86574285D01*
X115852142Y-86621904D01*
X115852142Y-86669523D01*
X115971190Y-86645714D02*
X115947380Y-86693333D01*
X115899761Y-86740952D01*
X115804523Y-86764761D01*
X115637857Y-86764761D01*
X115542619Y-86740952D01*
X115495000Y-86693333D01*
X115471190Y-86645714D01*
X115471190Y-86550476D01*
X115495000Y-86502857D01*
X115542619Y-86455238D01*
X115637857Y-86431428D01*
X115804523Y-86431428D01*
X115899761Y-86455238D01*
X115947380Y-86502857D01*
X115971190Y-86550476D01*
X115971190Y-86645714D01*
X115971190Y-85955238D02*
X115971190Y-86240952D01*
X115971190Y-86098095D02*
X115471190Y-86098095D01*
X115542619Y-86145714D01*
X115590238Y-86193333D01*
X115614047Y-86240952D01*
%TO.C,R10*%
X128599571Y-87984190D02*
X128432904Y-87746095D01*
X128313857Y-87984190D02*
X128313857Y-87484190D01*
X128504333Y-87484190D01*
X128551952Y-87508000D01*
X128575761Y-87531809D01*
X128599571Y-87579428D01*
X128599571Y-87650857D01*
X128575761Y-87698476D01*
X128551952Y-87722285D01*
X128504333Y-87746095D01*
X128313857Y-87746095D01*
X129075761Y-87984190D02*
X128790047Y-87984190D01*
X128932904Y-87984190D02*
X128932904Y-87484190D01*
X128885285Y-87555619D01*
X128837666Y-87603238D01*
X128790047Y-87627047D01*
X129385285Y-87484190D02*
X129432904Y-87484190D01*
X129480523Y-87508000D01*
X129504333Y-87531809D01*
X129528142Y-87579428D01*
X129551952Y-87674666D01*
X129551952Y-87793714D01*
X129528142Y-87888952D01*
X129504333Y-87936571D01*
X129480523Y-87960380D01*
X129432904Y-87984190D01*
X129385285Y-87984190D01*
X129337666Y-87960380D01*
X129313857Y-87936571D01*
X129290047Y-87888952D01*
X129266238Y-87793714D01*
X129266238Y-87674666D01*
X129290047Y-87579428D01*
X129313857Y-87531809D01*
X129337666Y-87508000D01*
X129385285Y-87484190D01*
%TO.C,R9*%
X125773666Y-84665190D02*
X125607000Y-84427095D01*
X125487952Y-84665190D02*
X125487952Y-84165190D01*
X125678428Y-84165190D01*
X125726047Y-84189000D01*
X125749857Y-84212809D01*
X125773666Y-84260428D01*
X125773666Y-84331857D01*
X125749857Y-84379476D01*
X125726047Y-84403285D01*
X125678428Y-84427095D01*
X125487952Y-84427095D01*
X126011761Y-84665190D02*
X126107000Y-84665190D01*
X126154619Y-84641380D01*
X126178428Y-84617571D01*
X126226047Y-84546142D01*
X126249857Y-84450904D01*
X126249857Y-84260428D01*
X126226047Y-84212809D01*
X126202238Y-84189000D01*
X126154619Y-84165190D01*
X126059380Y-84165190D01*
X126011761Y-84189000D01*
X125987952Y-84212809D01*
X125964142Y-84260428D01*
X125964142Y-84379476D01*
X125987952Y-84427095D01*
X126011761Y-84450904D01*
X126059380Y-84474714D01*
X126154619Y-84474714D01*
X126202238Y-84450904D01*
X126226047Y-84427095D01*
X126249857Y-84379476D01*
%TO.C,J2*%
X171313333Y-88306190D02*
X171313333Y-88663333D01*
X171289523Y-88734761D01*
X171241904Y-88782380D01*
X171170476Y-88806190D01*
X171122857Y-88806190D01*
X171527619Y-88353809D02*
X171551428Y-88330000D01*
X171599047Y-88306190D01*
X171718095Y-88306190D01*
X171765714Y-88330000D01*
X171789523Y-88353809D01*
X171813333Y-88401428D01*
X171813333Y-88449047D01*
X171789523Y-88520476D01*
X171503809Y-88806190D01*
X171813333Y-88806190D01*
%TO.C,R6*%
X122598666Y-77315190D02*
X122432000Y-77077095D01*
X122312952Y-77315190D02*
X122312952Y-76815190D01*
X122503428Y-76815190D01*
X122551047Y-76839000D01*
X122574857Y-76862809D01*
X122598666Y-76910428D01*
X122598666Y-76981857D01*
X122574857Y-77029476D01*
X122551047Y-77053285D01*
X122503428Y-77077095D01*
X122312952Y-77077095D01*
X123027238Y-76815190D02*
X122932000Y-76815190D01*
X122884380Y-76839000D01*
X122860571Y-76862809D01*
X122812952Y-76934238D01*
X122789142Y-77029476D01*
X122789142Y-77219952D01*
X122812952Y-77267571D01*
X122836761Y-77291380D01*
X122884380Y-77315190D01*
X122979619Y-77315190D01*
X123027238Y-77291380D01*
X123051047Y-77267571D01*
X123074857Y-77219952D01*
X123074857Y-77100904D01*
X123051047Y-77053285D01*
X123027238Y-77029476D01*
X122979619Y-77005666D01*
X122884380Y-77005666D01*
X122836761Y-77029476D01*
X122812952Y-77053285D01*
X122789142Y-77100904D01*
%TO.C,R5*%
X122598666Y-80109190D02*
X122432000Y-79871095D01*
X122312952Y-80109190D02*
X122312952Y-79609190D01*
X122503428Y-79609190D01*
X122551047Y-79633000D01*
X122574857Y-79656809D01*
X122598666Y-79704428D01*
X122598666Y-79775857D01*
X122574857Y-79823476D01*
X122551047Y-79847285D01*
X122503428Y-79871095D01*
X122312952Y-79871095D01*
X123051047Y-79609190D02*
X122812952Y-79609190D01*
X122789142Y-79847285D01*
X122812952Y-79823476D01*
X122860571Y-79799666D01*
X122979619Y-79799666D01*
X123027238Y-79823476D01*
X123051047Y-79847285D01*
X123074857Y-79894904D01*
X123074857Y-80013952D01*
X123051047Y-80061571D01*
X123027238Y-80085380D01*
X122979619Y-80109190D01*
X122860571Y-80109190D01*
X122812952Y-80085380D01*
X122789142Y-80061571D01*
%TO.C,R4*%
X149376190Y-90083333D02*
X149138095Y-90250000D01*
X149376190Y-90369047D02*
X148876190Y-90369047D01*
X148876190Y-90178571D01*
X148900000Y-90130952D01*
X148923809Y-90107142D01*
X148971428Y-90083333D01*
X149042857Y-90083333D01*
X149090476Y-90107142D01*
X149114285Y-90130952D01*
X149138095Y-90178571D01*
X149138095Y-90369047D01*
X149042857Y-89654761D02*
X149376190Y-89654761D01*
X148852380Y-89773809D02*
X149209523Y-89892857D01*
X149209523Y-89583333D01*
%TO.C,R3*%
X146130190Y-90083333D02*
X145892095Y-90250000D01*
X146130190Y-90369047D02*
X145630190Y-90369047D01*
X145630190Y-90178571D01*
X145654000Y-90130952D01*
X145677809Y-90107142D01*
X145725428Y-90083333D01*
X145796857Y-90083333D01*
X145844476Y-90107142D01*
X145868285Y-90130952D01*
X145892095Y-90178571D01*
X145892095Y-90369047D01*
X145630190Y-89916666D02*
X145630190Y-89607142D01*
X145820666Y-89773809D01*
X145820666Y-89702380D01*
X145844476Y-89654761D01*
X145868285Y-89630952D01*
X145915904Y-89607142D01*
X146034952Y-89607142D01*
X146082571Y-89630952D01*
X146106380Y-89654761D01*
X146130190Y-89702380D01*
X146130190Y-89845238D01*
X146106380Y-89892857D01*
X146082571Y-89916666D01*
%TO.C,R2*%
X142876190Y-90083333D02*
X142638095Y-90250000D01*
X142876190Y-90369047D02*
X142376190Y-90369047D01*
X142376190Y-90178571D01*
X142400000Y-90130952D01*
X142423809Y-90107142D01*
X142471428Y-90083333D01*
X142542857Y-90083333D01*
X142590476Y-90107142D01*
X142614285Y-90130952D01*
X142638095Y-90178571D01*
X142638095Y-90369047D01*
X142423809Y-89892857D02*
X142400000Y-89869047D01*
X142376190Y-89821428D01*
X142376190Y-89702380D01*
X142400000Y-89654761D01*
X142423809Y-89630952D01*
X142471428Y-89607142D01*
X142519047Y-89607142D01*
X142590476Y-89630952D01*
X142876190Y-89916666D01*
X142876190Y-89607142D01*
%TO.C,D5*%
X118195452Y-77315190D02*
X118195452Y-76815190D01*
X118314500Y-76815190D01*
X118385928Y-76839000D01*
X118433547Y-76886619D01*
X118457357Y-76934238D01*
X118481166Y-77029476D01*
X118481166Y-77100904D01*
X118457357Y-77196142D01*
X118433547Y-77243761D01*
X118385928Y-77291380D01*
X118314500Y-77315190D01*
X118195452Y-77315190D01*
X118933547Y-76815190D02*
X118695452Y-76815190D01*
X118671642Y-77053285D01*
X118695452Y-77029476D01*
X118743071Y-77005666D01*
X118862119Y-77005666D01*
X118909738Y-77029476D01*
X118933547Y-77053285D01*
X118957357Y-77100904D01*
X118957357Y-77219952D01*
X118933547Y-77267571D01*
X118909738Y-77291380D01*
X118862119Y-77315190D01*
X118743071Y-77315190D01*
X118695452Y-77291380D01*
X118671642Y-77267571D01*
%TO.C,D4*%
X118248952Y-80109190D02*
X118248952Y-79609190D01*
X118368000Y-79609190D01*
X118439428Y-79633000D01*
X118487047Y-79680619D01*
X118510857Y-79728238D01*
X118534666Y-79823476D01*
X118534666Y-79894904D01*
X118510857Y-79990142D01*
X118487047Y-80037761D01*
X118439428Y-80085380D01*
X118368000Y-80109190D01*
X118248952Y-80109190D01*
X118963238Y-79775857D02*
X118963238Y-80109190D01*
X118844190Y-79585380D02*
X118725142Y-79942523D01*
X119034666Y-79942523D01*
%TO.C,D3*%
X146126190Y-94831547D02*
X145626190Y-94831547D01*
X145626190Y-94712500D01*
X145650000Y-94641071D01*
X145697619Y-94593452D01*
X145745238Y-94569642D01*
X145840476Y-94545833D01*
X145911904Y-94545833D01*
X146007142Y-94569642D01*
X146054761Y-94593452D01*
X146102380Y-94641071D01*
X146126190Y-94712500D01*
X146126190Y-94831547D01*
X145626190Y-94379166D02*
X145626190Y-94069642D01*
X145816666Y-94236309D01*
X145816666Y-94164880D01*
X145840476Y-94117261D01*
X145864285Y-94093452D01*
X145911904Y-94069642D01*
X146030952Y-94069642D01*
X146078571Y-94093452D01*
X146102380Y-94117261D01*
X146126190Y-94164880D01*
X146126190Y-94307738D01*
X146102380Y-94355357D01*
X146078571Y-94379166D01*
%TO.C,D2*%
X142880190Y-94831547D02*
X142380190Y-94831547D01*
X142380190Y-94712500D01*
X142404000Y-94641071D01*
X142451619Y-94593452D01*
X142499238Y-94569642D01*
X142594476Y-94545833D01*
X142665904Y-94545833D01*
X142761142Y-94569642D01*
X142808761Y-94593452D01*
X142856380Y-94641071D01*
X142880190Y-94712500D01*
X142880190Y-94831547D01*
X142427809Y-94355357D02*
X142404000Y-94331547D01*
X142380190Y-94283928D01*
X142380190Y-94164880D01*
X142404000Y-94117261D01*
X142427809Y-94093452D01*
X142475428Y-94069642D01*
X142523047Y-94069642D01*
X142594476Y-94093452D01*
X142880190Y-94379166D01*
X142880190Y-94069642D01*
%TO.C,D1*%
X139626190Y-94831547D02*
X139126190Y-94831547D01*
X139126190Y-94712500D01*
X139150000Y-94641071D01*
X139197619Y-94593452D01*
X139245238Y-94569642D01*
X139340476Y-94545833D01*
X139411904Y-94545833D01*
X139507142Y-94569642D01*
X139554761Y-94593452D01*
X139602380Y-94641071D01*
X139626190Y-94712500D01*
X139626190Y-94831547D01*
X139626190Y-94069642D02*
X139626190Y-94355357D01*
X139626190Y-94212500D02*
X139126190Y-94212500D01*
X139197619Y-94260119D01*
X139245238Y-94307738D01*
X139269047Y-94355357D01*
%TO.C,Y1*%
X158900904Y-73438095D02*
X158900904Y-73676190D01*
X158734238Y-73176190D02*
X158900904Y-73438095D01*
X159067571Y-73176190D01*
X159496142Y-73676190D02*
X159210428Y-73676190D01*
X159353285Y-73676190D02*
X159353285Y-73176190D01*
X159305666Y-73247619D01*
X159258047Y-73295238D01*
X159210428Y-73319047D01*
%TO.C,R1*%
X172017666Y-76554190D02*
X171851000Y-76316095D01*
X171731952Y-76554190D02*
X171731952Y-76054190D01*
X171922428Y-76054190D01*
X171970047Y-76078000D01*
X171993857Y-76101809D01*
X172017666Y-76149428D01*
X172017666Y-76220857D01*
X171993857Y-76268476D01*
X171970047Y-76292285D01*
X171922428Y-76316095D01*
X171731952Y-76316095D01*
X172493857Y-76554190D02*
X172208142Y-76554190D01*
X172351000Y-76554190D02*
X172351000Y-76054190D01*
X172303380Y-76125619D01*
X172255761Y-76173238D01*
X172208142Y-76197047D01*
%TO.C,C2*%
X167937666Y-79553571D02*
X167913857Y-79577380D01*
X167842428Y-79601190D01*
X167794809Y-79601190D01*
X167723380Y-79577380D01*
X167675761Y-79529761D01*
X167651952Y-79482142D01*
X167628142Y-79386904D01*
X167628142Y-79315476D01*
X167651952Y-79220238D01*
X167675761Y-79172619D01*
X167723380Y-79125000D01*
X167794809Y-79101190D01*
X167842428Y-79101190D01*
X167913857Y-79125000D01*
X167937666Y-79148809D01*
X168128142Y-79148809D02*
X168151952Y-79125000D01*
X168199571Y-79101190D01*
X168318619Y-79101190D01*
X168366238Y-79125000D01*
X168390047Y-79148809D01*
X168413857Y-79196428D01*
X168413857Y-79244047D01*
X168390047Y-79315476D01*
X168104333Y-79601190D01*
X168413857Y-79601190D01*
%TO.C,C1*%
X149374571Y-76134833D02*
X149398380Y-76158642D01*
X149422190Y-76230071D01*
X149422190Y-76277690D01*
X149398380Y-76349119D01*
X149350761Y-76396738D01*
X149303142Y-76420547D01*
X149207904Y-76444357D01*
X149136476Y-76444357D01*
X149041238Y-76420547D01*
X148993619Y-76396738D01*
X148946000Y-76349119D01*
X148922190Y-76277690D01*
X148922190Y-76230071D01*
X148946000Y-76158642D01*
X148969809Y-76134833D01*
X149422190Y-75658642D02*
X149422190Y-75944357D01*
X149422190Y-75801500D02*
X148922190Y-75801500D01*
X148993619Y-75849119D01*
X149041238Y-75896738D01*
X149065047Y-75944357D01*
%TD*%
M02*
