%TF.GenerationSoftware,KiCad,Pcbnew,(5.1.9)-1*%
%TF.CreationDate,2021-04-18T22:54:53+10:00*%
%TF.ProjectId,FlightBridgePCB,466c6967-6874-4427-9269-646765504342,rev?*%
%TF.SameCoordinates,Original*%
%TF.FileFunction,Legend,Top*%
%TF.FilePolarity,Positive*%
%FSLAX46Y46*%
G04 Gerber Fmt 4.6, Leading zero omitted, Abs format (unit mm)*
G04 Created by KiCad (PCBNEW (5.1.9)-1) date 2021-04-18 22:54:53*
%MOMM*%
%LPD*%
G01*
G04 APERTURE LIST*
%ADD10C,0.150000*%
%ADD11C,0.125000*%
%ADD12C,0.120000*%
%ADD13C,0.010000*%
G04 APERTURE END LIST*
D10*
X154003952Y-86701380D02*
X154003952Y-87415666D01*
X153956333Y-87558523D01*
X153861095Y-87653761D01*
X153718238Y-87701380D01*
X153623000Y-87701380D01*
X154956333Y-87701380D02*
X154480142Y-87701380D01*
X154480142Y-86701380D01*
X155861095Y-87606142D02*
X155813476Y-87653761D01*
X155670619Y-87701380D01*
X155575380Y-87701380D01*
X155432523Y-87653761D01*
X155337285Y-87558523D01*
X155289666Y-87463285D01*
X155242047Y-87272809D01*
X155242047Y-87129952D01*
X155289666Y-86939476D01*
X155337285Y-86844238D01*
X155432523Y-86749000D01*
X155575380Y-86701380D01*
X155670619Y-86701380D01*
X155813476Y-86749000D01*
X155861095Y-86796619D01*
X156575380Y-86701380D02*
X156575380Y-87415666D01*
X156527761Y-87558523D01*
X156432523Y-87653761D01*
X156289666Y-87701380D01*
X156194428Y-87701380D01*
X157527761Y-87701380D02*
X157051571Y-87701380D01*
X157051571Y-86701380D01*
X158432523Y-87606142D02*
X158384904Y-87653761D01*
X158242047Y-87701380D01*
X158146809Y-87701380D01*
X158003952Y-87653761D01*
X157908714Y-87558523D01*
X157861095Y-87463285D01*
X157813476Y-87272809D01*
X157813476Y-87129952D01*
X157861095Y-86939476D01*
X157908714Y-86844238D01*
X158003952Y-86749000D01*
X158146809Y-86701380D01*
X158242047Y-86701380D01*
X158384904Y-86749000D01*
X158432523Y-86796619D01*
X159146809Y-86701380D02*
X159146809Y-87415666D01*
X159099190Y-87558523D01*
X159003952Y-87653761D01*
X158861095Y-87701380D01*
X158765857Y-87701380D01*
X160099190Y-87701380D02*
X159623000Y-87701380D01*
X159623000Y-86701380D01*
X161003952Y-87606142D02*
X160956333Y-87653761D01*
X160813476Y-87701380D01*
X160718238Y-87701380D01*
X160575380Y-87653761D01*
X160480142Y-87558523D01*
X160432523Y-87463285D01*
X160384904Y-87272809D01*
X160384904Y-87129952D01*
X160432523Y-86939476D01*
X160480142Y-86844238D01*
X160575380Y-86749000D01*
X160718238Y-86701380D01*
X160813476Y-86701380D01*
X160956333Y-86749000D01*
X161003952Y-86796619D01*
X161718238Y-86701380D02*
X161718238Y-87415666D01*
X161670619Y-87558523D01*
X161575380Y-87653761D01*
X161432523Y-87701380D01*
X161337285Y-87701380D01*
X162670619Y-87701380D02*
X162194428Y-87701380D01*
X162194428Y-86701380D01*
X163575380Y-87606142D02*
X163527761Y-87653761D01*
X163384904Y-87701380D01*
X163289666Y-87701380D01*
X163146809Y-87653761D01*
X163051571Y-87558523D01*
X163003952Y-87463285D01*
X162956333Y-87272809D01*
X162956333Y-87129952D01*
X163003952Y-86939476D01*
X163051571Y-86844238D01*
X163146809Y-86749000D01*
X163289666Y-86701380D01*
X163384904Y-86701380D01*
X163527761Y-86749000D01*
X163575380Y-86796619D01*
D11*
X139029285Y-89130000D02*
X139029285Y-89296666D01*
X139291190Y-89296666D02*
X138791190Y-89296666D01*
X138791190Y-89058571D01*
X139243571Y-88582380D02*
X139267380Y-88606190D01*
X139291190Y-88677619D01*
X139291190Y-88725238D01*
X139267380Y-88796666D01*
X139219761Y-88844285D01*
X139172142Y-88868095D01*
X139076904Y-88891904D01*
X139005476Y-88891904D01*
X138910238Y-88868095D01*
X138862619Y-88844285D01*
X138815000Y-88796666D01*
X138791190Y-88725238D01*
X138791190Y-88677619D01*
X138815000Y-88606190D01*
X138838809Y-88582380D01*
X138791190Y-88058571D02*
X138791190Y-87772857D01*
X139291190Y-87915714D02*
X138791190Y-87915714D01*
X139029285Y-87606190D02*
X139029285Y-87439523D01*
X139291190Y-87368095D02*
X139291190Y-87606190D01*
X138791190Y-87606190D01*
X138791190Y-87368095D01*
X139291190Y-86915714D02*
X139291190Y-87153809D01*
X138791190Y-87153809D01*
X139029285Y-86749047D02*
X139029285Y-86582380D01*
X139291190Y-86510952D02*
X139291190Y-86749047D01*
X138791190Y-86749047D01*
X138791190Y-86510952D01*
X139291190Y-86296666D02*
X138791190Y-86296666D01*
X139148333Y-86130000D01*
X138791190Y-85963333D01*
X139291190Y-85963333D01*
X133219142Y-86816380D02*
X133290571Y-86840190D01*
X133409619Y-86840190D01*
X133457238Y-86816380D01*
X133481047Y-86792571D01*
X133504857Y-86744952D01*
X133504857Y-86697333D01*
X133481047Y-86649714D01*
X133457238Y-86625904D01*
X133409619Y-86602095D01*
X133314380Y-86578285D01*
X133266761Y-86554476D01*
X133242952Y-86530666D01*
X133219142Y-86483047D01*
X133219142Y-86435428D01*
X133242952Y-86387809D01*
X133266761Y-86364000D01*
X133314380Y-86340190D01*
X133433428Y-86340190D01*
X133504857Y-86364000D01*
X133885809Y-86578285D02*
X133957238Y-86602095D01*
X133981047Y-86625904D01*
X134004857Y-86673523D01*
X134004857Y-86744952D01*
X133981047Y-86792571D01*
X133957238Y-86816380D01*
X133909619Y-86840190D01*
X133719142Y-86840190D01*
X133719142Y-86340190D01*
X133885809Y-86340190D01*
X133933428Y-86364000D01*
X133957238Y-86387809D01*
X133981047Y-86435428D01*
X133981047Y-86483047D01*
X133957238Y-86530666D01*
X133933428Y-86554476D01*
X133885809Y-86578285D01*
X133719142Y-86578285D01*
X134219142Y-86340190D02*
X134219142Y-86744952D01*
X134242952Y-86792571D01*
X134266761Y-86816380D01*
X134314380Y-86840190D01*
X134409619Y-86840190D01*
X134457238Y-86816380D01*
X134481047Y-86792571D01*
X134504857Y-86744952D01*
X134504857Y-86340190D01*
X134719142Y-86816380D02*
X134790571Y-86840190D01*
X134909619Y-86840190D01*
X134957238Y-86816380D01*
X134981047Y-86792571D01*
X135004857Y-86744952D01*
X135004857Y-86697333D01*
X134981047Y-86649714D01*
X134957238Y-86625904D01*
X134909619Y-86602095D01*
X134814380Y-86578285D01*
X134766761Y-86554476D01*
X134742952Y-86530666D01*
X134719142Y-86483047D01*
X134719142Y-86435428D01*
X134742952Y-86387809D01*
X134766761Y-86364000D01*
X134814380Y-86340190D01*
X134933428Y-86340190D01*
X135004857Y-86364000D01*
X147304142Y-97254190D02*
X147304142Y-96754190D01*
X147589857Y-97254190D01*
X147589857Y-96754190D01*
X144553761Y-97381190D02*
X144387095Y-97143095D01*
X144268047Y-97381190D02*
X144268047Y-96881190D01*
X144458523Y-96881190D01*
X144506142Y-96905000D01*
X144529952Y-96928809D01*
X144553761Y-96976428D01*
X144553761Y-97047857D01*
X144529952Y-97095476D01*
X144506142Y-97119285D01*
X144458523Y-97143095D01*
X144268047Y-97143095D01*
X140850952Y-97238333D02*
X141089047Y-97238333D01*
X140803333Y-97381190D02*
X140970000Y-96881190D01*
X141136666Y-97381190D01*
X148471142Y-80498190D02*
X148756857Y-80498190D01*
X148614000Y-80998190D02*
X148614000Y-80498190D01*
X148923523Y-80736285D02*
X149090190Y-80736285D01*
X149161619Y-80998190D02*
X148923523Y-80998190D01*
X148923523Y-80498190D01*
X149161619Y-80498190D01*
X149614000Y-80998190D02*
X149375904Y-80998190D01*
X149375904Y-80498190D01*
X149780666Y-80736285D02*
X149947333Y-80736285D01*
X150018761Y-80998190D02*
X149780666Y-80998190D01*
X149780666Y-80498190D01*
X150018761Y-80498190D01*
X150233047Y-80998190D02*
X150233047Y-80498190D01*
X150399714Y-80855333D01*
X150566380Y-80498190D01*
X150566380Y-80998190D01*
X151185428Y-80998190D02*
X151185428Y-80498190D01*
X151375904Y-80498190D01*
X151423523Y-80522000D01*
X151447333Y-80545809D01*
X151471142Y-80593428D01*
X151471142Y-80664857D01*
X151447333Y-80712476D01*
X151423523Y-80736285D01*
X151375904Y-80760095D01*
X151185428Y-80760095D01*
X151685428Y-80998190D02*
X151685428Y-80498190D01*
X110978190Y-77529428D02*
X111478190Y-77362761D01*
X110978190Y-77196095D01*
X111216285Y-76862761D02*
X111240095Y-76791333D01*
X111263904Y-76767523D01*
X111311523Y-76743714D01*
X111382952Y-76743714D01*
X111430571Y-76767523D01*
X111454380Y-76791333D01*
X111478190Y-76838952D01*
X111478190Y-77029428D01*
X110978190Y-77029428D01*
X110978190Y-76862761D01*
X111002000Y-76815142D01*
X111025809Y-76791333D01*
X111073428Y-76767523D01*
X111121047Y-76767523D01*
X111168666Y-76791333D01*
X111192476Y-76815142D01*
X111216285Y-76862761D01*
X111216285Y-77029428D01*
X111335333Y-76553238D02*
X111335333Y-76315142D01*
X111478190Y-76600857D02*
X110978190Y-76434190D01*
X111478190Y-76267523D01*
X110978190Y-76172285D02*
X110978190Y-75886571D01*
X111478190Y-76029428D02*
X110978190Y-76029428D01*
X111002000Y-83438952D02*
X110978190Y-83486571D01*
X110978190Y-83558000D01*
X111002000Y-83629428D01*
X111049619Y-83677047D01*
X111097238Y-83700857D01*
X111192476Y-83724666D01*
X111263904Y-83724666D01*
X111359142Y-83700857D01*
X111406761Y-83677047D01*
X111454380Y-83629428D01*
X111478190Y-83558000D01*
X111478190Y-83510380D01*
X111454380Y-83438952D01*
X111430571Y-83415142D01*
X111263904Y-83415142D01*
X111263904Y-83510380D01*
X111478190Y-83200857D02*
X110978190Y-83200857D01*
X111478190Y-82915142D01*
X110978190Y-82915142D01*
X111478190Y-82677047D02*
X110978190Y-82677047D01*
X110978190Y-82558000D01*
X111002000Y-82486571D01*
X111049619Y-82438952D01*
X111097238Y-82415142D01*
X111192476Y-82391333D01*
X111263904Y-82391333D01*
X111359142Y-82415142D01*
X111406761Y-82438952D01*
X111454380Y-82486571D01*
X111478190Y-82558000D01*
X111478190Y-82677047D01*
X110564500Y-90344523D02*
X110540690Y-90392142D01*
X110540690Y-90463571D01*
X110564500Y-90535000D01*
X110612119Y-90582619D01*
X110659738Y-90606428D01*
X110754976Y-90630238D01*
X110826404Y-90630238D01*
X110921642Y-90606428D01*
X110969261Y-90582619D01*
X111016880Y-90535000D01*
X111040690Y-90463571D01*
X111040690Y-90415952D01*
X111016880Y-90344523D01*
X110993071Y-90320714D01*
X110826404Y-90320714D01*
X110826404Y-90415952D01*
X111040690Y-90106428D02*
X110540690Y-90106428D01*
X111040690Y-89820714D01*
X110540690Y-89820714D01*
X111040690Y-89582619D02*
X110540690Y-89582619D01*
X110540690Y-89463571D01*
X110564500Y-89392142D01*
X110612119Y-89344523D01*
X110659738Y-89320714D01*
X110754976Y-89296904D01*
X110826404Y-89296904D01*
X110921642Y-89320714D01*
X110969261Y-89344523D01*
X111016880Y-89392142D01*
X111040690Y-89463571D01*
X111040690Y-89582619D01*
X111040690Y-88820714D02*
X111040690Y-89106428D01*
X111040690Y-88963571D02*
X110540690Y-88963571D01*
X110612119Y-89011190D01*
X110659738Y-89058809D01*
X110683547Y-89106428D01*
X112106166Y-91249285D02*
X112082357Y-91273095D01*
X112010928Y-91320714D01*
X111963309Y-91344523D01*
X111891880Y-91368333D01*
X111772833Y-91392142D01*
X111677595Y-91392142D01*
X111558547Y-91368333D01*
X111487119Y-91344523D01*
X111439500Y-91320714D01*
X111368071Y-91273095D01*
X111344261Y-91249285D01*
X111891880Y-91082619D02*
X111915690Y-91011190D01*
X111915690Y-90892142D01*
X111891880Y-90844523D01*
X111868071Y-90820714D01*
X111820452Y-90796904D01*
X111772833Y-90796904D01*
X111725214Y-90820714D01*
X111701404Y-90844523D01*
X111677595Y-90892142D01*
X111653785Y-90987380D01*
X111629976Y-91035000D01*
X111606166Y-91058809D01*
X111558547Y-91082619D01*
X111510928Y-91082619D01*
X111463309Y-91058809D01*
X111439500Y-91035000D01*
X111415690Y-90987380D01*
X111415690Y-90868333D01*
X111439500Y-90796904D01*
X111582357Y-90630238D02*
X111915690Y-90535000D01*
X111677595Y-90439761D01*
X111915690Y-90344523D01*
X111582357Y-90249285D01*
X111915690Y-90058809D02*
X111582357Y-90058809D01*
X111415690Y-90058809D02*
X111439500Y-90082619D01*
X111463309Y-90058809D01*
X111439500Y-90035000D01*
X111415690Y-90058809D01*
X111463309Y-90058809D01*
X111582357Y-89892142D02*
X111582357Y-89701666D01*
X111415690Y-89820714D02*
X111844261Y-89820714D01*
X111891880Y-89796904D01*
X111915690Y-89749285D01*
X111915690Y-89701666D01*
X111891880Y-89320714D02*
X111915690Y-89368333D01*
X111915690Y-89463571D01*
X111891880Y-89511190D01*
X111868071Y-89535000D01*
X111820452Y-89558809D01*
X111677595Y-89558809D01*
X111629976Y-89535000D01*
X111606166Y-89511190D01*
X111582357Y-89463571D01*
X111582357Y-89368333D01*
X111606166Y-89320714D01*
X111915690Y-89106428D02*
X111415690Y-89106428D01*
X111915690Y-88892142D02*
X111653785Y-88892142D01*
X111606166Y-88915952D01*
X111582357Y-88963571D01*
X111582357Y-89035000D01*
X111606166Y-89082619D01*
X111629976Y-89106428D01*
X111891880Y-88463571D02*
X111915690Y-88511190D01*
X111915690Y-88606428D01*
X111891880Y-88654047D01*
X111844261Y-88677857D01*
X111653785Y-88677857D01*
X111606166Y-88654047D01*
X111582357Y-88606428D01*
X111582357Y-88511190D01*
X111606166Y-88463571D01*
X111653785Y-88439761D01*
X111701404Y-88439761D01*
X111749023Y-88677857D01*
X111915690Y-88011190D02*
X111415690Y-88011190D01*
X111891880Y-88011190D02*
X111915690Y-88058809D01*
X111915690Y-88154047D01*
X111891880Y-88201666D01*
X111868071Y-88225476D01*
X111820452Y-88249285D01*
X111677595Y-88249285D01*
X111629976Y-88225476D01*
X111606166Y-88201666D01*
X111582357Y-88154047D01*
X111582357Y-88058809D01*
X111606166Y-88011190D01*
X112106166Y-87820714D02*
X112082357Y-87796904D01*
X112010928Y-87749285D01*
X111963309Y-87725476D01*
X111891880Y-87701666D01*
X111772833Y-87677857D01*
X111677595Y-87677857D01*
X111558547Y-87701666D01*
X111487119Y-87725476D01*
X111439500Y-87749285D01*
X111368071Y-87796904D01*
X111344261Y-87820714D01*
X140017904Y-76488785D02*
X139851238Y-76488785D01*
X139851238Y-76750690D02*
X139851238Y-76250690D01*
X140089333Y-76250690D01*
X140351238Y-76750690D02*
X140303619Y-76726880D01*
X140279809Y-76679261D01*
X140279809Y-76250690D01*
X140541714Y-76750690D02*
X140541714Y-76417357D01*
X140541714Y-76250690D02*
X140517904Y-76274500D01*
X140541714Y-76298309D01*
X140565523Y-76274500D01*
X140541714Y-76250690D01*
X140541714Y-76298309D01*
X140994095Y-76417357D02*
X140994095Y-76822119D01*
X140970285Y-76869738D01*
X140946476Y-76893547D01*
X140898857Y-76917357D01*
X140827428Y-76917357D01*
X140779809Y-76893547D01*
X140994095Y-76726880D02*
X140946476Y-76750690D01*
X140851238Y-76750690D01*
X140803619Y-76726880D01*
X140779809Y-76703071D01*
X140756000Y-76655452D01*
X140756000Y-76512595D01*
X140779809Y-76464976D01*
X140803619Y-76441166D01*
X140851238Y-76417357D01*
X140946476Y-76417357D01*
X140994095Y-76441166D01*
X141232190Y-76750690D02*
X141232190Y-76250690D01*
X141446476Y-76750690D02*
X141446476Y-76488785D01*
X141422666Y-76441166D01*
X141375047Y-76417357D01*
X141303619Y-76417357D01*
X141256000Y-76441166D01*
X141232190Y-76464976D01*
X141613142Y-76417357D02*
X141803619Y-76417357D01*
X141684571Y-76250690D02*
X141684571Y-76679261D01*
X141708380Y-76726880D01*
X141756000Y-76750690D01*
X141803619Y-76750690D01*
X142136952Y-76488785D02*
X142208380Y-76512595D01*
X142232190Y-76536404D01*
X142256000Y-76584023D01*
X142256000Y-76655452D01*
X142232190Y-76703071D01*
X142208380Y-76726880D01*
X142160761Y-76750690D01*
X141970285Y-76750690D01*
X141970285Y-76250690D01*
X142136952Y-76250690D01*
X142184571Y-76274500D01*
X142208380Y-76298309D01*
X142232190Y-76345928D01*
X142232190Y-76393547D01*
X142208380Y-76441166D01*
X142184571Y-76464976D01*
X142136952Y-76488785D01*
X141970285Y-76488785D01*
X142470285Y-76750690D02*
X142470285Y-76417357D01*
X142470285Y-76512595D02*
X142494095Y-76464976D01*
X142517904Y-76441166D01*
X142565523Y-76417357D01*
X142613142Y-76417357D01*
X142779809Y-76750690D02*
X142779809Y-76417357D01*
X142779809Y-76250690D02*
X142756000Y-76274500D01*
X142779809Y-76298309D01*
X142803619Y-76274500D01*
X142779809Y-76250690D01*
X142779809Y-76298309D01*
X143232190Y-76750690D02*
X143232190Y-76250690D01*
X143232190Y-76726880D02*
X143184571Y-76750690D01*
X143089333Y-76750690D01*
X143041714Y-76726880D01*
X143017904Y-76703071D01*
X142994095Y-76655452D01*
X142994095Y-76512595D01*
X143017904Y-76464976D01*
X143041714Y-76441166D01*
X143089333Y-76417357D01*
X143184571Y-76417357D01*
X143232190Y-76441166D01*
X143684571Y-76417357D02*
X143684571Y-76822119D01*
X143660761Y-76869738D01*
X143636952Y-76893547D01*
X143589333Y-76917357D01*
X143517904Y-76917357D01*
X143470285Y-76893547D01*
X143684571Y-76726880D02*
X143636952Y-76750690D01*
X143541714Y-76750690D01*
X143494095Y-76726880D01*
X143470285Y-76703071D01*
X143446476Y-76655452D01*
X143446476Y-76512595D01*
X143470285Y-76464976D01*
X143494095Y-76441166D01*
X143541714Y-76417357D01*
X143636952Y-76417357D01*
X143684571Y-76441166D01*
X144113142Y-76726880D02*
X144065523Y-76750690D01*
X143970285Y-76750690D01*
X143922666Y-76726880D01*
X143898857Y-76679261D01*
X143898857Y-76488785D01*
X143922666Y-76441166D01*
X143970285Y-76417357D01*
X144065523Y-76417357D01*
X144113142Y-76441166D01*
X144136952Y-76488785D01*
X144136952Y-76536404D01*
X143898857Y-76584023D01*
X145017904Y-76750690D02*
X144851238Y-76512595D01*
X144732190Y-76750690D02*
X144732190Y-76250690D01*
X144922666Y-76250690D01*
X144970285Y-76274500D01*
X144994095Y-76298309D01*
X145017904Y-76345928D01*
X145017904Y-76417357D01*
X144994095Y-76464976D01*
X144970285Y-76488785D01*
X144922666Y-76512595D01*
X144732190Y-76512595D01*
X145422666Y-76726880D02*
X145375047Y-76750690D01*
X145279809Y-76750690D01*
X145232190Y-76726880D01*
X145208380Y-76679261D01*
X145208380Y-76488785D01*
X145232190Y-76441166D01*
X145279809Y-76417357D01*
X145375047Y-76417357D01*
X145422666Y-76441166D01*
X145446476Y-76488785D01*
X145446476Y-76536404D01*
X145208380Y-76584023D01*
X145613142Y-76417357D02*
X145732190Y-76750690D01*
X145851238Y-76417357D01*
X146398857Y-76298309D02*
X146422666Y-76274500D01*
X146470285Y-76250690D01*
X146589333Y-76250690D01*
X146636952Y-76274500D01*
X146660761Y-76298309D01*
X146684571Y-76345928D01*
X146684571Y-76393547D01*
X146660761Y-76464976D01*
X146375047Y-76750690D01*
X146684571Y-76750690D01*
X138101238Y-77578071D02*
X138077428Y-77601880D01*
X138006000Y-77625690D01*
X137958380Y-77625690D01*
X137886952Y-77601880D01*
X137839333Y-77554261D01*
X137815523Y-77506642D01*
X137791714Y-77411404D01*
X137791714Y-77339976D01*
X137815523Y-77244738D01*
X137839333Y-77197119D01*
X137886952Y-77149500D01*
X137958380Y-77125690D01*
X138006000Y-77125690D01*
X138077428Y-77149500D01*
X138101238Y-77173309D01*
X138386952Y-77625690D02*
X138339333Y-77601880D01*
X138315523Y-77578071D01*
X138291714Y-77530452D01*
X138291714Y-77387595D01*
X138315523Y-77339976D01*
X138339333Y-77316166D01*
X138386952Y-77292357D01*
X138458380Y-77292357D01*
X138506000Y-77316166D01*
X138529809Y-77339976D01*
X138553619Y-77387595D01*
X138553619Y-77530452D01*
X138529809Y-77578071D01*
X138506000Y-77601880D01*
X138458380Y-77625690D01*
X138386952Y-77625690D01*
X138767904Y-77292357D02*
X138767904Y-77625690D01*
X138767904Y-77339976D02*
X138791714Y-77316166D01*
X138839333Y-77292357D01*
X138910761Y-77292357D01*
X138958380Y-77316166D01*
X138982190Y-77363785D01*
X138982190Y-77625690D01*
X139220285Y-77292357D02*
X139220285Y-77625690D01*
X139220285Y-77339976D02*
X139244095Y-77316166D01*
X139291714Y-77292357D01*
X139363142Y-77292357D01*
X139410761Y-77316166D01*
X139434571Y-77363785D01*
X139434571Y-77625690D01*
X139744095Y-77625690D02*
X139696476Y-77601880D01*
X139672666Y-77578071D01*
X139648857Y-77530452D01*
X139648857Y-77387595D01*
X139672666Y-77339976D01*
X139696476Y-77316166D01*
X139744095Y-77292357D01*
X139815523Y-77292357D01*
X139863142Y-77316166D01*
X139886952Y-77339976D01*
X139910761Y-77387595D01*
X139910761Y-77530452D01*
X139886952Y-77578071D01*
X139863142Y-77601880D01*
X139815523Y-77625690D01*
X139744095Y-77625690D01*
X140125047Y-77625690D02*
X140125047Y-77292357D01*
X140125047Y-77387595D02*
X140148857Y-77339976D01*
X140172666Y-77316166D01*
X140220285Y-77292357D01*
X140267904Y-77292357D01*
X141101238Y-77625690D02*
X140934571Y-77387595D01*
X140815523Y-77625690D02*
X140815523Y-77125690D01*
X141006000Y-77125690D01*
X141053619Y-77149500D01*
X141077428Y-77173309D01*
X141101238Y-77220928D01*
X141101238Y-77292357D01*
X141077428Y-77339976D01*
X141053619Y-77363785D01*
X141006000Y-77387595D01*
X140815523Y-77387595D01*
X141529809Y-77625690D02*
X141529809Y-77363785D01*
X141506000Y-77316166D01*
X141458380Y-77292357D01*
X141363142Y-77292357D01*
X141315523Y-77316166D01*
X141529809Y-77601880D02*
X141482190Y-77625690D01*
X141363142Y-77625690D01*
X141315523Y-77601880D01*
X141291714Y-77554261D01*
X141291714Y-77506642D01*
X141315523Y-77459023D01*
X141363142Y-77435214D01*
X141482190Y-77435214D01*
X141529809Y-77411404D01*
X141982190Y-77292357D02*
X141982190Y-77697119D01*
X141958380Y-77744738D01*
X141934571Y-77768547D01*
X141886952Y-77792357D01*
X141815523Y-77792357D01*
X141767904Y-77768547D01*
X141982190Y-77601880D02*
X141934571Y-77625690D01*
X141839333Y-77625690D01*
X141791714Y-77601880D01*
X141767904Y-77578071D01*
X141744095Y-77530452D01*
X141744095Y-77387595D01*
X141767904Y-77339976D01*
X141791714Y-77316166D01*
X141839333Y-77292357D01*
X141934571Y-77292357D01*
X141982190Y-77316166D01*
X142434571Y-77292357D02*
X142434571Y-77697119D01*
X142410761Y-77744738D01*
X142386952Y-77768547D01*
X142339333Y-77792357D01*
X142267904Y-77792357D01*
X142220285Y-77768547D01*
X142434571Y-77601880D02*
X142386952Y-77625690D01*
X142291714Y-77625690D01*
X142244095Y-77601880D01*
X142220285Y-77578071D01*
X142196476Y-77530452D01*
X142196476Y-77387595D01*
X142220285Y-77339976D01*
X142244095Y-77316166D01*
X142291714Y-77292357D01*
X142386952Y-77292357D01*
X142434571Y-77316166D01*
X142886952Y-77625690D02*
X142886952Y-77363785D01*
X142863142Y-77316166D01*
X142815523Y-77292357D01*
X142720285Y-77292357D01*
X142672666Y-77316166D01*
X142886952Y-77601880D02*
X142839333Y-77625690D01*
X142720285Y-77625690D01*
X142672666Y-77601880D01*
X142648857Y-77554261D01*
X142648857Y-77506642D01*
X142672666Y-77459023D01*
X142720285Y-77435214D01*
X142839333Y-77435214D01*
X142886952Y-77411404D01*
X143053619Y-77292357D02*
X143244095Y-77292357D01*
X143125047Y-77125690D02*
X143125047Y-77554261D01*
X143148857Y-77601880D01*
X143196476Y-77625690D01*
X143244095Y-77625690D01*
X143339333Y-77292357D02*
X143529809Y-77292357D01*
X143410761Y-77125690D02*
X143410761Y-77554261D01*
X143434571Y-77601880D01*
X143482190Y-77625690D01*
X143529809Y-77625690D01*
X144339333Y-77625690D02*
X144053619Y-77625690D01*
X144196476Y-77625690D02*
X144196476Y-77125690D01*
X144148857Y-77197119D01*
X144101238Y-77244738D01*
X144053619Y-77268547D01*
X144625047Y-77339976D02*
X144577428Y-77316166D01*
X144553619Y-77292357D01*
X144529809Y-77244738D01*
X144529809Y-77220928D01*
X144553619Y-77173309D01*
X144577428Y-77149500D01*
X144625047Y-77125690D01*
X144720285Y-77125690D01*
X144767904Y-77149500D01*
X144791714Y-77173309D01*
X144815523Y-77220928D01*
X144815523Y-77244738D01*
X144791714Y-77292357D01*
X144767904Y-77316166D01*
X144720285Y-77339976D01*
X144625047Y-77339976D01*
X144577428Y-77363785D01*
X144553619Y-77387595D01*
X144529809Y-77435214D01*
X144529809Y-77530452D01*
X144553619Y-77578071D01*
X144577428Y-77601880D01*
X144625047Y-77625690D01*
X144720285Y-77625690D01*
X144767904Y-77601880D01*
X144791714Y-77578071D01*
X144815523Y-77530452D01*
X144815523Y-77435214D01*
X144791714Y-77387595D01*
X144767904Y-77363785D01*
X144720285Y-77339976D01*
X145386952Y-77101880D02*
X144958380Y-77744738D01*
X145648857Y-77125690D02*
X145696476Y-77125690D01*
X145744095Y-77149500D01*
X145767904Y-77173309D01*
X145791714Y-77220928D01*
X145815523Y-77316166D01*
X145815523Y-77435214D01*
X145791714Y-77530452D01*
X145767904Y-77578071D01*
X145744095Y-77601880D01*
X145696476Y-77625690D01*
X145648857Y-77625690D01*
X145601238Y-77601880D01*
X145577428Y-77578071D01*
X145553619Y-77530452D01*
X145529809Y-77435214D01*
X145529809Y-77316166D01*
X145553619Y-77220928D01*
X145577428Y-77173309D01*
X145601238Y-77149500D01*
X145648857Y-77125690D01*
X146244095Y-77292357D02*
X146244095Y-77625690D01*
X146125047Y-77101880D02*
X146006000Y-77459023D01*
X146315523Y-77459023D01*
X146863142Y-77101880D02*
X146434571Y-77744738D01*
X147006000Y-77173309D02*
X147029809Y-77149500D01*
X147077428Y-77125690D01*
X147196476Y-77125690D01*
X147244095Y-77149500D01*
X147267904Y-77173309D01*
X147291714Y-77220928D01*
X147291714Y-77268547D01*
X147267904Y-77339976D01*
X146982190Y-77625690D01*
X147291714Y-77625690D01*
X147601238Y-77125690D02*
X147648857Y-77125690D01*
X147696476Y-77149500D01*
X147720285Y-77173309D01*
X147744095Y-77220928D01*
X147767904Y-77316166D01*
X147767904Y-77435214D01*
X147744095Y-77530452D01*
X147720285Y-77578071D01*
X147696476Y-77601880D01*
X147648857Y-77625690D01*
X147601238Y-77625690D01*
X147553619Y-77601880D01*
X147529809Y-77578071D01*
X147506000Y-77530452D01*
X147482190Y-77435214D01*
X147482190Y-77316166D01*
X147506000Y-77220928D01*
X147529809Y-77173309D01*
X147553619Y-77149500D01*
X147601238Y-77125690D01*
X147958380Y-77173309D02*
X147982190Y-77149500D01*
X148029809Y-77125690D01*
X148148857Y-77125690D01*
X148196476Y-77149500D01*
X148220285Y-77173309D01*
X148244095Y-77220928D01*
X148244095Y-77268547D01*
X148220285Y-77339976D01*
X147934571Y-77625690D01*
X148244095Y-77625690D01*
X148720285Y-77625690D02*
X148434571Y-77625690D01*
X148577428Y-77625690D02*
X148577428Y-77125690D01*
X148529809Y-77197119D01*
X148482190Y-77244738D01*
X148434571Y-77268547D01*
X167874190Y-86979047D02*
X167874190Y-86669523D01*
X168064666Y-86836190D01*
X168064666Y-86764761D01*
X168088476Y-86717142D01*
X168112285Y-86693333D01*
X168159904Y-86669523D01*
X168278952Y-86669523D01*
X168326571Y-86693333D01*
X168350380Y-86717142D01*
X168374190Y-86764761D01*
X168374190Y-86907619D01*
X168350380Y-86955238D01*
X168326571Y-86979047D01*
X167874190Y-86526666D02*
X168374190Y-86360000D01*
X167874190Y-86193333D01*
X167874190Y-86074285D02*
X167874190Y-85764761D01*
X168064666Y-85931428D01*
X168064666Y-85860000D01*
X168088476Y-85812380D01*
X168112285Y-85788571D01*
X168159904Y-85764761D01*
X168278952Y-85764761D01*
X168326571Y-85788571D01*
X168350380Y-85812380D01*
X168374190Y-85860000D01*
X168374190Y-86002857D01*
X168350380Y-86050476D01*
X168326571Y-86074285D01*
X168374190Y-84605714D02*
X167874190Y-84605714D01*
X168231333Y-84439047D01*
X167874190Y-84272380D01*
X168374190Y-84272380D01*
X167874190Y-83939047D02*
X167874190Y-83843809D01*
X167898000Y-83796190D01*
X167945619Y-83748571D01*
X168040857Y-83724761D01*
X168207523Y-83724761D01*
X168302761Y-83748571D01*
X168350380Y-83796190D01*
X168374190Y-83843809D01*
X168374190Y-83939047D01*
X168350380Y-83986666D01*
X168302761Y-84034285D01*
X168207523Y-84058095D01*
X168040857Y-84058095D01*
X167945619Y-84034285D01*
X167898000Y-83986666D01*
X167874190Y-83939047D01*
X168350380Y-83534285D02*
X168374190Y-83462857D01*
X168374190Y-83343809D01*
X168350380Y-83296190D01*
X168326571Y-83272380D01*
X168278952Y-83248571D01*
X168231333Y-83248571D01*
X168183714Y-83272380D01*
X168159904Y-83296190D01*
X168136095Y-83343809D01*
X168112285Y-83439047D01*
X168088476Y-83486666D01*
X168064666Y-83510476D01*
X168017047Y-83534285D01*
X167969428Y-83534285D01*
X167921809Y-83510476D01*
X167898000Y-83486666D01*
X167874190Y-83439047D01*
X167874190Y-83320000D01*
X167898000Y-83248571D01*
X168374190Y-83034285D02*
X167874190Y-83034285D01*
X167898000Y-81660952D02*
X167874190Y-81708571D01*
X167874190Y-81780000D01*
X167898000Y-81851428D01*
X167945619Y-81899047D01*
X167993238Y-81922857D01*
X168088476Y-81946666D01*
X168159904Y-81946666D01*
X168255142Y-81922857D01*
X168302761Y-81899047D01*
X168350380Y-81851428D01*
X168374190Y-81780000D01*
X168374190Y-81732380D01*
X168350380Y-81660952D01*
X168326571Y-81637142D01*
X168159904Y-81637142D01*
X168159904Y-81732380D01*
X168374190Y-81422857D02*
X167874190Y-81422857D01*
X168374190Y-81137142D01*
X167874190Y-81137142D01*
X168374190Y-80899047D02*
X167874190Y-80899047D01*
X167874190Y-80780000D01*
X167898000Y-80708571D01*
X167945619Y-80660952D01*
X167993238Y-80637142D01*
X168088476Y-80613333D01*
X168159904Y-80613333D01*
X168255142Y-80637142D01*
X168302761Y-80660952D01*
X168350380Y-80708571D01*
X168374190Y-80780000D01*
X168374190Y-80899047D01*
X118395761Y-94722190D02*
X118157666Y-94722190D01*
X118133857Y-94960285D01*
X118157666Y-94936476D01*
X118205285Y-94912666D01*
X118324333Y-94912666D01*
X118371952Y-94936476D01*
X118395761Y-94960285D01*
X118419571Y-95007904D01*
X118419571Y-95126952D01*
X118395761Y-95174571D01*
X118371952Y-95198380D01*
X118324333Y-95222190D01*
X118205285Y-95222190D01*
X118157666Y-95198380D01*
X118133857Y-95174571D01*
X118562428Y-94722190D02*
X118729095Y-95222190D01*
X118895761Y-94722190D01*
X120650047Y-94746000D02*
X120602428Y-94722190D01*
X120531000Y-94722190D01*
X120459571Y-94746000D01*
X120411952Y-94793619D01*
X120388142Y-94841238D01*
X120364333Y-94936476D01*
X120364333Y-95007904D01*
X120388142Y-95103142D01*
X120411952Y-95150761D01*
X120459571Y-95198380D01*
X120531000Y-95222190D01*
X120578619Y-95222190D01*
X120650047Y-95198380D01*
X120673857Y-95174571D01*
X120673857Y-95007904D01*
X120578619Y-95007904D01*
X120888142Y-95222190D02*
X120888142Y-94722190D01*
X121173857Y-95222190D01*
X121173857Y-94722190D01*
X121411952Y-95222190D02*
X121411952Y-94722190D01*
X121531000Y-94722190D01*
X121602428Y-94746000D01*
X121650047Y-94793619D01*
X121673857Y-94841238D01*
X121697666Y-94936476D01*
X121697666Y-95007904D01*
X121673857Y-95103142D01*
X121650047Y-95150761D01*
X121602428Y-95198380D01*
X121531000Y-95222190D01*
X121411952Y-95222190D01*
X122178142Y-94960285D02*
X122344809Y-94960285D01*
X122416238Y-95222190D02*
X122178142Y-95222190D01*
X122178142Y-94722190D01*
X122416238Y-94722190D01*
X122582904Y-95222190D02*
X122844809Y-94888857D01*
X122582904Y-94888857D02*
X122844809Y-95222190D01*
X122963857Y-94722190D02*
X123249571Y-94722190D01*
X123106714Y-95222190D02*
X123106714Y-94722190D01*
X123606714Y-95198380D02*
X123559095Y-95222190D01*
X123463857Y-95222190D01*
X123416238Y-95198380D01*
X123392428Y-95150761D01*
X123392428Y-94960285D01*
X123416238Y-94912666D01*
X123463857Y-94888857D01*
X123559095Y-94888857D01*
X123606714Y-94912666D01*
X123630523Y-94960285D01*
X123630523Y-95007904D01*
X123392428Y-95055523D01*
X123916238Y-95222190D02*
X123868619Y-95198380D01*
X123844809Y-95150761D01*
X123844809Y-94722190D01*
X124297190Y-95198380D02*
X124249571Y-95222190D01*
X124154333Y-95222190D01*
X124106714Y-95198380D01*
X124082904Y-95150761D01*
X124082904Y-94960285D01*
X124106714Y-94912666D01*
X124154333Y-94888857D01*
X124249571Y-94888857D01*
X124297190Y-94912666D01*
X124321000Y-94960285D01*
X124321000Y-95007904D01*
X124082904Y-95055523D01*
X124535285Y-95222190D02*
X124535285Y-94888857D01*
X124535285Y-94936476D02*
X124559095Y-94912666D01*
X124606714Y-94888857D01*
X124678142Y-94888857D01*
X124725761Y-94912666D01*
X124749571Y-94960285D01*
X124749571Y-95222190D01*
X124749571Y-94960285D02*
X124773380Y-94912666D01*
X124821000Y-94888857D01*
X124892428Y-94888857D01*
X124940047Y-94912666D01*
X124963857Y-94960285D01*
X124963857Y-95222190D01*
X130123380Y-92459857D02*
X130147190Y-92388428D01*
X130147190Y-92269380D01*
X130123380Y-92221761D01*
X130099571Y-92197952D01*
X130051952Y-92174142D01*
X130004333Y-92174142D01*
X129956714Y-92197952D01*
X129932904Y-92221761D01*
X129909095Y-92269380D01*
X129885285Y-92364619D01*
X129861476Y-92412238D01*
X129837666Y-92436047D01*
X129790047Y-92459857D01*
X129742428Y-92459857D01*
X129694809Y-92436047D01*
X129671000Y-92412238D01*
X129647190Y-92364619D01*
X129647190Y-92245571D01*
X129671000Y-92174142D01*
X129885285Y-91793190D02*
X129909095Y-91721761D01*
X129932904Y-91697952D01*
X129980523Y-91674142D01*
X130051952Y-91674142D01*
X130099571Y-91697952D01*
X130123380Y-91721761D01*
X130147190Y-91769380D01*
X130147190Y-91959857D01*
X129647190Y-91959857D01*
X129647190Y-91793190D01*
X129671000Y-91745571D01*
X129694809Y-91721761D01*
X129742428Y-91697952D01*
X129790047Y-91697952D01*
X129837666Y-91721761D01*
X129861476Y-91745571D01*
X129885285Y-91793190D01*
X129885285Y-91959857D01*
X129647190Y-91459857D02*
X130051952Y-91459857D01*
X130099571Y-91436047D01*
X130123380Y-91412238D01*
X130147190Y-91364619D01*
X130147190Y-91269380D01*
X130123380Y-91221761D01*
X130099571Y-91197952D01*
X130051952Y-91174142D01*
X129647190Y-91174142D01*
X130123380Y-90959857D02*
X130147190Y-90888428D01*
X130147190Y-90769380D01*
X130123380Y-90721761D01*
X130099571Y-90697952D01*
X130051952Y-90674142D01*
X130004333Y-90674142D01*
X129956714Y-90697952D01*
X129932904Y-90721761D01*
X129909095Y-90769380D01*
X129885285Y-90864619D01*
X129861476Y-90912238D01*
X129837666Y-90936047D01*
X129790047Y-90959857D01*
X129742428Y-90959857D01*
X129694809Y-90936047D01*
X129671000Y-90912238D01*
X129647190Y-90864619D01*
X129647190Y-90745571D01*
X129671000Y-90674142D01*
X132298285Y-92511380D02*
X132298285Y-92678047D01*
X132560190Y-92678047D02*
X132060190Y-92678047D01*
X132060190Y-92439952D01*
X132512571Y-91963761D02*
X132536380Y-91987571D01*
X132560190Y-92059000D01*
X132560190Y-92106619D01*
X132536380Y-92178047D01*
X132488761Y-92225666D01*
X132441142Y-92249476D01*
X132345904Y-92273285D01*
X132274476Y-92273285D01*
X132179238Y-92249476D01*
X132131619Y-92225666D01*
X132084000Y-92178047D01*
X132060190Y-92106619D01*
X132060190Y-92059000D01*
X132084000Y-91987571D01*
X132107809Y-91963761D01*
X132060190Y-91439952D02*
X132060190Y-91154238D01*
X132560190Y-91297095D02*
X132060190Y-91297095D01*
X132536380Y-90797095D02*
X132560190Y-90844714D01*
X132560190Y-90939952D01*
X132536380Y-90987571D01*
X132488761Y-91011380D01*
X132298285Y-91011380D01*
X132250666Y-90987571D01*
X132226857Y-90939952D01*
X132226857Y-90844714D01*
X132250666Y-90797095D01*
X132298285Y-90773285D01*
X132345904Y-90773285D01*
X132393523Y-91011380D01*
X132560190Y-90487571D02*
X132536380Y-90535190D01*
X132488761Y-90559000D01*
X132060190Y-90559000D01*
X132536380Y-90106619D02*
X132560190Y-90154238D01*
X132560190Y-90249476D01*
X132536380Y-90297095D01*
X132488761Y-90320904D01*
X132298285Y-90320904D01*
X132250666Y-90297095D01*
X132226857Y-90249476D01*
X132226857Y-90154238D01*
X132250666Y-90106619D01*
X132298285Y-90082809D01*
X132345904Y-90082809D01*
X132393523Y-90320904D01*
X132560190Y-89868523D02*
X132226857Y-89868523D01*
X132274476Y-89868523D02*
X132250666Y-89844714D01*
X132226857Y-89797095D01*
X132226857Y-89725666D01*
X132250666Y-89678047D01*
X132298285Y-89654238D01*
X132560190Y-89654238D01*
X132298285Y-89654238D02*
X132250666Y-89630428D01*
X132226857Y-89582809D01*
X132226857Y-89511380D01*
X132250666Y-89463761D01*
X132298285Y-89439952D01*
X132560190Y-89439952D01*
X134751000Y-92455952D02*
X134727190Y-92503571D01*
X134727190Y-92575000D01*
X134751000Y-92646428D01*
X134798619Y-92694047D01*
X134846238Y-92717857D01*
X134941476Y-92741666D01*
X135012904Y-92741666D01*
X135108142Y-92717857D01*
X135155761Y-92694047D01*
X135203380Y-92646428D01*
X135227190Y-92575000D01*
X135227190Y-92527380D01*
X135203380Y-92455952D01*
X135179571Y-92432142D01*
X135012904Y-92432142D01*
X135012904Y-92527380D01*
X135227190Y-92217857D02*
X134727190Y-92217857D01*
X135227190Y-91932142D01*
X134727190Y-91932142D01*
X135227190Y-91694047D02*
X134727190Y-91694047D01*
X134727190Y-91575000D01*
X134751000Y-91503571D01*
X134798619Y-91455952D01*
X134846238Y-91432142D01*
X134941476Y-91408333D01*
X135012904Y-91408333D01*
X135108142Y-91432142D01*
X135155761Y-91455952D01*
X135203380Y-91503571D01*
X135227190Y-91575000D01*
X135227190Y-91694047D01*
X137267190Y-92170238D02*
X137267190Y-92408333D01*
X137505285Y-92432142D01*
X137481476Y-92408333D01*
X137457666Y-92360714D01*
X137457666Y-92241666D01*
X137481476Y-92194047D01*
X137505285Y-92170238D01*
X137552904Y-92146428D01*
X137671952Y-92146428D01*
X137719571Y-92170238D01*
X137743380Y-92194047D01*
X137767190Y-92241666D01*
X137767190Y-92360714D01*
X137743380Y-92408333D01*
X137719571Y-92432142D01*
X137267190Y-92003571D02*
X137767190Y-91836904D01*
X137267190Y-91670238D01*
X115931190Y-79105047D02*
X115931190Y-78795523D01*
X116121666Y-78962190D01*
X116121666Y-78890761D01*
X116145476Y-78843142D01*
X116169285Y-78819333D01*
X116216904Y-78795523D01*
X116335952Y-78795523D01*
X116383571Y-78819333D01*
X116407380Y-78843142D01*
X116431190Y-78890761D01*
X116431190Y-79033619D01*
X116407380Y-79081238D01*
X116383571Y-79105047D01*
X115931190Y-78652666D02*
X116431190Y-78486000D01*
X115931190Y-78319333D01*
X115931190Y-78200285D02*
X115931190Y-77890761D01*
X116121666Y-78057428D01*
X116121666Y-77986000D01*
X116145476Y-77938380D01*
X116169285Y-77914571D01*
X116216904Y-77890761D01*
X116335952Y-77890761D01*
X116383571Y-77914571D01*
X116407380Y-77938380D01*
X116431190Y-77986000D01*
X116431190Y-78128857D01*
X116407380Y-78176476D01*
X116383571Y-78200285D01*
X115931190Y-75787238D02*
X115931190Y-76025333D01*
X116169285Y-76049142D01*
X116145476Y-76025333D01*
X116121666Y-75977714D01*
X116121666Y-75858666D01*
X116145476Y-75811047D01*
X116169285Y-75787238D01*
X116216904Y-75763428D01*
X116335952Y-75763428D01*
X116383571Y-75787238D01*
X116407380Y-75811047D01*
X116431190Y-75858666D01*
X116431190Y-75977714D01*
X116407380Y-76025333D01*
X116383571Y-76049142D01*
X115931190Y-75620571D02*
X116431190Y-75453904D01*
X115931190Y-75287238D01*
D12*
%TO.C,C8*%
X170151248Y-88673000D02*
X170673752Y-88673000D01*
X170151248Y-90143000D02*
X170673752Y-90143000D01*
%TO.C,C7*%
X167738248Y-77243000D02*
X168260752Y-77243000D01*
X167738248Y-78713000D02*
X168260752Y-78713000D01*
D13*
%TO.C,G\u002A\u002A\u002A*%
G36*
X141982309Y-79979643D02*
G01*
X141986000Y-80010000D01*
X141889356Y-80133309D01*
X141859000Y-80137000D01*
X141735690Y-80040356D01*
X141732000Y-80010000D01*
X141828643Y-79886690D01*
X141859000Y-79883000D01*
X141982309Y-79979643D01*
G37*
X141982309Y-79979643D02*
X141986000Y-80010000D01*
X141889356Y-80133309D01*
X141859000Y-80137000D01*
X141735690Y-80040356D01*
X141732000Y-80010000D01*
X141828643Y-79886690D01*
X141859000Y-79883000D01*
X141982309Y-79979643D01*
G36*
X146304000Y-84391500D02*
G01*
X146240500Y-84455000D01*
X146177000Y-84391500D01*
X146240500Y-84328000D01*
X146304000Y-84391500D01*
G37*
X146304000Y-84391500D02*
X146240500Y-84455000D01*
X146177000Y-84391500D01*
X146240500Y-84328000D01*
X146304000Y-84391500D01*
G36*
X142240000Y-83121500D02*
G01*
X142176500Y-83185000D01*
X142113000Y-83121500D01*
X142176500Y-83058000D01*
X142240000Y-83121500D01*
G37*
X142240000Y-83121500D02*
X142176500Y-83185000D01*
X142113000Y-83121500D01*
X142176500Y-83058000D01*
X142240000Y-83121500D01*
G36*
X143002000Y-83248500D02*
G01*
X142938500Y-83312000D01*
X142875000Y-83248500D01*
X142938500Y-83185000D01*
X143002000Y-83248500D01*
G37*
X143002000Y-83248500D02*
X142938500Y-83312000D01*
X142875000Y-83248500D01*
X142938500Y-83185000D01*
X143002000Y-83248500D01*
G36*
X141859000Y-83502500D02*
G01*
X141795500Y-83566000D01*
X141732000Y-83502500D01*
X141795500Y-83439000D01*
X141859000Y-83502500D01*
G37*
X141859000Y-83502500D02*
X141795500Y-83566000D01*
X141732000Y-83502500D01*
X141795500Y-83439000D01*
X141859000Y-83502500D01*
G36*
X143891000Y-83756500D02*
G01*
X143827500Y-83820000D01*
X143764000Y-83756500D01*
X143827500Y-83693000D01*
X143891000Y-83756500D01*
G37*
X143891000Y-83756500D02*
X143827500Y-83820000D01*
X143764000Y-83756500D01*
X143827500Y-83693000D01*
X143891000Y-83756500D01*
G36*
X143637000Y-84518500D02*
G01*
X143573500Y-84582000D01*
X143510000Y-84518500D01*
X143573500Y-84455000D01*
X143637000Y-84518500D01*
G37*
X143637000Y-84518500D02*
X143573500Y-84582000D01*
X143510000Y-84518500D01*
X143573500Y-84455000D01*
X143637000Y-84518500D01*
G36*
X142395196Y-84283876D02*
G01*
X142423796Y-84317152D01*
X142411123Y-84483196D01*
X142377847Y-84511796D01*
X142211803Y-84499123D01*
X142183203Y-84465847D01*
X142195876Y-84299803D01*
X142229152Y-84271203D01*
X142395196Y-84283876D01*
G37*
X142395196Y-84283876D02*
X142423796Y-84317152D01*
X142411123Y-84483196D01*
X142377847Y-84511796D01*
X142211803Y-84499123D01*
X142183203Y-84465847D01*
X142195876Y-84299803D01*
X142229152Y-84271203D01*
X142395196Y-84283876D01*
G36*
X143538196Y-85426876D02*
G01*
X143566796Y-85460152D01*
X143554123Y-85626196D01*
X143520847Y-85654796D01*
X143354803Y-85642123D01*
X143326203Y-85608847D01*
X143338876Y-85442803D01*
X143372152Y-85414203D01*
X143538196Y-85426876D01*
G37*
X143538196Y-85426876D02*
X143566796Y-85460152D01*
X143554123Y-85626196D01*
X143520847Y-85654796D01*
X143354803Y-85642123D01*
X143326203Y-85608847D01*
X143338876Y-85442803D01*
X143372152Y-85414203D01*
X143538196Y-85426876D01*
G36*
X144843937Y-78591412D02*
G01*
X145740070Y-79012452D01*
X146501949Y-79642206D01*
X147107849Y-80466423D01*
X147171053Y-80581500D01*
X147339493Y-80932969D01*
X147441019Y-81263143D01*
X147491725Y-81656904D01*
X147507705Y-82199134D01*
X147508161Y-82359500D01*
X147497987Y-82950454D01*
X147456676Y-83373326D01*
X147368040Y-83713593D01*
X147215894Y-84056731D01*
X147169946Y-84145558D01*
X146778397Y-84735919D01*
X146269846Y-85287112D01*
X145720185Y-85724720D01*
X145360439Y-85919949D01*
X145036593Y-86121881D01*
X144681801Y-86438941D01*
X144532432Y-86606108D01*
X144227977Y-86943466D01*
X144008031Y-87113993D01*
X143898500Y-87099671D01*
X143891000Y-87052193D01*
X143943696Y-86901650D01*
X144071015Y-86634302D01*
X144076297Y-86624060D01*
X144261594Y-86265735D01*
X143756948Y-86233000D01*
X144399000Y-86233000D01*
X144445467Y-86337535D01*
X144483666Y-86317666D01*
X144498866Y-86166947D01*
X144483666Y-86148333D01*
X144408165Y-86165766D01*
X144399000Y-86233000D01*
X143756948Y-86233000D01*
X143346047Y-86206346D01*
X142360724Y-86038059D01*
X141527375Y-85667308D01*
X140837045Y-85088144D01*
X140280779Y-84294619D01*
X140182346Y-84104638D01*
X139948334Y-83585155D01*
X139821433Y-83150298D01*
X139820939Y-83145581D01*
X139972747Y-83145581D01*
X140069520Y-83460075D01*
X140295346Y-83953832D01*
X140342579Y-84049046D01*
X140870433Y-84850161D01*
X141559181Y-85455685D01*
X142418252Y-85873971D01*
X142940224Y-86013951D01*
X143464799Y-86088221D01*
X143912768Y-86090837D01*
X144204925Y-86015859D01*
X144215710Y-86008805D01*
X144398115Y-85772392D01*
X144541105Y-85380492D01*
X144641641Y-84889685D01*
X144696684Y-84356551D01*
X144703195Y-83837672D01*
X144658136Y-83389628D01*
X144558468Y-83069000D01*
X144401152Y-82932369D01*
X144381008Y-82931000D01*
X144293434Y-82835370D01*
X144298067Y-82768998D01*
X144249233Y-82571328D01*
X144081242Y-82289805D01*
X144035135Y-82229248D01*
X143735001Y-81851500D01*
X143784606Y-82391250D01*
X143803378Y-82729474D01*
X143753189Y-82885642D01*
X143599034Y-82929417D01*
X143513356Y-82931078D01*
X143326046Y-82914466D01*
X143237432Y-82821640D01*
X143220114Y-82588297D01*
X143237365Y-82283358D01*
X143255825Y-81906144D01*
X143228256Y-81726816D01*
X143132966Y-81690426D01*
X143015115Y-81720337D01*
X142800630Y-81737889D01*
X142748000Y-81669558D01*
X142651213Y-81539456D01*
X142613504Y-81534000D01*
X142537655Y-81611804D01*
X142557500Y-81661000D01*
X142553465Y-81778291D01*
X142512078Y-81788000D01*
X142361172Y-81687813D01*
X142331470Y-81629250D01*
X142217642Y-81546484D01*
X142162136Y-81577133D01*
X142174565Y-81717359D01*
X142357703Y-81928083D01*
X142409948Y-81971833D01*
X142679098Y-82271739D01*
X142727448Y-82563699D01*
X142686782Y-82721723D01*
X142582380Y-82816432D01*
X142357335Y-82868005D01*
X141954740Y-82896621D01*
X141765615Y-82904776D01*
X141290100Y-82916963D01*
X141021859Y-82899545D01*
X140915035Y-82843892D01*
X140921952Y-82746026D01*
X140913082Y-82598075D01*
X140701585Y-82550380D01*
X140666087Y-82550000D01*
X140400578Y-82613934D01*
X140335000Y-82740500D01*
X140233340Y-82908872D01*
X140144500Y-82931000D01*
X139999561Y-82979504D01*
X139972747Y-83145581D01*
X139820939Y-83145581D01*
X139771177Y-82671175D01*
X139767802Y-82485097D01*
X139857013Y-82485097D01*
X139910077Y-82660574D01*
X140031436Y-82597495D01*
X140204886Y-82293175D01*
X140258051Y-82169000D01*
X140589000Y-82169000D01*
X140635467Y-82273535D01*
X140673666Y-82253666D01*
X140688608Y-82105500D01*
X140843000Y-82105500D01*
X140906500Y-82169000D01*
X140970000Y-82105500D01*
X140906500Y-82042000D01*
X140843000Y-82105500D01*
X140688608Y-82105500D01*
X140688866Y-82102947D01*
X140673666Y-82084333D01*
X140598165Y-82101766D01*
X140589000Y-82169000D01*
X140258051Y-82169000D01*
X140271645Y-82137250D01*
X140417691Y-81775492D01*
X140528113Y-81501042D01*
X140553022Y-81438750D01*
X140503790Y-81325690D01*
X140331281Y-81280000D01*
X140854685Y-81280000D01*
X141165358Y-81946750D01*
X141383992Y-82344660D01*
X141574337Y-82555495D01*
X141657939Y-82578381D01*
X141870409Y-82622667D01*
X141920418Y-82673631D01*
X142102822Y-82798741D01*
X142286551Y-82703218D01*
X142297498Y-82686711D01*
X142252812Y-82545507D01*
X142050615Y-82344403D01*
X141987493Y-82297063D01*
X141684237Y-81989502D01*
X141654392Y-81851500D01*
X141732000Y-81851500D01*
X141795500Y-81915000D01*
X141859000Y-81851500D01*
X141795500Y-81788000D01*
X141732000Y-81851500D01*
X141654392Y-81851500D01*
X141617553Y-81681162D01*
X141757400Y-81432399D01*
X141801226Y-81335149D01*
X141654359Y-81289236D01*
X141382242Y-81279999D01*
X140854685Y-81280000D01*
X140331281Y-81280000D01*
X140321271Y-81277349D01*
X140121112Y-81307966D01*
X140037361Y-81375250D01*
X139985273Y-81548375D01*
X139919819Y-81879227D01*
X139888446Y-82073750D01*
X139857013Y-82485097D01*
X139767802Y-82485097D01*
X139765163Y-82339686D01*
X139763500Y-81418774D01*
X138239500Y-81539018D01*
X138795299Y-81280900D01*
X138944540Y-81216500D01*
X139319000Y-81216500D01*
X139382500Y-81280000D01*
X139446000Y-81216500D01*
X139382500Y-81153000D01*
X139319000Y-81216500D01*
X138944540Y-81216500D01*
X139194855Y-81108486D01*
X139246106Y-81089500D01*
X139827000Y-81089500D01*
X139890500Y-81153000D01*
X139954000Y-81089500D01*
X139890500Y-81026000D01*
X139827000Y-81089500D01*
X139246106Y-81089500D01*
X139441047Y-81017285D01*
X140081000Y-81017285D01*
X140201685Y-81073124D01*
X140538485Y-81126489D01*
X141053513Y-81174613D01*
X141708884Y-81214726D01*
X142466711Y-81244061D01*
X143289110Y-81259850D01*
X143414750Y-81260872D01*
X143871402Y-81271096D01*
X144129552Y-81305591D01*
X144244598Y-81381577D01*
X144271938Y-81516268D01*
X144272000Y-81527291D01*
X144211384Y-81743993D01*
X144083256Y-81772051D01*
X143982470Y-81629250D01*
X143878041Y-81535560D01*
X143832036Y-81557433D01*
X143848638Y-81695242D01*
X144006294Y-81929807D01*
X144068649Y-82000636D01*
X144399000Y-82356904D01*
X144399000Y-81855485D01*
X144780000Y-81855485D01*
X144859735Y-82023120D01*
X145021122Y-82004647D01*
X145089275Y-81928307D01*
X145055464Y-81793805D01*
X144969770Y-81741793D01*
X144806451Y-81761952D01*
X144780000Y-81855485D01*
X144399000Y-81855485D01*
X144399000Y-81818452D01*
X144410696Y-81480566D01*
X144483572Y-81325490D01*
X144674309Y-81282072D01*
X144827949Y-81280000D01*
X145250458Y-81358626D01*
X145472711Y-81592271D01*
X145491764Y-81977586D01*
X145482298Y-82024707D01*
X145462807Y-82327178D01*
X145534564Y-82481904D01*
X145658394Y-82670389D01*
X145669000Y-82747995D01*
X145573610Y-82887055D01*
X145372700Y-82927492D01*
X145194155Y-82863317D01*
X145150973Y-82772250D01*
X145125445Y-82678662D01*
X145076890Y-82772250D01*
X144909038Y-82919408D01*
X144839523Y-82931000D01*
X144733723Y-82982752D01*
X144755273Y-83177614D01*
X144795471Y-83301791D01*
X144841844Y-83616471D01*
X144842805Y-84092171D01*
X144805522Y-84641411D01*
X144737158Y-85176712D01*
X144644882Y-85610595D01*
X144594371Y-85756750D01*
X144567276Y-85938058D01*
X144619465Y-85979000D01*
X144732910Y-85880057D01*
X144992356Y-85880057D01*
X145392464Y-85673153D01*
X145748058Y-85452727D01*
X146137657Y-85160355D01*
X146233694Y-85078938D01*
X146608216Y-84647832D01*
X146961050Y-84067334D01*
X147237235Y-83439863D01*
X147367159Y-82966718D01*
X147407825Y-82695671D01*
X147369220Y-82643815D01*
X147216726Y-82780300D01*
X147189031Y-82807968D01*
X146913927Y-82996402D01*
X146687419Y-83058000D01*
X146456449Y-83168459D01*
X146352407Y-83407250D01*
X146248837Y-83721433D01*
X146148760Y-83909439D01*
X146011017Y-84120325D01*
X145831902Y-84435487D01*
X145807696Y-84480939D01*
X145593426Y-84869522D01*
X145342509Y-85301747D01*
X145289602Y-85389778D01*
X144992356Y-85880057D01*
X144732910Y-85880057D01*
X144736189Y-85877198D01*
X144939746Y-85606646D01*
X145191826Y-85219628D01*
X145268052Y-85093883D01*
X145514048Y-84668093D01*
X145698924Y-84322630D01*
X145791100Y-84117333D01*
X145796000Y-84093434D01*
X145882771Y-83922198D01*
X145972436Y-83831671D01*
X146176970Y-83519332D01*
X146205917Y-83139809D01*
X146052406Y-82807224D01*
X146035215Y-82789215D01*
X145838121Y-82437739D01*
X146306014Y-82437739D01*
X146355826Y-82639841D01*
X146415125Y-82677000D01*
X146513723Y-82566994D01*
X146537731Y-82493995D01*
X146685000Y-82493995D01*
X146756008Y-82658135D01*
X146812000Y-82677000D01*
X146914187Y-82570311D01*
X146939000Y-82415504D01*
X146890110Y-82239899D01*
X146812000Y-82232500D01*
X146695143Y-82416253D01*
X146685000Y-82493995D01*
X146537731Y-82493995D01*
X146601468Y-82300201D01*
X146605625Y-82280125D01*
X146679200Y-81844682D01*
X146679139Y-81840916D01*
X146822026Y-81840916D01*
X146845376Y-82005637D01*
X146888729Y-82007604D01*
X146919046Y-81837628D01*
X146898755Y-81764187D01*
X146842363Y-81716082D01*
X146822026Y-81840916D01*
X146679139Y-81840916D01*
X146675622Y-81625775D01*
X146590054Y-81596452D01*
X146494500Y-81661000D01*
X146382839Y-81852471D01*
X146317514Y-82143333D01*
X146306014Y-82437739D01*
X145838121Y-82437739D01*
X145832665Y-82428010D01*
X145824484Y-82009575D01*
X145989907Y-81611710D01*
X146308168Y-81312216D01*
X146446875Y-81246854D01*
X146525495Y-81130588D01*
X146417209Y-80943746D01*
X146166296Y-80720964D01*
X145817034Y-80496880D01*
X145413701Y-80306129D01*
X145122533Y-80210889D01*
X144772567Y-80129107D01*
X144469520Y-80090555D01*
X144142055Y-80097419D01*
X143718833Y-80151885D01*
X143128518Y-80256139D01*
X143027033Y-80275103D01*
X142391659Y-80400766D01*
X141778307Y-80533370D01*
X141273728Y-80653631D01*
X141050666Y-80714402D01*
X140658352Y-80821751D01*
X140351473Y-80888323D01*
X140256916Y-80898999D01*
X140097417Y-80967532D01*
X140081000Y-81017285D01*
X139441047Y-81017285D01*
X139546999Y-80978036D01*
X139647860Y-80948300D01*
X139899643Y-80789231D01*
X139974896Y-80701583D01*
X140350760Y-80701583D01*
X140352263Y-80703161D01*
X140489920Y-80696091D01*
X140779789Y-80624748D01*
X140906500Y-80586257D01*
X141234595Y-80499117D01*
X141741192Y-80384829D01*
X142354394Y-80258887D01*
X142938500Y-80148293D01*
X143591663Y-80033130D01*
X144059696Y-79964381D01*
X144406800Y-79939979D01*
X144697174Y-79957855D01*
X144995020Y-80015943D01*
X145224497Y-80074672D01*
X145736925Y-80259866D01*
X146188724Y-80510174D01*
X146522208Y-80785342D01*
X146679689Y-81045113D01*
X146685000Y-81093853D01*
X146775355Y-81238339D01*
X146977039Y-81370948D01*
X147185983Y-81439460D01*
X147295482Y-81400173D01*
X147263869Y-81240274D01*
X147141250Y-80934010D01*
X147015744Y-80671136D01*
X146485557Y-79883228D01*
X145808183Y-79278014D01*
X145020768Y-78863442D01*
X144160460Y-78647459D01*
X143264405Y-78638013D01*
X142369752Y-78843051D01*
X141513648Y-79270520D01*
X141271400Y-79442169D01*
X141020745Y-79674625D01*
X140756611Y-79980922D01*
X140525739Y-80296933D01*
X140374875Y-80558530D01*
X140350760Y-80701583D01*
X139974896Y-80701583D01*
X140173024Y-80470824D01*
X140265916Y-80325571D01*
X140835554Y-79583691D01*
X141561243Y-78997090D01*
X142393144Y-78592748D01*
X143281417Y-78397645D01*
X143835273Y-78393335D01*
X144843937Y-78591412D01*
G37*
X144843937Y-78591412D02*
X145740070Y-79012452D01*
X146501949Y-79642206D01*
X147107849Y-80466423D01*
X147171053Y-80581500D01*
X147339493Y-80932969D01*
X147441019Y-81263143D01*
X147491725Y-81656904D01*
X147507705Y-82199134D01*
X147508161Y-82359500D01*
X147497987Y-82950454D01*
X147456676Y-83373326D01*
X147368040Y-83713593D01*
X147215894Y-84056731D01*
X147169946Y-84145558D01*
X146778397Y-84735919D01*
X146269846Y-85287112D01*
X145720185Y-85724720D01*
X145360439Y-85919949D01*
X145036593Y-86121881D01*
X144681801Y-86438941D01*
X144532432Y-86606108D01*
X144227977Y-86943466D01*
X144008031Y-87113993D01*
X143898500Y-87099671D01*
X143891000Y-87052193D01*
X143943696Y-86901650D01*
X144071015Y-86634302D01*
X144076297Y-86624060D01*
X144261594Y-86265735D01*
X143756948Y-86233000D01*
X144399000Y-86233000D01*
X144445467Y-86337535D01*
X144483666Y-86317666D01*
X144498866Y-86166947D01*
X144483666Y-86148333D01*
X144408165Y-86165766D01*
X144399000Y-86233000D01*
X143756948Y-86233000D01*
X143346047Y-86206346D01*
X142360724Y-86038059D01*
X141527375Y-85667308D01*
X140837045Y-85088144D01*
X140280779Y-84294619D01*
X140182346Y-84104638D01*
X139948334Y-83585155D01*
X139821433Y-83150298D01*
X139820939Y-83145581D01*
X139972747Y-83145581D01*
X140069520Y-83460075D01*
X140295346Y-83953832D01*
X140342579Y-84049046D01*
X140870433Y-84850161D01*
X141559181Y-85455685D01*
X142418252Y-85873971D01*
X142940224Y-86013951D01*
X143464799Y-86088221D01*
X143912768Y-86090837D01*
X144204925Y-86015859D01*
X144215710Y-86008805D01*
X144398115Y-85772392D01*
X144541105Y-85380492D01*
X144641641Y-84889685D01*
X144696684Y-84356551D01*
X144703195Y-83837672D01*
X144658136Y-83389628D01*
X144558468Y-83069000D01*
X144401152Y-82932369D01*
X144381008Y-82931000D01*
X144293434Y-82835370D01*
X144298067Y-82768998D01*
X144249233Y-82571328D01*
X144081242Y-82289805D01*
X144035135Y-82229248D01*
X143735001Y-81851500D01*
X143784606Y-82391250D01*
X143803378Y-82729474D01*
X143753189Y-82885642D01*
X143599034Y-82929417D01*
X143513356Y-82931078D01*
X143326046Y-82914466D01*
X143237432Y-82821640D01*
X143220114Y-82588297D01*
X143237365Y-82283358D01*
X143255825Y-81906144D01*
X143228256Y-81726816D01*
X143132966Y-81690426D01*
X143015115Y-81720337D01*
X142800630Y-81737889D01*
X142748000Y-81669558D01*
X142651213Y-81539456D01*
X142613504Y-81534000D01*
X142537655Y-81611804D01*
X142557500Y-81661000D01*
X142553465Y-81778291D01*
X142512078Y-81788000D01*
X142361172Y-81687813D01*
X142331470Y-81629250D01*
X142217642Y-81546484D01*
X142162136Y-81577133D01*
X142174565Y-81717359D01*
X142357703Y-81928083D01*
X142409948Y-81971833D01*
X142679098Y-82271739D01*
X142727448Y-82563699D01*
X142686782Y-82721723D01*
X142582380Y-82816432D01*
X142357335Y-82868005D01*
X141954740Y-82896621D01*
X141765615Y-82904776D01*
X141290100Y-82916963D01*
X141021859Y-82899545D01*
X140915035Y-82843892D01*
X140921952Y-82746026D01*
X140913082Y-82598075D01*
X140701585Y-82550380D01*
X140666087Y-82550000D01*
X140400578Y-82613934D01*
X140335000Y-82740500D01*
X140233340Y-82908872D01*
X140144500Y-82931000D01*
X139999561Y-82979504D01*
X139972747Y-83145581D01*
X139820939Y-83145581D01*
X139771177Y-82671175D01*
X139767802Y-82485097D01*
X139857013Y-82485097D01*
X139910077Y-82660574D01*
X140031436Y-82597495D01*
X140204886Y-82293175D01*
X140258051Y-82169000D01*
X140589000Y-82169000D01*
X140635467Y-82273535D01*
X140673666Y-82253666D01*
X140688608Y-82105500D01*
X140843000Y-82105500D01*
X140906500Y-82169000D01*
X140970000Y-82105500D01*
X140906500Y-82042000D01*
X140843000Y-82105500D01*
X140688608Y-82105500D01*
X140688866Y-82102947D01*
X140673666Y-82084333D01*
X140598165Y-82101766D01*
X140589000Y-82169000D01*
X140258051Y-82169000D01*
X140271645Y-82137250D01*
X140417691Y-81775492D01*
X140528113Y-81501042D01*
X140553022Y-81438750D01*
X140503790Y-81325690D01*
X140331281Y-81280000D01*
X140854685Y-81280000D01*
X141165358Y-81946750D01*
X141383992Y-82344660D01*
X141574337Y-82555495D01*
X141657939Y-82578381D01*
X141870409Y-82622667D01*
X141920418Y-82673631D01*
X142102822Y-82798741D01*
X142286551Y-82703218D01*
X142297498Y-82686711D01*
X142252812Y-82545507D01*
X142050615Y-82344403D01*
X141987493Y-82297063D01*
X141684237Y-81989502D01*
X141654392Y-81851500D01*
X141732000Y-81851500D01*
X141795500Y-81915000D01*
X141859000Y-81851500D01*
X141795500Y-81788000D01*
X141732000Y-81851500D01*
X141654392Y-81851500D01*
X141617553Y-81681162D01*
X141757400Y-81432399D01*
X141801226Y-81335149D01*
X141654359Y-81289236D01*
X141382242Y-81279999D01*
X140854685Y-81280000D01*
X140331281Y-81280000D01*
X140321271Y-81277349D01*
X140121112Y-81307966D01*
X140037361Y-81375250D01*
X139985273Y-81548375D01*
X139919819Y-81879227D01*
X139888446Y-82073750D01*
X139857013Y-82485097D01*
X139767802Y-82485097D01*
X139765163Y-82339686D01*
X139763500Y-81418774D01*
X138239500Y-81539018D01*
X138795299Y-81280900D01*
X138944540Y-81216500D01*
X139319000Y-81216500D01*
X139382500Y-81280000D01*
X139446000Y-81216500D01*
X139382500Y-81153000D01*
X139319000Y-81216500D01*
X138944540Y-81216500D01*
X139194855Y-81108486D01*
X139246106Y-81089500D01*
X139827000Y-81089500D01*
X139890500Y-81153000D01*
X139954000Y-81089500D01*
X139890500Y-81026000D01*
X139827000Y-81089500D01*
X139246106Y-81089500D01*
X139441047Y-81017285D01*
X140081000Y-81017285D01*
X140201685Y-81073124D01*
X140538485Y-81126489D01*
X141053513Y-81174613D01*
X141708884Y-81214726D01*
X142466711Y-81244061D01*
X143289110Y-81259850D01*
X143414750Y-81260872D01*
X143871402Y-81271096D01*
X144129552Y-81305591D01*
X144244598Y-81381577D01*
X144271938Y-81516268D01*
X144272000Y-81527291D01*
X144211384Y-81743993D01*
X144083256Y-81772051D01*
X143982470Y-81629250D01*
X143878041Y-81535560D01*
X143832036Y-81557433D01*
X143848638Y-81695242D01*
X144006294Y-81929807D01*
X144068649Y-82000636D01*
X144399000Y-82356904D01*
X144399000Y-81855485D01*
X144780000Y-81855485D01*
X144859735Y-82023120D01*
X145021122Y-82004647D01*
X145089275Y-81928307D01*
X145055464Y-81793805D01*
X144969770Y-81741793D01*
X144806451Y-81761952D01*
X144780000Y-81855485D01*
X144399000Y-81855485D01*
X144399000Y-81818452D01*
X144410696Y-81480566D01*
X144483572Y-81325490D01*
X144674309Y-81282072D01*
X144827949Y-81280000D01*
X145250458Y-81358626D01*
X145472711Y-81592271D01*
X145491764Y-81977586D01*
X145482298Y-82024707D01*
X145462807Y-82327178D01*
X145534564Y-82481904D01*
X145658394Y-82670389D01*
X145669000Y-82747995D01*
X145573610Y-82887055D01*
X145372700Y-82927492D01*
X145194155Y-82863317D01*
X145150973Y-82772250D01*
X145125445Y-82678662D01*
X145076890Y-82772250D01*
X144909038Y-82919408D01*
X144839523Y-82931000D01*
X144733723Y-82982752D01*
X144755273Y-83177614D01*
X144795471Y-83301791D01*
X144841844Y-83616471D01*
X144842805Y-84092171D01*
X144805522Y-84641411D01*
X144737158Y-85176712D01*
X144644882Y-85610595D01*
X144594371Y-85756750D01*
X144567276Y-85938058D01*
X144619465Y-85979000D01*
X144732910Y-85880057D01*
X144992356Y-85880057D01*
X145392464Y-85673153D01*
X145748058Y-85452727D01*
X146137657Y-85160355D01*
X146233694Y-85078938D01*
X146608216Y-84647832D01*
X146961050Y-84067334D01*
X147237235Y-83439863D01*
X147367159Y-82966718D01*
X147407825Y-82695671D01*
X147369220Y-82643815D01*
X147216726Y-82780300D01*
X147189031Y-82807968D01*
X146913927Y-82996402D01*
X146687419Y-83058000D01*
X146456449Y-83168459D01*
X146352407Y-83407250D01*
X146248837Y-83721433D01*
X146148760Y-83909439D01*
X146011017Y-84120325D01*
X145831902Y-84435487D01*
X145807696Y-84480939D01*
X145593426Y-84869522D01*
X145342509Y-85301747D01*
X145289602Y-85389778D01*
X144992356Y-85880057D01*
X144732910Y-85880057D01*
X144736189Y-85877198D01*
X144939746Y-85606646D01*
X145191826Y-85219628D01*
X145268052Y-85093883D01*
X145514048Y-84668093D01*
X145698924Y-84322630D01*
X145791100Y-84117333D01*
X145796000Y-84093434D01*
X145882771Y-83922198D01*
X145972436Y-83831671D01*
X146176970Y-83519332D01*
X146205917Y-83139809D01*
X146052406Y-82807224D01*
X146035215Y-82789215D01*
X145838121Y-82437739D01*
X146306014Y-82437739D01*
X146355826Y-82639841D01*
X146415125Y-82677000D01*
X146513723Y-82566994D01*
X146537731Y-82493995D01*
X146685000Y-82493995D01*
X146756008Y-82658135D01*
X146812000Y-82677000D01*
X146914187Y-82570311D01*
X146939000Y-82415504D01*
X146890110Y-82239899D01*
X146812000Y-82232500D01*
X146695143Y-82416253D01*
X146685000Y-82493995D01*
X146537731Y-82493995D01*
X146601468Y-82300201D01*
X146605625Y-82280125D01*
X146679200Y-81844682D01*
X146679139Y-81840916D01*
X146822026Y-81840916D01*
X146845376Y-82005637D01*
X146888729Y-82007604D01*
X146919046Y-81837628D01*
X146898755Y-81764187D01*
X146842363Y-81716082D01*
X146822026Y-81840916D01*
X146679139Y-81840916D01*
X146675622Y-81625775D01*
X146590054Y-81596452D01*
X146494500Y-81661000D01*
X146382839Y-81852471D01*
X146317514Y-82143333D01*
X146306014Y-82437739D01*
X145838121Y-82437739D01*
X145832665Y-82428010D01*
X145824484Y-82009575D01*
X145989907Y-81611710D01*
X146308168Y-81312216D01*
X146446875Y-81246854D01*
X146525495Y-81130588D01*
X146417209Y-80943746D01*
X146166296Y-80720964D01*
X145817034Y-80496880D01*
X145413701Y-80306129D01*
X145122533Y-80210889D01*
X144772567Y-80129107D01*
X144469520Y-80090555D01*
X144142055Y-80097419D01*
X143718833Y-80151885D01*
X143128518Y-80256139D01*
X143027033Y-80275103D01*
X142391659Y-80400766D01*
X141778307Y-80533370D01*
X141273728Y-80653631D01*
X141050666Y-80714402D01*
X140658352Y-80821751D01*
X140351473Y-80888323D01*
X140256916Y-80898999D01*
X140097417Y-80967532D01*
X140081000Y-81017285D01*
X139441047Y-81017285D01*
X139546999Y-80978036D01*
X139647860Y-80948300D01*
X139899643Y-80789231D01*
X139974896Y-80701583D01*
X140350760Y-80701583D01*
X140352263Y-80703161D01*
X140489920Y-80696091D01*
X140779789Y-80624748D01*
X140906500Y-80586257D01*
X141234595Y-80499117D01*
X141741192Y-80384829D01*
X142354394Y-80258887D01*
X142938500Y-80148293D01*
X143591663Y-80033130D01*
X144059696Y-79964381D01*
X144406800Y-79939979D01*
X144697174Y-79957855D01*
X144995020Y-80015943D01*
X145224497Y-80074672D01*
X145736925Y-80259866D01*
X146188724Y-80510174D01*
X146522208Y-80785342D01*
X146679689Y-81045113D01*
X146685000Y-81093853D01*
X146775355Y-81238339D01*
X146977039Y-81370948D01*
X147185983Y-81439460D01*
X147295482Y-81400173D01*
X147263869Y-81240274D01*
X147141250Y-80934010D01*
X147015744Y-80671136D01*
X146485557Y-79883228D01*
X145808183Y-79278014D01*
X145020768Y-78863442D01*
X144160460Y-78647459D01*
X143264405Y-78638013D01*
X142369752Y-78843051D01*
X141513648Y-79270520D01*
X141271400Y-79442169D01*
X141020745Y-79674625D01*
X140756611Y-79980922D01*
X140525739Y-80296933D01*
X140374875Y-80558530D01*
X140350760Y-80701583D01*
X139974896Y-80701583D01*
X140173024Y-80470824D01*
X140265916Y-80325571D01*
X140835554Y-79583691D01*
X141561243Y-78997090D01*
X142393144Y-78592748D01*
X143281417Y-78397645D01*
X143835273Y-78393335D01*
X144843937Y-78591412D01*
D10*
%TO.C,U1*%
X165675000Y-95675000D02*
X165675000Y-95100000D01*
X151325000Y-95675000D02*
X151325000Y-95000000D01*
X151325000Y-81325000D02*
X151325000Y-82000000D01*
X165675000Y-81325000D02*
X165675000Y-82000000D01*
X165675000Y-95675000D02*
X165000000Y-95675000D01*
X165675000Y-81325000D02*
X165000000Y-81325000D01*
X151325000Y-81325000D02*
X152000000Y-81325000D01*
X151325000Y-95675000D02*
X152000000Y-95675000D01*
X165675000Y-95100000D02*
X166950000Y-95100000D01*
D12*
%TO.C,J3*%
X138744000Y-95293000D02*
X128464000Y-95293000D01*
X128464000Y-95293000D02*
X128464000Y-97953000D01*
X128464000Y-97953000D02*
X138744000Y-97953000D01*
X138744000Y-97953000D02*
X138744000Y-95293000D01*
X137794000Y-97953000D02*
X137794000Y-103953000D01*
X137794000Y-103953000D02*
X137034000Y-103953000D01*
X137034000Y-103953000D02*
X137034000Y-97953000D01*
X137734000Y-97953000D02*
X137734000Y-103953000D01*
X137614000Y-97953000D02*
X137614000Y-103953000D01*
X137494000Y-97953000D02*
X137494000Y-103953000D01*
X137374000Y-97953000D02*
X137374000Y-103953000D01*
X137254000Y-97953000D02*
X137254000Y-103953000D01*
X137134000Y-97953000D02*
X137134000Y-103953000D01*
X137794000Y-94963000D02*
X137794000Y-95293000D01*
X137034000Y-94963000D02*
X137034000Y-95293000D01*
X136144000Y-95293000D02*
X136144000Y-97953000D01*
X135254000Y-97953000D02*
X135254000Y-103953000D01*
X135254000Y-103953000D02*
X134494000Y-103953000D01*
X134494000Y-103953000D02*
X134494000Y-97953000D01*
X135254000Y-94895929D02*
X135254000Y-95293000D01*
X134494000Y-94895929D02*
X134494000Y-95293000D01*
X133604000Y-95293000D02*
X133604000Y-97953000D01*
X132714000Y-97953000D02*
X132714000Y-103953000D01*
X132714000Y-103953000D02*
X131954000Y-103953000D01*
X131954000Y-103953000D02*
X131954000Y-97953000D01*
X132714000Y-94895929D02*
X132714000Y-95293000D01*
X131954000Y-94895929D02*
X131954000Y-95293000D01*
X131064000Y-95293000D02*
X131064000Y-97953000D01*
X130174000Y-97953000D02*
X130174000Y-103953000D01*
X130174000Y-103953000D02*
X129414000Y-103953000D01*
X129414000Y-103953000D02*
X129414000Y-97953000D01*
X130174000Y-94895929D02*
X130174000Y-95293000D01*
X129414000Y-94895929D02*
X129414000Y-95293000D01*
X137414000Y-92583000D02*
X138684000Y-92583000D01*
X138684000Y-92583000D02*
X138684000Y-93853000D01*
%TO.C,C4*%
X134393000Y-77376752D02*
X134393000Y-76854248D01*
X135863000Y-77376752D02*
X135863000Y-76854248D01*
%TO.C,C3*%
X126519000Y-77323752D02*
X126519000Y-76801248D01*
X127989000Y-77323752D02*
X127989000Y-76801248D01*
%TO.C,Q2*%
X123827000Y-86939000D02*
X123827000Y-87869000D01*
X123827000Y-90099000D02*
X123827000Y-89169000D01*
X123827000Y-90099000D02*
X125987000Y-90099000D01*
X123827000Y-86939000D02*
X125287000Y-86939000D01*
%TO.C,Q1*%
X116745000Y-91480000D02*
X116745000Y-81240000D01*
X121386000Y-91480000D02*
X121386000Y-81240000D01*
X116745000Y-91480000D02*
X121386000Y-91480000D01*
X116745000Y-81240000D02*
X121386000Y-81240000D01*
X118255000Y-91480000D02*
X118255000Y-81240000D01*
X116745000Y-88210000D02*
X118255000Y-88210000D01*
X116745000Y-84509000D02*
X118255000Y-84509000D01*
%TO.C,R10*%
X128693936Y-88673000D02*
X129148064Y-88673000D01*
X128693936Y-90143000D02*
X129148064Y-90143000D01*
%TO.C,R9*%
X124560000Y-84211936D02*
X124560000Y-84666064D01*
X123090000Y-84211936D02*
X123090000Y-84666064D01*
%TO.C,U2*%
X132991000Y-75493000D02*
X129391000Y-75493000D01*
X129352522Y-75504522D02*
G75*
G03*
X131191000Y-79943000I1838478J-1838478D01*
G01*
X133029478Y-75504522D02*
G75*
G02*
X131191000Y-79943000I-1838478J-1838478D01*
G01*
%TO.C,J2*%
X174080000Y-87580000D02*
X172750000Y-87580000D01*
X174080000Y-86250000D02*
X174080000Y-87580000D01*
X171480000Y-87580000D02*
X168880000Y-87580000D01*
X171480000Y-84980000D02*
X171480000Y-87580000D01*
X174080000Y-84980000D02*
X171480000Y-84980000D01*
X168880000Y-87580000D02*
X168880000Y-79840000D01*
X174080000Y-84980000D02*
X174080000Y-79840000D01*
X174080000Y-79840000D02*
X168880000Y-79840000D01*
%TO.C,R8*%
X122963000Y-92593936D02*
X122963000Y-93048064D01*
X124433000Y-92593936D02*
X124433000Y-93048064D01*
%TO.C,R7*%
X135043936Y-90905000D02*
X135498064Y-90905000D01*
X135043936Y-89435000D02*
X135498064Y-89435000D01*
%TO.C,R6*%
X122909064Y-74957000D02*
X122454936Y-74957000D01*
X122909064Y-76427000D02*
X122454936Y-76427000D01*
%TO.C,R5*%
X122925064Y-77751000D02*
X122470936Y-77751000D01*
X122925064Y-79221000D02*
X122470936Y-79221000D01*
%TO.C,R4*%
X146765000Y-89772936D02*
X146765000Y-90227064D01*
X148235000Y-89772936D02*
X148235000Y-90227064D01*
%TO.C,R3*%
X143519000Y-89772936D02*
X143519000Y-90227064D01*
X144989000Y-89772936D02*
X144989000Y-90227064D01*
%TO.C,R2*%
X140265000Y-89772936D02*
X140265000Y-90227064D01*
X141735000Y-89772936D02*
X141735000Y-90227064D01*
%TO.C,D5*%
X116679500Y-76602000D02*
X119564500Y-76602000D01*
X116679500Y-74782000D02*
X116679500Y-76602000D01*
X119564500Y-74782000D02*
X116679500Y-74782000D01*
%TO.C,D4*%
X116786500Y-79396000D02*
X119671500Y-79396000D01*
X116786500Y-77576000D02*
X116786500Y-79396000D01*
X119671500Y-77576000D02*
X116786500Y-77576000D01*
%TO.C,D3*%
X148410000Y-96347500D02*
X148410000Y-93462500D01*
X146590000Y-96347500D02*
X148410000Y-96347500D01*
X146590000Y-93462500D02*
X146590000Y-96347500D01*
%TO.C,D2*%
X145164000Y-96347500D02*
X145164000Y-93462500D01*
X143344000Y-96347500D02*
X145164000Y-96347500D01*
X143344000Y-93462500D02*
X143344000Y-96347500D01*
%TO.C,D1*%
X141910000Y-96347500D02*
X141910000Y-93462500D01*
X140090000Y-96347500D02*
X141910000Y-96347500D01*
X140090000Y-93462500D02*
X140090000Y-96347500D01*
%TO.C,Y1*%
X165039000Y-74450000D02*
X152439000Y-74450000D01*
X152439000Y-74450000D02*
X152439000Y-79550000D01*
X152439000Y-79550000D02*
X165039000Y-79550000D01*
%TO.C,R1*%
X171873936Y-77243000D02*
X172328064Y-77243000D01*
X171873936Y-78713000D02*
X172328064Y-78713000D01*
%TO.C,C2*%
X168303752Y-76427000D02*
X167781248Y-76427000D01*
X168303752Y-74957000D02*
X167781248Y-74957000D01*
%TO.C,C1*%
X150141000Y-76312752D02*
X150141000Y-75790248D01*
X151611000Y-76312752D02*
X151611000Y-75790248D01*
%TO.C,C8*%
D11*
X170329166Y-87906571D02*
X170305357Y-87930380D01*
X170233928Y-87954190D01*
X170186309Y-87954190D01*
X170114880Y-87930380D01*
X170067261Y-87882761D01*
X170043452Y-87835142D01*
X170019642Y-87739904D01*
X170019642Y-87668476D01*
X170043452Y-87573238D01*
X170067261Y-87525619D01*
X170114880Y-87478000D01*
X170186309Y-87454190D01*
X170233928Y-87454190D01*
X170305357Y-87478000D01*
X170329166Y-87501809D01*
X170614880Y-87668476D02*
X170567261Y-87644666D01*
X170543452Y-87620857D01*
X170519642Y-87573238D01*
X170519642Y-87549428D01*
X170543452Y-87501809D01*
X170567261Y-87478000D01*
X170614880Y-87454190D01*
X170710119Y-87454190D01*
X170757738Y-87478000D01*
X170781547Y-87501809D01*
X170805357Y-87549428D01*
X170805357Y-87573238D01*
X170781547Y-87620857D01*
X170757738Y-87644666D01*
X170710119Y-87668476D01*
X170614880Y-87668476D01*
X170567261Y-87692285D01*
X170543452Y-87716095D01*
X170519642Y-87763714D01*
X170519642Y-87858952D01*
X170543452Y-87906571D01*
X170567261Y-87930380D01*
X170614880Y-87954190D01*
X170710119Y-87954190D01*
X170757738Y-87930380D01*
X170781547Y-87906571D01*
X170805357Y-87858952D01*
X170805357Y-87763714D01*
X170781547Y-87716095D01*
X170757738Y-87692285D01*
X170710119Y-87668476D01*
%TO.C,C7*%
X170350666Y-75616571D02*
X170326857Y-75640380D01*
X170255428Y-75664190D01*
X170207809Y-75664190D01*
X170136380Y-75640380D01*
X170088761Y-75592761D01*
X170064952Y-75545142D01*
X170041142Y-75449904D01*
X170041142Y-75378476D01*
X170064952Y-75283238D01*
X170088761Y-75235619D01*
X170136380Y-75188000D01*
X170207809Y-75164190D01*
X170255428Y-75164190D01*
X170326857Y-75188000D01*
X170350666Y-75211809D01*
X170517333Y-75164190D02*
X170850666Y-75164190D01*
X170636380Y-75664190D01*
%TO.C,U1*%
X158119047Y-88226190D02*
X158119047Y-88630952D01*
X158142857Y-88678571D01*
X158166666Y-88702380D01*
X158214285Y-88726190D01*
X158309523Y-88726190D01*
X158357142Y-88702380D01*
X158380952Y-88678571D01*
X158404761Y-88630952D01*
X158404761Y-88226190D01*
X158904761Y-88726190D02*
X158619047Y-88726190D01*
X158761904Y-88726190D02*
X158761904Y-88226190D01*
X158714285Y-88297619D01*
X158666666Y-88345238D01*
X158619047Y-88369047D01*
%TO.C,J3*%
X139172190Y-96559666D02*
X139529333Y-96559666D01*
X139600761Y-96583476D01*
X139648380Y-96631095D01*
X139672190Y-96702523D01*
X139672190Y-96750142D01*
X139172190Y-96369190D02*
X139172190Y-96059666D01*
X139362666Y-96226333D01*
X139362666Y-96154904D01*
X139386476Y-96107285D01*
X139410285Y-96083476D01*
X139457904Y-96059666D01*
X139576952Y-96059666D01*
X139624571Y-96083476D01*
X139648380Y-96107285D01*
X139672190Y-96154904D01*
X139672190Y-96297761D01*
X139648380Y-96345380D01*
X139624571Y-96369190D01*
%TO.C,C4*%
X133626571Y-77198833D02*
X133650380Y-77222642D01*
X133674190Y-77294071D01*
X133674190Y-77341690D01*
X133650380Y-77413119D01*
X133602761Y-77460738D01*
X133555142Y-77484547D01*
X133459904Y-77508357D01*
X133388476Y-77508357D01*
X133293238Y-77484547D01*
X133245619Y-77460738D01*
X133198000Y-77413119D01*
X133174190Y-77341690D01*
X133174190Y-77294071D01*
X133198000Y-77222642D01*
X133221809Y-77198833D01*
X133340857Y-76770261D02*
X133674190Y-76770261D01*
X133150380Y-76889309D02*
X133507523Y-77008357D01*
X133507523Y-76698833D01*
%TO.C,C3*%
X125752571Y-77145833D02*
X125776380Y-77169642D01*
X125800190Y-77241071D01*
X125800190Y-77288690D01*
X125776380Y-77360119D01*
X125728761Y-77407738D01*
X125681142Y-77431547D01*
X125585904Y-77455357D01*
X125514476Y-77455357D01*
X125419238Y-77431547D01*
X125371619Y-77407738D01*
X125324000Y-77360119D01*
X125300190Y-77288690D01*
X125300190Y-77241071D01*
X125324000Y-77169642D01*
X125347809Y-77145833D01*
X125300190Y-76979166D02*
X125300190Y-76669642D01*
X125490666Y-76836309D01*
X125490666Y-76764880D01*
X125514476Y-76717261D01*
X125538285Y-76693452D01*
X125585904Y-76669642D01*
X125704952Y-76669642D01*
X125752571Y-76693452D01*
X125776380Y-76717261D01*
X125800190Y-76764880D01*
X125800190Y-76907738D01*
X125776380Y-76955357D01*
X125752571Y-76979166D01*
%TO.C,Q2*%
X125809380Y-86379809D02*
X125761761Y-86356000D01*
X125714142Y-86308380D01*
X125642714Y-86236952D01*
X125595095Y-86213142D01*
X125547476Y-86213142D01*
X125571285Y-86332190D02*
X125523666Y-86308380D01*
X125476047Y-86260761D01*
X125452238Y-86165523D01*
X125452238Y-85998857D01*
X125476047Y-85903619D01*
X125523666Y-85856000D01*
X125571285Y-85832190D01*
X125666523Y-85832190D01*
X125714142Y-85856000D01*
X125761761Y-85903619D01*
X125785571Y-85998857D01*
X125785571Y-86165523D01*
X125761761Y-86260761D01*
X125714142Y-86308380D01*
X125666523Y-86332190D01*
X125571285Y-86332190D01*
X125976047Y-85879809D02*
X125999857Y-85856000D01*
X126047476Y-85832190D01*
X126166523Y-85832190D01*
X126214142Y-85856000D01*
X126237952Y-85879809D01*
X126261761Y-85927428D01*
X126261761Y-85975047D01*
X126237952Y-86046476D01*
X125952238Y-86332190D01*
X126261761Y-86332190D01*
%TO.C,J4*%
X120864333Y-93579190D02*
X120864333Y-93936333D01*
X120840523Y-94007761D01*
X120792904Y-94055380D01*
X120721476Y-94079190D01*
X120673857Y-94079190D01*
X121316714Y-93745857D02*
X121316714Y-94079190D01*
X121197666Y-93555380D02*
X121078619Y-93912523D01*
X121388142Y-93912523D01*
%TO.C,J5*%
X116058190Y-83224666D02*
X116415333Y-83224666D01*
X116486761Y-83248476D01*
X116534380Y-83296095D01*
X116558190Y-83367523D01*
X116558190Y-83415142D01*
X116058190Y-82748476D02*
X116058190Y-82986571D01*
X116296285Y-83010380D01*
X116272476Y-82986571D01*
X116248666Y-82938952D01*
X116248666Y-82819904D01*
X116272476Y-82772285D01*
X116296285Y-82748476D01*
X116343904Y-82724666D01*
X116462952Y-82724666D01*
X116510571Y-82748476D01*
X116534380Y-82772285D01*
X116558190Y-82819904D01*
X116558190Y-82938952D01*
X116534380Y-82986571D01*
X116510571Y-83010380D01*
%TO.C,Q1*%
X116018809Y-86407619D02*
X115995000Y-86455238D01*
X115947380Y-86502857D01*
X115875952Y-86574285D01*
X115852142Y-86621904D01*
X115852142Y-86669523D01*
X115971190Y-86645714D02*
X115947380Y-86693333D01*
X115899761Y-86740952D01*
X115804523Y-86764761D01*
X115637857Y-86764761D01*
X115542619Y-86740952D01*
X115495000Y-86693333D01*
X115471190Y-86645714D01*
X115471190Y-86550476D01*
X115495000Y-86502857D01*
X115542619Y-86455238D01*
X115637857Y-86431428D01*
X115804523Y-86431428D01*
X115899761Y-86455238D01*
X115947380Y-86502857D01*
X115971190Y-86550476D01*
X115971190Y-86645714D01*
X115971190Y-85955238D02*
X115971190Y-86240952D01*
X115971190Y-86098095D02*
X115471190Y-86098095D01*
X115542619Y-86145714D01*
X115590238Y-86193333D01*
X115614047Y-86240952D01*
%TO.C,R10*%
X128599571Y-87984190D02*
X128432904Y-87746095D01*
X128313857Y-87984190D02*
X128313857Y-87484190D01*
X128504333Y-87484190D01*
X128551952Y-87508000D01*
X128575761Y-87531809D01*
X128599571Y-87579428D01*
X128599571Y-87650857D01*
X128575761Y-87698476D01*
X128551952Y-87722285D01*
X128504333Y-87746095D01*
X128313857Y-87746095D01*
X129075761Y-87984190D02*
X128790047Y-87984190D01*
X128932904Y-87984190D02*
X128932904Y-87484190D01*
X128885285Y-87555619D01*
X128837666Y-87603238D01*
X128790047Y-87627047D01*
X129385285Y-87484190D02*
X129432904Y-87484190D01*
X129480523Y-87508000D01*
X129504333Y-87531809D01*
X129528142Y-87579428D01*
X129551952Y-87674666D01*
X129551952Y-87793714D01*
X129528142Y-87888952D01*
X129504333Y-87936571D01*
X129480523Y-87960380D01*
X129432904Y-87984190D01*
X129385285Y-87984190D01*
X129337666Y-87960380D01*
X129313857Y-87936571D01*
X129290047Y-87888952D01*
X129266238Y-87793714D01*
X129266238Y-87674666D01*
X129290047Y-87579428D01*
X129313857Y-87531809D01*
X129337666Y-87508000D01*
X129385285Y-87484190D01*
%TO.C,R9*%
X125773666Y-84665190D02*
X125607000Y-84427095D01*
X125487952Y-84665190D02*
X125487952Y-84165190D01*
X125678428Y-84165190D01*
X125726047Y-84189000D01*
X125749857Y-84212809D01*
X125773666Y-84260428D01*
X125773666Y-84331857D01*
X125749857Y-84379476D01*
X125726047Y-84403285D01*
X125678428Y-84427095D01*
X125487952Y-84427095D01*
X126011761Y-84665190D02*
X126107000Y-84665190D01*
X126154619Y-84641380D01*
X126178428Y-84617571D01*
X126226047Y-84546142D01*
X126249857Y-84450904D01*
X126249857Y-84260428D01*
X126226047Y-84212809D01*
X126202238Y-84189000D01*
X126154619Y-84165190D01*
X126059380Y-84165190D01*
X126011761Y-84189000D01*
X125987952Y-84212809D01*
X125964142Y-84260428D01*
X125964142Y-84379476D01*
X125987952Y-84427095D01*
X126011761Y-84450904D01*
X126059380Y-84474714D01*
X126154619Y-84474714D01*
X126202238Y-84450904D01*
X126226047Y-84427095D01*
X126249857Y-84379476D01*
%TO.C,U2*%
X130810047Y-80629190D02*
X130810047Y-81033952D01*
X130833857Y-81081571D01*
X130857666Y-81105380D01*
X130905285Y-81129190D01*
X131000523Y-81129190D01*
X131048142Y-81105380D01*
X131071952Y-81081571D01*
X131095761Y-81033952D01*
X131095761Y-80629190D01*
X131310047Y-80676809D02*
X131333857Y-80653000D01*
X131381476Y-80629190D01*
X131500523Y-80629190D01*
X131548142Y-80653000D01*
X131571952Y-80676809D01*
X131595761Y-80724428D01*
X131595761Y-80772047D01*
X131571952Y-80843476D01*
X131286238Y-81129190D01*
X131595761Y-81129190D01*
%TO.C,J2*%
X171313333Y-88306190D02*
X171313333Y-88663333D01*
X171289523Y-88734761D01*
X171241904Y-88782380D01*
X171170476Y-88806190D01*
X171122857Y-88806190D01*
X171527619Y-88353809D02*
X171551428Y-88330000D01*
X171599047Y-88306190D01*
X171718095Y-88306190D01*
X171765714Y-88330000D01*
X171789523Y-88353809D01*
X171813333Y-88401428D01*
X171813333Y-88449047D01*
X171789523Y-88520476D01*
X171503809Y-88806190D01*
X171813333Y-88806190D01*
%TO.C,*%
%TO.C,R8*%
X125574190Y-92904333D02*
X125336095Y-93071000D01*
X125574190Y-93190047D02*
X125074190Y-93190047D01*
X125074190Y-92999571D01*
X125098000Y-92951952D01*
X125121809Y-92928142D01*
X125169428Y-92904333D01*
X125240857Y-92904333D01*
X125288476Y-92928142D01*
X125312285Y-92951952D01*
X125336095Y-92999571D01*
X125336095Y-93190047D01*
X125288476Y-92618619D02*
X125264666Y-92666238D01*
X125240857Y-92690047D01*
X125193238Y-92713857D01*
X125169428Y-92713857D01*
X125121809Y-92690047D01*
X125098000Y-92666238D01*
X125074190Y-92618619D01*
X125074190Y-92523380D01*
X125098000Y-92475761D01*
X125121809Y-92451952D01*
X125169428Y-92428142D01*
X125193238Y-92428142D01*
X125240857Y-92451952D01*
X125264666Y-92475761D01*
X125288476Y-92523380D01*
X125288476Y-92618619D01*
X125312285Y-92666238D01*
X125336095Y-92690047D01*
X125383714Y-92713857D01*
X125478952Y-92713857D01*
X125526571Y-92690047D01*
X125550380Y-92666238D01*
X125574190Y-92618619D01*
X125574190Y-92523380D01*
X125550380Y-92475761D01*
X125526571Y-92451952D01*
X125478952Y-92428142D01*
X125383714Y-92428142D01*
X125336095Y-92451952D01*
X125312285Y-92475761D01*
X125288476Y-92523380D01*
%TO.C,R7*%
X135187666Y-88746190D02*
X135021000Y-88508095D01*
X134901952Y-88746190D02*
X134901952Y-88246190D01*
X135092428Y-88246190D01*
X135140047Y-88270000D01*
X135163857Y-88293809D01*
X135187666Y-88341428D01*
X135187666Y-88412857D01*
X135163857Y-88460476D01*
X135140047Y-88484285D01*
X135092428Y-88508095D01*
X134901952Y-88508095D01*
X135354333Y-88246190D02*
X135687666Y-88246190D01*
X135473380Y-88746190D01*
%TO.C,R6*%
X122598666Y-77315190D02*
X122432000Y-77077095D01*
X122312952Y-77315190D02*
X122312952Y-76815190D01*
X122503428Y-76815190D01*
X122551047Y-76839000D01*
X122574857Y-76862809D01*
X122598666Y-76910428D01*
X122598666Y-76981857D01*
X122574857Y-77029476D01*
X122551047Y-77053285D01*
X122503428Y-77077095D01*
X122312952Y-77077095D01*
X123027238Y-76815190D02*
X122932000Y-76815190D01*
X122884380Y-76839000D01*
X122860571Y-76862809D01*
X122812952Y-76934238D01*
X122789142Y-77029476D01*
X122789142Y-77219952D01*
X122812952Y-77267571D01*
X122836761Y-77291380D01*
X122884380Y-77315190D01*
X122979619Y-77315190D01*
X123027238Y-77291380D01*
X123051047Y-77267571D01*
X123074857Y-77219952D01*
X123074857Y-77100904D01*
X123051047Y-77053285D01*
X123027238Y-77029476D01*
X122979619Y-77005666D01*
X122884380Y-77005666D01*
X122836761Y-77029476D01*
X122812952Y-77053285D01*
X122789142Y-77100904D01*
%TO.C,R5*%
X122598666Y-80109190D02*
X122432000Y-79871095D01*
X122312952Y-80109190D02*
X122312952Y-79609190D01*
X122503428Y-79609190D01*
X122551047Y-79633000D01*
X122574857Y-79656809D01*
X122598666Y-79704428D01*
X122598666Y-79775857D01*
X122574857Y-79823476D01*
X122551047Y-79847285D01*
X122503428Y-79871095D01*
X122312952Y-79871095D01*
X123051047Y-79609190D02*
X122812952Y-79609190D01*
X122789142Y-79847285D01*
X122812952Y-79823476D01*
X122860571Y-79799666D01*
X122979619Y-79799666D01*
X123027238Y-79823476D01*
X123051047Y-79847285D01*
X123074857Y-79894904D01*
X123074857Y-80013952D01*
X123051047Y-80061571D01*
X123027238Y-80085380D01*
X122979619Y-80109190D01*
X122860571Y-80109190D01*
X122812952Y-80085380D01*
X122789142Y-80061571D01*
%TO.C,R4*%
X149376190Y-90083333D02*
X149138095Y-90250000D01*
X149376190Y-90369047D02*
X148876190Y-90369047D01*
X148876190Y-90178571D01*
X148900000Y-90130952D01*
X148923809Y-90107142D01*
X148971428Y-90083333D01*
X149042857Y-90083333D01*
X149090476Y-90107142D01*
X149114285Y-90130952D01*
X149138095Y-90178571D01*
X149138095Y-90369047D01*
X149042857Y-89654761D02*
X149376190Y-89654761D01*
X148852380Y-89773809D02*
X149209523Y-89892857D01*
X149209523Y-89583333D01*
%TO.C,R3*%
X146130190Y-90083333D02*
X145892095Y-90250000D01*
X146130190Y-90369047D02*
X145630190Y-90369047D01*
X145630190Y-90178571D01*
X145654000Y-90130952D01*
X145677809Y-90107142D01*
X145725428Y-90083333D01*
X145796857Y-90083333D01*
X145844476Y-90107142D01*
X145868285Y-90130952D01*
X145892095Y-90178571D01*
X145892095Y-90369047D01*
X145630190Y-89916666D02*
X145630190Y-89607142D01*
X145820666Y-89773809D01*
X145820666Y-89702380D01*
X145844476Y-89654761D01*
X145868285Y-89630952D01*
X145915904Y-89607142D01*
X146034952Y-89607142D01*
X146082571Y-89630952D01*
X146106380Y-89654761D01*
X146130190Y-89702380D01*
X146130190Y-89845238D01*
X146106380Y-89892857D01*
X146082571Y-89916666D01*
%TO.C,R2*%
X142876190Y-90083333D02*
X142638095Y-90250000D01*
X142876190Y-90369047D02*
X142376190Y-90369047D01*
X142376190Y-90178571D01*
X142400000Y-90130952D01*
X142423809Y-90107142D01*
X142471428Y-90083333D01*
X142542857Y-90083333D01*
X142590476Y-90107142D01*
X142614285Y-90130952D01*
X142638095Y-90178571D01*
X142638095Y-90369047D01*
X142423809Y-89892857D02*
X142400000Y-89869047D01*
X142376190Y-89821428D01*
X142376190Y-89702380D01*
X142400000Y-89654761D01*
X142423809Y-89630952D01*
X142471428Y-89607142D01*
X142519047Y-89607142D01*
X142590476Y-89630952D01*
X142876190Y-89916666D01*
X142876190Y-89607142D01*
%TO.C,D5*%
X118195452Y-77315190D02*
X118195452Y-76815190D01*
X118314500Y-76815190D01*
X118385928Y-76839000D01*
X118433547Y-76886619D01*
X118457357Y-76934238D01*
X118481166Y-77029476D01*
X118481166Y-77100904D01*
X118457357Y-77196142D01*
X118433547Y-77243761D01*
X118385928Y-77291380D01*
X118314500Y-77315190D01*
X118195452Y-77315190D01*
X118933547Y-76815190D02*
X118695452Y-76815190D01*
X118671642Y-77053285D01*
X118695452Y-77029476D01*
X118743071Y-77005666D01*
X118862119Y-77005666D01*
X118909738Y-77029476D01*
X118933547Y-77053285D01*
X118957357Y-77100904D01*
X118957357Y-77219952D01*
X118933547Y-77267571D01*
X118909738Y-77291380D01*
X118862119Y-77315190D01*
X118743071Y-77315190D01*
X118695452Y-77291380D01*
X118671642Y-77267571D01*
%TO.C,D4*%
X118248952Y-80109190D02*
X118248952Y-79609190D01*
X118368000Y-79609190D01*
X118439428Y-79633000D01*
X118487047Y-79680619D01*
X118510857Y-79728238D01*
X118534666Y-79823476D01*
X118534666Y-79894904D01*
X118510857Y-79990142D01*
X118487047Y-80037761D01*
X118439428Y-80085380D01*
X118368000Y-80109190D01*
X118248952Y-80109190D01*
X118963238Y-79775857D02*
X118963238Y-80109190D01*
X118844190Y-79585380D02*
X118725142Y-79942523D01*
X119034666Y-79942523D01*
%TO.C,D3*%
X146126190Y-94831547D02*
X145626190Y-94831547D01*
X145626190Y-94712500D01*
X145650000Y-94641071D01*
X145697619Y-94593452D01*
X145745238Y-94569642D01*
X145840476Y-94545833D01*
X145911904Y-94545833D01*
X146007142Y-94569642D01*
X146054761Y-94593452D01*
X146102380Y-94641071D01*
X146126190Y-94712500D01*
X146126190Y-94831547D01*
X145626190Y-94379166D02*
X145626190Y-94069642D01*
X145816666Y-94236309D01*
X145816666Y-94164880D01*
X145840476Y-94117261D01*
X145864285Y-94093452D01*
X145911904Y-94069642D01*
X146030952Y-94069642D01*
X146078571Y-94093452D01*
X146102380Y-94117261D01*
X146126190Y-94164880D01*
X146126190Y-94307738D01*
X146102380Y-94355357D01*
X146078571Y-94379166D01*
%TO.C,D2*%
X142880190Y-94831547D02*
X142380190Y-94831547D01*
X142380190Y-94712500D01*
X142404000Y-94641071D01*
X142451619Y-94593452D01*
X142499238Y-94569642D01*
X142594476Y-94545833D01*
X142665904Y-94545833D01*
X142761142Y-94569642D01*
X142808761Y-94593452D01*
X142856380Y-94641071D01*
X142880190Y-94712500D01*
X142880190Y-94831547D01*
X142427809Y-94355357D02*
X142404000Y-94331547D01*
X142380190Y-94283928D01*
X142380190Y-94164880D01*
X142404000Y-94117261D01*
X142427809Y-94093452D01*
X142475428Y-94069642D01*
X142523047Y-94069642D01*
X142594476Y-94093452D01*
X142880190Y-94379166D01*
X142880190Y-94069642D01*
%TO.C,D1*%
X139626190Y-94831547D02*
X139126190Y-94831547D01*
X139126190Y-94712500D01*
X139150000Y-94641071D01*
X139197619Y-94593452D01*
X139245238Y-94569642D01*
X139340476Y-94545833D01*
X139411904Y-94545833D01*
X139507142Y-94569642D01*
X139554761Y-94593452D01*
X139602380Y-94641071D01*
X139626190Y-94712500D01*
X139626190Y-94831547D01*
X139626190Y-94069642D02*
X139626190Y-94355357D01*
X139626190Y-94212500D02*
X139126190Y-94212500D01*
X139197619Y-94260119D01*
X139245238Y-94307738D01*
X139269047Y-94355357D01*
%TO.C,Y1*%
X158900904Y-73438095D02*
X158900904Y-73676190D01*
X158734238Y-73176190D02*
X158900904Y-73438095D01*
X159067571Y-73176190D01*
X159496142Y-73676190D02*
X159210428Y-73676190D01*
X159353285Y-73676190D02*
X159353285Y-73176190D01*
X159305666Y-73247619D01*
X159258047Y-73295238D01*
X159210428Y-73319047D01*
%TO.C,R1*%
X172017666Y-76554190D02*
X171851000Y-76316095D01*
X171731952Y-76554190D02*
X171731952Y-76054190D01*
X171922428Y-76054190D01*
X171970047Y-76078000D01*
X171993857Y-76101809D01*
X172017666Y-76149428D01*
X172017666Y-76220857D01*
X171993857Y-76268476D01*
X171970047Y-76292285D01*
X171922428Y-76316095D01*
X171731952Y-76316095D01*
X172493857Y-76554190D02*
X172208142Y-76554190D01*
X172351000Y-76554190D02*
X172351000Y-76054190D01*
X172303380Y-76125619D01*
X172255761Y-76173238D01*
X172208142Y-76197047D01*
%TO.C,C2*%
X167937666Y-79553571D02*
X167913857Y-79577380D01*
X167842428Y-79601190D01*
X167794809Y-79601190D01*
X167723380Y-79577380D01*
X167675761Y-79529761D01*
X167651952Y-79482142D01*
X167628142Y-79386904D01*
X167628142Y-79315476D01*
X167651952Y-79220238D01*
X167675761Y-79172619D01*
X167723380Y-79125000D01*
X167794809Y-79101190D01*
X167842428Y-79101190D01*
X167913857Y-79125000D01*
X167937666Y-79148809D01*
X168128142Y-79148809D02*
X168151952Y-79125000D01*
X168199571Y-79101190D01*
X168318619Y-79101190D01*
X168366238Y-79125000D01*
X168390047Y-79148809D01*
X168413857Y-79196428D01*
X168413857Y-79244047D01*
X168390047Y-79315476D01*
X168104333Y-79601190D01*
X168413857Y-79601190D01*
%TO.C,C1*%
X149374571Y-76134833D02*
X149398380Y-76158642D01*
X149422190Y-76230071D01*
X149422190Y-76277690D01*
X149398380Y-76349119D01*
X149350761Y-76396738D01*
X149303142Y-76420547D01*
X149207904Y-76444357D01*
X149136476Y-76444357D01*
X149041238Y-76420547D01*
X148993619Y-76396738D01*
X148946000Y-76349119D01*
X148922190Y-76277690D01*
X148922190Y-76230071D01*
X148946000Y-76158642D01*
X148969809Y-76134833D01*
X149422190Y-75658642D02*
X149422190Y-75944357D01*
X149422190Y-75801500D02*
X148922190Y-75801500D01*
X148993619Y-75849119D01*
X149041238Y-75896738D01*
X149065047Y-75944357D01*
%TD*%
M02*
