%TF.GenerationSoftware,KiCad,Pcbnew,5.1.10-88a1d61d58~88~ubuntu20.04.1*%
%TF.CreationDate,2021-05-06T15:24:52+10:00*%
%TF.ProjectId,FlightBridgePCB,466c6967-6874-4427-9269-646765504342,rev?*%
%TF.SameCoordinates,Original*%
%TF.FileFunction,Legend,Bot*%
%TF.FilePolarity,Positive*%
%FSLAX46Y46*%
G04 Gerber Fmt 4.6, Leading zero omitted, Abs format (unit mm)*
G04 Created by KiCad (PCBNEW 5.1.10-88a1d61d58~88~ubuntu20.04.1) date 2021-05-06 15:24:52*
%MOMM*%
%LPD*%
G01*
G04 APERTURE LIST*
%ADD10C,0.120000*%
%ADD11C,0.125000*%
%ADD12C,0.150000*%
G04 APERTURE END LIST*
D10*
%TO.C,C6*%
X122964752Y-81634000D02*
X122442248Y-81634000D01*
X122964752Y-80164000D02*
X122442248Y-80164000D01*
%TO.C,C5*%
X123048752Y-79602000D02*
X122526248Y-79602000D01*
X123048752Y-78132000D02*
X122526248Y-78132000D01*
%TO.C,J1*%
X117288000Y-72774000D02*
X117288000Y-74104000D01*
X117288000Y-74104000D02*
X118618000Y-74104000D01*
X117288000Y-71504000D02*
X119888000Y-71504000D01*
X119888000Y-71504000D02*
X119888000Y-74104000D01*
X119888000Y-74104000D02*
X168208000Y-74104000D01*
X168208000Y-68904000D02*
X168208000Y-74104000D01*
X117288000Y-68904000D02*
X168208000Y-68904000D01*
X117288000Y-68904000D02*
X117288000Y-71504000D01*
%TO.C,C6*%
D11*
X122786833Y-79397571D02*
X122810642Y-79421380D01*
X122882071Y-79445190D01*
X122929690Y-79445190D01*
X123001119Y-79421380D01*
X123048738Y-79373761D01*
X123072547Y-79326142D01*
X123096357Y-79230904D01*
X123096357Y-79159476D01*
X123072547Y-79064238D01*
X123048738Y-79016619D01*
X123001119Y-78969000D01*
X122929690Y-78945190D01*
X122882071Y-78945190D01*
X122810642Y-78969000D01*
X122786833Y-78992809D01*
X122358261Y-78945190D02*
X122453500Y-78945190D01*
X122501119Y-78969000D01*
X122524928Y-78992809D01*
X122572547Y-79064238D01*
X122596357Y-79159476D01*
X122596357Y-79349952D01*
X122572547Y-79397571D01*
X122548738Y-79421380D01*
X122501119Y-79445190D01*
X122405880Y-79445190D01*
X122358261Y-79421380D01*
X122334452Y-79397571D01*
X122310642Y-79349952D01*
X122310642Y-79230904D01*
X122334452Y-79183285D01*
X122358261Y-79159476D01*
X122405880Y-79135666D01*
X122501119Y-79135666D01*
X122548738Y-79159476D01*
X122572547Y-79183285D01*
X122596357Y-79230904D01*
%TO.C,C5*%
X122870833Y-77365571D02*
X122894642Y-77389380D01*
X122966071Y-77413190D01*
X123013690Y-77413190D01*
X123085119Y-77389380D01*
X123132738Y-77341761D01*
X123156547Y-77294142D01*
X123180357Y-77198904D01*
X123180357Y-77127476D01*
X123156547Y-77032238D01*
X123132738Y-76984619D01*
X123085119Y-76937000D01*
X123013690Y-76913190D01*
X122966071Y-76913190D01*
X122894642Y-76937000D01*
X122870833Y-76960809D01*
X122418452Y-76913190D02*
X122656547Y-76913190D01*
X122680357Y-77151285D01*
X122656547Y-77127476D01*
X122608928Y-77103666D01*
X122489880Y-77103666D01*
X122442261Y-77127476D01*
X122418452Y-77151285D01*
X122394642Y-77198904D01*
X122394642Y-77317952D01*
X122418452Y-77365571D01*
X122442261Y-77389380D01*
X122489880Y-77413190D01*
X122608928Y-77413190D01*
X122656547Y-77389380D01*
X122680357Y-77365571D01*
%TO.C,J1*%
D12*
X115300380Y-71170666D02*
X116014666Y-71170666D01*
X116157523Y-71123047D01*
X116252761Y-71027809D01*
X116300380Y-70884952D01*
X116300380Y-70789714D01*
X116300380Y-72170666D02*
X116300380Y-71599238D01*
X116300380Y-71884952D02*
X115300380Y-71884952D01*
X115443238Y-71789714D01*
X115538476Y-71694476D01*
X115586095Y-71599238D01*
%TD*%
M02*
