M48
; DRILL file {KiCad 5.1.10-88a1d61d58~88~ubuntu20.04.1} date Thu May  6 15:24:49 2021
; FORMAT={-:-/ absolute / inch / decimal}
; #@! TF.CreationDate,2021-05-06T15:24:49+10:00
; #@! TF.GenerationSoftware,Kicad,Pcbnew,5.1.10-88a1d61d58~88~ubuntu20.04.1
; #@! TF.FileFunction,Plated,1,2,PTH
FMAT,2
INCH
T1C0.0157
T2C0.0295
T3C0.0394
T4C0.0433
T5C0.0591
%
G90
G05
T1
X4.495Y-3.38
X4.535Y-3.435
X4.575Y-3.38
X4.585Y-3.22
X4.585Y-3.31
X4.6Y-3.035
X4.61Y-3.435
X4.65Y-3.22
X4.65Y-3.31
X4.65Y-3.38
X4.825Y-3.43
X4.905Y-3.44
X4.935Y-3.06
X4.935Y-3.25
X4.9563Y-2.9737
X4.98Y-3.25
X4.995Y-3.57
X5.0Y-3.45
X5.032Y-3.373
X5.0599Y-2.9603
X5.0675Y-3.2486
X5.07Y-2.9222
X5.115Y-3.585
X5.12Y-3.175
X5.1789Y-3.5
X5.18Y-3.28
X5.225Y-3.41
X5.28Y-3.35
X5.31Y-3.55
X5.3898Y-3.0002
X5.39Y-3.13
X5.39Y-3.41
X5.39Y-3.48
X5.43Y-3.0
X5.43Y-3.13
X5.43Y-3.41
X5.43Y-3.48
X5.74Y-3.465
X5.74Y-3.755
X5.785Y-3.4311
X5.795Y-3.08
X5.835Y-3.4
X5.87Y-3.505
X5.875Y-3.635
X6.0Y-2.95
X6.0Y-3.51
X6.0099Y-3.4011
X6.0394Y-3.51
X6.0787Y-3.51
X6.19Y-3.7343
X6.31Y-3.235
X6.35Y-3.27
X6.35Y-3.52
X6.35Y-3.69
X6.381Y-3.7343
X6.475Y-3.52
X6.535Y-3.135
X6.61Y-3.52
X6.62Y-3.135
X6.64Y-3.66
X6.7Y-3.59
X6.705Y-3.01
X6.805Y-3.52
T2
X5.12Y-3.05
X5.17Y-3.05
X5.22Y-3.05
T3
X4.67Y-2.7651
X4.67Y-2.8651
X4.77Y-2.7651
X4.77Y-2.8651
X4.77Y-3.69
X4.87Y-2.7651
X4.87Y-2.8651
X4.87Y-3.69
X4.97Y-2.7651
X4.97Y-2.8651
X4.97Y-3.69
X5.07Y-2.7651
X5.07Y-2.8651
X5.07Y-3.69
X5.17Y-2.7651
X5.17Y-2.8651
X5.21Y-3.69
X5.27Y-2.7651
X5.27Y-2.8651
X5.31Y-3.69
X5.37Y-2.7651
X5.37Y-2.8651
X5.41Y-3.69
X5.47Y-2.7651
X5.47Y-2.8651
X5.57Y-2.7651
X5.57Y-2.8651
X5.67Y-2.7651
X5.67Y-2.8651
X5.77Y-2.7651
X5.77Y-2.8651
X5.87Y-2.7651
X5.87Y-2.8651
X5.97Y-2.7651
X5.97Y-2.8651
X6.07Y-2.7651
X6.07Y-2.8651
X6.17Y-2.7651
X6.17Y-2.8651
X6.27Y-2.7651
X6.27Y-2.8651
X6.37Y-2.7651
X6.37Y-2.8651
X6.47Y-2.7651
X6.47Y-2.8651
X6.57Y-2.7651
X6.57Y-2.8651
X6.7012Y-3.1957
X6.7012Y-3.2957
X6.7012Y-3.3957
X6.8012Y-3.1957
X6.8012Y-3.2957
X6.8012Y-3.3957
T4
X4.725Y-3.3
X4.725Y-3.4
X4.725Y-3.5
T5
X4.48Y-3.02
X4.48Y-3.27
X4.48Y-3.52
T0
M30
