%TF.GenerationSoftware,KiCad,Pcbnew,(5.1.9)-1*%
%TF.CreationDate,2021-04-12T22:32:52+10:00*%
%TF.ProjectId,FlightBridgePCB,466c6967-6874-4427-9269-646765504342,rev?*%
%TF.SameCoordinates,Original*%
%TF.FileFunction,Copper,L2,Bot*%
%TF.FilePolarity,Positive*%
%FSLAX46Y46*%
G04 Gerber Fmt 4.6, Leading zero omitted, Abs format (unit mm)*
G04 Created by KiCad (PCBNEW (5.1.9)-1) date 2021-04-12 22:32:52*
%MOMM*%
%LPD*%
G01*
G04 APERTURE LIST*
%TA.AperFunction,SMDPad,CuDef*%
%ADD10R,0.650000X1.220000*%
%TD*%
%TA.AperFunction,ComponentPad*%
%ADD11O,1.700000X1.700000*%
%TD*%
%TA.AperFunction,ComponentPad*%
%ADD12R,1.700000X1.700000*%
%TD*%
%TA.AperFunction,ViaPad*%
%ADD13C,0.800000*%
%TD*%
%TA.AperFunction,Conductor*%
%ADD14C,0.381000*%
%TD*%
%TA.AperFunction,Conductor*%
%ADD15C,0.508000*%
%TD*%
%TA.AperFunction,Conductor*%
%ADD16C,0.254000*%
%TD*%
%TA.AperFunction,Conductor*%
%ADD17C,0.100000*%
%TD*%
G04 APERTURE END LIST*
D10*
%TO.P,U2,5*%
%TO.N,Net-(U2-Pad5)*%
X129220000Y-79970000D03*
%TO.P,U2,4*%
%TO.N,Net-(U2-Pad4)*%
X127320000Y-79970000D03*
%TO.P,U2,3*%
%TO.N,Net-(U2-Pad3)*%
X127320000Y-82590000D03*
%TO.P,U2,2*%
%TO.N,Net-(U2-Pad2)*%
X128270000Y-82590000D03*
%TO.P,U2,1*%
%TO.N,Net-(U2-Pad1)*%
X129220000Y-82590000D03*
%TD*%
D11*
%TO.P,J4,3*%
%TO.N,UART_TELEM_EXT*%
X119920000Y-94000000D03*
%TO.P,J4,2*%
%TO.N,GND*%
X122460000Y-94000000D03*
D12*
%TO.P,J4,1*%
%TO.N,+5V*%
X125000000Y-94000000D03*
%TD*%
D11*
%TO.P,J2,6*%
%TO.N,GND*%
X170210000Y-81170000D03*
%TO.P,J2,5*%
%TO.N,~RST~*%
X172750000Y-81170000D03*
%TO.P,J2,4*%
%TO.N,MOSI*%
X170210000Y-83710000D03*
%TO.P,J2,3*%
%TO.N,SCK*%
X172750000Y-83710000D03*
%TO.P,J2,2*%
%TO.N,+3V3*%
X170210000Y-86250000D03*
D12*
%TO.P,J2,1*%
%TO.N,MISO*%
X172750000Y-86250000D03*
%TD*%
D11*
%TO.P,J5,4*%
%TO.N,AUX2*%
X129380000Y-94000000D03*
%TO.P,J5,3*%
%TO.N,AUX1*%
X131920000Y-94000000D03*
%TO.P,J5,2*%
%TO.N,GND*%
X134460000Y-94000000D03*
D12*
%TO.P,J5,1*%
%TO.N,+3V3*%
X137000000Y-94000000D03*
%TD*%
D11*
%TO.P,J3,5*%
%TO.N,UART_RESET*%
X114000000Y-78380000D03*
%TO.P,J3,4*%
%TO.N,UART_SBUS*%
X114000000Y-80920000D03*
%TO.P,J3,3*%
%TO.N,UART_TELEM_FC*%
X114000000Y-83460000D03*
%TO.P,J3,2*%
%TO.N,GND*%
X114000000Y-86000000D03*
D12*
%TO.P,J3,1*%
%TO.N,+5V*%
X114000000Y-88540000D03*
%TD*%
D11*
%TO.P,J1,40*%
%TO.N,Net-(J1-Pad40)*%
X166878000Y-70234000D03*
%TO.P,J1,39*%
%TO.N,GND*%
X166878000Y-72774000D03*
%TO.P,J1,38*%
%TO.N,Net-(J1-Pad38)*%
X164338000Y-70234000D03*
%TO.P,J1,37*%
%TO.N,Net-(J1-Pad37)*%
X164338000Y-72774000D03*
%TO.P,J1,36*%
%TO.N,Net-(J1-Pad36)*%
X161798000Y-70234000D03*
%TO.P,J1,35*%
%TO.N,Net-(J1-Pad35)*%
X161798000Y-72774000D03*
%TO.P,J1,34*%
%TO.N,GND*%
X159258000Y-70234000D03*
%TO.P,J1,33*%
%TO.N,Net-(J1-Pad33)*%
X159258000Y-72774000D03*
%TO.P,J1,32*%
%TO.N,Net-(J1-Pad32)*%
X156718000Y-70234000D03*
%TO.P,J1,31*%
%TO.N,Net-(J1-Pad31)*%
X156718000Y-72774000D03*
%TO.P,J1,30*%
%TO.N,GND*%
X154178000Y-70234000D03*
%TO.P,J1,29*%
%TO.N,Net-(J1-Pad29)*%
X154178000Y-72774000D03*
%TO.P,J1,28*%
%TO.N,Net-(J1-Pad28)*%
X151638000Y-70234000D03*
%TO.P,J1,27*%
%TO.N,Net-(J1-Pad27)*%
X151638000Y-72774000D03*
%TO.P,J1,26*%
%TO.N,Net-(J1-Pad26)*%
X149098000Y-70234000D03*
%TO.P,J1,25*%
%TO.N,GND*%
X149098000Y-72774000D03*
%TO.P,J1,24*%
%TO.N,Net-(J1-Pad24)*%
X146558000Y-70234000D03*
%TO.P,J1,23*%
%TO.N,Net-(J1-Pad23)*%
X146558000Y-72774000D03*
%TO.P,J1,22*%
%TO.N,Net-(J1-Pad22)*%
X144018000Y-70234000D03*
%TO.P,J1,21*%
%TO.N,Net-(J1-Pad21)*%
X144018000Y-72774000D03*
%TO.P,J1,20*%
%TO.N,GND*%
X141478000Y-70234000D03*
%TO.P,J1,19*%
%TO.N,Net-(J1-Pad19)*%
X141478000Y-72774000D03*
%TO.P,J1,18*%
%TO.N,Net-(J1-Pad18)*%
X138938000Y-70234000D03*
%TO.P,J1,17*%
%TO.N,+3V3*%
X138938000Y-72774000D03*
%TO.P,J1,16*%
%TO.N,SUPERVISOR_RESET*%
X136398000Y-70234000D03*
%TO.P,J1,15*%
%TO.N,ABORT*%
X136398000Y-72774000D03*
%TO.P,J1,14*%
%TO.N,GND*%
X133858000Y-70234000D03*
%TO.P,J1,13*%
%TO.N,Net-(J1-Pad13)*%
X133858000Y-72774000D03*
%TO.P,J1,12*%
%TO.N,Net-(J1-Pad12)*%
X131318000Y-70234000D03*
%TO.P,J1,11*%
%TO.N,Net-(J1-Pad11)*%
X131318000Y-72774000D03*
%TO.P,J1,10*%
%TO.N,UART_TELEM_PI*%
X128778000Y-70234000D03*
%TO.P,J1,9*%
%TO.N,GND*%
X128778000Y-72774000D03*
%TO.P,J1,8*%
%TO.N,UART_SBUS*%
X126238000Y-70234000D03*
%TO.P,J1,7*%
%TO.N,Net-(J1-Pad7)*%
X126238000Y-72774000D03*
%TO.P,J1,6*%
%TO.N,GND*%
X123698000Y-70234000D03*
%TO.P,J1,5*%
%TO.N,Net-(J1-Pad5)*%
X123698000Y-72774000D03*
%TO.P,J1,4*%
%TO.N,+5V*%
X121158000Y-70234000D03*
%TO.P,J1,3*%
%TO.N,Net-(J1-Pad3)*%
X121158000Y-72774000D03*
%TO.P,J1,2*%
%TO.N,+5V*%
X118618000Y-70234000D03*
D12*
%TO.P,J1,1*%
%TO.N,+3V3*%
X118618000Y-72774000D03*
%TD*%
D13*
%TO.N,GND*%
X162500000Y-94750000D03*
X155956671Y-94913342D03*
X139000000Y-95500000D03*
X160250000Y-82250000D03*
%TO.N,+3V3*%
X168000000Y-90500000D03*
X164000000Y-90500000D03*
X137000000Y-89000000D03*
X137000000Y-85500000D03*
X137000000Y-80000000D03*
X164500000Y-82500000D03*
X169000000Y-78500000D03*
X124000000Y-78000000D03*
X126000000Y-78000000D03*
X129000000Y-78000000D03*
X134500000Y-78000000D03*
X140250000Y-75000000D03*
X137750000Y-77500000D03*
X153000000Y-86000000D03*
X145000000Y-85749994D03*
%TO.N,+5V*%
X117000000Y-91500000D03*
X121250000Y-91500000D03*
X118364000Y-81280000D03*
%TO.N,UART_TELEM_PI*%
X164000000Y-92000000D03*
X145000000Y-81250000D03*
%TO.N,UART_SBUS*%
X163167948Y-92554701D03*
X145000000Y-82500000D03*
%TO.N,UART_RESET*%
X152500000Y-83500000D03*
X145000000Y-83500000D03*
%TO.N,A*%
X155000000Y-90000000D03*
X145000000Y-86749997D03*
%TO.N,R*%
X153750000Y-90000000D03*
X145000000Y-87750000D03*
%TO.N,UART_TELEM*%
X152500000Y-84500000D03*
X145000000Y-84500000D03*
%TO.N,AUX2*%
X152500000Y-91750000D03*
X138750000Y-90000000D03*
%TO.N,AUX1*%
X152500000Y-93250000D03*
X138750000Y-91250000D03*
%TD*%
D14*
%TO.N,GND*%
X128778000Y-72774000D02*
X127504000Y-71500000D01*
X124964000Y-71500000D02*
X123698000Y-70234000D01*
X127504000Y-71500000D02*
X124964000Y-71500000D01*
D15*
%TO.N,+3V3*%
X168000000Y-90500000D02*
X164000000Y-90500000D01*
X137000000Y-92250000D02*
X137000000Y-89000000D01*
X137000000Y-85500000D02*
X137000000Y-80000000D01*
X168500000Y-78500000D02*
X169000000Y-78500000D01*
X164500000Y-82500000D02*
X168500000Y-78500000D01*
X124000000Y-78000000D02*
X126000000Y-78000000D01*
X129000000Y-78000000D02*
X134500000Y-78000000D01*
X140250000Y-75000000D02*
X137750000Y-77500000D01*
X152749994Y-85749994D02*
X145000000Y-85749994D01*
X153000000Y-86000000D02*
X152749994Y-85749994D01*
X137000000Y-92250000D02*
X137000000Y-94000000D01*
%TO.N,+5V*%
X117000000Y-91500000D02*
X121250000Y-91500000D01*
X117000000Y-91500000D02*
X117000000Y-81500000D01*
X118144000Y-81500000D02*
X118364000Y-81280000D01*
X117000000Y-81500000D02*
X118144000Y-81500000D01*
%TO.N,UART_TELEM_PI*%
X164000000Y-92000000D02*
X163500000Y-91500000D01*
X163500000Y-91500000D02*
X160750000Y-91500000D01*
X160750000Y-91500000D02*
X159750000Y-90500000D01*
X159750000Y-90500000D02*
X159500000Y-90250000D01*
X159500000Y-90250000D02*
X159500000Y-83000000D01*
X159500000Y-83000000D02*
X158250000Y-81750000D01*
X157750000Y-81250000D02*
X145000000Y-81250000D01*
X158250000Y-81750000D02*
X157750000Y-81250000D01*
%TO.N,UART_SBUS*%
X124933999Y-68929999D02*
X118070001Y-68929999D01*
X126238000Y-70234000D02*
X124933999Y-68929999D01*
X118070001Y-68929999D02*
X117000000Y-70000000D01*
X117000000Y-70000000D02*
X117000000Y-80000000D01*
X116080000Y-80920000D02*
X114000000Y-80920000D01*
X117000000Y-80000000D02*
X116080000Y-80920000D01*
X163250000Y-92500000D02*
X160000000Y-92500000D01*
X160000000Y-92500000D02*
X158000000Y-90500000D01*
X158000000Y-90500000D02*
X158000000Y-83500000D01*
X158000000Y-83500000D02*
X157250000Y-82750000D01*
X157250000Y-82750000D02*
X157000000Y-82500000D01*
X157000000Y-82500000D02*
X145000000Y-82500000D01*
%TO.N,UART_RESET*%
X147500000Y-83500000D02*
X152500000Y-83500000D01*
X147500000Y-83500000D02*
X146250000Y-83500000D01*
X146250000Y-83500000D02*
X145000000Y-83500000D01*
%TO.N,A*%
X151749997Y-86749997D02*
X145000000Y-86749997D01*
X155000000Y-90000000D02*
X151749997Y-86749997D01*
%TO.N,R*%
X153750000Y-90000000D02*
X151500000Y-87750000D01*
X151500000Y-87750000D02*
X145000000Y-87750000D01*
%TO.N,UART_TELEM*%
X147500000Y-84500000D02*
X152500000Y-84500000D01*
X147500000Y-84500000D02*
X146250000Y-84500000D01*
X146250000Y-84500000D02*
X145000000Y-84500000D01*
%TO.N,AUX2*%
X152500000Y-91750000D02*
X152500000Y-91000000D01*
X152500000Y-91000000D02*
X151500000Y-90000000D01*
X151500000Y-90000000D02*
X138750000Y-90000000D01*
%TO.N,AUX1*%
X152500000Y-93250000D02*
X152500000Y-94000000D01*
X152500000Y-94000000D02*
X152000000Y-94500000D01*
X142000000Y-94500000D02*
X138750000Y-91250000D01*
X152000000Y-94500000D02*
X142000000Y-94500000D01*
%TD*%
D16*
%TO.N,GND*%
X170337862Y-68865817D02*
X169850273Y-69191613D01*
X169435613Y-69606273D01*
X169109817Y-70093862D01*
X168885405Y-70635641D01*
X168771000Y-71210791D01*
X168771000Y-71797209D01*
X168885405Y-72372359D01*
X169109817Y-72914138D01*
X169435613Y-73401727D01*
X169850273Y-73816387D01*
X170337862Y-74142183D01*
X170879641Y-74366595D01*
X171454791Y-74481000D01*
X172041209Y-74481000D01*
X172616359Y-74366595D01*
X173158138Y-74142183D01*
X173645727Y-73816387D01*
X174060387Y-73401727D01*
X174386183Y-72914138D01*
X174563000Y-72487264D01*
X174563001Y-93516739D01*
X174386183Y-93089862D01*
X174060387Y-92602273D01*
X173645727Y-92187613D01*
X173158138Y-91861817D01*
X172616359Y-91637405D01*
X172041209Y-91523000D01*
X171454791Y-91523000D01*
X170879641Y-91637405D01*
X170337862Y-91861817D01*
X169850273Y-92187613D01*
X169435613Y-92602273D01*
X169109817Y-93089862D01*
X168885405Y-93631641D01*
X168771000Y-94206791D01*
X168771000Y-94793209D01*
X168885405Y-95368359D01*
X169109817Y-95910138D01*
X169435613Y-96397727D01*
X169850273Y-96812387D01*
X170337862Y-97138183D01*
X170764736Y-97315000D01*
X114731264Y-97315000D01*
X115158138Y-97138183D01*
X115645727Y-96812387D01*
X116060387Y-96397727D01*
X116386183Y-95910138D01*
X116610595Y-95368359D01*
X116725000Y-94793209D01*
X116725000Y-94206791D01*
X116654774Y-93853740D01*
X118435000Y-93853740D01*
X118435000Y-94146260D01*
X118492068Y-94433158D01*
X118604010Y-94703411D01*
X118766525Y-94946632D01*
X118973368Y-95153475D01*
X119216589Y-95315990D01*
X119486842Y-95427932D01*
X119773740Y-95485000D01*
X120066260Y-95485000D01*
X120353158Y-95427932D01*
X120623411Y-95315990D01*
X120866632Y-95153475D01*
X121073475Y-94946632D01*
X121195195Y-94764466D01*
X121264822Y-94881355D01*
X121459731Y-95097588D01*
X121693080Y-95271641D01*
X121955901Y-95396825D01*
X122103110Y-95441476D01*
X122333000Y-95320155D01*
X122333000Y-94127000D01*
X122313000Y-94127000D01*
X122313000Y-93873000D01*
X122333000Y-93873000D01*
X122333000Y-92679845D01*
X122587000Y-92679845D01*
X122587000Y-93873000D01*
X122607000Y-93873000D01*
X122607000Y-94127000D01*
X122587000Y-94127000D01*
X122587000Y-95320155D01*
X122816890Y-95441476D01*
X122964099Y-95396825D01*
X123226920Y-95271641D01*
X123460269Y-95097588D01*
X123536034Y-95013534D01*
X123560498Y-95094180D01*
X123619463Y-95204494D01*
X123698815Y-95301185D01*
X123795506Y-95380537D01*
X123905820Y-95439502D01*
X124025518Y-95475812D01*
X124150000Y-95488072D01*
X125850000Y-95488072D01*
X125974482Y-95475812D01*
X126094180Y-95439502D01*
X126204494Y-95380537D01*
X126301185Y-95301185D01*
X126380537Y-95204494D01*
X126439502Y-95094180D01*
X126475812Y-94974482D01*
X126488072Y-94850000D01*
X126488072Y-93853740D01*
X127895000Y-93853740D01*
X127895000Y-94146260D01*
X127952068Y-94433158D01*
X128064010Y-94703411D01*
X128226525Y-94946632D01*
X128433368Y-95153475D01*
X128676589Y-95315990D01*
X128946842Y-95427932D01*
X129233740Y-95485000D01*
X129526260Y-95485000D01*
X129813158Y-95427932D01*
X130083411Y-95315990D01*
X130326632Y-95153475D01*
X130533475Y-94946632D01*
X130650000Y-94772240D01*
X130766525Y-94946632D01*
X130973368Y-95153475D01*
X131216589Y-95315990D01*
X131486842Y-95427932D01*
X131773740Y-95485000D01*
X132066260Y-95485000D01*
X132353158Y-95427932D01*
X132623411Y-95315990D01*
X132866632Y-95153475D01*
X133073475Y-94946632D01*
X133195195Y-94764466D01*
X133264822Y-94881355D01*
X133459731Y-95097588D01*
X133693080Y-95271641D01*
X133955901Y-95396825D01*
X134103110Y-95441476D01*
X134333000Y-95320155D01*
X134333000Y-94127000D01*
X134313000Y-94127000D01*
X134313000Y-93873000D01*
X134333000Y-93873000D01*
X134333000Y-92679845D01*
X134587000Y-92679845D01*
X134587000Y-93873000D01*
X134607000Y-93873000D01*
X134607000Y-94127000D01*
X134587000Y-94127000D01*
X134587000Y-95320155D01*
X134816890Y-95441476D01*
X134964099Y-95396825D01*
X135226920Y-95271641D01*
X135460269Y-95097588D01*
X135536034Y-95013534D01*
X135560498Y-95094180D01*
X135619463Y-95204494D01*
X135698815Y-95301185D01*
X135795506Y-95380537D01*
X135905820Y-95439502D01*
X136025518Y-95475812D01*
X136150000Y-95488072D01*
X137850000Y-95488072D01*
X137974482Y-95475812D01*
X138094180Y-95439502D01*
X138204494Y-95380537D01*
X138301185Y-95301185D01*
X138380537Y-95204494D01*
X138439502Y-95094180D01*
X138475812Y-94974482D01*
X138488072Y-94850000D01*
X138488072Y-93150000D01*
X138475812Y-93025518D01*
X138439502Y-92905820D01*
X138380537Y-92795506D01*
X138301185Y-92698815D01*
X138204494Y-92619463D01*
X138094180Y-92560498D01*
X137974482Y-92524188D01*
X137889000Y-92515769D01*
X137889000Y-91824373D01*
X137946063Y-91909774D01*
X138090226Y-92053937D01*
X138259744Y-92167205D01*
X138448102Y-92245226D01*
X138497895Y-92255130D01*
X141340506Y-95097742D01*
X141368341Y-95131659D01*
X141503709Y-95242753D01*
X141658149Y-95325303D01*
X141709237Y-95340800D01*
X141825724Y-95376136D01*
X141858924Y-95379406D01*
X141956333Y-95389000D01*
X141956339Y-95389000D01*
X141999999Y-95393300D01*
X142043659Y-95389000D01*
X151956340Y-95389000D01*
X152000000Y-95393300D01*
X152043660Y-95389000D01*
X152043667Y-95389000D01*
X152174274Y-95376136D01*
X152341851Y-95325303D01*
X152496291Y-95242753D01*
X152631659Y-95131659D01*
X152659499Y-95097736D01*
X153097736Y-94659499D01*
X153131659Y-94631659D01*
X153242753Y-94496291D01*
X153325303Y-94341851D01*
X153376136Y-94174274D01*
X153389000Y-94043667D01*
X153389000Y-94043660D01*
X153393300Y-94000000D01*
X153389000Y-93956340D01*
X153389000Y-93782468D01*
X153417205Y-93740256D01*
X153495226Y-93551898D01*
X153535000Y-93351939D01*
X153535000Y-93148061D01*
X153495226Y-92948102D01*
X153417205Y-92759744D01*
X153303937Y-92590226D01*
X153213711Y-92500000D01*
X153303937Y-92409774D01*
X153417205Y-92240256D01*
X153495226Y-92051898D01*
X153535000Y-91851939D01*
X153535000Y-91648061D01*
X153495226Y-91448102D01*
X153417205Y-91259744D01*
X153389000Y-91217532D01*
X153389000Y-91043668D01*
X153393301Y-91000000D01*
X153390480Y-90971358D01*
X153448102Y-90995226D01*
X153648061Y-91035000D01*
X153851939Y-91035000D01*
X154051898Y-90995226D01*
X154240256Y-90917205D01*
X154375000Y-90827172D01*
X154509744Y-90917205D01*
X154698102Y-90995226D01*
X154898061Y-91035000D01*
X155101939Y-91035000D01*
X155301898Y-90995226D01*
X155490256Y-90917205D01*
X155659774Y-90803937D01*
X155803937Y-90659774D01*
X155917205Y-90490256D01*
X155995226Y-90301898D01*
X156035000Y-90101939D01*
X156035000Y-89898061D01*
X155995226Y-89698102D01*
X155917205Y-89509744D01*
X155803937Y-89340226D01*
X155659774Y-89196063D01*
X155490256Y-89082795D01*
X155301898Y-89004774D01*
X155252105Y-88994870D01*
X153260663Y-87003428D01*
X153301898Y-86995226D01*
X153490256Y-86917205D01*
X153659774Y-86803937D01*
X153803937Y-86659774D01*
X153917205Y-86490256D01*
X153995226Y-86301898D01*
X154035000Y-86101939D01*
X154035000Y-85898061D01*
X153995226Y-85698102D01*
X153917205Y-85509744D01*
X153803937Y-85340226D01*
X153659774Y-85196063D01*
X153490256Y-85082795D01*
X153384612Y-85039035D01*
X153417205Y-84990256D01*
X153495226Y-84801898D01*
X153535000Y-84601939D01*
X153535000Y-84398061D01*
X153495226Y-84198102D01*
X153417205Y-84009744D01*
X153410694Y-84000000D01*
X153417205Y-83990256D01*
X153495226Y-83801898D01*
X153535000Y-83601939D01*
X153535000Y-83398061D01*
X153533198Y-83389000D01*
X156631765Y-83389000D01*
X157111001Y-83868237D01*
X157111000Y-90456340D01*
X157106700Y-90500000D01*
X157111000Y-90543660D01*
X157111000Y-90543666D01*
X157117632Y-90611000D01*
X157123864Y-90674274D01*
X157123993Y-90674698D01*
X157174697Y-90841850D01*
X157257247Y-90996290D01*
X157368341Y-91131659D01*
X157402264Y-91159499D01*
X159340506Y-93097742D01*
X159368341Y-93131659D01*
X159503709Y-93242753D01*
X159658149Y-93325303D01*
X159724058Y-93345296D01*
X159825724Y-93376136D01*
X159858924Y-93379406D01*
X159956333Y-93389000D01*
X159956339Y-93389000D01*
X159999999Y-93393300D01*
X160043659Y-93389000D01*
X162553614Y-93389000D01*
X162677692Y-93471906D01*
X162866050Y-93549927D01*
X163066009Y-93589701D01*
X163269887Y-93589701D01*
X163469846Y-93549927D01*
X163658204Y-93471906D01*
X163827722Y-93358638D01*
X163971885Y-93214475D01*
X164085153Y-93044957D01*
X164089277Y-93035000D01*
X164101939Y-93035000D01*
X164301898Y-92995226D01*
X164490256Y-92917205D01*
X164659774Y-92803937D01*
X164803937Y-92659774D01*
X164917205Y-92490256D01*
X164995226Y-92301898D01*
X165035000Y-92101939D01*
X165035000Y-91898061D01*
X164995226Y-91698102D01*
X164917205Y-91509744D01*
X164836527Y-91389000D01*
X167467532Y-91389000D01*
X167509744Y-91417205D01*
X167698102Y-91495226D01*
X167898061Y-91535000D01*
X168101939Y-91535000D01*
X168301898Y-91495226D01*
X168490256Y-91417205D01*
X168659774Y-91303937D01*
X168803937Y-91159774D01*
X168917205Y-90990256D01*
X168995226Y-90801898D01*
X169035000Y-90601939D01*
X169035000Y-90398061D01*
X168995226Y-90198102D01*
X168917205Y-90009744D01*
X168803937Y-89840226D01*
X168659774Y-89696063D01*
X168490256Y-89582795D01*
X168301898Y-89504774D01*
X168101939Y-89465000D01*
X167898061Y-89465000D01*
X167698102Y-89504774D01*
X167509744Y-89582795D01*
X167467532Y-89611000D01*
X164532468Y-89611000D01*
X164490256Y-89582795D01*
X164301898Y-89504774D01*
X164101939Y-89465000D01*
X163898061Y-89465000D01*
X163698102Y-89504774D01*
X163509744Y-89582795D01*
X163340226Y-89696063D01*
X163196063Y-89840226D01*
X163082795Y-90009744D01*
X163004774Y-90198102D01*
X162965000Y-90398061D01*
X162965000Y-90601939D01*
X162966802Y-90611000D01*
X161118236Y-90611000D01*
X160389000Y-89881765D01*
X160389000Y-83563740D01*
X168725000Y-83563740D01*
X168725000Y-83856260D01*
X168782068Y-84143158D01*
X168894010Y-84413411D01*
X169056525Y-84656632D01*
X169263368Y-84863475D01*
X169437760Y-84980000D01*
X169263368Y-85096525D01*
X169056525Y-85303368D01*
X168894010Y-85546589D01*
X168782068Y-85816842D01*
X168725000Y-86103740D01*
X168725000Y-86396260D01*
X168782068Y-86683158D01*
X168894010Y-86953411D01*
X169056525Y-87196632D01*
X169263368Y-87403475D01*
X169506589Y-87565990D01*
X169776842Y-87677932D01*
X170063740Y-87735000D01*
X170356260Y-87735000D01*
X170643158Y-87677932D01*
X170913411Y-87565990D01*
X171156632Y-87403475D01*
X171288487Y-87271620D01*
X171310498Y-87344180D01*
X171369463Y-87454494D01*
X171448815Y-87551185D01*
X171545506Y-87630537D01*
X171655820Y-87689502D01*
X171775518Y-87725812D01*
X171900000Y-87738072D01*
X173600000Y-87738072D01*
X173724482Y-87725812D01*
X173844180Y-87689502D01*
X173954494Y-87630537D01*
X174051185Y-87551185D01*
X174130537Y-87454494D01*
X174189502Y-87344180D01*
X174225812Y-87224482D01*
X174238072Y-87100000D01*
X174238072Y-85400000D01*
X174225812Y-85275518D01*
X174189502Y-85155820D01*
X174130537Y-85045506D01*
X174051185Y-84948815D01*
X173954494Y-84869463D01*
X173844180Y-84810498D01*
X173771620Y-84788487D01*
X173903475Y-84656632D01*
X174065990Y-84413411D01*
X174177932Y-84143158D01*
X174235000Y-83856260D01*
X174235000Y-83563740D01*
X174177932Y-83276842D01*
X174065990Y-83006589D01*
X173903475Y-82763368D01*
X173696632Y-82556525D01*
X173522240Y-82440000D01*
X173696632Y-82323475D01*
X173903475Y-82116632D01*
X174065990Y-81873411D01*
X174177932Y-81603158D01*
X174235000Y-81316260D01*
X174235000Y-81023740D01*
X174177932Y-80736842D01*
X174065990Y-80466589D01*
X173903475Y-80223368D01*
X173696632Y-80016525D01*
X173453411Y-79854010D01*
X173183158Y-79742068D01*
X172896260Y-79685000D01*
X172603740Y-79685000D01*
X172316842Y-79742068D01*
X172046589Y-79854010D01*
X171803368Y-80016525D01*
X171596525Y-80223368D01*
X171478900Y-80399406D01*
X171307588Y-80169731D01*
X171091355Y-79974822D01*
X170841252Y-79825843D01*
X170566891Y-79728519D01*
X170337000Y-79849186D01*
X170337000Y-81043000D01*
X170357000Y-81043000D01*
X170357000Y-81297000D01*
X170337000Y-81297000D01*
X170337000Y-81317000D01*
X170083000Y-81317000D01*
X170083000Y-81297000D01*
X168889845Y-81297000D01*
X168768524Y-81526890D01*
X168813175Y-81674099D01*
X168938359Y-81936920D01*
X169112412Y-82170269D01*
X169328645Y-82365178D01*
X169445534Y-82434805D01*
X169263368Y-82556525D01*
X169056525Y-82763368D01*
X168894010Y-83006589D01*
X168782068Y-83276842D01*
X168725000Y-83563740D01*
X160389000Y-83563740D01*
X160389000Y-83043660D01*
X160393300Y-83000000D01*
X160389000Y-82956340D01*
X160389000Y-82956333D01*
X160376136Y-82825726D01*
X160325303Y-82658149D01*
X160242753Y-82503709D01*
X160156050Y-82398061D01*
X163465000Y-82398061D01*
X163465000Y-82601939D01*
X163504774Y-82801898D01*
X163582795Y-82990256D01*
X163696063Y-83159774D01*
X163840226Y-83303937D01*
X164009744Y-83417205D01*
X164198102Y-83495226D01*
X164398061Y-83535000D01*
X164601939Y-83535000D01*
X164801898Y-83495226D01*
X164990256Y-83417205D01*
X165159774Y-83303937D01*
X165303937Y-83159774D01*
X165417205Y-82990256D01*
X165495226Y-82801898D01*
X165505130Y-82752105D01*
X167444125Y-80813110D01*
X168768524Y-80813110D01*
X168889845Y-81043000D01*
X170083000Y-81043000D01*
X170083000Y-79849186D01*
X169853109Y-79728519D01*
X169578748Y-79825843D01*
X169328645Y-79974822D01*
X169112412Y-80169731D01*
X168938359Y-80403080D01*
X168813175Y-80665901D01*
X168768524Y-80813110D01*
X167444125Y-80813110D01*
X168751406Y-79505829D01*
X168898061Y-79535000D01*
X169101939Y-79535000D01*
X169301898Y-79495226D01*
X169490256Y-79417205D01*
X169659774Y-79303937D01*
X169803937Y-79159774D01*
X169917205Y-78990256D01*
X169995226Y-78801898D01*
X170035000Y-78601939D01*
X170035000Y-78398061D01*
X169995226Y-78198102D01*
X169917205Y-78009744D01*
X169803937Y-77840226D01*
X169659774Y-77696063D01*
X169490256Y-77582795D01*
X169301898Y-77504774D01*
X169101939Y-77465000D01*
X168898061Y-77465000D01*
X168698102Y-77504774D01*
X168509744Y-77582795D01*
X168469467Y-77609707D01*
X168456339Y-77611000D01*
X168456333Y-77611000D01*
X168358924Y-77620594D01*
X168325724Y-77623864D01*
X168224058Y-77654704D01*
X168158149Y-77674697D01*
X168003709Y-77757247D01*
X167868341Y-77868341D01*
X167840501Y-77902264D01*
X164247895Y-81494870D01*
X164198102Y-81504774D01*
X164009744Y-81582795D01*
X163840226Y-81696063D01*
X163696063Y-81840226D01*
X163582795Y-82009744D01*
X163504774Y-82198102D01*
X163465000Y-82398061D01*
X160156050Y-82398061D01*
X160131659Y-82368341D01*
X160097741Y-82340505D01*
X158847740Y-81090505D01*
X158409499Y-80652264D01*
X158381659Y-80618341D01*
X158246291Y-80507247D01*
X158091851Y-80424697D01*
X157924274Y-80373864D01*
X157793667Y-80361000D01*
X157793660Y-80361000D01*
X157750000Y-80356700D01*
X157706340Y-80361000D01*
X145532468Y-80361000D01*
X145490256Y-80332795D01*
X145301898Y-80254774D01*
X145101939Y-80215000D01*
X144898061Y-80215000D01*
X144698102Y-80254774D01*
X144509744Y-80332795D01*
X144340226Y-80446063D01*
X144196063Y-80590226D01*
X144082795Y-80759744D01*
X144004774Y-80948102D01*
X143965000Y-81148061D01*
X143965000Y-81351939D01*
X144004774Y-81551898D01*
X144082795Y-81740256D01*
X144172828Y-81875000D01*
X144082795Y-82009744D01*
X144004774Y-82198102D01*
X143965000Y-82398061D01*
X143965000Y-82601939D01*
X144004774Y-82801898D01*
X144082795Y-82990256D01*
X144089306Y-83000000D01*
X144082795Y-83009744D01*
X144004774Y-83198102D01*
X143965000Y-83398061D01*
X143965000Y-83601939D01*
X144004774Y-83801898D01*
X144082795Y-83990256D01*
X144089306Y-84000000D01*
X144082795Y-84009744D01*
X144004774Y-84198102D01*
X143965000Y-84398061D01*
X143965000Y-84601939D01*
X144004774Y-84801898D01*
X144082795Y-84990256D01*
X144172826Y-85124997D01*
X144082795Y-85259738D01*
X144004774Y-85448096D01*
X143965000Y-85648055D01*
X143965000Y-85851933D01*
X144004774Y-86051892D01*
X144082795Y-86240250D01*
X144089307Y-86249996D01*
X144082795Y-86259741D01*
X144004774Y-86448099D01*
X143965000Y-86648058D01*
X143965000Y-86851936D01*
X144004774Y-87051895D01*
X144082795Y-87240253D01*
X144089307Y-87249998D01*
X144082795Y-87259744D01*
X144004774Y-87448102D01*
X143965000Y-87648061D01*
X143965000Y-87851939D01*
X144004774Y-88051898D01*
X144082795Y-88240256D01*
X144196063Y-88409774D01*
X144340226Y-88553937D01*
X144509744Y-88667205D01*
X144698102Y-88745226D01*
X144898061Y-88785000D01*
X145101939Y-88785000D01*
X145301898Y-88745226D01*
X145490256Y-88667205D01*
X145532468Y-88639000D01*
X151131765Y-88639000D01*
X151610331Y-89117566D01*
X151543667Y-89111000D01*
X151543660Y-89111000D01*
X151500000Y-89106700D01*
X151456340Y-89111000D01*
X139282468Y-89111000D01*
X139240256Y-89082795D01*
X139051898Y-89004774D01*
X138851939Y-88965000D01*
X138648061Y-88965000D01*
X138448102Y-89004774D01*
X138259744Y-89082795D01*
X138090226Y-89196063D01*
X137997916Y-89288373D01*
X138035000Y-89101939D01*
X138035000Y-88898061D01*
X137995226Y-88698102D01*
X137917205Y-88509744D01*
X137803937Y-88340226D01*
X137659774Y-88196063D01*
X137490256Y-88082795D01*
X137301898Y-88004774D01*
X137101939Y-87965000D01*
X136898061Y-87965000D01*
X136698102Y-88004774D01*
X136509744Y-88082795D01*
X136340226Y-88196063D01*
X136196063Y-88340226D01*
X136082795Y-88509744D01*
X136004774Y-88698102D01*
X135965000Y-88898061D01*
X135965000Y-89101939D01*
X136004774Y-89301898D01*
X136082795Y-89490256D01*
X136111001Y-89532469D01*
X136111000Y-92206333D01*
X136111000Y-92515769D01*
X136025518Y-92524188D01*
X135905820Y-92560498D01*
X135795506Y-92619463D01*
X135698815Y-92698815D01*
X135619463Y-92795506D01*
X135560498Y-92905820D01*
X135536034Y-92986466D01*
X135460269Y-92902412D01*
X135226920Y-92728359D01*
X134964099Y-92603175D01*
X134816890Y-92558524D01*
X134587000Y-92679845D01*
X134333000Y-92679845D01*
X134103110Y-92558524D01*
X133955901Y-92603175D01*
X133693080Y-92728359D01*
X133459731Y-92902412D01*
X133264822Y-93118645D01*
X133195195Y-93235534D01*
X133073475Y-93053368D01*
X132866632Y-92846525D01*
X132623411Y-92684010D01*
X132353158Y-92572068D01*
X132066260Y-92515000D01*
X131773740Y-92515000D01*
X131486842Y-92572068D01*
X131216589Y-92684010D01*
X130973368Y-92846525D01*
X130766525Y-93053368D01*
X130650000Y-93227760D01*
X130533475Y-93053368D01*
X130326632Y-92846525D01*
X130083411Y-92684010D01*
X129813158Y-92572068D01*
X129526260Y-92515000D01*
X129233740Y-92515000D01*
X128946842Y-92572068D01*
X128676589Y-92684010D01*
X128433368Y-92846525D01*
X128226525Y-93053368D01*
X128064010Y-93296589D01*
X127952068Y-93566842D01*
X127895000Y-93853740D01*
X126488072Y-93853740D01*
X126488072Y-93150000D01*
X126475812Y-93025518D01*
X126439502Y-92905820D01*
X126380537Y-92795506D01*
X126301185Y-92698815D01*
X126204494Y-92619463D01*
X126094180Y-92560498D01*
X125974482Y-92524188D01*
X125850000Y-92511928D01*
X124150000Y-92511928D01*
X124025518Y-92524188D01*
X123905820Y-92560498D01*
X123795506Y-92619463D01*
X123698815Y-92698815D01*
X123619463Y-92795506D01*
X123560498Y-92905820D01*
X123536034Y-92986466D01*
X123460269Y-92902412D01*
X123226920Y-92728359D01*
X122964099Y-92603175D01*
X122816890Y-92558524D01*
X122587000Y-92679845D01*
X122333000Y-92679845D01*
X122103110Y-92558524D01*
X121955901Y-92603175D01*
X121693080Y-92728359D01*
X121459731Y-92902412D01*
X121264822Y-93118645D01*
X121195195Y-93235534D01*
X121073475Y-93053368D01*
X120866632Y-92846525D01*
X120623411Y-92684010D01*
X120353158Y-92572068D01*
X120066260Y-92515000D01*
X119773740Y-92515000D01*
X119486842Y-92572068D01*
X119216589Y-92684010D01*
X118973368Y-92846525D01*
X118766525Y-93053368D01*
X118604010Y-93296589D01*
X118492068Y-93566842D01*
X118435000Y-93853740D01*
X116654774Y-93853740D01*
X116610595Y-93631641D01*
X116386183Y-93089862D01*
X116060387Y-92602273D01*
X115645727Y-92187613D01*
X115158138Y-91861817D01*
X114616359Y-91637405D01*
X114041209Y-91523000D01*
X113454791Y-91523000D01*
X112879641Y-91637405D01*
X112337862Y-91861817D01*
X111850273Y-92187613D01*
X111435613Y-92602273D01*
X111109817Y-93089862D01*
X110933000Y-93516736D01*
X110933000Y-87690000D01*
X112511928Y-87690000D01*
X112511928Y-89390000D01*
X112524188Y-89514482D01*
X112560498Y-89634180D01*
X112619463Y-89744494D01*
X112698815Y-89841185D01*
X112795506Y-89920537D01*
X112905820Y-89979502D01*
X113025518Y-90015812D01*
X113150000Y-90028072D01*
X114850000Y-90028072D01*
X114974482Y-90015812D01*
X115094180Y-89979502D01*
X115204494Y-89920537D01*
X115301185Y-89841185D01*
X115380537Y-89744494D01*
X115439502Y-89634180D01*
X115475812Y-89514482D01*
X115488072Y-89390000D01*
X115488072Y-87690000D01*
X115475812Y-87565518D01*
X115439502Y-87445820D01*
X115380537Y-87335506D01*
X115301185Y-87238815D01*
X115204494Y-87159463D01*
X115094180Y-87100498D01*
X115013534Y-87076034D01*
X115097588Y-87000269D01*
X115271641Y-86766920D01*
X115396825Y-86504099D01*
X115441476Y-86356890D01*
X115320155Y-86127000D01*
X114127000Y-86127000D01*
X114127000Y-86147000D01*
X113873000Y-86147000D01*
X113873000Y-86127000D01*
X112679845Y-86127000D01*
X112558524Y-86356890D01*
X112603175Y-86504099D01*
X112728359Y-86766920D01*
X112902412Y-87000269D01*
X112986466Y-87076034D01*
X112905820Y-87100498D01*
X112795506Y-87159463D01*
X112698815Y-87238815D01*
X112619463Y-87335506D01*
X112560498Y-87445820D01*
X112524188Y-87565518D01*
X112511928Y-87690000D01*
X110933000Y-87690000D01*
X110933000Y-72487264D01*
X111109817Y-72914138D01*
X111435613Y-73401727D01*
X111850273Y-73816387D01*
X112337862Y-74142183D01*
X112879641Y-74366595D01*
X113454791Y-74481000D01*
X114041209Y-74481000D01*
X114616359Y-74366595D01*
X115158138Y-74142183D01*
X115645727Y-73816387D01*
X116060387Y-73401727D01*
X116111000Y-73325979D01*
X116111001Y-79631763D01*
X115711765Y-80031000D01*
X115191983Y-80031000D01*
X115153475Y-79973368D01*
X114946632Y-79766525D01*
X114772240Y-79650000D01*
X114946632Y-79533475D01*
X115153475Y-79326632D01*
X115315990Y-79083411D01*
X115427932Y-78813158D01*
X115485000Y-78526260D01*
X115485000Y-78233740D01*
X115427932Y-77946842D01*
X115315990Y-77676589D01*
X115153475Y-77433368D01*
X114946632Y-77226525D01*
X114703411Y-77064010D01*
X114433158Y-76952068D01*
X114146260Y-76895000D01*
X113853740Y-76895000D01*
X113566842Y-76952068D01*
X113296589Y-77064010D01*
X113053368Y-77226525D01*
X112846525Y-77433368D01*
X112684010Y-77676589D01*
X112572068Y-77946842D01*
X112515000Y-78233740D01*
X112515000Y-78526260D01*
X112572068Y-78813158D01*
X112684010Y-79083411D01*
X112846525Y-79326632D01*
X113053368Y-79533475D01*
X113227760Y-79650000D01*
X113053368Y-79766525D01*
X112846525Y-79973368D01*
X112684010Y-80216589D01*
X112572068Y-80486842D01*
X112515000Y-80773740D01*
X112515000Y-81066260D01*
X112572068Y-81353158D01*
X112684010Y-81623411D01*
X112846525Y-81866632D01*
X113053368Y-82073475D01*
X113227760Y-82190000D01*
X113053368Y-82306525D01*
X112846525Y-82513368D01*
X112684010Y-82756589D01*
X112572068Y-83026842D01*
X112515000Y-83313740D01*
X112515000Y-83606260D01*
X112572068Y-83893158D01*
X112684010Y-84163411D01*
X112846525Y-84406632D01*
X113053368Y-84613475D01*
X113235534Y-84735195D01*
X113118645Y-84804822D01*
X112902412Y-84999731D01*
X112728359Y-85233080D01*
X112603175Y-85495901D01*
X112558524Y-85643110D01*
X112679845Y-85873000D01*
X113873000Y-85873000D01*
X113873000Y-85853000D01*
X114127000Y-85853000D01*
X114127000Y-85873000D01*
X115320155Y-85873000D01*
X115441476Y-85643110D01*
X115396825Y-85495901D01*
X115271641Y-85233080D01*
X115097588Y-84999731D01*
X114881355Y-84804822D01*
X114764466Y-84735195D01*
X114946632Y-84613475D01*
X115153475Y-84406632D01*
X115315990Y-84163411D01*
X115427932Y-83893158D01*
X115485000Y-83606260D01*
X115485000Y-83313740D01*
X115427932Y-83026842D01*
X115315990Y-82756589D01*
X115153475Y-82513368D01*
X114946632Y-82306525D01*
X114772240Y-82190000D01*
X114946632Y-82073475D01*
X115153475Y-81866632D01*
X115191983Y-81809000D01*
X116036340Y-81809000D01*
X116080000Y-81813300D01*
X116111001Y-81810247D01*
X116111000Y-90967532D01*
X116082795Y-91009744D01*
X116004774Y-91198102D01*
X115965000Y-91398061D01*
X115965000Y-91601939D01*
X116004774Y-91801898D01*
X116082795Y-91990256D01*
X116196063Y-92159774D01*
X116340226Y-92303937D01*
X116509744Y-92417205D01*
X116698102Y-92495226D01*
X116898061Y-92535000D01*
X117101939Y-92535000D01*
X117301898Y-92495226D01*
X117490256Y-92417205D01*
X117532468Y-92389000D01*
X120717532Y-92389000D01*
X120759744Y-92417205D01*
X120948102Y-92495226D01*
X121148061Y-92535000D01*
X121351939Y-92535000D01*
X121551898Y-92495226D01*
X121740256Y-92417205D01*
X121909774Y-92303937D01*
X122053937Y-92159774D01*
X122167205Y-91990256D01*
X122245226Y-91801898D01*
X122285000Y-91601939D01*
X122285000Y-91398061D01*
X122245226Y-91198102D01*
X122167205Y-91009744D01*
X122053937Y-90840226D01*
X121909774Y-90696063D01*
X121740256Y-90582795D01*
X121551898Y-90504774D01*
X121351939Y-90465000D01*
X121148061Y-90465000D01*
X120948102Y-90504774D01*
X120759744Y-90582795D01*
X120717532Y-90611000D01*
X117889000Y-90611000D01*
X117889000Y-82389000D01*
X118100340Y-82389000D01*
X118144000Y-82393300D01*
X118187660Y-82389000D01*
X118187667Y-82389000D01*
X118318274Y-82376136D01*
X118485851Y-82325303D01*
X118528353Y-82302585D01*
X118665898Y-82275226D01*
X118854256Y-82197205D01*
X119023774Y-82083937D01*
X119127711Y-81980000D01*
X126356928Y-81980000D01*
X126356928Y-83200000D01*
X126369188Y-83324482D01*
X126405498Y-83444180D01*
X126464463Y-83554494D01*
X126543815Y-83651185D01*
X126640506Y-83730537D01*
X126750820Y-83789502D01*
X126870518Y-83825812D01*
X126995000Y-83838072D01*
X127645000Y-83838072D01*
X127769482Y-83825812D01*
X127795000Y-83818071D01*
X127820518Y-83825812D01*
X127945000Y-83838072D01*
X128595000Y-83838072D01*
X128719482Y-83825812D01*
X128745000Y-83818071D01*
X128770518Y-83825812D01*
X128895000Y-83838072D01*
X129545000Y-83838072D01*
X129669482Y-83825812D01*
X129789180Y-83789502D01*
X129899494Y-83730537D01*
X129996185Y-83651185D01*
X130075537Y-83554494D01*
X130134502Y-83444180D01*
X130170812Y-83324482D01*
X130183072Y-83200000D01*
X130183072Y-81980000D01*
X130170812Y-81855518D01*
X130134502Y-81735820D01*
X130075537Y-81625506D01*
X129996185Y-81528815D01*
X129899494Y-81449463D01*
X129789180Y-81390498D01*
X129669482Y-81354188D01*
X129545000Y-81341928D01*
X128895000Y-81341928D01*
X128770518Y-81354188D01*
X128745000Y-81361929D01*
X128719482Y-81354188D01*
X128595000Y-81341928D01*
X127945000Y-81341928D01*
X127820518Y-81354188D01*
X127795000Y-81361929D01*
X127769482Y-81354188D01*
X127645000Y-81341928D01*
X126995000Y-81341928D01*
X126870518Y-81354188D01*
X126750820Y-81390498D01*
X126640506Y-81449463D01*
X126543815Y-81528815D01*
X126464463Y-81625506D01*
X126405498Y-81735820D01*
X126369188Y-81855518D01*
X126356928Y-81980000D01*
X119127711Y-81980000D01*
X119167937Y-81939774D01*
X119281205Y-81770256D01*
X119359226Y-81581898D01*
X119399000Y-81381939D01*
X119399000Y-81178061D01*
X119359226Y-80978102D01*
X119281205Y-80789744D01*
X119167937Y-80620226D01*
X119023774Y-80476063D01*
X118854256Y-80362795D01*
X118665898Y-80284774D01*
X118465939Y-80245000D01*
X118262061Y-80245000D01*
X118062102Y-80284774D01*
X117873744Y-80362795D01*
X117780976Y-80424780D01*
X117825303Y-80341851D01*
X117863782Y-80215000D01*
X117876136Y-80174276D01*
X117879406Y-80141076D01*
X117889000Y-80043667D01*
X117889000Y-80043661D01*
X117893300Y-80000001D01*
X117889000Y-79956341D01*
X117889000Y-79360000D01*
X126356928Y-79360000D01*
X126356928Y-80580000D01*
X126369188Y-80704482D01*
X126405498Y-80824180D01*
X126464463Y-80934494D01*
X126543815Y-81031185D01*
X126640506Y-81110537D01*
X126750820Y-81169502D01*
X126870518Y-81205812D01*
X126995000Y-81218072D01*
X127645000Y-81218072D01*
X127769482Y-81205812D01*
X127889180Y-81169502D01*
X127999494Y-81110537D01*
X128096185Y-81031185D01*
X128175537Y-80934494D01*
X128234502Y-80824180D01*
X128270000Y-80707159D01*
X128305498Y-80824180D01*
X128364463Y-80934494D01*
X128443815Y-81031185D01*
X128540506Y-81110537D01*
X128650820Y-81169502D01*
X128770518Y-81205812D01*
X128895000Y-81218072D01*
X129545000Y-81218072D01*
X129669482Y-81205812D01*
X129789180Y-81169502D01*
X129899494Y-81110537D01*
X129996185Y-81031185D01*
X130075537Y-80934494D01*
X130134502Y-80824180D01*
X130170812Y-80704482D01*
X130183072Y-80580000D01*
X130183072Y-79898061D01*
X135965000Y-79898061D01*
X135965000Y-80101939D01*
X136004774Y-80301898D01*
X136082795Y-80490256D01*
X136111001Y-80532469D01*
X136111000Y-84967532D01*
X136082795Y-85009744D01*
X136004774Y-85198102D01*
X135965000Y-85398061D01*
X135965000Y-85601939D01*
X136004774Y-85801898D01*
X136082795Y-85990256D01*
X136196063Y-86159774D01*
X136340226Y-86303937D01*
X136509744Y-86417205D01*
X136698102Y-86495226D01*
X136898061Y-86535000D01*
X137101939Y-86535000D01*
X137301898Y-86495226D01*
X137490256Y-86417205D01*
X137659774Y-86303937D01*
X137803937Y-86159774D01*
X137917205Y-85990256D01*
X137995226Y-85801898D01*
X138035000Y-85601939D01*
X138035000Y-85398061D01*
X137995226Y-85198102D01*
X137917205Y-85009744D01*
X137889000Y-84967532D01*
X137889000Y-80532468D01*
X137917205Y-80490256D01*
X137995226Y-80301898D01*
X138035000Y-80101939D01*
X138035000Y-79898061D01*
X137995226Y-79698102D01*
X137917205Y-79509744D01*
X137803937Y-79340226D01*
X137659774Y-79196063D01*
X137490256Y-79082795D01*
X137301898Y-79004774D01*
X137101939Y-78965000D01*
X136898061Y-78965000D01*
X136698102Y-79004774D01*
X136509744Y-79082795D01*
X136340226Y-79196063D01*
X136196063Y-79340226D01*
X136082795Y-79509744D01*
X136004774Y-79698102D01*
X135965000Y-79898061D01*
X130183072Y-79898061D01*
X130183072Y-79360000D01*
X130170812Y-79235518D01*
X130134502Y-79115820D01*
X130075537Y-79005506D01*
X129996185Y-78908815D01*
X129972040Y-78889000D01*
X133967532Y-78889000D01*
X134009744Y-78917205D01*
X134198102Y-78995226D01*
X134398061Y-79035000D01*
X134601939Y-79035000D01*
X134801898Y-78995226D01*
X134990256Y-78917205D01*
X135159774Y-78803937D01*
X135303937Y-78659774D01*
X135417205Y-78490256D01*
X135495226Y-78301898D01*
X135535000Y-78101939D01*
X135535000Y-77898061D01*
X135495226Y-77698102D01*
X135417205Y-77509744D01*
X135342582Y-77398061D01*
X136715000Y-77398061D01*
X136715000Y-77601939D01*
X136754774Y-77801898D01*
X136832795Y-77990256D01*
X136946063Y-78159774D01*
X137090226Y-78303937D01*
X137259744Y-78417205D01*
X137448102Y-78495226D01*
X137648061Y-78535000D01*
X137851939Y-78535000D01*
X138051898Y-78495226D01*
X138240256Y-78417205D01*
X138409774Y-78303937D01*
X138553937Y-78159774D01*
X138667205Y-77990256D01*
X138745226Y-77801898D01*
X138755130Y-77752105D01*
X140502106Y-76005130D01*
X140551898Y-75995226D01*
X140740256Y-75917205D01*
X140909774Y-75803937D01*
X141053937Y-75659774D01*
X141167205Y-75490256D01*
X141245226Y-75301898D01*
X141285000Y-75101939D01*
X141285000Y-74898061D01*
X141245226Y-74698102D01*
X141167205Y-74509744D01*
X141053937Y-74340226D01*
X140909774Y-74196063D01*
X140740256Y-74082795D01*
X140551898Y-74004774D01*
X140351939Y-73965000D01*
X140148061Y-73965000D01*
X139948102Y-74004774D01*
X139759744Y-74082795D01*
X139590226Y-74196063D01*
X139446063Y-74340226D01*
X139332795Y-74509744D01*
X139254774Y-74698102D01*
X139244870Y-74747894D01*
X137497895Y-76494870D01*
X137448102Y-76504774D01*
X137259744Y-76582795D01*
X137090226Y-76696063D01*
X136946063Y-76840226D01*
X136832795Y-77009744D01*
X136754774Y-77198102D01*
X136715000Y-77398061D01*
X135342582Y-77398061D01*
X135303937Y-77340226D01*
X135159774Y-77196063D01*
X134990256Y-77082795D01*
X134801898Y-77004774D01*
X134601939Y-76965000D01*
X134398061Y-76965000D01*
X134198102Y-77004774D01*
X134009744Y-77082795D01*
X133967532Y-77111000D01*
X129532468Y-77111000D01*
X129490256Y-77082795D01*
X129301898Y-77004774D01*
X129101939Y-76965000D01*
X128898061Y-76965000D01*
X128698102Y-77004774D01*
X128509744Y-77082795D01*
X128340226Y-77196063D01*
X128196063Y-77340226D01*
X128082795Y-77509744D01*
X128004774Y-77698102D01*
X127965000Y-77898061D01*
X127965000Y-78101939D01*
X128004774Y-78301898D01*
X128082795Y-78490256D01*
X128196063Y-78659774D01*
X128340226Y-78803937D01*
X128467768Y-78889157D01*
X128443815Y-78908815D01*
X128364463Y-79005506D01*
X128305498Y-79115820D01*
X128270000Y-79232841D01*
X128234502Y-79115820D01*
X128175537Y-79005506D01*
X128096185Y-78908815D01*
X127999494Y-78829463D01*
X127889180Y-78770498D01*
X127769482Y-78734188D01*
X127645000Y-78721928D01*
X126995000Y-78721928D01*
X126870518Y-78734188D01*
X126750820Y-78770498D01*
X126640506Y-78829463D01*
X126543815Y-78908815D01*
X126464463Y-79005506D01*
X126405498Y-79115820D01*
X126369188Y-79235518D01*
X126356928Y-79360000D01*
X117889000Y-79360000D01*
X117889000Y-77898061D01*
X122965000Y-77898061D01*
X122965000Y-78101939D01*
X123004774Y-78301898D01*
X123082795Y-78490256D01*
X123196063Y-78659774D01*
X123340226Y-78803937D01*
X123509744Y-78917205D01*
X123698102Y-78995226D01*
X123898061Y-79035000D01*
X124101939Y-79035000D01*
X124301898Y-78995226D01*
X124490256Y-78917205D01*
X124532468Y-78889000D01*
X125467532Y-78889000D01*
X125509744Y-78917205D01*
X125698102Y-78995226D01*
X125898061Y-79035000D01*
X126101939Y-79035000D01*
X126301898Y-78995226D01*
X126490256Y-78917205D01*
X126659774Y-78803937D01*
X126803937Y-78659774D01*
X126917205Y-78490256D01*
X126995226Y-78301898D01*
X127035000Y-78101939D01*
X127035000Y-77898061D01*
X126995226Y-77698102D01*
X126917205Y-77509744D01*
X126803937Y-77340226D01*
X126659774Y-77196063D01*
X126490256Y-77082795D01*
X126301898Y-77004774D01*
X126101939Y-76965000D01*
X125898061Y-76965000D01*
X125698102Y-77004774D01*
X125509744Y-77082795D01*
X125467532Y-77111000D01*
X124532468Y-77111000D01*
X124490256Y-77082795D01*
X124301898Y-77004774D01*
X124101939Y-76965000D01*
X123898061Y-76965000D01*
X123698102Y-77004774D01*
X123509744Y-77082795D01*
X123340226Y-77196063D01*
X123196063Y-77340226D01*
X123082795Y-77509744D01*
X123004774Y-77698102D01*
X122965000Y-77898061D01*
X117889000Y-77898061D01*
X117889000Y-74262072D01*
X119468000Y-74262072D01*
X119592482Y-74249812D01*
X119712180Y-74213502D01*
X119822494Y-74154537D01*
X119919185Y-74075185D01*
X119998537Y-73978494D01*
X120057502Y-73868180D01*
X120079513Y-73795620D01*
X120211368Y-73927475D01*
X120454589Y-74089990D01*
X120724842Y-74201932D01*
X121011740Y-74259000D01*
X121304260Y-74259000D01*
X121591158Y-74201932D01*
X121861411Y-74089990D01*
X122104632Y-73927475D01*
X122311475Y-73720632D01*
X122428000Y-73546240D01*
X122544525Y-73720632D01*
X122751368Y-73927475D01*
X122994589Y-74089990D01*
X123264842Y-74201932D01*
X123551740Y-74259000D01*
X123844260Y-74259000D01*
X124131158Y-74201932D01*
X124401411Y-74089990D01*
X124644632Y-73927475D01*
X124851475Y-73720632D01*
X124968000Y-73546240D01*
X125084525Y-73720632D01*
X125291368Y-73927475D01*
X125534589Y-74089990D01*
X125804842Y-74201932D01*
X126091740Y-74259000D01*
X126384260Y-74259000D01*
X126671158Y-74201932D01*
X126941411Y-74089990D01*
X127184632Y-73927475D01*
X127391475Y-73720632D01*
X127513195Y-73538466D01*
X127582822Y-73655355D01*
X127777731Y-73871588D01*
X128011080Y-74045641D01*
X128273901Y-74170825D01*
X128421110Y-74215476D01*
X128651000Y-74094155D01*
X128651000Y-72901000D01*
X128631000Y-72901000D01*
X128631000Y-72647000D01*
X128651000Y-72647000D01*
X128651000Y-72627000D01*
X128905000Y-72627000D01*
X128905000Y-72647000D01*
X128925000Y-72647000D01*
X128925000Y-72901000D01*
X128905000Y-72901000D01*
X128905000Y-74094155D01*
X129134890Y-74215476D01*
X129282099Y-74170825D01*
X129544920Y-74045641D01*
X129778269Y-73871588D01*
X129973178Y-73655355D01*
X130042805Y-73538466D01*
X130164525Y-73720632D01*
X130371368Y-73927475D01*
X130614589Y-74089990D01*
X130884842Y-74201932D01*
X131171740Y-74259000D01*
X131464260Y-74259000D01*
X131751158Y-74201932D01*
X132021411Y-74089990D01*
X132264632Y-73927475D01*
X132471475Y-73720632D01*
X132588000Y-73546240D01*
X132704525Y-73720632D01*
X132911368Y-73927475D01*
X133154589Y-74089990D01*
X133424842Y-74201932D01*
X133711740Y-74259000D01*
X134004260Y-74259000D01*
X134291158Y-74201932D01*
X134561411Y-74089990D01*
X134804632Y-73927475D01*
X135011475Y-73720632D01*
X135128000Y-73546240D01*
X135244525Y-73720632D01*
X135451368Y-73927475D01*
X135694589Y-74089990D01*
X135964842Y-74201932D01*
X136251740Y-74259000D01*
X136544260Y-74259000D01*
X136831158Y-74201932D01*
X137101411Y-74089990D01*
X137344632Y-73927475D01*
X137551475Y-73720632D01*
X137668000Y-73546240D01*
X137784525Y-73720632D01*
X137991368Y-73927475D01*
X138234589Y-74089990D01*
X138504842Y-74201932D01*
X138791740Y-74259000D01*
X139084260Y-74259000D01*
X139371158Y-74201932D01*
X139641411Y-74089990D01*
X139884632Y-73927475D01*
X140091475Y-73720632D01*
X140208000Y-73546240D01*
X140324525Y-73720632D01*
X140531368Y-73927475D01*
X140774589Y-74089990D01*
X141044842Y-74201932D01*
X141331740Y-74259000D01*
X141624260Y-74259000D01*
X141911158Y-74201932D01*
X142181411Y-74089990D01*
X142424632Y-73927475D01*
X142631475Y-73720632D01*
X142748000Y-73546240D01*
X142864525Y-73720632D01*
X143071368Y-73927475D01*
X143314589Y-74089990D01*
X143584842Y-74201932D01*
X143871740Y-74259000D01*
X144164260Y-74259000D01*
X144451158Y-74201932D01*
X144721411Y-74089990D01*
X144964632Y-73927475D01*
X145171475Y-73720632D01*
X145288000Y-73546240D01*
X145404525Y-73720632D01*
X145611368Y-73927475D01*
X145854589Y-74089990D01*
X146124842Y-74201932D01*
X146411740Y-74259000D01*
X146704260Y-74259000D01*
X146991158Y-74201932D01*
X147261411Y-74089990D01*
X147504632Y-73927475D01*
X147711475Y-73720632D01*
X147833195Y-73538466D01*
X147902822Y-73655355D01*
X148097731Y-73871588D01*
X148331080Y-74045641D01*
X148593901Y-74170825D01*
X148741110Y-74215476D01*
X148971000Y-74094155D01*
X148971000Y-72901000D01*
X148951000Y-72901000D01*
X148951000Y-72647000D01*
X148971000Y-72647000D01*
X148971000Y-72627000D01*
X149225000Y-72627000D01*
X149225000Y-72647000D01*
X149245000Y-72647000D01*
X149245000Y-72901000D01*
X149225000Y-72901000D01*
X149225000Y-74094155D01*
X149454890Y-74215476D01*
X149602099Y-74170825D01*
X149864920Y-74045641D01*
X150098269Y-73871588D01*
X150293178Y-73655355D01*
X150362805Y-73538466D01*
X150484525Y-73720632D01*
X150691368Y-73927475D01*
X150934589Y-74089990D01*
X151204842Y-74201932D01*
X151491740Y-74259000D01*
X151784260Y-74259000D01*
X152071158Y-74201932D01*
X152341411Y-74089990D01*
X152584632Y-73927475D01*
X152791475Y-73720632D01*
X152908000Y-73546240D01*
X153024525Y-73720632D01*
X153231368Y-73927475D01*
X153474589Y-74089990D01*
X153744842Y-74201932D01*
X154031740Y-74259000D01*
X154324260Y-74259000D01*
X154611158Y-74201932D01*
X154881411Y-74089990D01*
X155124632Y-73927475D01*
X155331475Y-73720632D01*
X155448000Y-73546240D01*
X155564525Y-73720632D01*
X155771368Y-73927475D01*
X156014589Y-74089990D01*
X156284842Y-74201932D01*
X156571740Y-74259000D01*
X156864260Y-74259000D01*
X157151158Y-74201932D01*
X157421411Y-74089990D01*
X157664632Y-73927475D01*
X157871475Y-73720632D01*
X157988000Y-73546240D01*
X158104525Y-73720632D01*
X158311368Y-73927475D01*
X158554589Y-74089990D01*
X158824842Y-74201932D01*
X159111740Y-74259000D01*
X159404260Y-74259000D01*
X159691158Y-74201932D01*
X159961411Y-74089990D01*
X160204632Y-73927475D01*
X160411475Y-73720632D01*
X160528000Y-73546240D01*
X160644525Y-73720632D01*
X160851368Y-73927475D01*
X161094589Y-74089990D01*
X161364842Y-74201932D01*
X161651740Y-74259000D01*
X161944260Y-74259000D01*
X162231158Y-74201932D01*
X162501411Y-74089990D01*
X162744632Y-73927475D01*
X162951475Y-73720632D01*
X163068000Y-73546240D01*
X163184525Y-73720632D01*
X163391368Y-73927475D01*
X163634589Y-74089990D01*
X163904842Y-74201932D01*
X164191740Y-74259000D01*
X164484260Y-74259000D01*
X164771158Y-74201932D01*
X165041411Y-74089990D01*
X165284632Y-73927475D01*
X165491475Y-73720632D01*
X165613195Y-73538466D01*
X165682822Y-73655355D01*
X165877731Y-73871588D01*
X166111080Y-74045641D01*
X166373901Y-74170825D01*
X166521110Y-74215476D01*
X166751000Y-74094155D01*
X166751000Y-72901000D01*
X167005000Y-72901000D01*
X167005000Y-74094155D01*
X167234890Y-74215476D01*
X167382099Y-74170825D01*
X167644920Y-74045641D01*
X167878269Y-73871588D01*
X168073178Y-73655355D01*
X168222157Y-73405252D01*
X168319481Y-73130891D01*
X168198814Y-72901000D01*
X167005000Y-72901000D01*
X166751000Y-72901000D01*
X166731000Y-72901000D01*
X166731000Y-72647000D01*
X166751000Y-72647000D01*
X166751000Y-72627000D01*
X167005000Y-72627000D01*
X167005000Y-72647000D01*
X168198814Y-72647000D01*
X168319481Y-72417109D01*
X168222157Y-72142748D01*
X168073178Y-71892645D01*
X167878269Y-71676412D01*
X167648594Y-71505100D01*
X167824632Y-71387475D01*
X168031475Y-71180632D01*
X168193990Y-70937411D01*
X168305932Y-70667158D01*
X168363000Y-70380260D01*
X168363000Y-70087740D01*
X168305932Y-69800842D01*
X168193990Y-69530589D01*
X168031475Y-69287368D01*
X167824632Y-69080525D01*
X167581411Y-68918010D01*
X167311158Y-68806068D01*
X167024260Y-68749000D01*
X166731740Y-68749000D01*
X166444842Y-68806068D01*
X166174589Y-68918010D01*
X165931368Y-69080525D01*
X165724525Y-69287368D01*
X165608000Y-69461760D01*
X165491475Y-69287368D01*
X165284632Y-69080525D01*
X165041411Y-68918010D01*
X164771158Y-68806068D01*
X164484260Y-68749000D01*
X164191740Y-68749000D01*
X163904842Y-68806068D01*
X163634589Y-68918010D01*
X163391368Y-69080525D01*
X163184525Y-69287368D01*
X163068000Y-69461760D01*
X162951475Y-69287368D01*
X162744632Y-69080525D01*
X162501411Y-68918010D01*
X162231158Y-68806068D01*
X161944260Y-68749000D01*
X161651740Y-68749000D01*
X161364842Y-68806068D01*
X161094589Y-68918010D01*
X160851368Y-69080525D01*
X160644525Y-69287368D01*
X160522805Y-69469534D01*
X160453178Y-69352645D01*
X160258269Y-69136412D01*
X160024920Y-68962359D01*
X159762099Y-68837175D01*
X159614890Y-68792524D01*
X159385000Y-68913845D01*
X159385000Y-70107000D01*
X159405000Y-70107000D01*
X159405000Y-70361000D01*
X159385000Y-70361000D01*
X159385000Y-70381000D01*
X159131000Y-70381000D01*
X159131000Y-70361000D01*
X159111000Y-70361000D01*
X159111000Y-70107000D01*
X159131000Y-70107000D01*
X159131000Y-68913845D01*
X158901110Y-68792524D01*
X158753901Y-68837175D01*
X158491080Y-68962359D01*
X158257731Y-69136412D01*
X158062822Y-69352645D01*
X157993195Y-69469534D01*
X157871475Y-69287368D01*
X157664632Y-69080525D01*
X157421411Y-68918010D01*
X157151158Y-68806068D01*
X156864260Y-68749000D01*
X156571740Y-68749000D01*
X156284842Y-68806068D01*
X156014589Y-68918010D01*
X155771368Y-69080525D01*
X155564525Y-69287368D01*
X155442805Y-69469534D01*
X155373178Y-69352645D01*
X155178269Y-69136412D01*
X154944920Y-68962359D01*
X154682099Y-68837175D01*
X154534890Y-68792524D01*
X154305000Y-68913845D01*
X154305000Y-70107000D01*
X154325000Y-70107000D01*
X154325000Y-70361000D01*
X154305000Y-70361000D01*
X154305000Y-70381000D01*
X154051000Y-70381000D01*
X154051000Y-70361000D01*
X154031000Y-70361000D01*
X154031000Y-70107000D01*
X154051000Y-70107000D01*
X154051000Y-68913845D01*
X153821110Y-68792524D01*
X153673901Y-68837175D01*
X153411080Y-68962359D01*
X153177731Y-69136412D01*
X152982822Y-69352645D01*
X152913195Y-69469534D01*
X152791475Y-69287368D01*
X152584632Y-69080525D01*
X152341411Y-68918010D01*
X152071158Y-68806068D01*
X151784260Y-68749000D01*
X151491740Y-68749000D01*
X151204842Y-68806068D01*
X150934589Y-68918010D01*
X150691368Y-69080525D01*
X150484525Y-69287368D01*
X150368000Y-69461760D01*
X150251475Y-69287368D01*
X150044632Y-69080525D01*
X149801411Y-68918010D01*
X149531158Y-68806068D01*
X149244260Y-68749000D01*
X148951740Y-68749000D01*
X148664842Y-68806068D01*
X148394589Y-68918010D01*
X148151368Y-69080525D01*
X147944525Y-69287368D01*
X147828000Y-69461760D01*
X147711475Y-69287368D01*
X147504632Y-69080525D01*
X147261411Y-68918010D01*
X146991158Y-68806068D01*
X146704260Y-68749000D01*
X146411740Y-68749000D01*
X146124842Y-68806068D01*
X145854589Y-68918010D01*
X145611368Y-69080525D01*
X145404525Y-69287368D01*
X145288000Y-69461760D01*
X145171475Y-69287368D01*
X144964632Y-69080525D01*
X144721411Y-68918010D01*
X144451158Y-68806068D01*
X144164260Y-68749000D01*
X143871740Y-68749000D01*
X143584842Y-68806068D01*
X143314589Y-68918010D01*
X143071368Y-69080525D01*
X142864525Y-69287368D01*
X142742805Y-69469534D01*
X142673178Y-69352645D01*
X142478269Y-69136412D01*
X142244920Y-68962359D01*
X141982099Y-68837175D01*
X141834890Y-68792524D01*
X141605000Y-68913845D01*
X141605000Y-70107000D01*
X141625000Y-70107000D01*
X141625000Y-70361000D01*
X141605000Y-70361000D01*
X141605000Y-70381000D01*
X141351000Y-70381000D01*
X141351000Y-70361000D01*
X141331000Y-70361000D01*
X141331000Y-70107000D01*
X141351000Y-70107000D01*
X141351000Y-68913845D01*
X141121110Y-68792524D01*
X140973901Y-68837175D01*
X140711080Y-68962359D01*
X140477731Y-69136412D01*
X140282822Y-69352645D01*
X140213195Y-69469534D01*
X140091475Y-69287368D01*
X139884632Y-69080525D01*
X139641411Y-68918010D01*
X139371158Y-68806068D01*
X139084260Y-68749000D01*
X138791740Y-68749000D01*
X138504842Y-68806068D01*
X138234589Y-68918010D01*
X137991368Y-69080525D01*
X137784525Y-69287368D01*
X137668000Y-69461760D01*
X137551475Y-69287368D01*
X137344632Y-69080525D01*
X137101411Y-68918010D01*
X136831158Y-68806068D01*
X136544260Y-68749000D01*
X136251740Y-68749000D01*
X135964842Y-68806068D01*
X135694589Y-68918010D01*
X135451368Y-69080525D01*
X135244525Y-69287368D01*
X135122805Y-69469534D01*
X135053178Y-69352645D01*
X134858269Y-69136412D01*
X134624920Y-68962359D01*
X134362099Y-68837175D01*
X134214890Y-68792524D01*
X133985000Y-68913845D01*
X133985000Y-70107000D01*
X134005000Y-70107000D01*
X134005000Y-70361000D01*
X133985000Y-70361000D01*
X133985000Y-70381000D01*
X133731000Y-70381000D01*
X133731000Y-70361000D01*
X133711000Y-70361000D01*
X133711000Y-70107000D01*
X133731000Y-70107000D01*
X133731000Y-68913845D01*
X133501110Y-68792524D01*
X133353901Y-68837175D01*
X133091080Y-68962359D01*
X132857731Y-69136412D01*
X132662822Y-69352645D01*
X132593195Y-69469534D01*
X132471475Y-69287368D01*
X132264632Y-69080525D01*
X132021411Y-68918010D01*
X131751158Y-68806068D01*
X131464260Y-68749000D01*
X131171740Y-68749000D01*
X130884842Y-68806068D01*
X130614589Y-68918010D01*
X130371368Y-69080525D01*
X130164525Y-69287368D01*
X130048000Y-69461760D01*
X129931475Y-69287368D01*
X129724632Y-69080525D01*
X129481411Y-68918010D01*
X129211158Y-68806068D01*
X128924260Y-68749000D01*
X128631740Y-68749000D01*
X128344842Y-68806068D01*
X128074589Y-68918010D01*
X127831368Y-69080525D01*
X127624525Y-69287368D01*
X127508000Y-69461760D01*
X127391475Y-69287368D01*
X127184632Y-69080525D01*
X126941411Y-68918010D01*
X126671158Y-68806068D01*
X126384260Y-68749000D01*
X126091740Y-68749000D01*
X126023758Y-68762523D01*
X125950235Y-68689000D01*
X170764736Y-68689000D01*
X170337862Y-68865817D01*
%TA.AperFunction,Conductor*%
D17*
G36*
X170337862Y-68865817D02*
G01*
X169850273Y-69191613D01*
X169435613Y-69606273D01*
X169109817Y-70093862D01*
X168885405Y-70635641D01*
X168771000Y-71210791D01*
X168771000Y-71797209D01*
X168885405Y-72372359D01*
X169109817Y-72914138D01*
X169435613Y-73401727D01*
X169850273Y-73816387D01*
X170337862Y-74142183D01*
X170879641Y-74366595D01*
X171454791Y-74481000D01*
X172041209Y-74481000D01*
X172616359Y-74366595D01*
X173158138Y-74142183D01*
X173645727Y-73816387D01*
X174060387Y-73401727D01*
X174386183Y-72914138D01*
X174563000Y-72487264D01*
X174563001Y-93516739D01*
X174386183Y-93089862D01*
X174060387Y-92602273D01*
X173645727Y-92187613D01*
X173158138Y-91861817D01*
X172616359Y-91637405D01*
X172041209Y-91523000D01*
X171454791Y-91523000D01*
X170879641Y-91637405D01*
X170337862Y-91861817D01*
X169850273Y-92187613D01*
X169435613Y-92602273D01*
X169109817Y-93089862D01*
X168885405Y-93631641D01*
X168771000Y-94206791D01*
X168771000Y-94793209D01*
X168885405Y-95368359D01*
X169109817Y-95910138D01*
X169435613Y-96397727D01*
X169850273Y-96812387D01*
X170337862Y-97138183D01*
X170764736Y-97315000D01*
X114731264Y-97315000D01*
X115158138Y-97138183D01*
X115645727Y-96812387D01*
X116060387Y-96397727D01*
X116386183Y-95910138D01*
X116610595Y-95368359D01*
X116725000Y-94793209D01*
X116725000Y-94206791D01*
X116654774Y-93853740D01*
X118435000Y-93853740D01*
X118435000Y-94146260D01*
X118492068Y-94433158D01*
X118604010Y-94703411D01*
X118766525Y-94946632D01*
X118973368Y-95153475D01*
X119216589Y-95315990D01*
X119486842Y-95427932D01*
X119773740Y-95485000D01*
X120066260Y-95485000D01*
X120353158Y-95427932D01*
X120623411Y-95315990D01*
X120866632Y-95153475D01*
X121073475Y-94946632D01*
X121195195Y-94764466D01*
X121264822Y-94881355D01*
X121459731Y-95097588D01*
X121693080Y-95271641D01*
X121955901Y-95396825D01*
X122103110Y-95441476D01*
X122333000Y-95320155D01*
X122333000Y-94127000D01*
X122313000Y-94127000D01*
X122313000Y-93873000D01*
X122333000Y-93873000D01*
X122333000Y-92679845D01*
X122587000Y-92679845D01*
X122587000Y-93873000D01*
X122607000Y-93873000D01*
X122607000Y-94127000D01*
X122587000Y-94127000D01*
X122587000Y-95320155D01*
X122816890Y-95441476D01*
X122964099Y-95396825D01*
X123226920Y-95271641D01*
X123460269Y-95097588D01*
X123536034Y-95013534D01*
X123560498Y-95094180D01*
X123619463Y-95204494D01*
X123698815Y-95301185D01*
X123795506Y-95380537D01*
X123905820Y-95439502D01*
X124025518Y-95475812D01*
X124150000Y-95488072D01*
X125850000Y-95488072D01*
X125974482Y-95475812D01*
X126094180Y-95439502D01*
X126204494Y-95380537D01*
X126301185Y-95301185D01*
X126380537Y-95204494D01*
X126439502Y-95094180D01*
X126475812Y-94974482D01*
X126488072Y-94850000D01*
X126488072Y-93853740D01*
X127895000Y-93853740D01*
X127895000Y-94146260D01*
X127952068Y-94433158D01*
X128064010Y-94703411D01*
X128226525Y-94946632D01*
X128433368Y-95153475D01*
X128676589Y-95315990D01*
X128946842Y-95427932D01*
X129233740Y-95485000D01*
X129526260Y-95485000D01*
X129813158Y-95427932D01*
X130083411Y-95315990D01*
X130326632Y-95153475D01*
X130533475Y-94946632D01*
X130650000Y-94772240D01*
X130766525Y-94946632D01*
X130973368Y-95153475D01*
X131216589Y-95315990D01*
X131486842Y-95427932D01*
X131773740Y-95485000D01*
X132066260Y-95485000D01*
X132353158Y-95427932D01*
X132623411Y-95315990D01*
X132866632Y-95153475D01*
X133073475Y-94946632D01*
X133195195Y-94764466D01*
X133264822Y-94881355D01*
X133459731Y-95097588D01*
X133693080Y-95271641D01*
X133955901Y-95396825D01*
X134103110Y-95441476D01*
X134333000Y-95320155D01*
X134333000Y-94127000D01*
X134313000Y-94127000D01*
X134313000Y-93873000D01*
X134333000Y-93873000D01*
X134333000Y-92679845D01*
X134587000Y-92679845D01*
X134587000Y-93873000D01*
X134607000Y-93873000D01*
X134607000Y-94127000D01*
X134587000Y-94127000D01*
X134587000Y-95320155D01*
X134816890Y-95441476D01*
X134964099Y-95396825D01*
X135226920Y-95271641D01*
X135460269Y-95097588D01*
X135536034Y-95013534D01*
X135560498Y-95094180D01*
X135619463Y-95204494D01*
X135698815Y-95301185D01*
X135795506Y-95380537D01*
X135905820Y-95439502D01*
X136025518Y-95475812D01*
X136150000Y-95488072D01*
X137850000Y-95488072D01*
X137974482Y-95475812D01*
X138094180Y-95439502D01*
X138204494Y-95380537D01*
X138301185Y-95301185D01*
X138380537Y-95204494D01*
X138439502Y-95094180D01*
X138475812Y-94974482D01*
X138488072Y-94850000D01*
X138488072Y-93150000D01*
X138475812Y-93025518D01*
X138439502Y-92905820D01*
X138380537Y-92795506D01*
X138301185Y-92698815D01*
X138204494Y-92619463D01*
X138094180Y-92560498D01*
X137974482Y-92524188D01*
X137889000Y-92515769D01*
X137889000Y-91824373D01*
X137946063Y-91909774D01*
X138090226Y-92053937D01*
X138259744Y-92167205D01*
X138448102Y-92245226D01*
X138497895Y-92255130D01*
X141340506Y-95097742D01*
X141368341Y-95131659D01*
X141503709Y-95242753D01*
X141658149Y-95325303D01*
X141709237Y-95340800D01*
X141825724Y-95376136D01*
X141858924Y-95379406D01*
X141956333Y-95389000D01*
X141956339Y-95389000D01*
X141999999Y-95393300D01*
X142043659Y-95389000D01*
X151956340Y-95389000D01*
X152000000Y-95393300D01*
X152043660Y-95389000D01*
X152043667Y-95389000D01*
X152174274Y-95376136D01*
X152341851Y-95325303D01*
X152496291Y-95242753D01*
X152631659Y-95131659D01*
X152659499Y-95097736D01*
X153097736Y-94659499D01*
X153131659Y-94631659D01*
X153242753Y-94496291D01*
X153325303Y-94341851D01*
X153376136Y-94174274D01*
X153389000Y-94043667D01*
X153389000Y-94043660D01*
X153393300Y-94000000D01*
X153389000Y-93956340D01*
X153389000Y-93782468D01*
X153417205Y-93740256D01*
X153495226Y-93551898D01*
X153535000Y-93351939D01*
X153535000Y-93148061D01*
X153495226Y-92948102D01*
X153417205Y-92759744D01*
X153303937Y-92590226D01*
X153213711Y-92500000D01*
X153303937Y-92409774D01*
X153417205Y-92240256D01*
X153495226Y-92051898D01*
X153535000Y-91851939D01*
X153535000Y-91648061D01*
X153495226Y-91448102D01*
X153417205Y-91259744D01*
X153389000Y-91217532D01*
X153389000Y-91043668D01*
X153393301Y-91000000D01*
X153390480Y-90971358D01*
X153448102Y-90995226D01*
X153648061Y-91035000D01*
X153851939Y-91035000D01*
X154051898Y-90995226D01*
X154240256Y-90917205D01*
X154375000Y-90827172D01*
X154509744Y-90917205D01*
X154698102Y-90995226D01*
X154898061Y-91035000D01*
X155101939Y-91035000D01*
X155301898Y-90995226D01*
X155490256Y-90917205D01*
X155659774Y-90803937D01*
X155803937Y-90659774D01*
X155917205Y-90490256D01*
X155995226Y-90301898D01*
X156035000Y-90101939D01*
X156035000Y-89898061D01*
X155995226Y-89698102D01*
X155917205Y-89509744D01*
X155803937Y-89340226D01*
X155659774Y-89196063D01*
X155490256Y-89082795D01*
X155301898Y-89004774D01*
X155252105Y-88994870D01*
X153260663Y-87003428D01*
X153301898Y-86995226D01*
X153490256Y-86917205D01*
X153659774Y-86803937D01*
X153803937Y-86659774D01*
X153917205Y-86490256D01*
X153995226Y-86301898D01*
X154035000Y-86101939D01*
X154035000Y-85898061D01*
X153995226Y-85698102D01*
X153917205Y-85509744D01*
X153803937Y-85340226D01*
X153659774Y-85196063D01*
X153490256Y-85082795D01*
X153384612Y-85039035D01*
X153417205Y-84990256D01*
X153495226Y-84801898D01*
X153535000Y-84601939D01*
X153535000Y-84398061D01*
X153495226Y-84198102D01*
X153417205Y-84009744D01*
X153410694Y-84000000D01*
X153417205Y-83990256D01*
X153495226Y-83801898D01*
X153535000Y-83601939D01*
X153535000Y-83398061D01*
X153533198Y-83389000D01*
X156631765Y-83389000D01*
X157111001Y-83868237D01*
X157111000Y-90456340D01*
X157106700Y-90500000D01*
X157111000Y-90543660D01*
X157111000Y-90543666D01*
X157117632Y-90611000D01*
X157123864Y-90674274D01*
X157123993Y-90674698D01*
X157174697Y-90841850D01*
X157257247Y-90996290D01*
X157368341Y-91131659D01*
X157402264Y-91159499D01*
X159340506Y-93097742D01*
X159368341Y-93131659D01*
X159503709Y-93242753D01*
X159658149Y-93325303D01*
X159724058Y-93345296D01*
X159825724Y-93376136D01*
X159858924Y-93379406D01*
X159956333Y-93389000D01*
X159956339Y-93389000D01*
X159999999Y-93393300D01*
X160043659Y-93389000D01*
X162553614Y-93389000D01*
X162677692Y-93471906D01*
X162866050Y-93549927D01*
X163066009Y-93589701D01*
X163269887Y-93589701D01*
X163469846Y-93549927D01*
X163658204Y-93471906D01*
X163827722Y-93358638D01*
X163971885Y-93214475D01*
X164085153Y-93044957D01*
X164089277Y-93035000D01*
X164101939Y-93035000D01*
X164301898Y-92995226D01*
X164490256Y-92917205D01*
X164659774Y-92803937D01*
X164803937Y-92659774D01*
X164917205Y-92490256D01*
X164995226Y-92301898D01*
X165035000Y-92101939D01*
X165035000Y-91898061D01*
X164995226Y-91698102D01*
X164917205Y-91509744D01*
X164836527Y-91389000D01*
X167467532Y-91389000D01*
X167509744Y-91417205D01*
X167698102Y-91495226D01*
X167898061Y-91535000D01*
X168101939Y-91535000D01*
X168301898Y-91495226D01*
X168490256Y-91417205D01*
X168659774Y-91303937D01*
X168803937Y-91159774D01*
X168917205Y-90990256D01*
X168995226Y-90801898D01*
X169035000Y-90601939D01*
X169035000Y-90398061D01*
X168995226Y-90198102D01*
X168917205Y-90009744D01*
X168803937Y-89840226D01*
X168659774Y-89696063D01*
X168490256Y-89582795D01*
X168301898Y-89504774D01*
X168101939Y-89465000D01*
X167898061Y-89465000D01*
X167698102Y-89504774D01*
X167509744Y-89582795D01*
X167467532Y-89611000D01*
X164532468Y-89611000D01*
X164490256Y-89582795D01*
X164301898Y-89504774D01*
X164101939Y-89465000D01*
X163898061Y-89465000D01*
X163698102Y-89504774D01*
X163509744Y-89582795D01*
X163340226Y-89696063D01*
X163196063Y-89840226D01*
X163082795Y-90009744D01*
X163004774Y-90198102D01*
X162965000Y-90398061D01*
X162965000Y-90601939D01*
X162966802Y-90611000D01*
X161118236Y-90611000D01*
X160389000Y-89881765D01*
X160389000Y-83563740D01*
X168725000Y-83563740D01*
X168725000Y-83856260D01*
X168782068Y-84143158D01*
X168894010Y-84413411D01*
X169056525Y-84656632D01*
X169263368Y-84863475D01*
X169437760Y-84980000D01*
X169263368Y-85096525D01*
X169056525Y-85303368D01*
X168894010Y-85546589D01*
X168782068Y-85816842D01*
X168725000Y-86103740D01*
X168725000Y-86396260D01*
X168782068Y-86683158D01*
X168894010Y-86953411D01*
X169056525Y-87196632D01*
X169263368Y-87403475D01*
X169506589Y-87565990D01*
X169776842Y-87677932D01*
X170063740Y-87735000D01*
X170356260Y-87735000D01*
X170643158Y-87677932D01*
X170913411Y-87565990D01*
X171156632Y-87403475D01*
X171288487Y-87271620D01*
X171310498Y-87344180D01*
X171369463Y-87454494D01*
X171448815Y-87551185D01*
X171545506Y-87630537D01*
X171655820Y-87689502D01*
X171775518Y-87725812D01*
X171900000Y-87738072D01*
X173600000Y-87738072D01*
X173724482Y-87725812D01*
X173844180Y-87689502D01*
X173954494Y-87630537D01*
X174051185Y-87551185D01*
X174130537Y-87454494D01*
X174189502Y-87344180D01*
X174225812Y-87224482D01*
X174238072Y-87100000D01*
X174238072Y-85400000D01*
X174225812Y-85275518D01*
X174189502Y-85155820D01*
X174130537Y-85045506D01*
X174051185Y-84948815D01*
X173954494Y-84869463D01*
X173844180Y-84810498D01*
X173771620Y-84788487D01*
X173903475Y-84656632D01*
X174065990Y-84413411D01*
X174177932Y-84143158D01*
X174235000Y-83856260D01*
X174235000Y-83563740D01*
X174177932Y-83276842D01*
X174065990Y-83006589D01*
X173903475Y-82763368D01*
X173696632Y-82556525D01*
X173522240Y-82440000D01*
X173696632Y-82323475D01*
X173903475Y-82116632D01*
X174065990Y-81873411D01*
X174177932Y-81603158D01*
X174235000Y-81316260D01*
X174235000Y-81023740D01*
X174177932Y-80736842D01*
X174065990Y-80466589D01*
X173903475Y-80223368D01*
X173696632Y-80016525D01*
X173453411Y-79854010D01*
X173183158Y-79742068D01*
X172896260Y-79685000D01*
X172603740Y-79685000D01*
X172316842Y-79742068D01*
X172046589Y-79854010D01*
X171803368Y-80016525D01*
X171596525Y-80223368D01*
X171478900Y-80399406D01*
X171307588Y-80169731D01*
X171091355Y-79974822D01*
X170841252Y-79825843D01*
X170566891Y-79728519D01*
X170337000Y-79849186D01*
X170337000Y-81043000D01*
X170357000Y-81043000D01*
X170357000Y-81297000D01*
X170337000Y-81297000D01*
X170337000Y-81317000D01*
X170083000Y-81317000D01*
X170083000Y-81297000D01*
X168889845Y-81297000D01*
X168768524Y-81526890D01*
X168813175Y-81674099D01*
X168938359Y-81936920D01*
X169112412Y-82170269D01*
X169328645Y-82365178D01*
X169445534Y-82434805D01*
X169263368Y-82556525D01*
X169056525Y-82763368D01*
X168894010Y-83006589D01*
X168782068Y-83276842D01*
X168725000Y-83563740D01*
X160389000Y-83563740D01*
X160389000Y-83043660D01*
X160393300Y-83000000D01*
X160389000Y-82956340D01*
X160389000Y-82956333D01*
X160376136Y-82825726D01*
X160325303Y-82658149D01*
X160242753Y-82503709D01*
X160156050Y-82398061D01*
X163465000Y-82398061D01*
X163465000Y-82601939D01*
X163504774Y-82801898D01*
X163582795Y-82990256D01*
X163696063Y-83159774D01*
X163840226Y-83303937D01*
X164009744Y-83417205D01*
X164198102Y-83495226D01*
X164398061Y-83535000D01*
X164601939Y-83535000D01*
X164801898Y-83495226D01*
X164990256Y-83417205D01*
X165159774Y-83303937D01*
X165303937Y-83159774D01*
X165417205Y-82990256D01*
X165495226Y-82801898D01*
X165505130Y-82752105D01*
X167444125Y-80813110D01*
X168768524Y-80813110D01*
X168889845Y-81043000D01*
X170083000Y-81043000D01*
X170083000Y-79849186D01*
X169853109Y-79728519D01*
X169578748Y-79825843D01*
X169328645Y-79974822D01*
X169112412Y-80169731D01*
X168938359Y-80403080D01*
X168813175Y-80665901D01*
X168768524Y-80813110D01*
X167444125Y-80813110D01*
X168751406Y-79505829D01*
X168898061Y-79535000D01*
X169101939Y-79535000D01*
X169301898Y-79495226D01*
X169490256Y-79417205D01*
X169659774Y-79303937D01*
X169803937Y-79159774D01*
X169917205Y-78990256D01*
X169995226Y-78801898D01*
X170035000Y-78601939D01*
X170035000Y-78398061D01*
X169995226Y-78198102D01*
X169917205Y-78009744D01*
X169803937Y-77840226D01*
X169659774Y-77696063D01*
X169490256Y-77582795D01*
X169301898Y-77504774D01*
X169101939Y-77465000D01*
X168898061Y-77465000D01*
X168698102Y-77504774D01*
X168509744Y-77582795D01*
X168469467Y-77609707D01*
X168456339Y-77611000D01*
X168456333Y-77611000D01*
X168358924Y-77620594D01*
X168325724Y-77623864D01*
X168224058Y-77654704D01*
X168158149Y-77674697D01*
X168003709Y-77757247D01*
X167868341Y-77868341D01*
X167840501Y-77902264D01*
X164247895Y-81494870D01*
X164198102Y-81504774D01*
X164009744Y-81582795D01*
X163840226Y-81696063D01*
X163696063Y-81840226D01*
X163582795Y-82009744D01*
X163504774Y-82198102D01*
X163465000Y-82398061D01*
X160156050Y-82398061D01*
X160131659Y-82368341D01*
X160097741Y-82340505D01*
X158847740Y-81090505D01*
X158409499Y-80652264D01*
X158381659Y-80618341D01*
X158246291Y-80507247D01*
X158091851Y-80424697D01*
X157924274Y-80373864D01*
X157793667Y-80361000D01*
X157793660Y-80361000D01*
X157750000Y-80356700D01*
X157706340Y-80361000D01*
X145532468Y-80361000D01*
X145490256Y-80332795D01*
X145301898Y-80254774D01*
X145101939Y-80215000D01*
X144898061Y-80215000D01*
X144698102Y-80254774D01*
X144509744Y-80332795D01*
X144340226Y-80446063D01*
X144196063Y-80590226D01*
X144082795Y-80759744D01*
X144004774Y-80948102D01*
X143965000Y-81148061D01*
X143965000Y-81351939D01*
X144004774Y-81551898D01*
X144082795Y-81740256D01*
X144172828Y-81875000D01*
X144082795Y-82009744D01*
X144004774Y-82198102D01*
X143965000Y-82398061D01*
X143965000Y-82601939D01*
X144004774Y-82801898D01*
X144082795Y-82990256D01*
X144089306Y-83000000D01*
X144082795Y-83009744D01*
X144004774Y-83198102D01*
X143965000Y-83398061D01*
X143965000Y-83601939D01*
X144004774Y-83801898D01*
X144082795Y-83990256D01*
X144089306Y-84000000D01*
X144082795Y-84009744D01*
X144004774Y-84198102D01*
X143965000Y-84398061D01*
X143965000Y-84601939D01*
X144004774Y-84801898D01*
X144082795Y-84990256D01*
X144172826Y-85124997D01*
X144082795Y-85259738D01*
X144004774Y-85448096D01*
X143965000Y-85648055D01*
X143965000Y-85851933D01*
X144004774Y-86051892D01*
X144082795Y-86240250D01*
X144089307Y-86249996D01*
X144082795Y-86259741D01*
X144004774Y-86448099D01*
X143965000Y-86648058D01*
X143965000Y-86851936D01*
X144004774Y-87051895D01*
X144082795Y-87240253D01*
X144089307Y-87249998D01*
X144082795Y-87259744D01*
X144004774Y-87448102D01*
X143965000Y-87648061D01*
X143965000Y-87851939D01*
X144004774Y-88051898D01*
X144082795Y-88240256D01*
X144196063Y-88409774D01*
X144340226Y-88553937D01*
X144509744Y-88667205D01*
X144698102Y-88745226D01*
X144898061Y-88785000D01*
X145101939Y-88785000D01*
X145301898Y-88745226D01*
X145490256Y-88667205D01*
X145532468Y-88639000D01*
X151131765Y-88639000D01*
X151610331Y-89117566D01*
X151543667Y-89111000D01*
X151543660Y-89111000D01*
X151500000Y-89106700D01*
X151456340Y-89111000D01*
X139282468Y-89111000D01*
X139240256Y-89082795D01*
X139051898Y-89004774D01*
X138851939Y-88965000D01*
X138648061Y-88965000D01*
X138448102Y-89004774D01*
X138259744Y-89082795D01*
X138090226Y-89196063D01*
X137997916Y-89288373D01*
X138035000Y-89101939D01*
X138035000Y-88898061D01*
X137995226Y-88698102D01*
X137917205Y-88509744D01*
X137803937Y-88340226D01*
X137659774Y-88196063D01*
X137490256Y-88082795D01*
X137301898Y-88004774D01*
X137101939Y-87965000D01*
X136898061Y-87965000D01*
X136698102Y-88004774D01*
X136509744Y-88082795D01*
X136340226Y-88196063D01*
X136196063Y-88340226D01*
X136082795Y-88509744D01*
X136004774Y-88698102D01*
X135965000Y-88898061D01*
X135965000Y-89101939D01*
X136004774Y-89301898D01*
X136082795Y-89490256D01*
X136111001Y-89532469D01*
X136111000Y-92206333D01*
X136111000Y-92515769D01*
X136025518Y-92524188D01*
X135905820Y-92560498D01*
X135795506Y-92619463D01*
X135698815Y-92698815D01*
X135619463Y-92795506D01*
X135560498Y-92905820D01*
X135536034Y-92986466D01*
X135460269Y-92902412D01*
X135226920Y-92728359D01*
X134964099Y-92603175D01*
X134816890Y-92558524D01*
X134587000Y-92679845D01*
X134333000Y-92679845D01*
X134103110Y-92558524D01*
X133955901Y-92603175D01*
X133693080Y-92728359D01*
X133459731Y-92902412D01*
X133264822Y-93118645D01*
X133195195Y-93235534D01*
X133073475Y-93053368D01*
X132866632Y-92846525D01*
X132623411Y-92684010D01*
X132353158Y-92572068D01*
X132066260Y-92515000D01*
X131773740Y-92515000D01*
X131486842Y-92572068D01*
X131216589Y-92684010D01*
X130973368Y-92846525D01*
X130766525Y-93053368D01*
X130650000Y-93227760D01*
X130533475Y-93053368D01*
X130326632Y-92846525D01*
X130083411Y-92684010D01*
X129813158Y-92572068D01*
X129526260Y-92515000D01*
X129233740Y-92515000D01*
X128946842Y-92572068D01*
X128676589Y-92684010D01*
X128433368Y-92846525D01*
X128226525Y-93053368D01*
X128064010Y-93296589D01*
X127952068Y-93566842D01*
X127895000Y-93853740D01*
X126488072Y-93853740D01*
X126488072Y-93150000D01*
X126475812Y-93025518D01*
X126439502Y-92905820D01*
X126380537Y-92795506D01*
X126301185Y-92698815D01*
X126204494Y-92619463D01*
X126094180Y-92560498D01*
X125974482Y-92524188D01*
X125850000Y-92511928D01*
X124150000Y-92511928D01*
X124025518Y-92524188D01*
X123905820Y-92560498D01*
X123795506Y-92619463D01*
X123698815Y-92698815D01*
X123619463Y-92795506D01*
X123560498Y-92905820D01*
X123536034Y-92986466D01*
X123460269Y-92902412D01*
X123226920Y-92728359D01*
X122964099Y-92603175D01*
X122816890Y-92558524D01*
X122587000Y-92679845D01*
X122333000Y-92679845D01*
X122103110Y-92558524D01*
X121955901Y-92603175D01*
X121693080Y-92728359D01*
X121459731Y-92902412D01*
X121264822Y-93118645D01*
X121195195Y-93235534D01*
X121073475Y-93053368D01*
X120866632Y-92846525D01*
X120623411Y-92684010D01*
X120353158Y-92572068D01*
X120066260Y-92515000D01*
X119773740Y-92515000D01*
X119486842Y-92572068D01*
X119216589Y-92684010D01*
X118973368Y-92846525D01*
X118766525Y-93053368D01*
X118604010Y-93296589D01*
X118492068Y-93566842D01*
X118435000Y-93853740D01*
X116654774Y-93853740D01*
X116610595Y-93631641D01*
X116386183Y-93089862D01*
X116060387Y-92602273D01*
X115645727Y-92187613D01*
X115158138Y-91861817D01*
X114616359Y-91637405D01*
X114041209Y-91523000D01*
X113454791Y-91523000D01*
X112879641Y-91637405D01*
X112337862Y-91861817D01*
X111850273Y-92187613D01*
X111435613Y-92602273D01*
X111109817Y-93089862D01*
X110933000Y-93516736D01*
X110933000Y-87690000D01*
X112511928Y-87690000D01*
X112511928Y-89390000D01*
X112524188Y-89514482D01*
X112560498Y-89634180D01*
X112619463Y-89744494D01*
X112698815Y-89841185D01*
X112795506Y-89920537D01*
X112905820Y-89979502D01*
X113025518Y-90015812D01*
X113150000Y-90028072D01*
X114850000Y-90028072D01*
X114974482Y-90015812D01*
X115094180Y-89979502D01*
X115204494Y-89920537D01*
X115301185Y-89841185D01*
X115380537Y-89744494D01*
X115439502Y-89634180D01*
X115475812Y-89514482D01*
X115488072Y-89390000D01*
X115488072Y-87690000D01*
X115475812Y-87565518D01*
X115439502Y-87445820D01*
X115380537Y-87335506D01*
X115301185Y-87238815D01*
X115204494Y-87159463D01*
X115094180Y-87100498D01*
X115013534Y-87076034D01*
X115097588Y-87000269D01*
X115271641Y-86766920D01*
X115396825Y-86504099D01*
X115441476Y-86356890D01*
X115320155Y-86127000D01*
X114127000Y-86127000D01*
X114127000Y-86147000D01*
X113873000Y-86147000D01*
X113873000Y-86127000D01*
X112679845Y-86127000D01*
X112558524Y-86356890D01*
X112603175Y-86504099D01*
X112728359Y-86766920D01*
X112902412Y-87000269D01*
X112986466Y-87076034D01*
X112905820Y-87100498D01*
X112795506Y-87159463D01*
X112698815Y-87238815D01*
X112619463Y-87335506D01*
X112560498Y-87445820D01*
X112524188Y-87565518D01*
X112511928Y-87690000D01*
X110933000Y-87690000D01*
X110933000Y-72487264D01*
X111109817Y-72914138D01*
X111435613Y-73401727D01*
X111850273Y-73816387D01*
X112337862Y-74142183D01*
X112879641Y-74366595D01*
X113454791Y-74481000D01*
X114041209Y-74481000D01*
X114616359Y-74366595D01*
X115158138Y-74142183D01*
X115645727Y-73816387D01*
X116060387Y-73401727D01*
X116111000Y-73325979D01*
X116111001Y-79631763D01*
X115711765Y-80031000D01*
X115191983Y-80031000D01*
X115153475Y-79973368D01*
X114946632Y-79766525D01*
X114772240Y-79650000D01*
X114946632Y-79533475D01*
X115153475Y-79326632D01*
X115315990Y-79083411D01*
X115427932Y-78813158D01*
X115485000Y-78526260D01*
X115485000Y-78233740D01*
X115427932Y-77946842D01*
X115315990Y-77676589D01*
X115153475Y-77433368D01*
X114946632Y-77226525D01*
X114703411Y-77064010D01*
X114433158Y-76952068D01*
X114146260Y-76895000D01*
X113853740Y-76895000D01*
X113566842Y-76952068D01*
X113296589Y-77064010D01*
X113053368Y-77226525D01*
X112846525Y-77433368D01*
X112684010Y-77676589D01*
X112572068Y-77946842D01*
X112515000Y-78233740D01*
X112515000Y-78526260D01*
X112572068Y-78813158D01*
X112684010Y-79083411D01*
X112846525Y-79326632D01*
X113053368Y-79533475D01*
X113227760Y-79650000D01*
X113053368Y-79766525D01*
X112846525Y-79973368D01*
X112684010Y-80216589D01*
X112572068Y-80486842D01*
X112515000Y-80773740D01*
X112515000Y-81066260D01*
X112572068Y-81353158D01*
X112684010Y-81623411D01*
X112846525Y-81866632D01*
X113053368Y-82073475D01*
X113227760Y-82190000D01*
X113053368Y-82306525D01*
X112846525Y-82513368D01*
X112684010Y-82756589D01*
X112572068Y-83026842D01*
X112515000Y-83313740D01*
X112515000Y-83606260D01*
X112572068Y-83893158D01*
X112684010Y-84163411D01*
X112846525Y-84406632D01*
X113053368Y-84613475D01*
X113235534Y-84735195D01*
X113118645Y-84804822D01*
X112902412Y-84999731D01*
X112728359Y-85233080D01*
X112603175Y-85495901D01*
X112558524Y-85643110D01*
X112679845Y-85873000D01*
X113873000Y-85873000D01*
X113873000Y-85853000D01*
X114127000Y-85853000D01*
X114127000Y-85873000D01*
X115320155Y-85873000D01*
X115441476Y-85643110D01*
X115396825Y-85495901D01*
X115271641Y-85233080D01*
X115097588Y-84999731D01*
X114881355Y-84804822D01*
X114764466Y-84735195D01*
X114946632Y-84613475D01*
X115153475Y-84406632D01*
X115315990Y-84163411D01*
X115427932Y-83893158D01*
X115485000Y-83606260D01*
X115485000Y-83313740D01*
X115427932Y-83026842D01*
X115315990Y-82756589D01*
X115153475Y-82513368D01*
X114946632Y-82306525D01*
X114772240Y-82190000D01*
X114946632Y-82073475D01*
X115153475Y-81866632D01*
X115191983Y-81809000D01*
X116036340Y-81809000D01*
X116080000Y-81813300D01*
X116111001Y-81810247D01*
X116111000Y-90967532D01*
X116082795Y-91009744D01*
X116004774Y-91198102D01*
X115965000Y-91398061D01*
X115965000Y-91601939D01*
X116004774Y-91801898D01*
X116082795Y-91990256D01*
X116196063Y-92159774D01*
X116340226Y-92303937D01*
X116509744Y-92417205D01*
X116698102Y-92495226D01*
X116898061Y-92535000D01*
X117101939Y-92535000D01*
X117301898Y-92495226D01*
X117490256Y-92417205D01*
X117532468Y-92389000D01*
X120717532Y-92389000D01*
X120759744Y-92417205D01*
X120948102Y-92495226D01*
X121148061Y-92535000D01*
X121351939Y-92535000D01*
X121551898Y-92495226D01*
X121740256Y-92417205D01*
X121909774Y-92303937D01*
X122053937Y-92159774D01*
X122167205Y-91990256D01*
X122245226Y-91801898D01*
X122285000Y-91601939D01*
X122285000Y-91398061D01*
X122245226Y-91198102D01*
X122167205Y-91009744D01*
X122053937Y-90840226D01*
X121909774Y-90696063D01*
X121740256Y-90582795D01*
X121551898Y-90504774D01*
X121351939Y-90465000D01*
X121148061Y-90465000D01*
X120948102Y-90504774D01*
X120759744Y-90582795D01*
X120717532Y-90611000D01*
X117889000Y-90611000D01*
X117889000Y-82389000D01*
X118100340Y-82389000D01*
X118144000Y-82393300D01*
X118187660Y-82389000D01*
X118187667Y-82389000D01*
X118318274Y-82376136D01*
X118485851Y-82325303D01*
X118528353Y-82302585D01*
X118665898Y-82275226D01*
X118854256Y-82197205D01*
X119023774Y-82083937D01*
X119127711Y-81980000D01*
X126356928Y-81980000D01*
X126356928Y-83200000D01*
X126369188Y-83324482D01*
X126405498Y-83444180D01*
X126464463Y-83554494D01*
X126543815Y-83651185D01*
X126640506Y-83730537D01*
X126750820Y-83789502D01*
X126870518Y-83825812D01*
X126995000Y-83838072D01*
X127645000Y-83838072D01*
X127769482Y-83825812D01*
X127795000Y-83818071D01*
X127820518Y-83825812D01*
X127945000Y-83838072D01*
X128595000Y-83838072D01*
X128719482Y-83825812D01*
X128745000Y-83818071D01*
X128770518Y-83825812D01*
X128895000Y-83838072D01*
X129545000Y-83838072D01*
X129669482Y-83825812D01*
X129789180Y-83789502D01*
X129899494Y-83730537D01*
X129996185Y-83651185D01*
X130075537Y-83554494D01*
X130134502Y-83444180D01*
X130170812Y-83324482D01*
X130183072Y-83200000D01*
X130183072Y-81980000D01*
X130170812Y-81855518D01*
X130134502Y-81735820D01*
X130075537Y-81625506D01*
X129996185Y-81528815D01*
X129899494Y-81449463D01*
X129789180Y-81390498D01*
X129669482Y-81354188D01*
X129545000Y-81341928D01*
X128895000Y-81341928D01*
X128770518Y-81354188D01*
X128745000Y-81361929D01*
X128719482Y-81354188D01*
X128595000Y-81341928D01*
X127945000Y-81341928D01*
X127820518Y-81354188D01*
X127795000Y-81361929D01*
X127769482Y-81354188D01*
X127645000Y-81341928D01*
X126995000Y-81341928D01*
X126870518Y-81354188D01*
X126750820Y-81390498D01*
X126640506Y-81449463D01*
X126543815Y-81528815D01*
X126464463Y-81625506D01*
X126405498Y-81735820D01*
X126369188Y-81855518D01*
X126356928Y-81980000D01*
X119127711Y-81980000D01*
X119167937Y-81939774D01*
X119281205Y-81770256D01*
X119359226Y-81581898D01*
X119399000Y-81381939D01*
X119399000Y-81178061D01*
X119359226Y-80978102D01*
X119281205Y-80789744D01*
X119167937Y-80620226D01*
X119023774Y-80476063D01*
X118854256Y-80362795D01*
X118665898Y-80284774D01*
X118465939Y-80245000D01*
X118262061Y-80245000D01*
X118062102Y-80284774D01*
X117873744Y-80362795D01*
X117780976Y-80424780D01*
X117825303Y-80341851D01*
X117863782Y-80215000D01*
X117876136Y-80174276D01*
X117879406Y-80141076D01*
X117889000Y-80043667D01*
X117889000Y-80043661D01*
X117893300Y-80000001D01*
X117889000Y-79956341D01*
X117889000Y-79360000D01*
X126356928Y-79360000D01*
X126356928Y-80580000D01*
X126369188Y-80704482D01*
X126405498Y-80824180D01*
X126464463Y-80934494D01*
X126543815Y-81031185D01*
X126640506Y-81110537D01*
X126750820Y-81169502D01*
X126870518Y-81205812D01*
X126995000Y-81218072D01*
X127645000Y-81218072D01*
X127769482Y-81205812D01*
X127889180Y-81169502D01*
X127999494Y-81110537D01*
X128096185Y-81031185D01*
X128175537Y-80934494D01*
X128234502Y-80824180D01*
X128270000Y-80707159D01*
X128305498Y-80824180D01*
X128364463Y-80934494D01*
X128443815Y-81031185D01*
X128540506Y-81110537D01*
X128650820Y-81169502D01*
X128770518Y-81205812D01*
X128895000Y-81218072D01*
X129545000Y-81218072D01*
X129669482Y-81205812D01*
X129789180Y-81169502D01*
X129899494Y-81110537D01*
X129996185Y-81031185D01*
X130075537Y-80934494D01*
X130134502Y-80824180D01*
X130170812Y-80704482D01*
X130183072Y-80580000D01*
X130183072Y-79898061D01*
X135965000Y-79898061D01*
X135965000Y-80101939D01*
X136004774Y-80301898D01*
X136082795Y-80490256D01*
X136111001Y-80532469D01*
X136111000Y-84967532D01*
X136082795Y-85009744D01*
X136004774Y-85198102D01*
X135965000Y-85398061D01*
X135965000Y-85601939D01*
X136004774Y-85801898D01*
X136082795Y-85990256D01*
X136196063Y-86159774D01*
X136340226Y-86303937D01*
X136509744Y-86417205D01*
X136698102Y-86495226D01*
X136898061Y-86535000D01*
X137101939Y-86535000D01*
X137301898Y-86495226D01*
X137490256Y-86417205D01*
X137659774Y-86303937D01*
X137803937Y-86159774D01*
X137917205Y-85990256D01*
X137995226Y-85801898D01*
X138035000Y-85601939D01*
X138035000Y-85398061D01*
X137995226Y-85198102D01*
X137917205Y-85009744D01*
X137889000Y-84967532D01*
X137889000Y-80532468D01*
X137917205Y-80490256D01*
X137995226Y-80301898D01*
X138035000Y-80101939D01*
X138035000Y-79898061D01*
X137995226Y-79698102D01*
X137917205Y-79509744D01*
X137803937Y-79340226D01*
X137659774Y-79196063D01*
X137490256Y-79082795D01*
X137301898Y-79004774D01*
X137101939Y-78965000D01*
X136898061Y-78965000D01*
X136698102Y-79004774D01*
X136509744Y-79082795D01*
X136340226Y-79196063D01*
X136196063Y-79340226D01*
X136082795Y-79509744D01*
X136004774Y-79698102D01*
X135965000Y-79898061D01*
X130183072Y-79898061D01*
X130183072Y-79360000D01*
X130170812Y-79235518D01*
X130134502Y-79115820D01*
X130075537Y-79005506D01*
X129996185Y-78908815D01*
X129972040Y-78889000D01*
X133967532Y-78889000D01*
X134009744Y-78917205D01*
X134198102Y-78995226D01*
X134398061Y-79035000D01*
X134601939Y-79035000D01*
X134801898Y-78995226D01*
X134990256Y-78917205D01*
X135159774Y-78803937D01*
X135303937Y-78659774D01*
X135417205Y-78490256D01*
X135495226Y-78301898D01*
X135535000Y-78101939D01*
X135535000Y-77898061D01*
X135495226Y-77698102D01*
X135417205Y-77509744D01*
X135342582Y-77398061D01*
X136715000Y-77398061D01*
X136715000Y-77601939D01*
X136754774Y-77801898D01*
X136832795Y-77990256D01*
X136946063Y-78159774D01*
X137090226Y-78303937D01*
X137259744Y-78417205D01*
X137448102Y-78495226D01*
X137648061Y-78535000D01*
X137851939Y-78535000D01*
X138051898Y-78495226D01*
X138240256Y-78417205D01*
X138409774Y-78303937D01*
X138553937Y-78159774D01*
X138667205Y-77990256D01*
X138745226Y-77801898D01*
X138755130Y-77752105D01*
X140502106Y-76005130D01*
X140551898Y-75995226D01*
X140740256Y-75917205D01*
X140909774Y-75803937D01*
X141053937Y-75659774D01*
X141167205Y-75490256D01*
X141245226Y-75301898D01*
X141285000Y-75101939D01*
X141285000Y-74898061D01*
X141245226Y-74698102D01*
X141167205Y-74509744D01*
X141053937Y-74340226D01*
X140909774Y-74196063D01*
X140740256Y-74082795D01*
X140551898Y-74004774D01*
X140351939Y-73965000D01*
X140148061Y-73965000D01*
X139948102Y-74004774D01*
X139759744Y-74082795D01*
X139590226Y-74196063D01*
X139446063Y-74340226D01*
X139332795Y-74509744D01*
X139254774Y-74698102D01*
X139244870Y-74747894D01*
X137497895Y-76494870D01*
X137448102Y-76504774D01*
X137259744Y-76582795D01*
X137090226Y-76696063D01*
X136946063Y-76840226D01*
X136832795Y-77009744D01*
X136754774Y-77198102D01*
X136715000Y-77398061D01*
X135342582Y-77398061D01*
X135303937Y-77340226D01*
X135159774Y-77196063D01*
X134990256Y-77082795D01*
X134801898Y-77004774D01*
X134601939Y-76965000D01*
X134398061Y-76965000D01*
X134198102Y-77004774D01*
X134009744Y-77082795D01*
X133967532Y-77111000D01*
X129532468Y-77111000D01*
X129490256Y-77082795D01*
X129301898Y-77004774D01*
X129101939Y-76965000D01*
X128898061Y-76965000D01*
X128698102Y-77004774D01*
X128509744Y-77082795D01*
X128340226Y-77196063D01*
X128196063Y-77340226D01*
X128082795Y-77509744D01*
X128004774Y-77698102D01*
X127965000Y-77898061D01*
X127965000Y-78101939D01*
X128004774Y-78301898D01*
X128082795Y-78490256D01*
X128196063Y-78659774D01*
X128340226Y-78803937D01*
X128467768Y-78889157D01*
X128443815Y-78908815D01*
X128364463Y-79005506D01*
X128305498Y-79115820D01*
X128270000Y-79232841D01*
X128234502Y-79115820D01*
X128175537Y-79005506D01*
X128096185Y-78908815D01*
X127999494Y-78829463D01*
X127889180Y-78770498D01*
X127769482Y-78734188D01*
X127645000Y-78721928D01*
X126995000Y-78721928D01*
X126870518Y-78734188D01*
X126750820Y-78770498D01*
X126640506Y-78829463D01*
X126543815Y-78908815D01*
X126464463Y-79005506D01*
X126405498Y-79115820D01*
X126369188Y-79235518D01*
X126356928Y-79360000D01*
X117889000Y-79360000D01*
X117889000Y-77898061D01*
X122965000Y-77898061D01*
X122965000Y-78101939D01*
X123004774Y-78301898D01*
X123082795Y-78490256D01*
X123196063Y-78659774D01*
X123340226Y-78803937D01*
X123509744Y-78917205D01*
X123698102Y-78995226D01*
X123898061Y-79035000D01*
X124101939Y-79035000D01*
X124301898Y-78995226D01*
X124490256Y-78917205D01*
X124532468Y-78889000D01*
X125467532Y-78889000D01*
X125509744Y-78917205D01*
X125698102Y-78995226D01*
X125898061Y-79035000D01*
X126101939Y-79035000D01*
X126301898Y-78995226D01*
X126490256Y-78917205D01*
X126659774Y-78803937D01*
X126803937Y-78659774D01*
X126917205Y-78490256D01*
X126995226Y-78301898D01*
X127035000Y-78101939D01*
X127035000Y-77898061D01*
X126995226Y-77698102D01*
X126917205Y-77509744D01*
X126803937Y-77340226D01*
X126659774Y-77196063D01*
X126490256Y-77082795D01*
X126301898Y-77004774D01*
X126101939Y-76965000D01*
X125898061Y-76965000D01*
X125698102Y-77004774D01*
X125509744Y-77082795D01*
X125467532Y-77111000D01*
X124532468Y-77111000D01*
X124490256Y-77082795D01*
X124301898Y-77004774D01*
X124101939Y-76965000D01*
X123898061Y-76965000D01*
X123698102Y-77004774D01*
X123509744Y-77082795D01*
X123340226Y-77196063D01*
X123196063Y-77340226D01*
X123082795Y-77509744D01*
X123004774Y-77698102D01*
X122965000Y-77898061D01*
X117889000Y-77898061D01*
X117889000Y-74262072D01*
X119468000Y-74262072D01*
X119592482Y-74249812D01*
X119712180Y-74213502D01*
X119822494Y-74154537D01*
X119919185Y-74075185D01*
X119998537Y-73978494D01*
X120057502Y-73868180D01*
X120079513Y-73795620D01*
X120211368Y-73927475D01*
X120454589Y-74089990D01*
X120724842Y-74201932D01*
X121011740Y-74259000D01*
X121304260Y-74259000D01*
X121591158Y-74201932D01*
X121861411Y-74089990D01*
X122104632Y-73927475D01*
X122311475Y-73720632D01*
X122428000Y-73546240D01*
X122544525Y-73720632D01*
X122751368Y-73927475D01*
X122994589Y-74089990D01*
X123264842Y-74201932D01*
X123551740Y-74259000D01*
X123844260Y-74259000D01*
X124131158Y-74201932D01*
X124401411Y-74089990D01*
X124644632Y-73927475D01*
X124851475Y-73720632D01*
X124968000Y-73546240D01*
X125084525Y-73720632D01*
X125291368Y-73927475D01*
X125534589Y-74089990D01*
X125804842Y-74201932D01*
X126091740Y-74259000D01*
X126384260Y-74259000D01*
X126671158Y-74201932D01*
X126941411Y-74089990D01*
X127184632Y-73927475D01*
X127391475Y-73720632D01*
X127513195Y-73538466D01*
X127582822Y-73655355D01*
X127777731Y-73871588D01*
X128011080Y-74045641D01*
X128273901Y-74170825D01*
X128421110Y-74215476D01*
X128651000Y-74094155D01*
X128651000Y-72901000D01*
X128631000Y-72901000D01*
X128631000Y-72647000D01*
X128651000Y-72647000D01*
X128651000Y-72627000D01*
X128905000Y-72627000D01*
X128905000Y-72647000D01*
X128925000Y-72647000D01*
X128925000Y-72901000D01*
X128905000Y-72901000D01*
X128905000Y-74094155D01*
X129134890Y-74215476D01*
X129282099Y-74170825D01*
X129544920Y-74045641D01*
X129778269Y-73871588D01*
X129973178Y-73655355D01*
X130042805Y-73538466D01*
X130164525Y-73720632D01*
X130371368Y-73927475D01*
X130614589Y-74089990D01*
X130884842Y-74201932D01*
X131171740Y-74259000D01*
X131464260Y-74259000D01*
X131751158Y-74201932D01*
X132021411Y-74089990D01*
X132264632Y-73927475D01*
X132471475Y-73720632D01*
X132588000Y-73546240D01*
X132704525Y-73720632D01*
X132911368Y-73927475D01*
X133154589Y-74089990D01*
X133424842Y-74201932D01*
X133711740Y-74259000D01*
X134004260Y-74259000D01*
X134291158Y-74201932D01*
X134561411Y-74089990D01*
X134804632Y-73927475D01*
X135011475Y-73720632D01*
X135128000Y-73546240D01*
X135244525Y-73720632D01*
X135451368Y-73927475D01*
X135694589Y-74089990D01*
X135964842Y-74201932D01*
X136251740Y-74259000D01*
X136544260Y-74259000D01*
X136831158Y-74201932D01*
X137101411Y-74089990D01*
X137344632Y-73927475D01*
X137551475Y-73720632D01*
X137668000Y-73546240D01*
X137784525Y-73720632D01*
X137991368Y-73927475D01*
X138234589Y-74089990D01*
X138504842Y-74201932D01*
X138791740Y-74259000D01*
X139084260Y-74259000D01*
X139371158Y-74201932D01*
X139641411Y-74089990D01*
X139884632Y-73927475D01*
X140091475Y-73720632D01*
X140208000Y-73546240D01*
X140324525Y-73720632D01*
X140531368Y-73927475D01*
X140774589Y-74089990D01*
X141044842Y-74201932D01*
X141331740Y-74259000D01*
X141624260Y-74259000D01*
X141911158Y-74201932D01*
X142181411Y-74089990D01*
X142424632Y-73927475D01*
X142631475Y-73720632D01*
X142748000Y-73546240D01*
X142864525Y-73720632D01*
X143071368Y-73927475D01*
X143314589Y-74089990D01*
X143584842Y-74201932D01*
X143871740Y-74259000D01*
X144164260Y-74259000D01*
X144451158Y-74201932D01*
X144721411Y-74089990D01*
X144964632Y-73927475D01*
X145171475Y-73720632D01*
X145288000Y-73546240D01*
X145404525Y-73720632D01*
X145611368Y-73927475D01*
X145854589Y-74089990D01*
X146124842Y-74201932D01*
X146411740Y-74259000D01*
X146704260Y-74259000D01*
X146991158Y-74201932D01*
X147261411Y-74089990D01*
X147504632Y-73927475D01*
X147711475Y-73720632D01*
X147833195Y-73538466D01*
X147902822Y-73655355D01*
X148097731Y-73871588D01*
X148331080Y-74045641D01*
X148593901Y-74170825D01*
X148741110Y-74215476D01*
X148971000Y-74094155D01*
X148971000Y-72901000D01*
X148951000Y-72901000D01*
X148951000Y-72647000D01*
X148971000Y-72647000D01*
X148971000Y-72627000D01*
X149225000Y-72627000D01*
X149225000Y-72647000D01*
X149245000Y-72647000D01*
X149245000Y-72901000D01*
X149225000Y-72901000D01*
X149225000Y-74094155D01*
X149454890Y-74215476D01*
X149602099Y-74170825D01*
X149864920Y-74045641D01*
X150098269Y-73871588D01*
X150293178Y-73655355D01*
X150362805Y-73538466D01*
X150484525Y-73720632D01*
X150691368Y-73927475D01*
X150934589Y-74089990D01*
X151204842Y-74201932D01*
X151491740Y-74259000D01*
X151784260Y-74259000D01*
X152071158Y-74201932D01*
X152341411Y-74089990D01*
X152584632Y-73927475D01*
X152791475Y-73720632D01*
X152908000Y-73546240D01*
X153024525Y-73720632D01*
X153231368Y-73927475D01*
X153474589Y-74089990D01*
X153744842Y-74201932D01*
X154031740Y-74259000D01*
X154324260Y-74259000D01*
X154611158Y-74201932D01*
X154881411Y-74089990D01*
X155124632Y-73927475D01*
X155331475Y-73720632D01*
X155448000Y-73546240D01*
X155564525Y-73720632D01*
X155771368Y-73927475D01*
X156014589Y-74089990D01*
X156284842Y-74201932D01*
X156571740Y-74259000D01*
X156864260Y-74259000D01*
X157151158Y-74201932D01*
X157421411Y-74089990D01*
X157664632Y-73927475D01*
X157871475Y-73720632D01*
X157988000Y-73546240D01*
X158104525Y-73720632D01*
X158311368Y-73927475D01*
X158554589Y-74089990D01*
X158824842Y-74201932D01*
X159111740Y-74259000D01*
X159404260Y-74259000D01*
X159691158Y-74201932D01*
X159961411Y-74089990D01*
X160204632Y-73927475D01*
X160411475Y-73720632D01*
X160528000Y-73546240D01*
X160644525Y-73720632D01*
X160851368Y-73927475D01*
X161094589Y-74089990D01*
X161364842Y-74201932D01*
X161651740Y-74259000D01*
X161944260Y-74259000D01*
X162231158Y-74201932D01*
X162501411Y-74089990D01*
X162744632Y-73927475D01*
X162951475Y-73720632D01*
X163068000Y-73546240D01*
X163184525Y-73720632D01*
X163391368Y-73927475D01*
X163634589Y-74089990D01*
X163904842Y-74201932D01*
X164191740Y-74259000D01*
X164484260Y-74259000D01*
X164771158Y-74201932D01*
X165041411Y-74089990D01*
X165284632Y-73927475D01*
X165491475Y-73720632D01*
X165613195Y-73538466D01*
X165682822Y-73655355D01*
X165877731Y-73871588D01*
X166111080Y-74045641D01*
X166373901Y-74170825D01*
X166521110Y-74215476D01*
X166751000Y-74094155D01*
X166751000Y-72901000D01*
X167005000Y-72901000D01*
X167005000Y-74094155D01*
X167234890Y-74215476D01*
X167382099Y-74170825D01*
X167644920Y-74045641D01*
X167878269Y-73871588D01*
X168073178Y-73655355D01*
X168222157Y-73405252D01*
X168319481Y-73130891D01*
X168198814Y-72901000D01*
X167005000Y-72901000D01*
X166751000Y-72901000D01*
X166731000Y-72901000D01*
X166731000Y-72647000D01*
X166751000Y-72647000D01*
X166751000Y-72627000D01*
X167005000Y-72627000D01*
X167005000Y-72647000D01*
X168198814Y-72647000D01*
X168319481Y-72417109D01*
X168222157Y-72142748D01*
X168073178Y-71892645D01*
X167878269Y-71676412D01*
X167648594Y-71505100D01*
X167824632Y-71387475D01*
X168031475Y-71180632D01*
X168193990Y-70937411D01*
X168305932Y-70667158D01*
X168363000Y-70380260D01*
X168363000Y-70087740D01*
X168305932Y-69800842D01*
X168193990Y-69530589D01*
X168031475Y-69287368D01*
X167824632Y-69080525D01*
X167581411Y-68918010D01*
X167311158Y-68806068D01*
X167024260Y-68749000D01*
X166731740Y-68749000D01*
X166444842Y-68806068D01*
X166174589Y-68918010D01*
X165931368Y-69080525D01*
X165724525Y-69287368D01*
X165608000Y-69461760D01*
X165491475Y-69287368D01*
X165284632Y-69080525D01*
X165041411Y-68918010D01*
X164771158Y-68806068D01*
X164484260Y-68749000D01*
X164191740Y-68749000D01*
X163904842Y-68806068D01*
X163634589Y-68918010D01*
X163391368Y-69080525D01*
X163184525Y-69287368D01*
X163068000Y-69461760D01*
X162951475Y-69287368D01*
X162744632Y-69080525D01*
X162501411Y-68918010D01*
X162231158Y-68806068D01*
X161944260Y-68749000D01*
X161651740Y-68749000D01*
X161364842Y-68806068D01*
X161094589Y-68918010D01*
X160851368Y-69080525D01*
X160644525Y-69287368D01*
X160522805Y-69469534D01*
X160453178Y-69352645D01*
X160258269Y-69136412D01*
X160024920Y-68962359D01*
X159762099Y-68837175D01*
X159614890Y-68792524D01*
X159385000Y-68913845D01*
X159385000Y-70107000D01*
X159405000Y-70107000D01*
X159405000Y-70361000D01*
X159385000Y-70361000D01*
X159385000Y-70381000D01*
X159131000Y-70381000D01*
X159131000Y-70361000D01*
X159111000Y-70361000D01*
X159111000Y-70107000D01*
X159131000Y-70107000D01*
X159131000Y-68913845D01*
X158901110Y-68792524D01*
X158753901Y-68837175D01*
X158491080Y-68962359D01*
X158257731Y-69136412D01*
X158062822Y-69352645D01*
X157993195Y-69469534D01*
X157871475Y-69287368D01*
X157664632Y-69080525D01*
X157421411Y-68918010D01*
X157151158Y-68806068D01*
X156864260Y-68749000D01*
X156571740Y-68749000D01*
X156284842Y-68806068D01*
X156014589Y-68918010D01*
X155771368Y-69080525D01*
X155564525Y-69287368D01*
X155442805Y-69469534D01*
X155373178Y-69352645D01*
X155178269Y-69136412D01*
X154944920Y-68962359D01*
X154682099Y-68837175D01*
X154534890Y-68792524D01*
X154305000Y-68913845D01*
X154305000Y-70107000D01*
X154325000Y-70107000D01*
X154325000Y-70361000D01*
X154305000Y-70361000D01*
X154305000Y-70381000D01*
X154051000Y-70381000D01*
X154051000Y-70361000D01*
X154031000Y-70361000D01*
X154031000Y-70107000D01*
X154051000Y-70107000D01*
X154051000Y-68913845D01*
X153821110Y-68792524D01*
X153673901Y-68837175D01*
X153411080Y-68962359D01*
X153177731Y-69136412D01*
X152982822Y-69352645D01*
X152913195Y-69469534D01*
X152791475Y-69287368D01*
X152584632Y-69080525D01*
X152341411Y-68918010D01*
X152071158Y-68806068D01*
X151784260Y-68749000D01*
X151491740Y-68749000D01*
X151204842Y-68806068D01*
X150934589Y-68918010D01*
X150691368Y-69080525D01*
X150484525Y-69287368D01*
X150368000Y-69461760D01*
X150251475Y-69287368D01*
X150044632Y-69080525D01*
X149801411Y-68918010D01*
X149531158Y-68806068D01*
X149244260Y-68749000D01*
X148951740Y-68749000D01*
X148664842Y-68806068D01*
X148394589Y-68918010D01*
X148151368Y-69080525D01*
X147944525Y-69287368D01*
X147828000Y-69461760D01*
X147711475Y-69287368D01*
X147504632Y-69080525D01*
X147261411Y-68918010D01*
X146991158Y-68806068D01*
X146704260Y-68749000D01*
X146411740Y-68749000D01*
X146124842Y-68806068D01*
X145854589Y-68918010D01*
X145611368Y-69080525D01*
X145404525Y-69287368D01*
X145288000Y-69461760D01*
X145171475Y-69287368D01*
X144964632Y-69080525D01*
X144721411Y-68918010D01*
X144451158Y-68806068D01*
X144164260Y-68749000D01*
X143871740Y-68749000D01*
X143584842Y-68806068D01*
X143314589Y-68918010D01*
X143071368Y-69080525D01*
X142864525Y-69287368D01*
X142742805Y-69469534D01*
X142673178Y-69352645D01*
X142478269Y-69136412D01*
X142244920Y-68962359D01*
X141982099Y-68837175D01*
X141834890Y-68792524D01*
X141605000Y-68913845D01*
X141605000Y-70107000D01*
X141625000Y-70107000D01*
X141625000Y-70361000D01*
X141605000Y-70361000D01*
X141605000Y-70381000D01*
X141351000Y-70381000D01*
X141351000Y-70361000D01*
X141331000Y-70361000D01*
X141331000Y-70107000D01*
X141351000Y-70107000D01*
X141351000Y-68913845D01*
X141121110Y-68792524D01*
X140973901Y-68837175D01*
X140711080Y-68962359D01*
X140477731Y-69136412D01*
X140282822Y-69352645D01*
X140213195Y-69469534D01*
X140091475Y-69287368D01*
X139884632Y-69080525D01*
X139641411Y-68918010D01*
X139371158Y-68806068D01*
X139084260Y-68749000D01*
X138791740Y-68749000D01*
X138504842Y-68806068D01*
X138234589Y-68918010D01*
X137991368Y-69080525D01*
X137784525Y-69287368D01*
X137668000Y-69461760D01*
X137551475Y-69287368D01*
X137344632Y-69080525D01*
X137101411Y-68918010D01*
X136831158Y-68806068D01*
X136544260Y-68749000D01*
X136251740Y-68749000D01*
X135964842Y-68806068D01*
X135694589Y-68918010D01*
X135451368Y-69080525D01*
X135244525Y-69287368D01*
X135122805Y-69469534D01*
X135053178Y-69352645D01*
X134858269Y-69136412D01*
X134624920Y-68962359D01*
X134362099Y-68837175D01*
X134214890Y-68792524D01*
X133985000Y-68913845D01*
X133985000Y-70107000D01*
X134005000Y-70107000D01*
X134005000Y-70361000D01*
X133985000Y-70361000D01*
X133985000Y-70381000D01*
X133731000Y-70381000D01*
X133731000Y-70361000D01*
X133711000Y-70361000D01*
X133711000Y-70107000D01*
X133731000Y-70107000D01*
X133731000Y-68913845D01*
X133501110Y-68792524D01*
X133353901Y-68837175D01*
X133091080Y-68962359D01*
X132857731Y-69136412D01*
X132662822Y-69352645D01*
X132593195Y-69469534D01*
X132471475Y-69287368D01*
X132264632Y-69080525D01*
X132021411Y-68918010D01*
X131751158Y-68806068D01*
X131464260Y-68749000D01*
X131171740Y-68749000D01*
X130884842Y-68806068D01*
X130614589Y-68918010D01*
X130371368Y-69080525D01*
X130164525Y-69287368D01*
X130048000Y-69461760D01*
X129931475Y-69287368D01*
X129724632Y-69080525D01*
X129481411Y-68918010D01*
X129211158Y-68806068D01*
X128924260Y-68749000D01*
X128631740Y-68749000D01*
X128344842Y-68806068D01*
X128074589Y-68918010D01*
X127831368Y-69080525D01*
X127624525Y-69287368D01*
X127508000Y-69461760D01*
X127391475Y-69287368D01*
X127184632Y-69080525D01*
X126941411Y-68918010D01*
X126671158Y-68806068D01*
X126384260Y-68749000D01*
X126091740Y-68749000D01*
X126023758Y-68762523D01*
X125950235Y-68689000D01*
X170764736Y-68689000D01*
X170337862Y-68865817D01*
G37*
%TD.AperFunction*%
D16*
X127624525Y-71180632D02*
X127831368Y-71387475D01*
X128007406Y-71505100D01*
X127777731Y-71676412D01*
X127582822Y-71892645D01*
X127513195Y-72009534D01*
X127391475Y-71827368D01*
X127184632Y-71620525D01*
X127010240Y-71504000D01*
X127184632Y-71387475D01*
X127391475Y-71180632D01*
X127508000Y-71006240D01*
X127624525Y-71180632D01*
%TA.AperFunction,Conductor*%
D17*
G36*
X127624525Y-71180632D02*
G01*
X127831368Y-71387475D01*
X128007406Y-71505100D01*
X127777731Y-71676412D01*
X127582822Y-71892645D01*
X127513195Y-72009534D01*
X127391475Y-71827368D01*
X127184632Y-71620525D01*
X127010240Y-71504000D01*
X127184632Y-71387475D01*
X127391475Y-71180632D01*
X127508000Y-71006240D01*
X127624525Y-71180632D01*
G37*
%TD.AperFunction*%
D16*
X125084525Y-71180632D02*
X125291368Y-71387475D01*
X125465760Y-71504000D01*
X125291368Y-71620525D01*
X125084525Y-71827368D01*
X124968000Y-72001760D01*
X124851475Y-71827368D01*
X124644632Y-71620525D01*
X124468594Y-71502900D01*
X124698269Y-71331588D01*
X124893178Y-71115355D01*
X124962805Y-70998466D01*
X125084525Y-71180632D01*
%TA.AperFunction,Conductor*%
D17*
G36*
X125084525Y-71180632D02*
G01*
X125291368Y-71387475D01*
X125465760Y-71504000D01*
X125291368Y-71620525D01*
X125084525Y-71827368D01*
X124968000Y-72001760D01*
X124851475Y-71827368D01*
X124644632Y-71620525D01*
X124468594Y-71502900D01*
X124698269Y-71331588D01*
X124893178Y-71115355D01*
X124962805Y-70998466D01*
X125084525Y-71180632D01*
G37*
%TD.AperFunction*%
D16*
X123825000Y-70107000D02*
X123845000Y-70107000D01*
X123845000Y-70361000D01*
X123825000Y-70361000D01*
X123825000Y-70381000D01*
X123571000Y-70381000D01*
X123571000Y-70361000D01*
X123551000Y-70361000D01*
X123551000Y-70107000D01*
X123571000Y-70107000D01*
X123571000Y-70087000D01*
X123825000Y-70087000D01*
X123825000Y-70107000D01*
%TA.AperFunction,Conductor*%
D17*
G36*
X123825000Y-70107000D02*
G01*
X123845000Y-70107000D01*
X123845000Y-70361000D01*
X123825000Y-70361000D01*
X123825000Y-70381000D01*
X123571000Y-70381000D01*
X123571000Y-70361000D01*
X123551000Y-70361000D01*
X123551000Y-70107000D01*
X123571000Y-70107000D01*
X123571000Y-70087000D01*
X123825000Y-70087000D01*
X123825000Y-70107000D01*
G37*
%TD.AperFunction*%
%TD*%
M02*
