%TF.GenerationSoftware,KiCad,Pcbnew,(5.1.9)-1*%
%TF.CreationDate,2021-04-12T22:32:52+10:00*%
%TF.ProjectId,FlightBridgePCB,466c6967-6874-4427-9269-646765504342,rev?*%
%TF.SameCoordinates,Original*%
%TF.FileFunction,Soldermask,Bot*%
%TF.FilePolarity,Negative*%
%FSLAX46Y46*%
G04 Gerber Fmt 4.6, Leading zero omitted, Abs format (unit mm)*
G04 Created by KiCad (PCBNEW (5.1.9)-1) date 2021-04-12 22:32:52*
%MOMM*%
%LPD*%
G01*
G04 APERTURE LIST*
%ADD10R,0.650000X1.220000*%
%ADD11O,1.700000X1.700000*%
%ADD12R,1.700000X1.700000*%
%ADD13C,5.700000*%
G04 APERTURE END LIST*
D10*
%TO.C,U2*%
X129220000Y-79970000D03*
X127320000Y-79970000D03*
X127320000Y-82590000D03*
X128270000Y-82590000D03*
X129220000Y-82590000D03*
%TD*%
D11*
%TO.C,J4*%
X119920000Y-94000000D03*
X122460000Y-94000000D03*
D12*
X125000000Y-94000000D03*
%TD*%
D11*
%TO.C,J2*%
X170210000Y-81170000D03*
X172750000Y-81170000D03*
X170210000Y-83710000D03*
X172750000Y-83710000D03*
X170210000Y-86250000D03*
D12*
X172750000Y-86250000D03*
%TD*%
D11*
%TO.C,J5*%
X129380000Y-94000000D03*
X131920000Y-94000000D03*
X134460000Y-94000000D03*
D12*
X137000000Y-94000000D03*
%TD*%
D13*
%TO.C,REF\u002A\u002A*%
X171748000Y-94500000D03*
%TD*%
%TO.C,REF\u002A\u002A*%
X171748000Y-71504000D03*
%TD*%
%TO.C,REF\u002A\u002A*%
X113748000Y-94500000D03*
%TD*%
%TO.C,REF\u002A\u002A*%
X113748000Y-71504000D03*
%TD*%
D11*
%TO.C,J3*%
X114000000Y-78380000D03*
X114000000Y-80920000D03*
X114000000Y-83460000D03*
X114000000Y-86000000D03*
D12*
X114000000Y-88540000D03*
%TD*%
D11*
%TO.C,J1*%
X166878000Y-70234000D03*
X166878000Y-72774000D03*
X164338000Y-70234000D03*
X164338000Y-72774000D03*
X161798000Y-70234000D03*
X161798000Y-72774000D03*
X159258000Y-70234000D03*
X159258000Y-72774000D03*
X156718000Y-70234000D03*
X156718000Y-72774000D03*
X154178000Y-70234000D03*
X154178000Y-72774000D03*
X151638000Y-70234000D03*
X151638000Y-72774000D03*
X149098000Y-70234000D03*
X149098000Y-72774000D03*
X146558000Y-70234000D03*
X146558000Y-72774000D03*
X144018000Y-70234000D03*
X144018000Y-72774000D03*
X141478000Y-70234000D03*
X141478000Y-72774000D03*
X138938000Y-70234000D03*
X138938000Y-72774000D03*
X136398000Y-70234000D03*
X136398000Y-72774000D03*
X133858000Y-70234000D03*
X133858000Y-72774000D03*
X131318000Y-70234000D03*
X131318000Y-72774000D03*
X128778000Y-70234000D03*
X128778000Y-72774000D03*
X126238000Y-70234000D03*
X126238000Y-72774000D03*
X123698000Y-70234000D03*
X123698000Y-72774000D03*
X121158000Y-70234000D03*
X121158000Y-72774000D03*
X118618000Y-70234000D03*
D12*
X118618000Y-72774000D03*
%TD*%
M02*
