%TF.GenerationSoftware,KiCad,Pcbnew,(5.1.9)-1*%
%TF.CreationDate,2021-04-18T22:54:53+10:00*%
%TF.ProjectId,FlightBridgePCB,466c6967-6874-4427-9269-646765504342,rev?*%
%TF.SameCoordinates,Original*%
%TF.FileFunction,Copper,L2,Bot*%
%TF.FilePolarity,Positive*%
%FSLAX46Y46*%
G04 Gerber Fmt 4.6, Leading zero omitted, Abs format (unit mm)*
G04 Created by KiCad (PCBNEW (5.1.9)-1) date 2021-04-18 22:54:53*
%MOMM*%
%LPD*%
G01*
G04 APERTURE LIST*
%TA.AperFunction,ComponentPad*%
%ADD10O,1.700000X1.700000*%
%TD*%
%TA.AperFunction,ComponentPad*%
%ADD11R,1.700000X1.700000*%
%TD*%
%TA.AperFunction,ComponentPad*%
%ADD12O,2.000000X1.905000*%
%TD*%
%TA.AperFunction,ComponentPad*%
%ADD13R,2.000000X1.905000*%
%TD*%
%TA.AperFunction,ComponentPad*%
%ADD14R,1.050000X1.500000*%
%TD*%
%TA.AperFunction,ComponentPad*%
%ADD15O,1.050000X1.500000*%
%TD*%
%TA.AperFunction,ViaPad*%
%ADD16C,0.800000*%
%TD*%
%TA.AperFunction,Conductor*%
%ADD17C,0.381000*%
%TD*%
%TA.AperFunction,Conductor*%
%ADD18C,0.508000*%
%TD*%
%TA.AperFunction,Conductor*%
%ADD19C,0.254000*%
%TD*%
%TA.AperFunction,Conductor*%
%ADD20C,0.100000*%
%TD*%
G04 APERTURE END LIST*
%TO.P,C6,2*%
%TO.N,GND*%
%TA.AperFunction,SMDPad,CuDef*%
G36*
G01*
X122253500Y-80424000D02*
X122253500Y-81374000D01*
G75*
G02*
X122003500Y-81624000I-250000J0D01*
G01*
X121328500Y-81624000D01*
G75*
G02*
X121078500Y-81374000I0J250000D01*
G01*
X121078500Y-80424000D01*
G75*
G02*
X121328500Y-80174000I250000J0D01*
G01*
X122003500Y-80174000D01*
G75*
G02*
X122253500Y-80424000I0J-250000D01*
G01*
G37*
%TD.AperFunction*%
%TO.P,C6,1*%
%TO.N,+5V*%
%TA.AperFunction,SMDPad,CuDef*%
G36*
G01*
X124328500Y-80424000D02*
X124328500Y-81374000D01*
G75*
G02*
X124078500Y-81624000I-250000J0D01*
G01*
X123403500Y-81624000D01*
G75*
G02*
X123153500Y-81374000I0J250000D01*
G01*
X123153500Y-80424000D01*
G75*
G02*
X123403500Y-80174000I250000J0D01*
G01*
X124078500Y-80174000D01*
G75*
G02*
X124328500Y-80424000I0J-250000D01*
G01*
G37*
%TD.AperFunction*%
%TD*%
%TO.P,C5,2*%
%TO.N,GND*%
%TA.AperFunction,SMDPad,CuDef*%
G36*
G01*
X122337500Y-78392000D02*
X122337500Y-79342000D01*
G75*
G02*
X122087500Y-79592000I-250000J0D01*
G01*
X121412500Y-79592000D01*
G75*
G02*
X121162500Y-79342000I0J250000D01*
G01*
X121162500Y-78392000D01*
G75*
G02*
X121412500Y-78142000I250000J0D01*
G01*
X122087500Y-78142000D01*
G75*
G02*
X122337500Y-78392000I0J-250000D01*
G01*
G37*
%TD.AperFunction*%
%TO.P,C5,1*%
%TO.N,+5V*%
%TA.AperFunction,SMDPad,CuDef*%
G36*
G01*
X124412500Y-78392000D02*
X124412500Y-79342000D01*
G75*
G02*
X124162500Y-79592000I-250000J0D01*
G01*
X123487500Y-79592000D01*
G75*
G02*
X123237500Y-79342000I0J250000D01*
G01*
X123237500Y-78392000D01*
G75*
G02*
X123487500Y-78142000I250000J0D01*
G01*
X124162500Y-78142000D01*
G75*
G02*
X124412500Y-78392000I0J-250000D01*
G01*
G37*
%TD.AperFunction*%
%TD*%
D10*
%TO.P,J3,4*%
%TO.N,UART_SBUS*%
X129794000Y-93853000D03*
%TO.P,J3,3*%
%TO.N,UART_TELEM_FC*%
X132334000Y-93853000D03*
%TO.P,J3,2*%
%TO.N,GND1*%
X134874000Y-93853000D03*
D11*
%TO.P,J3,1*%
%TO.N,+5V*%
X137414000Y-93853000D03*
%TD*%
%TO.P,J5,3*%
%TO.N,Vin*%
%TA.AperFunction,ComponentPad*%
G36*
G01*
X114542000Y-78208000D02*
X113042000Y-78208000D01*
G75*
G02*
X112292000Y-77458000I0J750000D01*
G01*
X112292000Y-75958000D01*
G75*
G02*
X113042000Y-75208000I750000J0D01*
G01*
X114542000Y-75208000D01*
G75*
G02*
X115292000Y-75958000I0J-750000D01*
G01*
X115292000Y-77458000D01*
G75*
G02*
X114542000Y-78208000I-750000J0D01*
G01*
G37*
%TD.AperFunction*%
%TO.P,J5,2*%
%TO.N,GND*%
%TA.AperFunction,ComponentPad*%
G36*
G01*
X114542000Y-84558000D02*
X113042000Y-84558000D01*
G75*
G02*
X112292000Y-83808000I0J750000D01*
G01*
X112292000Y-82308000D01*
G75*
G02*
X113042000Y-81558000I750000J0D01*
G01*
X114542000Y-81558000D01*
G75*
G02*
X115292000Y-82308000I0J-750000D01*
G01*
X115292000Y-83808000D01*
G75*
G02*
X114542000Y-84558000I-750000J0D01*
G01*
G37*
%TD.AperFunction*%
%TO.P,J5,1*%
%TO.N,GND1*%
%TA.AperFunction,ComponentPad*%
G36*
G01*
X114542000Y-90908000D02*
X113042000Y-90908000D01*
G75*
G02*
X112292000Y-90158000I0J750000D01*
G01*
X112292000Y-88658000D01*
G75*
G02*
X113042000Y-87908000I750000J0D01*
G01*
X114542000Y-87908000D01*
G75*
G02*
X115292000Y-88658000I0J-750000D01*
G01*
X115292000Y-90158000D01*
G75*
G02*
X114542000Y-90908000I-750000J0D01*
G01*
G37*
%TD.AperFunction*%
%TD*%
D12*
%TO.P,Q1,3*%
%TO.N,GND*%
X120015000Y-83820000D03*
%TO.P,Q1,2*%
%TO.N,GND1*%
X120015000Y-86360000D03*
D13*
%TO.P,Q1,1*%
%TO.N,Net-(Q1-Pad1)*%
X120015000Y-88900000D03*
%TD*%
D14*
%TO.P,U2,1*%
%TO.N,+3V3*%
X132461000Y-77343000D03*
D15*
%TO.P,U2,3*%
%TO.N,Vin*%
X129921000Y-77343000D03*
%TO.P,U2,2*%
%TO.N,GND*%
X131191000Y-77343000D03*
%TD*%
D10*
%TO.P,J2,6*%
%TO.N,GND*%
X170210000Y-81170000D03*
%TO.P,J2,5*%
%TO.N,~RST~*%
X172750000Y-81170000D03*
%TO.P,J2,4*%
%TO.N,MOSI*%
X170210000Y-83710000D03*
%TO.P,J2,3*%
%TO.N,SCK*%
X172750000Y-83710000D03*
%TO.P,J2,2*%
%TO.N,+3V3*%
X170210000Y-86250000D03*
D11*
%TO.P,J2,1*%
%TO.N,MISO*%
X172750000Y-86250000D03*
%TD*%
D10*
%TO.P,J1,40*%
%TO.N,Net-(J1-Pad40)*%
X166878000Y-70234000D03*
%TO.P,J1,39*%
%TO.N,GND1*%
X166878000Y-72774000D03*
%TO.P,J1,38*%
%TO.N,Net-(J1-Pad38)*%
X164338000Y-70234000D03*
%TO.P,J1,37*%
%TO.N,Net-(J1-Pad37)*%
X164338000Y-72774000D03*
%TO.P,J1,36*%
%TO.N,Net-(J1-Pad36)*%
X161798000Y-70234000D03*
%TO.P,J1,35*%
%TO.N,Net-(J1-Pad35)*%
X161798000Y-72774000D03*
%TO.P,J1,34*%
%TO.N,GND1*%
X159258000Y-70234000D03*
%TO.P,J1,33*%
%TO.N,Net-(J1-Pad33)*%
X159258000Y-72774000D03*
%TO.P,J1,32*%
%TO.N,Net-(J1-Pad32)*%
X156718000Y-70234000D03*
%TO.P,J1,31*%
%TO.N,Net-(J1-Pad31)*%
X156718000Y-72774000D03*
%TO.P,J1,30*%
%TO.N,GND1*%
X154178000Y-70234000D03*
%TO.P,J1,29*%
%TO.N,Net-(J1-Pad29)*%
X154178000Y-72774000D03*
%TO.P,J1,28*%
%TO.N,Net-(J1-Pad28)*%
X151638000Y-70234000D03*
%TO.P,J1,27*%
%TO.N,Net-(J1-Pad27)*%
X151638000Y-72774000D03*
%TO.P,J1,26*%
%TO.N,Net-(J1-Pad26)*%
X149098000Y-70234000D03*
%TO.P,J1,25*%
%TO.N,GND1*%
X149098000Y-72774000D03*
%TO.P,J1,24*%
%TO.N,Net-(J1-Pad24)*%
X146558000Y-70234000D03*
%TO.P,J1,23*%
%TO.N,Net-(J1-Pad23)*%
X146558000Y-72774000D03*
%TO.P,J1,22*%
%TO.N,Net-(J1-Pad22)*%
X144018000Y-70234000D03*
%TO.P,J1,21*%
%TO.N,Net-(J1-Pad21)*%
X144018000Y-72774000D03*
%TO.P,J1,20*%
%TO.N,GND1*%
X141478000Y-70234000D03*
%TO.P,J1,19*%
%TO.N,Net-(J1-Pad19)*%
X141478000Y-72774000D03*
%TO.P,J1,18*%
%TO.N,Net-(J1-Pad18)*%
X138938000Y-70234000D03*
%TO.P,J1,17*%
%TO.N,Net-(J1-Pad17)*%
X138938000Y-72774000D03*
%TO.P,J1,16*%
%TO.N,SUPERVISOR_RESET*%
X136398000Y-70234000D03*
%TO.P,J1,15*%
%TO.N,ABORT*%
X136398000Y-72774000D03*
%TO.P,J1,14*%
%TO.N,GND1*%
X133858000Y-70234000D03*
%TO.P,J1,13*%
%TO.N,Net-(J1-Pad13)*%
X133858000Y-72774000D03*
%TO.P,J1,12*%
%TO.N,Net-(J1-Pad12)*%
X131318000Y-70234000D03*
%TO.P,J1,11*%
%TO.N,Net-(J1-Pad11)*%
X131318000Y-72774000D03*
%TO.P,J1,10*%
%TO.N,UART_TELEM_PI*%
X128778000Y-70234000D03*
%TO.P,J1,9*%
%TO.N,GND1*%
X128778000Y-72774000D03*
%TO.P,J1,8*%
%TO.N,UART_SBUS*%
X126238000Y-70234000D03*
%TO.P,J1,7*%
%TO.N,Net-(J1-Pad7)*%
X126238000Y-72774000D03*
%TO.P,J1,6*%
%TO.N,GND1*%
X123698000Y-70234000D03*
%TO.P,J1,5*%
%TO.N,Net-(J1-Pad5)*%
X123698000Y-72774000D03*
%TO.P,J1,4*%
%TO.N,+5V*%
X121158000Y-70234000D03*
%TO.P,J1,3*%
%TO.N,Net-(J1-Pad3)*%
X121158000Y-72774000D03*
%TO.P,J1,2*%
%TO.N,+5V*%
X118618000Y-70234000D03*
D11*
%TO.P,J1,1*%
%TO.N,Net-(J1-Pad1)*%
X118618000Y-72774000D03*
%TD*%
D16*
%TO.N,GND*%
X145796000Y-95377000D03*
X157226000Y-94849998D03*
X162077524Y-94849998D03*
X160274000Y-82169000D03*
X152400000Y-74930000D03*
X116840000Y-77089000D03*
X124587000Y-87376000D03*
X122555000Y-87122000D03*
X121920000Y-92964000D03*
X170307000Y-76454000D03*
X172847000Y-89408000D03*
X118110000Y-84074000D03*
X116459000Y-84074000D03*
X116459000Y-81788000D03*
X118110000Y-81788000D03*
%TO.N,+3V3*%
X147193000Y-78232000D03*
X161290000Y-83058000D03*
X161290000Y-93726000D03*
X167894000Y-89408000D03*
X164465000Y-89408000D03*
X161290000Y-89408000D03*
%TO.N,+5V*%
X127000000Y-87630000D03*
X126873000Y-90678000D03*
X125349000Y-77724000D03*
X125349000Y-82550000D03*
%TO.N,~RST~*%
X165989000Y-79629000D03*
X168148000Y-79629000D03*
%TO.N,UART_TELEM_PI*%
X154686000Y-85598000D03*
X147980491Y-80772000D03*
%TO.N,UART_SBUS*%
X127508000Y-74549000D03*
X126492000Y-82550000D03*
X152651043Y-86388500D03*
X148209000Y-86360000D03*
X132715000Y-86614000D03*
%TO.N,A*%
X154400006Y-89154000D03*
X146939000Y-87150500D03*
%TO.N,R*%
X153400003Y-89154000D03*
X145796000Y-88011000D03*
%TO.N,N*%
X152400000Y-89154000D03*
X149098000Y-89027000D03*
%TO.N,UART_TELEM*%
X139065000Y-90043000D03*
X128397000Y-90932000D03*
X133731000Y-88519000D03*
X156464000Y-84328000D03*
%TO.N,Vin*%
X130048000Y-80645000D03*
%TO.N,GND1*%
X125222000Y-95123000D03*
X118618000Y-92202000D03*
X127812968Y-85674032D03*
X128714832Y-82515000D03*
X118110000Y-85852000D03*
X117094000Y-87249000D03*
X116205000Y-85852000D03*
X115189000Y-87249000D03*
X114173000Y-85852000D03*
%TO.N,~POWER_EN~*%
X149225000Y-92329000D03*
X129921000Y-91059000D03*
%TD*%
D17*
%TO.N,GND*%
X124587000Y-87376000D02*
X122809000Y-87376000D01*
X122809000Y-87376000D02*
X122555000Y-87122000D01*
X121920000Y-92964000D02*
X121920000Y-90170000D01*
X122555000Y-89535000D02*
X122555000Y-87122000D01*
X121920000Y-90170000D02*
X122555000Y-89535000D01*
D18*
%TO.N,+3V3*%
X147193000Y-78232000D02*
X150749000Y-78232000D01*
X155575000Y-83058000D02*
X161290000Y-83058000D01*
X150749000Y-78232000D02*
X155575000Y-83058000D01*
X161290000Y-92075000D02*
X161290000Y-93726000D01*
X167894000Y-89408000D02*
X164465000Y-89408000D01*
X161290000Y-92075000D02*
X161290000Y-89408000D01*
%TO.N,+5V*%
X127000000Y-90551000D02*
X126873000Y-90678000D01*
X127000000Y-87630000D02*
X127000000Y-90551000D01*
D17*
X125222000Y-78867000D02*
X125349000Y-78994000D01*
X123825000Y-78867000D02*
X125222000Y-78867000D01*
D18*
X125349000Y-78994000D02*
X125349000Y-80102000D01*
X125349000Y-77724000D02*
X125349000Y-78994000D01*
D17*
X123741000Y-80899000D02*
X125095000Y-80899000D01*
X125095000Y-80899000D02*
X125349000Y-80645000D01*
D18*
X125349000Y-80645000D02*
X125349000Y-82550000D01*
X125349000Y-80102000D02*
X125349000Y-80645000D01*
D17*
%TO.N,~RST~*%
X165989000Y-79629000D02*
X168148000Y-79629000D01*
%TO.N,UART_TELEM_PI*%
X152781000Y-85598000D02*
X149190392Y-85598000D01*
X149190392Y-85598000D02*
X149190392Y-85563392D01*
X147980491Y-84353491D02*
X147980491Y-82677000D01*
X149190392Y-85563392D02*
X147980491Y-84353491D01*
X154686000Y-85598000D02*
X152781000Y-85598000D01*
X147980491Y-82677000D02*
X147980491Y-80772000D01*
%TO.N,UART_SBUS*%
X126492000Y-75565000D02*
X127508000Y-74549000D01*
X126492000Y-82550000D02*
X126492000Y-75565000D01*
X148237500Y-86388500D02*
X148209000Y-86360000D01*
X152651043Y-86388500D02*
X148237500Y-86388500D01*
%TO.N,A*%
X154400006Y-89154000D02*
X154400006Y-88588315D01*
X146967501Y-87179001D02*
X146939000Y-87150500D01*
X152990692Y-87179001D02*
X146967501Y-87179001D01*
X154400006Y-88588315D02*
X152990692Y-87179001D01*
%TO.N,R*%
X153400003Y-89154000D02*
X153400003Y-88588315D01*
X152822688Y-88011000D02*
X145796000Y-88011000D01*
X153400003Y-88588315D02*
X152822688Y-88011000D01*
%TO.N,N*%
X149225000Y-89154000D02*
X149098000Y-89027000D01*
X152400000Y-89154000D02*
X149225000Y-89154000D01*
%TO.N,UART_TELEM*%
X156464000Y-88259948D02*
X156464000Y-87630000D01*
X154680948Y-90043000D02*
X156464000Y-88259948D01*
X139065000Y-90043000D02*
X154680948Y-90043000D01*
X130810000Y-88519000D02*
X133731000Y-88519000D01*
X128397000Y-90932000D02*
X130810000Y-88519000D01*
X156464000Y-87630000D02*
X156464000Y-84328000D01*
D18*
%TO.N,Vin*%
X130048000Y-77470000D02*
X129921000Y-77343000D01*
X130048000Y-80645000D02*
X130048000Y-77470000D01*
%TO.N,GND1*%
X125222000Y-95123000D02*
X121539000Y-95123000D01*
X121539000Y-95123000D02*
X118618000Y-92202000D01*
D17*
X165578501Y-71474501D02*
X166878000Y-72774000D01*
X123698000Y-70234000D02*
X124938501Y-71474501D01*
X159258000Y-70234000D02*
X158017499Y-71474501D01*
X157834501Y-71474501D02*
X165578501Y-71474501D01*
X158017499Y-71474501D02*
X157834501Y-71474501D01*
X152937499Y-71474501D02*
X152553499Y-71474501D01*
X154178000Y-70234000D02*
X152937499Y-71474501D01*
X152553499Y-71474501D02*
X157834501Y-71474501D01*
X147798501Y-71474501D02*
X146785501Y-71474501D01*
X149098000Y-72774000D02*
X147798501Y-71474501D01*
X146785501Y-71474501D02*
X152553499Y-71474501D01*
X132617499Y-71474501D02*
X131979499Y-71474501D01*
X133858000Y-70234000D02*
X132617499Y-71474501D01*
X128778000Y-72774000D02*
X130077499Y-71474501D01*
X130077499Y-71474501D02*
X130783501Y-71474501D01*
X130783501Y-71474501D02*
X131979499Y-71474501D01*
X124938501Y-71474501D02*
X130783501Y-71474501D01*
D18*
X120107001Y-86267999D02*
X126076001Y-86267999D01*
X120015000Y-86360000D02*
X120107001Y-86267999D01*
X127219001Y-86267999D02*
X127812968Y-85674032D01*
X126076001Y-86267999D02*
X127219001Y-86267999D01*
X128714832Y-72837168D02*
X128778000Y-72774000D01*
X128714832Y-82515000D02*
X128714832Y-72837168D01*
D17*
X140237499Y-71474501D02*
X139599499Y-71474501D01*
X141478000Y-70234000D02*
X140237499Y-71474501D01*
X139599499Y-71474501D02*
X146785501Y-71474501D01*
X131979499Y-71474501D02*
X139599499Y-71474501D01*
%TO.N,~POWER_EN~*%
X130683000Y-91821000D02*
X129921000Y-91059000D01*
X131191000Y-92329000D02*
X130683000Y-91821000D01*
X149225000Y-92329000D02*
X131191000Y-92329000D01*
%TD*%
D19*
%TO.N,GND1*%
X121285000Y-87371799D02*
X121259180Y-87357998D01*
X121139482Y-87321688D01*
X121015000Y-87309428D01*
X119015000Y-87309428D01*
X118890518Y-87321688D01*
X118770820Y-87357998D01*
X118660506Y-87416963D01*
X118563815Y-87496315D01*
X118558329Y-87503000D01*
X118237000Y-87503000D01*
X118212224Y-87505440D01*
X118188399Y-87512667D01*
X118166443Y-87524403D01*
X118147197Y-87540197D01*
X117385197Y-88302197D01*
X117369403Y-88321443D01*
X117357667Y-88343399D01*
X117350440Y-88367224D01*
X117348000Y-88392000D01*
X117348000Y-89606619D01*
X115647128Y-91186000D01*
X111379000Y-91186000D01*
X111379000Y-85471000D01*
X121285000Y-85471000D01*
X121285000Y-87371799D01*
%TA.AperFunction,Conductor*%
D20*
G36*
X121285000Y-87371799D02*
G01*
X121259180Y-87357998D01*
X121139482Y-87321688D01*
X121015000Y-87309428D01*
X119015000Y-87309428D01*
X118890518Y-87321688D01*
X118770820Y-87357998D01*
X118660506Y-87416963D01*
X118563815Y-87496315D01*
X118558329Y-87503000D01*
X118237000Y-87503000D01*
X118212224Y-87505440D01*
X118188399Y-87512667D01*
X118166443Y-87524403D01*
X118147197Y-87540197D01*
X117385197Y-88302197D01*
X117369403Y-88321443D01*
X117357667Y-88343399D01*
X117350440Y-88367224D01*
X117348000Y-88392000D01*
X117348000Y-89606619D01*
X115647128Y-91186000D01*
X111379000Y-91186000D01*
X111379000Y-85471000D01*
X121285000Y-85471000D01*
X121285000Y-87371799D01*
G37*
%TD.AperFunction*%
%TD*%
D19*
%TO.N,GND*%
X112060485Y-74976485D02*
X111887860Y-75186829D01*
X111759589Y-75426808D01*
X111680599Y-75687201D01*
X111653928Y-75958000D01*
X111653928Y-77458000D01*
X111680599Y-77728799D01*
X111759589Y-77989192D01*
X111887860Y-78229171D01*
X112060485Y-78439515D01*
X112270829Y-78612140D01*
X112510808Y-78740411D01*
X112771201Y-78819401D01*
X113042000Y-78846072D01*
X114542000Y-78846072D01*
X114812799Y-78819401D01*
X115073192Y-78740411D01*
X115313171Y-78612140D01*
X115523515Y-78439515D01*
X115696140Y-78229171D01*
X115742733Y-78142000D01*
X120934402Y-78142000D01*
X120935500Y-78437250D01*
X120992250Y-78494000D01*
X121377000Y-78494000D01*
X121377000Y-77971750D01*
X122123000Y-77971750D01*
X122123000Y-78494000D01*
X122507750Y-78494000D01*
X122564500Y-78437250D01*
X122565598Y-78142000D01*
X122561215Y-78097500D01*
X122548235Y-78054711D01*
X122527157Y-78015276D01*
X122498790Y-77980710D01*
X122464224Y-77952343D01*
X122424789Y-77931265D01*
X122382000Y-77918285D01*
X122337500Y-77913902D01*
X122179750Y-77915000D01*
X122123000Y-77971750D01*
X121377000Y-77971750D01*
X121320250Y-77915000D01*
X121162500Y-77913902D01*
X121118000Y-77918285D01*
X121075211Y-77931265D01*
X121035776Y-77952343D01*
X121001210Y-77980710D01*
X120972843Y-78015276D01*
X120951765Y-78054711D01*
X120938785Y-78097500D01*
X120934402Y-78142000D01*
X115742733Y-78142000D01*
X115824411Y-77989192D01*
X115903401Y-77728799D01*
X115930072Y-77458000D01*
X115930072Y-75958000D01*
X115903401Y-75687201D01*
X115824411Y-75426808D01*
X115696140Y-75186829D01*
X115523515Y-74976485D01*
X115466873Y-74930000D01*
X125959568Y-74930000D01*
X125936961Y-74952607D01*
X125905460Y-74978459D01*
X125879609Y-75009959D01*
X125802301Y-75104158D01*
X125725647Y-75247567D01*
X125678445Y-75403174D01*
X125662506Y-75565000D01*
X125666501Y-75605560D01*
X125666501Y-76735237D01*
X125650898Y-76728774D01*
X125450939Y-76689000D01*
X125247061Y-76689000D01*
X125047102Y-76728774D01*
X124858744Y-76806795D01*
X124689226Y-76920063D01*
X124545063Y-77064226D01*
X124431795Y-77233744D01*
X124353774Y-77422102D01*
X124334135Y-77520833D01*
X124162500Y-77503928D01*
X123487500Y-77503928D01*
X123314246Y-77520992D01*
X123147650Y-77571528D01*
X122994114Y-77653595D01*
X122859538Y-77764038D01*
X122749095Y-77898614D01*
X122667028Y-78052150D01*
X122616492Y-78218746D01*
X122599428Y-78392000D01*
X122599428Y-79342000D01*
X122616492Y-79515254D01*
X122667028Y-79681850D01*
X122746788Y-79831070D01*
X122665095Y-79930614D01*
X122583028Y-80084150D01*
X122532492Y-80250746D01*
X122515428Y-80424000D01*
X122515428Y-81374000D01*
X122532492Y-81547254D01*
X122583028Y-81713850D01*
X122665095Y-81867386D01*
X122775538Y-82001962D01*
X122910114Y-82112405D01*
X123063650Y-82194472D01*
X123230246Y-82245008D01*
X123403500Y-82262072D01*
X124078500Y-82262072D01*
X124251754Y-82245008D01*
X124369901Y-82209169D01*
X124353774Y-82248102D01*
X124314000Y-82448061D01*
X124314000Y-82651939D01*
X124353774Y-82851898D01*
X124431795Y-83040256D01*
X124545063Y-83209774D01*
X124689226Y-83353937D01*
X124858744Y-83467205D01*
X125047102Y-83545226D01*
X125247061Y-83585000D01*
X125450939Y-83585000D01*
X125650898Y-83545226D01*
X125839256Y-83467205D01*
X125920500Y-83412920D01*
X126001744Y-83467205D01*
X126190102Y-83545226D01*
X126390061Y-83585000D01*
X126593939Y-83585000D01*
X126793898Y-83545226D01*
X126982256Y-83467205D01*
X127151774Y-83353937D01*
X127295937Y-83209774D01*
X127409205Y-83040256D01*
X127487226Y-82851898D01*
X127527000Y-82651939D01*
X127527000Y-82448061D01*
X127487226Y-82248102D01*
X127409205Y-82059744D01*
X127317500Y-81922497D01*
X127317500Y-75906932D01*
X127648004Y-75576428D01*
X127809898Y-75544226D01*
X127825833Y-75537626D01*
X127825832Y-81982532D01*
X127797627Y-82024744D01*
X127719606Y-82213102D01*
X127679832Y-82413061D01*
X127679832Y-82616939D01*
X127719606Y-82816898D01*
X127797627Y-83005256D01*
X127910895Y-83174774D01*
X128055058Y-83318937D01*
X128224576Y-83432205D01*
X128412934Y-83510226D01*
X128612893Y-83550000D01*
X128816771Y-83550000D01*
X129016730Y-83510226D01*
X129205088Y-83432205D01*
X129374606Y-83318937D01*
X129518769Y-83174774D01*
X129632037Y-83005256D01*
X129710058Y-82816898D01*
X129749832Y-82616939D01*
X129749832Y-82413061D01*
X129710058Y-82213102D01*
X129632037Y-82024744D01*
X129603832Y-81982532D01*
X129603832Y-81581295D01*
X129746102Y-81640226D01*
X129946061Y-81680000D01*
X130149939Y-81680000D01*
X130349898Y-81640226D01*
X130538256Y-81562205D01*
X130707774Y-81448937D01*
X130851937Y-81304774D01*
X130965205Y-81135256D01*
X131043226Y-80946898D01*
X131083000Y-80746939D01*
X131083000Y-80543061D01*
X131043226Y-80343102D01*
X130965205Y-80154744D01*
X130937000Y-80112532D01*
X130937000Y-78127968D01*
X130997885Y-78014060D01*
X131064215Y-77795400D01*
X131081000Y-77624979D01*
X131081000Y-77061022D01*
X131064215Y-76890601D01*
X130997885Y-76671941D01*
X130955691Y-76593000D01*
X131297928Y-76593000D01*
X131297928Y-78093000D01*
X131310188Y-78217482D01*
X131346498Y-78337180D01*
X131405463Y-78447494D01*
X131484815Y-78544185D01*
X131581506Y-78623537D01*
X131691820Y-78682502D01*
X131811518Y-78718812D01*
X131936000Y-78731072D01*
X132986000Y-78731072D01*
X133110482Y-78718812D01*
X133230180Y-78682502D01*
X133340494Y-78623537D01*
X133437185Y-78544185D01*
X133516537Y-78447494D01*
X133575502Y-78337180D01*
X133611812Y-78217482D01*
X133624072Y-78093000D01*
X133624072Y-76593000D01*
X133611812Y-76468518D01*
X133575502Y-76348820D01*
X133516537Y-76238506D01*
X133437185Y-76141815D01*
X133340494Y-76062463D01*
X133230180Y-76003498D01*
X133110482Y-75967188D01*
X132986000Y-75954928D01*
X131936000Y-75954928D01*
X131811518Y-75967188D01*
X131691820Y-76003498D01*
X131581506Y-76062463D01*
X131484815Y-76141815D01*
X131405463Y-76238506D01*
X131346498Y-76348820D01*
X131310188Y-76468518D01*
X131297928Y-76593000D01*
X130955691Y-76593000D01*
X130890171Y-76470421D01*
X130745212Y-76293788D01*
X130568579Y-76148829D01*
X130367060Y-76041115D01*
X130148400Y-75974785D01*
X129921000Y-75952388D01*
X129693601Y-75974785D01*
X129603832Y-76002016D01*
X129603832Y-74930000D01*
X174563000Y-74930000D01*
X174563001Y-93516739D01*
X174386183Y-93089862D01*
X174060387Y-92602273D01*
X173645727Y-92187613D01*
X173158138Y-91861817D01*
X172616359Y-91637405D01*
X172041209Y-91523000D01*
X171454791Y-91523000D01*
X170879641Y-91637405D01*
X170337862Y-91861817D01*
X169850273Y-92187613D01*
X169435613Y-92602273D01*
X169109817Y-93089862D01*
X168885405Y-93631641D01*
X168771000Y-94206791D01*
X168771000Y-94793209D01*
X168885405Y-95368359D01*
X169109817Y-95910138D01*
X169435613Y-96397727D01*
X169850273Y-96812387D01*
X170337862Y-97138183D01*
X170764736Y-97315000D01*
X117221000Y-97315000D01*
X117221000Y-91694000D01*
X117712651Y-91694000D01*
X117700795Y-91711744D01*
X117622774Y-91900102D01*
X117583000Y-92100061D01*
X117583000Y-92303939D01*
X117622774Y-92503898D01*
X117700795Y-92692256D01*
X117814063Y-92861774D01*
X117958226Y-93005937D01*
X118127744Y-93119205D01*
X118316102Y-93197226D01*
X118365895Y-93207130D01*
X120879506Y-95720742D01*
X120907341Y-95754659D01*
X120941258Y-95782494D01*
X120941259Y-95782495D01*
X120983554Y-95817206D01*
X121042709Y-95865753D01*
X121197149Y-95948303D01*
X121289626Y-95976355D01*
X121364725Y-95999136D01*
X121381325Y-96000771D01*
X121495333Y-96012000D01*
X121495340Y-96012000D01*
X121539000Y-96016300D01*
X121582660Y-96012000D01*
X124689532Y-96012000D01*
X124731744Y-96040205D01*
X124920102Y-96118226D01*
X125120061Y-96158000D01*
X125323939Y-96158000D01*
X125523898Y-96118226D01*
X125712256Y-96040205D01*
X125881774Y-95926937D01*
X126025937Y-95782774D01*
X126139205Y-95613256D01*
X126217226Y-95424898D01*
X126257000Y-95224939D01*
X126257000Y-95021061D01*
X126217226Y-94821102D01*
X126139205Y-94632744D01*
X126025937Y-94463226D01*
X125881774Y-94319063D01*
X125712256Y-94205795D01*
X125523898Y-94127774D01*
X125323939Y-94088000D01*
X125120061Y-94088000D01*
X124920102Y-94127774D01*
X124731744Y-94205795D01*
X124689532Y-94234000D01*
X121907236Y-94234000D01*
X119623130Y-91949895D01*
X119613226Y-91900102D01*
X119535205Y-91711744D01*
X119523349Y-91694000D01*
X121920000Y-91694000D01*
X121944776Y-91691560D01*
X121968601Y-91684333D01*
X121990557Y-91672597D01*
X122009803Y-91656803D01*
X122025597Y-91637557D01*
X122037333Y-91615601D01*
X122044560Y-91591776D01*
X122047000Y-91567000D01*
X122047000Y-87156999D01*
X126075648Y-87156999D01*
X126004774Y-87328102D01*
X125965000Y-87528061D01*
X125965000Y-87731939D01*
X126004774Y-87931898D01*
X126082795Y-88120256D01*
X126111000Y-88162468D01*
X126111001Y-89976288D01*
X126069063Y-90018226D01*
X125955795Y-90187744D01*
X125877774Y-90376102D01*
X125838000Y-90576061D01*
X125838000Y-90779939D01*
X125877774Y-90979898D01*
X125955795Y-91168256D01*
X126069063Y-91337774D01*
X126213226Y-91481937D01*
X126382744Y-91595205D01*
X126571102Y-91673226D01*
X126771061Y-91713000D01*
X126974939Y-91713000D01*
X127174898Y-91673226D01*
X127363256Y-91595205D01*
X127523716Y-91487989D01*
X127593063Y-91591774D01*
X127737226Y-91735937D01*
X127906744Y-91849205D01*
X128095102Y-91927226D01*
X128295061Y-91967000D01*
X128498939Y-91967000D01*
X128698898Y-91927226D01*
X128887256Y-91849205D01*
X129056774Y-91735937D01*
X129099789Y-91692922D01*
X129117063Y-91718774D01*
X129261226Y-91862937D01*
X129430744Y-91976205D01*
X129619102Y-92054226D01*
X129780995Y-92086428D01*
X130092935Y-92398369D01*
X129940260Y-92368000D01*
X129647740Y-92368000D01*
X129360842Y-92425068D01*
X129090589Y-92537010D01*
X128847368Y-92699525D01*
X128640525Y-92906368D01*
X128478010Y-93149589D01*
X128366068Y-93419842D01*
X128309000Y-93706740D01*
X128309000Y-93999260D01*
X128366068Y-94286158D01*
X128478010Y-94556411D01*
X128640525Y-94799632D01*
X128847368Y-95006475D01*
X129090589Y-95168990D01*
X129360842Y-95280932D01*
X129647740Y-95338000D01*
X129940260Y-95338000D01*
X130227158Y-95280932D01*
X130497411Y-95168990D01*
X130740632Y-95006475D01*
X130947475Y-94799632D01*
X131064000Y-94625240D01*
X131180525Y-94799632D01*
X131387368Y-95006475D01*
X131630589Y-95168990D01*
X131900842Y-95280932D01*
X132187740Y-95338000D01*
X132480260Y-95338000D01*
X132767158Y-95280932D01*
X133037411Y-95168990D01*
X133280632Y-95006475D01*
X133487475Y-94799632D01*
X133604000Y-94625240D01*
X133720525Y-94799632D01*
X133927368Y-95006475D01*
X134170589Y-95168990D01*
X134440842Y-95280932D01*
X134727740Y-95338000D01*
X135020260Y-95338000D01*
X135307158Y-95280932D01*
X135577411Y-95168990D01*
X135820632Y-95006475D01*
X135952487Y-94874620D01*
X135974498Y-94947180D01*
X136033463Y-95057494D01*
X136112815Y-95154185D01*
X136209506Y-95233537D01*
X136319820Y-95292502D01*
X136439518Y-95328812D01*
X136564000Y-95341072D01*
X138264000Y-95341072D01*
X138388482Y-95328812D01*
X138508180Y-95292502D01*
X138618494Y-95233537D01*
X138715185Y-95154185D01*
X138794537Y-95057494D01*
X138853502Y-94947180D01*
X138889812Y-94827482D01*
X138902072Y-94703000D01*
X138902072Y-93154500D01*
X148597497Y-93154500D01*
X148734744Y-93246205D01*
X148923102Y-93324226D01*
X149123061Y-93364000D01*
X149326939Y-93364000D01*
X149526898Y-93324226D01*
X149715256Y-93246205D01*
X149884774Y-93132937D01*
X150028937Y-92988774D01*
X150142205Y-92819256D01*
X150220226Y-92630898D01*
X150260000Y-92430939D01*
X150260000Y-92227061D01*
X150220226Y-92027102D01*
X150142205Y-91838744D01*
X150028937Y-91669226D01*
X149884774Y-91525063D01*
X149715256Y-91411795D01*
X149526898Y-91333774D01*
X149326939Y-91294000D01*
X149123061Y-91294000D01*
X148923102Y-91333774D01*
X148734744Y-91411795D01*
X148597497Y-91503500D01*
X131532932Y-91503500D01*
X131295401Y-91265969D01*
X131295392Y-91265958D01*
X130948428Y-90918995D01*
X130916226Y-90757102D01*
X130838205Y-90568744D01*
X130724937Y-90399226D01*
X130580774Y-90255063D01*
X130411256Y-90141795D01*
X130371221Y-90125212D01*
X130555372Y-89941061D01*
X138030000Y-89941061D01*
X138030000Y-90144939D01*
X138069774Y-90344898D01*
X138147795Y-90533256D01*
X138261063Y-90702774D01*
X138405226Y-90846937D01*
X138574744Y-90960205D01*
X138763102Y-91038226D01*
X138963061Y-91078000D01*
X139166939Y-91078000D01*
X139366898Y-91038226D01*
X139555256Y-90960205D01*
X139692503Y-90868500D01*
X154640398Y-90868500D01*
X154680948Y-90872494D01*
X154721498Y-90868500D01*
X154721501Y-90868500D01*
X154842774Y-90856556D01*
X154998382Y-90809353D01*
X155141790Y-90732699D01*
X155267489Y-90629541D01*
X155293346Y-90598034D01*
X156585319Y-89306061D01*
X160255000Y-89306061D01*
X160255000Y-89509939D01*
X160294774Y-89709898D01*
X160372795Y-89898256D01*
X160401001Y-89940469D01*
X160401000Y-92031333D01*
X160401000Y-92031334D01*
X160401001Y-93193531D01*
X160372795Y-93235744D01*
X160294774Y-93424102D01*
X160255000Y-93624061D01*
X160255000Y-93827939D01*
X160294774Y-94027898D01*
X160372795Y-94216256D01*
X160486063Y-94385774D01*
X160630226Y-94529937D01*
X160799744Y-94643205D01*
X160988102Y-94721226D01*
X161188061Y-94761000D01*
X161391939Y-94761000D01*
X161591898Y-94721226D01*
X161780256Y-94643205D01*
X161949774Y-94529937D01*
X162093937Y-94385774D01*
X162207205Y-94216256D01*
X162285226Y-94027898D01*
X162325000Y-93827939D01*
X162325000Y-93624061D01*
X162285226Y-93424102D01*
X162207205Y-93235744D01*
X162179000Y-93193532D01*
X162179000Y-89940468D01*
X162207205Y-89898256D01*
X162285226Y-89709898D01*
X162325000Y-89509939D01*
X162325000Y-89306061D01*
X163430000Y-89306061D01*
X163430000Y-89509939D01*
X163469774Y-89709898D01*
X163547795Y-89898256D01*
X163661063Y-90067774D01*
X163805226Y-90211937D01*
X163974744Y-90325205D01*
X164163102Y-90403226D01*
X164363061Y-90443000D01*
X164566939Y-90443000D01*
X164766898Y-90403226D01*
X164955256Y-90325205D01*
X164997468Y-90297000D01*
X167361532Y-90297000D01*
X167403744Y-90325205D01*
X167592102Y-90403226D01*
X167792061Y-90443000D01*
X167995939Y-90443000D01*
X168195898Y-90403226D01*
X168384256Y-90325205D01*
X168553774Y-90211937D01*
X168697937Y-90067774D01*
X168811205Y-89898256D01*
X168889226Y-89709898D01*
X168929000Y-89509939D01*
X168929000Y-89306061D01*
X168889226Y-89106102D01*
X168811205Y-88917744D01*
X168697937Y-88748226D01*
X168553774Y-88604063D01*
X168384256Y-88490795D01*
X168195898Y-88412774D01*
X167995939Y-88373000D01*
X167792061Y-88373000D01*
X167592102Y-88412774D01*
X167403744Y-88490795D01*
X167361532Y-88519000D01*
X164997468Y-88519000D01*
X164955256Y-88490795D01*
X164766898Y-88412774D01*
X164566939Y-88373000D01*
X164363061Y-88373000D01*
X164163102Y-88412774D01*
X163974744Y-88490795D01*
X163805226Y-88604063D01*
X163661063Y-88748226D01*
X163547795Y-88917744D01*
X163469774Y-89106102D01*
X163430000Y-89306061D01*
X162325000Y-89306061D01*
X162285226Y-89106102D01*
X162207205Y-88917744D01*
X162093937Y-88748226D01*
X161949774Y-88604063D01*
X161780256Y-88490795D01*
X161591898Y-88412774D01*
X161391939Y-88373000D01*
X161188061Y-88373000D01*
X160988102Y-88412774D01*
X160799744Y-88490795D01*
X160630226Y-88604063D01*
X160486063Y-88748226D01*
X160372795Y-88917744D01*
X160294774Y-89106102D01*
X160255000Y-89306061D01*
X156585319Y-89306061D01*
X157019041Y-88872340D01*
X157050541Y-88846489D01*
X157153699Y-88720790D01*
X157230353Y-88577382D01*
X157277556Y-88421774D01*
X157289500Y-88300501D01*
X157289500Y-88300499D01*
X157293494Y-88259949D01*
X157289500Y-88219398D01*
X157289500Y-84955503D01*
X157381205Y-84818256D01*
X157459226Y-84629898D01*
X157499000Y-84429939D01*
X157499000Y-84226061D01*
X157459226Y-84026102D01*
X157426461Y-83947000D01*
X160757532Y-83947000D01*
X160799744Y-83975205D01*
X160988102Y-84053226D01*
X161188061Y-84093000D01*
X161391939Y-84093000D01*
X161591898Y-84053226D01*
X161780256Y-83975205D01*
X161949774Y-83861937D01*
X162093937Y-83717774D01*
X162196858Y-83563740D01*
X168725000Y-83563740D01*
X168725000Y-83856260D01*
X168782068Y-84143158D01*
X168894010Y-84413411D01*
X169056525Y-84656632D01*
X169263368Y-84863475D01*
X169437760Y-84980000D01*
X169263368Y-85096525D01*
X169056525Y-85303368D01*
X168894010Y-85546589D01*
X168782068Y-85816842D01*
X168725000Y-86103740D01*
X168725000Y-86396260D01*
X168782068Y-86683158D01*
X168894010Y-86953411D01*
X169056525Y-87196632D01*
X169263368Y-87403475D01*
X169506589Y-87565990D01*
X169776842Y-87677932D01*
X170063740Y-87735000D01*
X170356260Y-87735000D01*
X170643158Y-87677932D01*
X170913411Y-87565990D01*
X171156632Y-87403475D01*
X171288487Y-87271620D01*
X171310498Y-87344180D01*
X171369463Y-87454494D01*
X171448815Y-87551185D01*
X171545506Y-87630537D01*
X171655820Y-87689502D01*
X171775518Y-87725812D01*
X171900000Y-87738072D01*
X173600000Y-87738072D01*
X173724482Y-87725812D01*
X173844180Y-87689502D01*
X173954494Y-87630537D01*
X174051185Y-87551185D01*
X174130537Y-87454494D01*
X174189502Y-87344180D01*
X174225812Y-87224482D01*
X174238072Y-87100000D01*
X174238072Y-85400000D01*
X174225812Y-85275518D01*
X174189502Y-85155820D01*
X174130537Y-85045506D01*
X174051185Y-84948815D01*
X173954494Y-84869463D01*
X173844180Y-84810498D01*
X173771620Y-84788487D01*
X173903475Y-84656632D01*
X174065990Y-84413411D01*
X174177932Y-84143158D01*
X174235000Y-83856260D01*
X174235000Y-83563740D01*
X174177932Y-83276842D01*
X174065990Y-83006589D01*
X173903475Y-82763368D01*
X173696632Y-82556525D01*
X173522240Y-82440000D01*
X173696632Y-82323475D01*
X173903475Y-82116632D01*
X174065990Y-81873411D01*
X174177932Y-81603158D01*
X174235000Y-81316260D01*
X174235000Y-81023740D01*
X174177932Y-80736842D01*
X174065990Y-80466589D01*
X173903475Y-80223368D01*
X173696632Y-80016525D01*
X173453411Y-79854010D01*
X173183158Y-79742068D01*
X172896260Y-79685000D01*
X172603740Y-79685000D01*
X172316842Y-79742068D01*
X172046589Y-79854010D01*
X171803368Y-80016525D01*
X171596525Y-80223368D01*
X171434010Y-80466589D01*
X171322068Y-80736842D01*
X171287000Y-80913139D01*
X171287000Y-80796998D01*
X171159622Y-80796998D01*
X171149557Y-80643539D01*
X171055950Y-80503412D01*
X170909651Y-80351184D01*
X170736464Y-80230422D01*
X170583000Y-80216383D01*
X170583000Y-80797000D01*
X170603000Y-80797000D01*
X170603000Y-81543000D01*
X170583000Y-81543000D01*
X170583000Y-81563000D01*
X169837000Y-81563000D01*
X169837000Y-81543000D01*
X169260378Y-81543000D01*
X169270443Y-81696461D01*
X169364050Y-81836588D01*
X169510349Y-81988816D01*
X169683536Y-82109578D01*
X169836998Y-82123617D01*
X169836998Y-82247000D01*
X169953139Y-82247000D01*
X169776842Y-82282068D01*
X169506589Y-82394010D01*
X169263368Y-82556525D01*
X169056525Y-82763368D01*
X168894010Y-83006589D01*
X168782068Y-83276842D01*
X168725000Y-83563740D01*
X162196858Y-83563740D01*
X162207205Y-83548256D01*
X162285226Y-83359898D01*
X162325000Y-83159939D01*
X162325000Y-82956061D01*
X162285226Y-82756102D01*
X162207205Y-82567744D01*
X162093937Y-82398226D01*
X161949774Y-82254063D01*
X161780256Y-82140795D01*
X161591898Y-82062774D01*
X161391939Y-82023000D01*
X161188061Y-82023000D01*
X160988102Y-82062774D01*
X160799744Y-82140795D01*
X160757532Y-82169000D01*
X155943236Y-82169000D01*
X154571236Y-80797000D01*
X169260378Y-80797000D01*
X169837000Y-80797000D01*
X169837000Y-80216383D01*
X169683536Y-80230422D01*
X169510349Y-80351184D01*
X169364050Y-80503412D01*
X169270443Y-80643539D01*
X169260378Y-80797000D01*
X154571236Y-80797000D01*
X153301297Y-79527061D01*
X164954000Y-79527061D01*
X164954000Y-79730939D01*
X164993774Y-79930898D01*
X165071795Y-80119256D01*
X165185063Y-80288774D01*
X165329226Y-80432937D01*
X165498744Y-80546205D01*
X165687102Y-80624226D01*
X165887061Y-80664000D01*
X166090939Y-80664000D01*
X166290898Y-80624226D01*
X166479256Y-80546205D01*
X166616503Y-80454500D01*
X167520497Y-80454500D01*
X167657744Y-80546205D01*
X167846102Y-80624226D01*
X168046061Y-80664000D01*
X168249939Y-80664000D01*
X168449898Y-80624226D01*
X168638256Y-80546205D01*
X168807774Y-80432937D01*
X168951937Y-80288774D01*
X169065205Y-80119256D01*
X169143226Y-79930898D01*
X169183000Y-79730939D01*
X169183000Y-79527061D01*
X169143226Y-79327102D01*
X169065205Y-79138744D01*
X168951937Y-78969226D01*
X168807774Y-78825063D01*
X168638256Y-78711795D01*
X168449898Y-78633774D01*
X168249939Y-78594000D01*
X168046061Y-78594000D01*
X167846102Y-78633774D01*
X167657744Y-78711795D01*
X167520497Y-78803500D01*
X166616503Y-78803500D01*
X166479256Y-78711795D01*
X166290898Y-78633774D01*
X166090939Y-78594000D01*
X165887061Y-78594000D01*
X165687102Y-78633774D01*
X165498744Y-78711795D01*
X165329226Y-78825063D01*
X165185063Y-78969226D01*
X165071795Y-79138744D01*
X164993774Y-79327102D01*
X164954000Y-79527061D01*
X153301297Y-79527061D01*
X151408499Y-77634264D01*
X151380659Y-77600341D01*
X151245291Y-77489247D01*
X151090851Y-77406697D01*
X150923274Y-77355864D01*
X150792667Y-77343000D01*
X150792660Y-77343000D01*
X150749000Y-77338700D01*
X150705340Y-77343000D01*
X147725468Y-77343000D01*
X147683256Y-77314795D01*
X147494898Y-77236774D01*
X147294939Y-77197000D01*
X147091061Y-77197000D01*
X146891102Y-77236774D01*
X146702744Y-77314795D01*
X146533226Y-77428063D01*
X146389063Y-77572226D01*
X146275795Y-77741744D01*
X146197774Y-77930102D01*
X146158000Y-78130061D01*
X146158000Y-78333939D01*
X146197774Y-78533898D01*
X146275795Y-78722256D01*
X146389063Y-78891774D01*
X146533226Y-79035937D01*
X146702744Y-79149205D01*
X146891102Y-79227226D01*
X147091061Y-79267000D01*
X147294939Y-79267000D01*
X147494898Y-79227226D01*
X147683256Y-79149205D01*
X147725468Y-79121000D01*
X150380765Y-79121000D01*
X154915506Y-83655742D01*
X154943341Y-83689659D01*
X155078709Y-83800753D01*
X155233149Y-83883303D01*
X155349892Y-83918716D01*
X155400725Y-83934136D01*
X155417325Y-83935771D01*
X155502707Y-83944181D01*
X155468774Y-84026102D01*
X155429000Y-84226061D01*
X155429000Y-84429939D01*
X155468774Y-84629898D01*
X155546795Y-84818256D01*
X155638501Y-84955504D01*
X155638501Y-85192955D01*
X155603205Y-85107744D01*
X155489937Y-84938226D01*
X155345774Y-84794063D01*
X155176256Y-84680795D01*
X154987898Y-84602774D01*
X154787939Y-84563000D01*
X154584061Y-84563000D01*
X154384102Y-84602774D01*
X154195744Y-84680795D01*
X154058497Y-84772500D01*
X149566933Y-84772500D01*
X148805991Y-84011559D01*
X148805991Y-81399503D01*
X148897696Y-81262256D01*
X148975717Y-81073898D01*
X149015491Y-80873939D01*
X149015491Y-80670061D01*
X148975717Y-80470102D01*
X148897696Y-80281744D01*
X148784428Y-80112226D01*
X148640265Y-79968063D01*
X148470747Y-79854795D01*
X148282389Y-79776774D01*
X148082430Y-79737000D01*
X147878552Y-79737000D01*
X147678593Y-79776774D01*
X147490235Y-79854795D01*
X147320717Y-79968063D01*
X147176554Y-80112226D01*
X147063286Y-80281744D01*
X146985265Y-80470102D01*
X146945491Y-80670061D01*
X146945491Y-80873939D01*
X146985265Y-81073898D01*
X147063286Y-81262256D01*
X147154992Y-81399504D01*
X147154991Y-82717552D01*
X147154992Y-82717562D01*
X147154991Y-84312940D01*
X147150997Y-84353491D01*
X147154991Y-84394041D01*
X147154991Y-84394043D01*
X147166935Y-84515316D01*
X147201693Y-84629898D01*
X147214138Y-84670924D01*
X147290792Y-84814333D01*
X147319021Y-84848730D01*
X147393950Y-84940032D01*
X147425457Y-84965889D01*
X147848582Y-85389014D01*
X147718744Y-85442795D01*
X147549226Y-85556063D01*
X147405063Y-85700226D01*
X147291795Y-85869744D01*
X147213774Y-86058102D01*
X147196213Y-86146386D01*
X147040939Y-86115500D01*
X146837061Y-86115500D01*
X146637102Y-86155274D01*
X146448744Y-86233295D01*
X146279226Y-86346563D01*
X146135063Y-86490726D01*
X146021795Y-86660244D01*
X145943774Y-86848602D01*
X145917653Y-86979921D01*
X145897939Y-86976000D01*
X145694061Y-86976000D01*
X145494102Y-87015774D01*
X145305744Y-87093795D01*
X145136226Y-87207063D01*
X144992063Y-87351226D01*
X144878795Y-87520744D01*
X144800774Y-87709102D01*
X144761000Y-87909061D01*
X144761000Y-88112939D01*
X144800774Y-88312898D01*
X144878795Y-88501256D01*
X144992063Y-88670774D01*
X145136226Y-88814937D01*
X145305744Y-88928205D01*
X145494102Y-89006226D01*
X145694061Y-89046000D01*
X145897939Y-89046000D01*
X146097898Y-89006226D01*
X146286256Y-88928205D01*
X146423503Y-88836500D01*
X148080616Y-88836500D01*
X148063000Y-88925061D01*
X148063000Y-89128939D01*
X148080616Y-89217500D01*
X139692503Y-89217500D01*
X139555256Y-89125795D01*
X139366898Y-89047774D01*
X139166939Y-89008000D01*
X138963061Y-89008000D01*
X138763102Y-89047774D01*
X138574744Y-89125795D01*
X138405226Y-89239063D01*
X138261063Y-89383226D01*
X138147795Y-89552744D01*
X138069774Y-89741102D01*
X138030000Y-89941061D01*
X130555372Y-89941061D01*
X131151933Y-89344500D01*
X133103497Y-89344500D01*
X133240744Y-89436205D01*
X133429102Y-89514226D01*
X133629061Y-89554000D01*
X133832939Y-89554000D01*
X134032898Y-89514226D01*
X134221256Y-89436205D01*
X134390774Y-89322937D01*
X134534937Y-89178774D01*
X134648205Y-89009256D01*
X134726226Y-88820898D01*
X134766000Y-88620939D01*
X134766000Y-88417061D01*
X134726226Y-88217102D01*
X134648205Y-88028744D01*
X134534937Y-87859226D01*
X134390774Y-87715063D01*
X134221256Y-87601795D01*
X134032898Y-87523774D01*
X133832939Y-87484000D01*
X133629061Y-87484000D01*
X133429102Y-87523774D01*
X133240744Y-87601795D01*
X133103497Y-87693500D01*
X130850550Y-87693500D01*
X130809999Y-87689506D01*
X130769449Y-87693500D01*
X130769447Y-87693500D01*
X130648174Y-87705444D01*
X130492566Y-87752647D01*
X130349158Y-87829301D01*
X130223459Y-87932459D01*
X130197606Y-87963961D01*
X128256996Y-89904571D01*
X128095102Y-89936774D01*
X127906744Y-90014795D01*
X127889000Y-90026651D01*
X127889000Y-88162468D01*
X127917205Y-88120256D01*
X127995226Y-87931898D01*
X128035000Y-87731939D01*
X128035000Y-87528061D01*
X127995226Y-87328102D01*
X127917205Y-87139744D01*
X127803937Y-86970226D01*
X127786239Y-86952528D01*
X127850660Y-86899658D01*
X127878500Y-86865735D01*
X128065073Y-86679162D01*
X128114866Y-86669258D01*
X128303224Y-86591237D01*
X128421719Y-86512061D01*
X131680000Y-86512061D01*
X131680000Y-86715939D01*
X131719774Y-86915898D01*
X131797795Y-87104256D01*
X131911063Y-87273774D01*
X132055226Y-87417937D01*
X132224744Y-87531205D01*
X132413102Y-87609226D01*
X132613061Y-87649000D01*
X132816939Y-87649000D01*
X133016898Y-87609226D01*
X133205256Y-87531205D01*
X133374774Y-87417937D01*
X133518937Y-87273774D01*
X133632205Y-87104256D01*
X133710226Y-86915898D01*
X133750000Y-86715939D01*
X133750000Y-86512061D01*
X133710226Y-86312102D01*
X133632205Y-86123744D01*
X133518937Y-85954226D01*
X133374774Y-85810063D01*
X133205256Y-85696795D01*
X133016898Y-85618774D01*
X132816939Y-85579000D01*
X132613061Y-85579000D01*
X132413102Y-85618774D01*
X132224744Y-85696795D01*
X132055226Y-85810063D01*
X131911063Y-85954226D01*
X131797795Y-86123744D01*
X131719774Y-86312102D01*
X131680000Y-86512061D01*
X128421719Y-86512061D01*
X128472742Y-86477969D01*
X128616905Y-86333806D01*
X128730173Y-86164288D01*
X128808194Y-85975930D01*
X128847968Y-85775971D01*
X128847968Y-85572093D01*
X128808194Y-85372134D01*
X128730173Y-85183776D01*
X128616905Y-85014258D01*
X128472742Y-84870095D01*
X128303224Y-84756827D01*
X128114866Y-84678806D01*
X127914907Y-84639032D01*
X127711029Y-84639032D01*
X127511070Y-84678806D01*
X127322712Y-84756827D01*
X127153194Y-84870095D01*
X127009031Y-85014258D01*
X126895763Y-85183776D01*
X126817742Y-85372134D01*
X126816376Y-85378999D01*
X122047000Y-85378999D01*
X122047000Y-84836000D01*
X122044560Y-84811224D01*
X122037333Y-84787399D01*
X122025597Y-84765443D01*
X122009803Y-84746197D01*
X121990557Y-84730403D01*
X121968601Y-84718667D01*
X121944776Y-84711440D01*
X121920000Y-84709000D01*
X120819650Y-84709000D01*
X120928824Y-84610746D01*
X121066445Y-84426541D01*
X121109343Y-84363453D01*
X121121480Y-84193000D01*
X120388000Y-84193000D01*
X120388000Y-84213000D01*
X119642000Y-84213000D01*
X119642000Y-84193000D01*
X118908520Y-84193000D01*
X118920657Y-84363453D01*
X118963555Y-84426541D01*
X119101176Y-84610746D01*
X119210350Y-84709000D01*
X115461735Y-84709000D01*
X115481657Y-84684724D01*
X115502735Y-84645289D01*
X115515715Y-84602500D01*
X115520098Y-84558000D01*
X115519000Y-83487750D01*
X115478250Y-83447000D01*
X118908520Y-83447000D01*
X119642000Y-83447000D01*
X120388000Y-83447000D01*
X121121480Y-83447000D01*
X121109343Y-83276547D01*
X121066445Y-83213459D01*
X120928824Y-83029254D01*
X120757911Y-82875437D01*
X120560274Y-82757919D01*
X120388000Y-82749876D01*
X120388000Y-83447000D01*
X119642000Y-83447000D01*
X119642000Y-82749876D01*
X119469726Y-82757919D01*
X119272089Y-82875437D01*
X119101176Y-83029254D01*
X118963555Y-83213459D01*
X118920657Y-83276547D01*
X118908520Y-83447000D01*
X115478250Y-83447000D01*
X115462250Y-83431000D01*
X114165000Y-83431000D01*
X114165000Y-83451000D01*
X113419000Y-83451000D01*
X113419000Y-83431000D01*
X112121750Y-83431000D01*
X112065000Y-83487750D01*
X112063902Y-84558000D01*
X112068285Y-84602500D01*
X112081265Y-84645289D01*
X112102343Y-84684724D01*
X112122265Y-84709000D01*
X111506000Y-84709000D01*
X111506000Y-81558000D01*
X112063902Y-81558000D01*
X112065000Y-82628250D01*
X112121750Y-82685000D01*
X113419000Y-82685000D01*
X113419000Y-81387750D01*
X114165000Y-81387750D01*
X114165000Y-82685000D01*
X115462250Y-82685000D01*
X115519000Y-82628250D01*
X115520030Y-81624000D01*
X120850402Y-81624000D01*
X120854785Y-81668500D01*
X120867765Y-81711289D01*
X120888843Y-81750724D01*
X120917210Y-81785290D01*
X120951776Y-81813657D01*
X120991211Y-81834735D01*
X121034000Y-81847715D01*
X121078500Y-81852098D01*
X121236250Y-81851000D01*
X121293000Y-81794250D01*
X121293000Y-81272000D01*
X122039000Y-81272000D01*
X122039000Y-81794250D01*
X122095750Y-81851000D01*
X122253500Y-81852098D01*
X122298000Y-81847715D01*
X122340789Y-81834735D01*
X122380224Y-81813657D01*
X122414790Y-81785290D01*
X122443157Y-81750724D01*
X122464235Y-81711289D01*
X122477215Y-81668500D01*
X122481598Y-81624000D01*
X122480500Y-81328750D01*
X122423750Y-81272000D01*
X122039000Y-81272000D01*
X121293000Y-81272000D01*
X120908250Y-81272000D01*
X120851500Y-81328750D01*
X120850402Y-81624000D01*
X115520030Y-81624000D01*
X115520098Y-81558000D01*
X115515715Y-81513500D01*
X115502735Y-81470711D01*
X115481657Y-81431276D01*
X115453290Y-81396710D01*
X115418724Y-81368343D01*
X115379289Y-81347265D01*
X115336500Y-81334285D01*
X115292000Y-81329902D01*
X114221750Y-81331000D01*
X114165000Y-81387750D01*
X113419000Y-81387750D01*
X113362250Y-81331000D01*
X112292000Y-81329902D01*
X112247500Y-81334285D01*
X112204711Y-81347265D01*
X112165276Y-81368343D01*
X112130710Y-81396710D01*
X112102343Y-81431276D01*
X112081265Y-81470711D01*
X112068285Y-81513500D01*
X112063902Y-81558000D01*
X111506000Y-81558000D01*
X111506000Y-80174000D01*
X120850402Y-80174000D01*
X120851500Y-80469250D01*
X120908250Y-80526000D01*
X121293000Y-80526000D01*
X121293000Y-80003750D01*
X122039000Y-80003750D01*
X122039000Y-80526000D01*
X122423750Y-80526000D01*
X122480500Y-80469250D01*
X122481598Y-80174000D01*
X122477215Y-80129500D01*
X122464235Y-80086711D01*
X122443157Y-80047276D01*
X122414790Y-80012710D01*
X122380224Y-79984343D01*
X122340789Y-79963265D01*
X122298000Y-79950285D01*
X122253500Y-79945902D01*
X122095750Y-79947000D01*
X122039000Y-80003750D01*
X121293000Y-80003750D01*
X121236250Y-79947000D01*
X121078500Y-79945902D01*
X121034000Y-79950285D01*
X120991211Y-79963265D01*
X120951776Y-79984343D01*
X120917210Y-80012710D01*
X120888843Y-80047276D01*
X120867765Y-80086711D01*
X120854785Y-80129500D01*
X120850402Y-80174000D01*
X111506000Y-80174000D01*
X111506000Y-79592000D01*
X120934402Y-79592000D01*
X120938785Y-79636500D01*
X120951765Y-79679289D01*
X120972843Y-79718724D01*
X121001210Y-79753290D01*
X121035776Y-79781657D01*
X121075211Y-79802735D01*
X121118000Y-79815715D01*
X121162500Y-79820098D01*
X121320250Y-79819000D01*
X121377000Y-79762250D01*
X121377000Y-79240000D01*
X122123000Y-79240000D01*
X122123000Y-79762250D01*
X122179750Y-79819000D01*
X122337500Y-79820098D01*
X122382000Y-79815715D01*
X122424789Y-79802735D01*
X122464224Y-79781657D01*
X122498790Y-79753290D01*
X122527157Y-79718724D01*
X122548235Y-79679289D01*
X122561215Y-79636500D01*
X122565598Y-79592000D01*
X122564500Y-79296750D01*
X122507750Y-79240000D01*
X122123000Y-79240000D01*
X121377000Y-79240000D01*
X120992250Y-79240000D01*
X120935500Y-79296750D01*
X120934402Y-79592000D01*
X111506000Y-79592000D01*
X111506000Y-74930000D01*
X112117127Y-74930000D01*
X112060485Y-74976485D01*
%TA.AperFunction,Conductor*%
D20*
G36*
X112060485Y-74976485D02*
G01*
X111887860Y-75186829D01*
X111759589Y-75426808D01*
X111680599Y-75687201D01*
X111653928Y-75958000D01*
X111653928Y-77458000D01*
X111680599Y-77728799D01*
X111759589Y-77989192D01*
X111887860Y-78229171D01*
X112060485Y-78439515D01*
X112270829Y-78612140D01*
X112510808Y-78740411D01*
X112771201Y-78819401D01*
X113042000Y-78846072D01*
X114542000Y-78846072D01*
X114812799Y-78819401D01*
X115073192Y-78740411D01*
X115313171Y-78612140D01*
X115523515Y-78439515D01*
X115696140Y-78229171D01*
X115742733Y-78142000D01*
X120934402Y-78142000D01*
X120935500Y-78437250D01*
X120992250Y-78494000D01*
X121377000Y-78494000D01*
X121377000Y-77971750D01*
X122123000Y-77971750D01*
X122123000Y-78494000D01*
X122507750Y-78494000D01*
X122564500Y-78437250D01*
X122565598Y-78142000D01*
X122561215Y-78097500D01*
X122548235Y-78054711D01*
X122527157Y-78015276D01*
X122498790Y-77980710D01*
X122464224Y-77952343D01*
X122424789Y-77931265D01*
X122382000Y-77918285D01*
X122337500Y-77913902D01*
X122179750Y-77915000D01*
X122123000Y-77971750D01*
X121377000Y-77971750D01*
X121320250Y-77915000D01*
X121162500Y-77913902D01*
X121118000Y-77918285D01*
X121075211Y-77931265D01*
X121035776Y-77952343D01*
X121001210Y-77980710D01*
X120972843Y-78015276D01*
X120951765Y-78054711D01*
X120938785Y-78097500D01*
X120934402Y-78142000D01*
X115742733Y-78142000D01*
X115824411Y-77989192D01*
X115903401Y-77728799D01*
X115930072Y-77458000D01*
X115930072Y-75958000D01*
X115903401Y-75687201D01*
X115824411Y-75426808D01*
X115696140Y-75186829D01*
X115523515Y-74976485D01*
X115466873Y-74930000D01*
X125959568Y-74930000D01*
X125936961Y-74952607D01*
X125905460Y-74978459D01*
X125879609Y-75009959D01*
X125802301Y-75104158D01*
X125725647Y-75247567D01*
X125678445Y-75403174D01*
X125662506Y-75565000D01*
X125666501Y-75605560D01*
X125666501Y-76735237D01*
X125650898Y-76728774D01*
X125450939Y-76689000D01*
X125247061Y-76689000D01*
X125047102Y-76728774D01*
X124858744Y-76806795D01*
X124689226Y-76920063D01*
X124545063Y-77064226D01*
X124431795Y-77233744D01*
X124353774Y-77422102D01*
X124334135Y-77520833D01*
X124162500Y-77503928D01*
X123487500Y-77503928D01*
X123314246Y-77520992D01*
X123147650Y-77571528D01*
X122994114Y-77653595D01*
X122859538Y-77764038D01*
X122749095Y-77898614D01*
X122667028Y-78052150D01*
X122616492Y-78218746D01*
X122599428Y-78392000D01*
X122599428Y-79342000D01*
X122616492Y-79515254D01*
X122667028Y-79681850D01*
X122746788Y-79831070D01*
X122665095Y-79930614D01*
X122583028Y-80084150D01*
X122532492Y-80250746D01*
X122515428Y-80424000D01*
X122515428Y-81374000D01*
X122532492Y-81547254D01*
X122583028Y-81713850D01*
X122665095Y-81867386D01*
X122775538Y-82001962D01*
X122910114Y-82112405D01*
X123063650Y-82194472D01*
X123230246Y-82245008D01*
X123403500Y-82262072D01*
X124078500Y-82262072D01*
X124251754Y-82245008D01*
X124369901Y-82209169D01*
X124353774Y-82248102D01*
X124314000Y-82448061D01*
X124314000Y-82651939D01*
X124353774Y-82851898D01*
X124431795Y-83040256D01*
X124545063Y-83209774D01*
X124689226Y-83353937D01*
X124858744Y-83467205D01*
X125047102Y-83545226D01*
X125247061Y-83585000D01*
X125450939Y-83585000D01*
X125650898Y-83545226D01*
X125839256Y-83467205D01*
X125920500Y-83412920D01*
X126001744Y-83467205D01*
X126190102Y-83545226D01*
X126390061Y-83585000D01*
X126593939Y-83585000D01*
X126793898Y-83545226D01*
X126982256Y-83467205D01*
X127151774Y-83353937D01*
X127295937Y-83209774D01*
X127409205Y-83040256D01*
X127487226Y-82851898D01*
X127527000Y-82651939D01*
X127527000Y-82448061D01*
X127487226Y-82248102D01*
X127409205Y-82059744D01*
X127317500Y-81922497D01*
X127317500Y-75906932D01*
X127648004Y-75576428D01*
X127809898Y-75544226D01*
X127825833Y-75537626D01*
X127825832Y-81982532D01*
X127797627Y-82024744D01*
X127719606Y-82213102D01*
X127679832Y-82413061D01*
X127679832Y-82616939D01*
X127719606Y-82816898D01*
X127797627Y-83005256D01*
X127910895Y-83174774D01*
X128055058Y-83318937D01*
X128224576Y-83432205D01*
X128412934Y-83510226D01*
X128612893Y-83550000D01*
X128816771Y-83550000D01*
X129016730Y-83510226D01*
X129205088Y-83432205D01*
X129374606Y-83318937D01*
X129518769Y-83174774D01*
X129632037Y-83005256D01*
X129710058Y-82816898D01*
X129749832Y-82616939D01*
X129749832Y-82413061D01*
X129710058Y-82213102D01*
X129632037Y-82024744D01*
X129603832Y-81982532D01*
X129603832Y-81581295D01*
X129746102Y-81640226D01*
X129946061Y-81680000D01*
X130149939Y-81680000D01*
X130349898Y-81640226D01*
X130538256Y-81562205D01*
X130707774Y-81448937D01*
X130851937Y-81304774D01*
X130965205Y-81135256D01*
X131043226Y-80946898D01*
X131083000Y-80746939D01*
X131083000Y-80543061D01*
X131043226Y-80343102D01*
X130965205Y-80154744D01*
X130937000Y-80112532D01*
X130937000Y-78127968D01*
X130997885Y-78014060D01*
X131064215Y-77795400D01*
X131081000Y-77624979D01*
X131081000Y-77061022D01*
X131064215Y-76890601D01*
X130997885Y-76671941D01*
X130955691Y-76593000D01*
X131297928Y-76593000D01*
X131297928Y-78093000D01*
X131310188Y-78217482D01*
X131346498Y-78337180D01*
X131405463Y-78447494D01*
X131484815Y-78544185D01*
X131581506Y-78623537D01*
X131691820Y-78682502D01*
X131811518Y-78718812D01*
X131936000Y-78731072D01*
X132986000Y-78731072D01*
X133110482Y-78718812D01*
X133230180Y-78682502D01*
X133340494Y-78623537D01*
X133437185Y-78544185D01*
X133516537Y-78447494D01*
X133575502Y-78337180D01*
X133611812Y-78217482D01*
X133624072Y-78093000D01*
X133624072Y-76593000D01*
X133611812Y-76468518D01*
X133575502Y-76348820D01*
X133516537Y-76238506D01*
X133437185Y-76141815D01*
X133340494Y-76062463D01*
X133230180Y-76003498D01*
X133110482Y-75967188D01*
X132986000Y-75954928D01*
X131936000Y-75954928D01*
X131811518Y-75967188D01*
X131691820Y-76003498D01*
X131581506Y-76062463D01*
X131484815Y-76141815D01*
X131405463Y-76238506D01*
X131346498Y-76348820D01*
X131310188Y-76468518D01*
X131297928Y-76593000D01*
X130955691Y-76593000D01*
X130890171Y-76470421D01*
X130745212Y-76293788D01*
X130568579Y-76148829D01*
X130367060Y-76041115D01*
X130148400Y-75974785D01*
X129921000Y-75952388D01*
X129693601Y-75974785D01*
X129603832Y-76002016D01*
X129603832Y-74930000D01*
X174563000Y-74930000D01*
X174563001Y-93516739D01*
X174386183Y-93089862D01*
X174060387Y-92602273D01*
X173645727Y-92187613D01*
X173158138Y-91861817D01*
X172616359Y-91637405D01*
X172041209Y-91523000D01*
X171454791Y-91523000D01*
X170879641Y-91637405D01*
X170337862Y-91861817D01*
X169850273Y-92187613D01*
X169435613Y-92602273D01*
X169109817Y-93089862D01*
X168885405Y-93631641D01*
X168771000Y-94206791D01*
X168771000Y-94793209D01*
X168885405Y-95368359D01*
X169109817Y-95910138D01*
X169435613Y-96397727D01*
X169850273Y-96812387D01*
X170337862Y-97138183D01*
X170764736Y-97315000D01*
X117221000Y-97315000D01*
X117221000Y-91694000D01*
X117712651Y-91694000D01*
X117700795Y-91711744D01*
X117622774Y-91900102D01*
X117583000Y-92100061D01*
X117583000Y-92303939D01*
X117622774Y-92503898D01*
X117700795Y-92692256D01*
X117814063Y-92861774D01*
X117958226Y-93005937D01*
X118127744Y-93119205D01*
X118316102Y-93197226D01*
X118365895Y-93207130D01*
X120879506Y-95720742D01*
X120907341Y-95754659D01*
X120941258Y-95782494D01*
X120941259Y-95782495D01*
X120983554Y-95817206D01*
X121042709Y-95865753D01*
X121197149Y-95948303D01*
X121289626Y-95976355D01*
X121364725Y-95999136D01*
X121381325Y-96000771D01*
X121495333Y-96012000D01*
X121495340Y-96012000D01*
X121539000Y-96016300D01*
X121582660Y-96012000D01*
X124689532Y-96012000D01*
X124731744Y-96040205D01*
X124920102Y-96118226D01*
X125120061Y-96158000D01*
X125323939Y-96158000D01*
X125523898Y-96118226D01*
X125712256Y-96040205D01*
X125881774Y-95926937D01*
X126025937Y-95782774D01*
X126139205Y-95613256D01*
X126217226Y-95424898D01*
X126257000Y-95224939D01*
X126257000Y-95021061D01*
X126217226Y-94821102D01*
X126139205Y-94632744D01*
X126025937Y-94463226D01*
X125881774Y-94319063D01*
X125712256Y-94205795D01*
X125523898Y-94127774D01*
X125323939Y-94088000D01*
X125120061Y-94088000D01*
X124920102Y-94127774D01*
X124731744Y-94205795D01*
X124689532Y-94234000D01*
X121907236Y-94234000D01*
X119623130Y-91949895D01*
X119613226Y-91900102D01*
X119535205Y-91711744D01*
X119523349Y-91694000D01*
X121920000Y-91694000D01*
X121944776Y-91691560D01*
X121968601Y-91684333D01*
X121990557Y-91672597D01*
X122009803Y-91656803D01*
X122025597Y-91637557D01*
X122037333Y-91615601D01*
X122044560Y-91591776D01*
X122047000Y-91567000D01*
X122047000Y-87156999D01*
X126075648Y-87156999D01*
X126004774Y-87328102D01*
X125965000Y-87528061D01*
X125965000Y-87731939D01*
X126004774Y-87931898D01*
X126082795Y-88120256D01*
X126111000Y-88162468D01*
X126111001Y-89976288D01*
X126069063Y-90018226D01*
X125955795Y-90187744D01*
X125877774Y-90376102D01*
X125838000Y-90576061D01*
X125838000Y-90779939D01*
X125877774Y-90979898D01*
X125955795Y-91168256D01*
X126069063Y-91337774D01*
X126213226Y-91481937D01*
X126382744Y-91595205D01*
X126571102Y-91673226D01*
X126771061Y-91713000D01*
X126974939Y-91713000D01*
X127174898Y-91673226D01*
X127363256Y-91595205D01*
X127523716Y-91487989D01*
X127593063Y-91591774D01*
X127737226Y-91735937D01*
X127906744Y-91849205D01*
X128095102Y-91927226D01*
X128295061Y-91967000D01*
X128498939Y-91967000D01*
X128698898Y-91927226D01*
X128887256Y-91849205D01*
X129056774Y-91735937D01*
X129099789Y-91692922D01*
X129117063Y-91718774D01*
X129261226Y-91862937D01*
X129430744Y-91976205D01*
X129619102Y-92054226D01*
X129780995Y-92086428D01*
X130092935Y-92398369D01*
X129940260Y-92368000D01*
X129647740Y-92368000D01*
X129360842Y-92425068D01*
X129090589Y-92537010D01*
X128847368Y-92699525D01*
X128640525Y-92906368D01*
X128478010Y-93149589D01*
X128366068Y-93419842D01*
X128309000Y-93706740D01*
X128309000Y-93999260D01*
X128366068Y-94286158D01*
X128478010Y-94556411D01*
X128640525Y-94799632D01*
X128847368Y-95006475D01*
X129090589Y-95168990D01*
X129360842Y-95280932D01*
X129647740Y-95338000D01*
X129940260Y-95338000D01*
X130227158Y-95280932D01*
X130497411Y-95168990D01*
X130740632Y-95006475D01*
X130947475Y-94799632D01*
X131064000Y-94625240D01*
X131180525Y-94799632D01*
X131387368Y-95006475D01*
X131630589Y-95168990D01*
X131900842Y-95280932D01*
X132187740Y-95338000D01*
X132480260Y-95338000D01*
X132767158Y-95280932D01*
X133037411Y-95168990D01*
X133280632Y-95006475D01*
X133487475Y-94799632D01*
X133604000Y-94625240D01*
X133720525Y-94799632D01*
X133927368Y-95006475D01*
X134170589Y-95168990D01*
X134440842Y-95280932D01*
X134727740Y-95338000D01*
X135020260Y-95338000D01*
X135307158Y-95280932D01*
X135577411Y-95168990D01*
X135820632Y-95006475D01*
X135952487Y-94874620D01*
X135974498Y-94947180D01*
X136033463Y-95057494D01*
X136112815Y-95154185D01*
X136209506Y-95233537D01*
X136319820Y-95292502D01*
X136439518Y-95328812D01*
X136564000Y-95341072D01*
X138264000Y-95341072D01*
X138388482Y-95328812D01*
X138508180Y-95292502D01*
X138618494Y-95233537D01*
X138715185Y-95154185D01*
X138794537Y-95057494D01*
X138853502Y-94947180D01*
X138889812Y-94827482D01*
X138902072Y-94703000D01*
X138902072Y-93154500D01*
X148597497Y-93154500D01*
X148734744Y-93246205D01*
X148923102Y-93324226D01*
X149123061Y-93364000D01*
X149326939Y-93364000D01*
X149526898Y-93324226D01*
X149715256Y-93246205D01*
X149884774Y-93132937D01*
X150028937Y-92988774D01*
X150142205Y-92819256D01*
X150220226Y-92630898D01*
X150260000Y-92430939D01*
X150260000Y-92227061D01*
X150220226Y-92027102D01*
X150142205Y-91838744D01*
X150028937Y-91669226D01*
X149884774Y-91525063D01*
X149715256Y-91411795D01*
X149526898Y-91333774D01*
X149326939Y-91294000D01*
X149123061Y-91294000D01*
X148923102Y-91333774D01*
X148734744Y-91411795D01*
X148597497Y-91503500D01*
X131532932Y-91503500D01*
X131295401Y-91265969D01*
X131295392Y-91265958D01*
X130948428Y-90918995D01*
X130916226Y-90757102D01*
X130838205Y-90568744D01*
X130724937Y-90399226D01*
X130580774Y-90255063D01*
X130411256Y-90141795D01*
X130371221Y-90125212D01*
X130555372Y-89941061D01*
X138030000Y-89941061D01*
X138030000Y-90144939D01*
X138069774Y-90344898D01*
X138147795Y-90533256D01*
X138261063Y-90702774D01*
X138405226Y-90846937D01*
X138574744Y-90960205D01*
X138763102Y-91038226D01*
X138963061Y-91078000D01*
X139166939Y-91078000D01*
X139366898Y-91038226D01*
X139555256Y-90960205D01*
X139692503Y-90868500D01*
X154640398Y-90868500D01*
X154680948Y-90872494D01*
X154721498Y-90868500D01*
X154721501Y-90868500D01*
X154842774Y-90856556D01*
X154998382Y-90809353D01*
X155141790Y-90732699D01*
X155267489Y-90629541D01*
X155293346Y-90598034D01*
X156585319Y-89306061D01*
X160255000Y-89306061D01*
X160255000Y-89509939D01*
X160294774Y-89709898D01*
X160372795Y-89898256D01*
X160401001Y-89940469D01*
X160401000Y-92031333D01*
X160401000Y-92031334D01*
X160401001Y-93193531D01*
X160372795Y-93235744D01*
X160294774Y-93424102D01*
X160255000Y-93624061D01*
X160255000Y-93827939D01*
X160294774Y-94027898D01*
X160372795Y-94216256D01*
X160486063Y-94385774D01*
X160630226Y-94529937D01*
X160799744Y-94643205D01*
X160988102Y-94721226D01*
X161188061Y-94761000D01*
X161391939Y-94761000D01*
X161591898Y-94721226D01*
X161780256Y-94643205D01*
X161949774Y-94529937D01*
X162093937Y-94385774D01*
X162207205Y-94216256D01*
X162285226Y-94027898D01*
X162325000Y-93827939D01*
X162325000Y-93624061D01*
X162285226Y-93424102D01*
X162207205Y-93235744D01*
X162179000Y-93193532D01*
X162179000Y-89940468D01*
X162207205Y-89898256D01*
X162285226Y-89709898D01*
X162325000Y-89509939D01*
X162325000Y-89306061D01*
X163430000Y-89306061D01*
X163430000Y-89509939D01*
X163469774Y-89709898D01*
X163547795Y-89898256D01*
X163661063Y-90067774D01*
X163805226Y-90211937D01*
X163974744Y-90325205D01*
X164163102Y-90403226D01*
X164363061Y-90443000D01*
X164566939Y-90443000D01*
X164766898Y-90403226D01*
X164955256Y-90325205D01*
X164997468Y-90297000D01*
X167361532Y-90297000D01*
X167403744Y-90325205D01*
X167592102Y-90403226D01*
X167792061Y-90443000D01*
X167995939Y-90443000D01*
X168195898Y-90403226D01*
X168384256Y-90325205D01*
X168553774Y-90211937D01*
X168697937Y-90067774D01*
X168811205Y-89898256D01*
X168889226Y-89709898D01*
X168929000Y-89509939D01*
X168929000Y-89306061D01*
X168889226Y-89106102D01*
X168811205Y-88917744D01*
X168697937Y-88748226D01*
X168553774Y-88604063D01*
X168384256Y-88490795D01*
X168195898Y-88412774D01*
X167995939Y-88373000D01*
X167792061Y-88373000D01*
X167592102Y-88412774D01*
X167403744Y-88490795D01*
X167361532Y-88519000D01*
X164997468Y-88519000D01*
X164955256Y-88490795D01*
X164766898Y-88412774D01*
X164566939Y-88373000D01*
X164363061Y-88373000D01*
X164163102Y-88412774D01*
X163974744Y-88490795D01*
X163805226Y-88604063D01*
X163661063Y-88748226D01*
X163547795Y-88917744D01*
X163469774Y-89106102D01*
X163430000Y-89306061D01*
X162325000Y-89306061D01*
X162285226Y-89106102D01*
X162207205Y-88917744D01*
X162093937Y-88748226D01*
X161949774Y-88604063D01*
X161780256Y-88490795D01*
X161591898Y-88412774D01*
X161391939Y-88373000D01*
X161188061Y-88373000D01*
X160988102Y-88412774D01*
X160799744Y-88490795D01*
X160630226Y-88604063D01*
X160486063Y-88748226D01*
X160372795Y-88917744D01*
X160294774Y-89106102D01*
X160255000Y-89306061D01*
X156585319Y-89306061D01*
X157019041Y-88872340D01*
X157050541Y-88846489D01*
X157153699Y-88720790D01*
X157230353Y-88577382D01*
X157277556Y-88421774D01*
X157289500Y-88300501D01*
X157289500Y-88300499D01*
X157293494Y-88259949D01*
X157289500Y-88219398D01*
X157289500Y-84955503D01*
X157381205Y-84818256D01*
X157459226Y-84629898D01*
X157499000Y-84429939D01*
X157499000Y-84226061D01*
X157459226Y-84026102D01*
X157426461Y-83947000D01*
X160757532Y-83947000D01*
X160799744Y-83975205D01*
X160988102Y-84053226D01*
X161188061Y-84093000D01*
X161391939Y-84093000D01*
X161591898Y-84053226D01*
X161780256Y-83975205D01*
X161949774Y-83861937D01*
X162093937Y-83717774D01*
X162196858Y-83563740D01*
X168725000Y-83563740D01*
X168725000Y-83856260D01*
X168782068Y-84143158D01*
X168894010Y-84413411D01*
X169056525Y-84656632D01*
X169263368Y-84863475D01*
X169437760Y-84980000D01*
X169263368Y-85096525D01*
X169056525Y-85303368D01*
X168894010Y-85546589D01*
X168782068Y-85816842D01*
X168725000Y-86103740D01*
X168725000Y-86396260D01*
X168782068Y-86683158D01*
X168894010Y-86953411D01*
X169056525Y-87196632D01*
X169263368Y-87403475D01*
X169506589Y-87565990D01*
X169776842Y-87677932D01*
X170063740Y-87735000D01*
X170356260Y-87735000D01*
X170643158Y-87677932D01*
X170913411Y-87565990D01*
X171156632Y-87403475D01*
X171288487Y-87271620D01*
X171310498Y-87344180D01*
X171369463Y-87454494D01*
X171448815Y-87551185D01*
X171545506Y-87630537D01*
X171655820Y-87689502D01*
X171775518Y-87725812D01*
X171900000Y-87738072D01*
X173600000Y-87738072D01*
X173724482Y-87725812D01*
X173844180Y-87689502D01*
X173954494Y-87630537D01*
X174051185Y-87551185D01*
X174130537Y-87454494D01*
X174189502Y-87344180D01*
X174225812Y-87224482D01*
X174238072Y-87100000D01*
X174238072Y-85400000D01*
X174225812Y-85275518D01*
X174189502Y-85155820D01*
X174130537Y-85045506D01*
X174051185Y-84948815D01*
X173954494Y-84869463D01*
X173844180Y-84810498D01*
X173771620Y-84788487D01*
X173903475Y-84656632D01*
X174065990Y-84413411D01*
X174177932Y-84143158D01*
X174235000Y-83856260D01*
X174235000Y-83563740D01*
X174177932Y-83276842D01*
X174065990Y-83006589D01*
X173903475Y-82763368D01*
X173696632Y-82556525D01*
X173522240Y-82440000D01*
X173696632Y-82323475D01*
X173903475Y-82116632D01*
X174065990Y-81873411D01*
X174177932Y-81603158D01*
X174235000Y-81316260D01*
X174235000Y-81023740D01*
X174177932Y-80736842D01*
X174065990Y-80466589D01*
X173903475Y-80223368D01*
X173696632Y-80016525D01*
X173453411Y-79854010D01*
X173183158Y-79742068D01*
X172896260Y-79685000D01*
X172603740Y-79685000D01*
X172316842Y-79742068D01*
X172046589Y-79854010D01*
X171803368Y-80016525D01*
X171596525Y-80223368D01*
X171434010Y-80466589D01*
X171322068Y-80736842D01*
X171287000Y-80913139D01*
X171287000Y-80796998D01*
X171159622Y-80796998D01*
X171149557Y-80643539D01*
X171055950Y-80503412D01*
X170909651Y-80351184D01*
X170736464Y-80230422D01*
X170583000Y-80216383D01*
X170583000Y-80797000D01*
X170603000Y-80797000D01*
X170603000Y-81543000D01*
X170583000Y-81543000D01*
X170583000Y-81563000D01*
X169837000Y-81563000D01*
X169837000Y-81543000D01*
X169260378Y-81543000D01*
X169270443Y-81696461D01*
X169364050Y-81836588D01*
X169510349Y-81988816D01*
X169683536Y-82109578D01*
X169836998Y-82123617D01*
X169836998Y-82247000D01*
X169953139Y-82247000D01*
X169776842Y-82282068D01*
X169506589Y-82394010D01*
X169263368Y-82556525D01*
X169056525Y-82763368D01*
X168894010Y-83006589D01*
X168782068Y-83276842D01*
X168725000Y-83563740D01*
X162196858Y-83563740D01*
X162207205Y-83548256D01*
X162285226Y-83359898D01*
X162325000Y-83159939D01*
X162325000Y-82956061D01*
X162285226Y-82756102D01*
X162207205Y-82567744D01*
X162093937Y-82398226D01*
X161949774Y-82254063D01*
X161780256Y-82140795D01*
X161591898Y-82062774D01*
X161391939Y-82023000D01*
X161188061Y-82023000D01*
X160988102Y-82062774D01*
X160799744Y-82140795D01*
X160757532Y-82169000D01*
X155943236Y-82169000D01*
X154571236Y-80797000D01*
X169260378Y-80797000D01*
X169837000Y-80797000D01*
X169837000Y-80216383D01*
X169683536Y-80230422D01*
X169510349Y-80351184D01*
X169364050Y-80503412D01*
X169270443Y-80643539D01*
X169260378Y-80797000D01*
X154571236Y-80797000D01*
X153301297Y-79527061D01*
X164954000Y-79527061D01*
X164954000Y-79730939D01*
X164993774Y-79930898D01*
X165071795Y-80119256D01*
X165185063Y-80288774D01*
X165329226Y-80432937D01*
X165498744Y-80546205D01*
X165687102Y-80624226D01*
X165887061Y-80664000D01*
X166090939Y-80664000D01*
X166290898Y-80624226D01*
X166479256Y-80546205D01*
X166616503Y-80454500D01*
X167520497Y-80454500D01*
X167657744Y-80546205D01*
X167846102Y-80624226D01*
X168046061Y-80664000D01*
X168249939Y-80664000D01*
X168449898Y-80624226D01*
X168638256Y-80546205D01*
X168807774Y-80432937D01*
X168951937Y-80288774D01*
X169065205Y-80119256D01*
X169143226Y-79930898D01*
X169183000Y-79730939D01*
X169183000Y-79527061D01*
X169143226Y-79327102D01*
X169065205Y-79138744D01*
X168951937Y-78969226D01*
X168807774Y-78825063D01*
X168638256Y-78711795D01*
X168449898Y-78633774D01*
X168249939Y-78594000D01*
X168046061Y-78594000D01*
X167846102Y-78633774D01*
X167657744Y-78711795D01*
X167520497Y-78803500D01*
X166616503Y-78803500D01*
X166479256Y-78711795D01*
X166290898Y-78633774D01*
X166090939Y-78594000D01*
X165887061Y-78594000D01*
X165687102Y-78633774D01*
X165498744Y-78711795D01*
X165329226Y-78825063D01*
X165185063Y-78969226D01*
X165071795Y-79138744D01*
X164993774Y-79327102D01*
X164954000Y-79527061D01*
X153301297Y-79527061D01*
X151408499Y-77634264D01*
X151380659Y-77600341D01*
X151245291Y-77489247D01*
X151090851Y-77406697D01*
X150923274Y-77355864D01*
X150792667Y-77343000D01*
X150792660Y-77343000D01*
X150749000Y-77338700D01*
X150705340Y-77343000D01*
X147725468Y-77343000D01*
X147683256Y-77314795D01*
X147494898Y-77236774D01*
X147294939Y-77197000D01*
X147091061Y-77197000D01*
X146891102Y-77236774D01*
X146702744Y-77314795D01*
X146533226Y-77428063D01*
X146389063Y-77572226D01*
X146275795Y-77741744D01*
X146197774Y-77930102D01*
X146158000Y-78130061D01*
X146158000Y-78333939D01*
X146197774Y-78533898D01*
X146275795Y-78722256D01*
X146389063Y-78891774D01*
X146533226Y-79035937D01*
X146702744Y-79149205D01*
X146891102Y-79227226D01*
X147091061Y-79267000D01*
X147294939Y-79267000D01*
X147494898Y-79227226D01*
X147683256Y-79149205D01*
X147725468Y-79121000D01*
X150380765Y-79121000D01*
X154915506Y-83655742D01*
X154943341Y-83689659D01*
X155078709Y-83800753D01*
X155233149Y-83883303D01*
X155349892Y-83918716D01*
X155400725Y-83934136D01*
X155417325Y-83935771D01*
X155502707Y-83944181D01*
X155468774Y-84026102D01*
X155429000Y-84226061D01*
X155429000Y-84429939D01*
X155468774Y-84629898D01*
X155546795Y-84818256D01*
X155638501Y-84955504D01*
X155638501Y-85192955D01*
X155603205Y-85107744D01*
X155489937Y-84938226D01*
X155345774Y-84794063D01*
X155176256Y-84680795D01*
X154987898Y-84602774D01*
X154787939Y-84563000D01*
X154584061Y-84563000D01*
X154384102Y-84602774D01*
X154195744Y-84680795D01*
X154058497Y-84772500D01*
X149566933Y-84772500D01*
X148805991Y-84011559D01*
X148805991Y-81399503D01*
X148897696Y-81262256D01*
X148975717Y-81073898D01*
X149015491Y-80873939D01*
X149015491Y-80670061D01*
X148975717Y-80470102D01*
X148897696Y-80281744D01*
X148784428Y-80112226D01*
X148640265Y-79968063D01*
X148470747Y-79854795D01*
X148282389Y-79776774D01*
X148082430Y-79737000D01*
X147878552Y-79737000D01*
X147678593Y-79776774D01*
X147490235Y-79854795D01*
X147320717Y-79968063D01*
X147176554Y-80112226D01*
X147063286Y-80281744D01*
X146985265Y-80470102D01*
X146945491Y-80670061D01*
X146945491Y-80873939D01*
X146985265Y-81073898D01*
X147063286Y-81262256D01*
X147154992Y-81399504D01*
X147154991Y-82717552D01*
X147154992Y-82717562D01*
X147154991Y-84312940D01*
X147150997Y-84353491D01*
X147154991Y-84394041D01*
X147154991Y-84394043D01*
X147166935Y-84515316D01*
X147201693Y-84629898D01*
X147214138Y-84670924D01*
X147290792Y-84814333D01*
X147319021Y-84848730D01*
X147393950Y-84940032D01*
X147425457Y-84965889D01*
X147848582Y-85389014D01*
X147718744Y-85442795D01*
X147549226Y-85556063D01*
X147405063Y-85700226D01*
X147291795Y-85869744D01*
X147213774Y-86058102D01*
X147196213Y-86146386D01*
X147040939Y-86115500D01*
X146837061Y-86115500D01*
X146637102Y-86155274D01*
X146448744Y-86233295D01*
X146279226Y-86346563D01*
X146135063Y-86490726D01*
X146021795Y-86660244D01*
X145943774Y-86848602D01*
X145917653Y-86979921D01*
X145897939Y-86976000D01*
X145694061Y-86976000D01*
X145494102Y-87015774D01*
X145305744Y-87093795D01*
X145136226Y-87207063D01*
X144992063Y-87351226D01*
X144878795Y-87520744D01*
X144800774Y-87709102D01*
X144761000Y-87909061D01*
X144761000Y-88112939D01*
X144800774Y-88312898D01*
X144878795Y-88501256D01*
X144992063Y-88670774D01*
X145136226Y-88814937D01*
X145305744Y-88928205D01*
X145494102Y-89006226D01*
X145694061Y-89046000D01*
X145897939Y-89046000D01*
X146097898Y-89006226D01*
X146286256Y-88928205D01*
X146423503Y-88836500D01*
X148080616Y-88836500D01*
X148063000Y-88925061D01*
X148063000Y-89128939D01*
X148080616Y-89217500D01*
X139692503Y-89217500D01*
X139555256Y-89125795D01*
X139366898Y-89047774D01*
X139166939Y-89008000D01*
X138963061Y-89008000D01*
X138763102Y-89047774D01*
X138574744Y-89125795D01*
X138405226Y-89239063D01*
X138261063Y-89383226D01*
X138147795Y-89552744D01*
X138069774Y-89741102D01*
X138030000Y-89941061D01*
X130555372Y-89941061D01*
X131151933Y-89344500D01*
X133103497Y-89344500D01*
X133240744Y-89436205D01*
X133429102Y-89514226D01*
X133629061Y-89554000D01*
X133832939Y-89554000D01*
X134032898Y-89514226D01*
X134221256Y-89436205D01*
X134390774Y-89322937D01*
X134534937Y-89178774D01*
X134648205Y-89009256D01*
X134726226Y-88820898D01*
X134766000Y-88620939D01*
X134766000Y-88417061D01*
X134726226Y-88217102D01*
X134648205Y-88028744D01*
X134534937Y-87859226D01*
X134390774Y-87715063D01*
X134221256Y-87601795D01*
X134032898Y-87523774D01*
X133832939Y-87484000D01*
X133629061Y-87484000D01*
X133429102Y-87523774D01*
X133240744Y-87601795D01*
X133103497Y-87693500D01*
X130850550Y-87693500D01*
X130809999Y-87689506D01*
X130769449Y-87693500D01*
X130769447Y-87693500D01*
X130648174Y-87705444D01*
X130492566Y-87752647D01*
X130349158Y-87829301D01*
X130223459Y-87932459D01*
X130197606Y-87963961D01*
X128256996Y-89904571D01*
X128095102Y-89936774D01*
X127906744Y-90014795D01*
X127889000Y-90026651D01*
X127889000Y-88162468D01*
X127917205Y-88120256D01*
X127995226Y-87931898D01*
X128035000Y-87731939D01*
X128035000Y-87528061D01*
X127995226Y-87328102D01*
X127917205Y-87139744D01*
X127803937Y-86970226D01*
X127786239Y-86952528D01*
X127850660Y-86899658D01*
X127878500Y-86865735D01*
X128065073Y-86679162D01*
X128114866Y-86669258D01*
X128303224Y-86591237D01*
X128421719Y-86512061D01*
X131680000Y-86512061D01*
X131680000Y-86715939D01*
X131719774Y-86915898D01*
X131797795Y-87104256D01*
X131911063Y-87273774D01*
X132055226Y-87417937D01*
X132224744Y-87531205D01*
X132413102Y-87609226D01*
X132613061Y-87649000D01*
X132816939Y-87649000D01*
X133016898Y-87609226D01*
X133205256Y-87531205D01*
X133374774Y-87417937D01*
X133518937Y-87273774D01*
X133632205Y-87104256D01*
X133710226Y-86915898D01*
X133750000Y-86715939D01*
X133750000Y-86512061D01*
X133710226Y-86312102D01*
X133632205Y-86123744D01*
X133518937Y-85954226D01*
X133374774Y-85810063D01*
X133205256Y-85696795D01*
X133016898Y-85618774D01*
X132816939Y-85579000D01*
X132613061Y-85579000D01*
X132413102Y-85618774D01*
X132224744Y-85696795D01*
X132055226Y-85810063D01*
X131911063Y-85954226D01*
X131797795Y-86123744D01*
X131719774Y-86312102D01*
X131680000Y-86512061D01*
X128421719Y-86512061D01*
X128472742Y-86477969D01*
X128616905Y-86333806D01*
X128730173Y-86164288D01*
X128808194Y-85975930D01*
X128847968Y-85775971D01*
X128847968Y-85572093D01*
X128808194Y-85372134D01*
X128730173Y-85183776D01*
X128616905Y-85014258D01*
X128472742Y-84870095D01*
X128303224Y-84756827D01*
X128114866Y-84678806D01*
X127914907Y-84639032D01*
X127711029Y-84639032D01*
X127511070Y-84678806D01*
X127322712Y-84756827D01*
X127153194Y-84870095D01*
X127009031Y-85014258D01*
X126895763Y-85183776D01*
X126817742Y-85372134D01*
X126816376Y-85378999D01*
X122047000Y-85378999D01*
X122047000Y-84836000D01*
X122044560Y-84811224D01*
X122037333Y-84787399D01*
X122025597Y-84765443D01*
X122009803Y-84746197D01*
X121990557Y-84730403D01*
X121968601Y-84718667D01*
X121944776Y-84711440D01*
X121920000Y-84709000D01*
X120819650Y-84709000D01*
X120928824Y-84610746D01*
X121066445Y-84426541D01*
X121109343Y-84363453D01*
X121121480Y-84193000D01*
X120388000Y-84193000D01*
X120388000Y-84213000D01*
X119642000Y-84213000D01*
X119642000Y-84193000D01*
X118908520Y-84193000D01*
X118920657Y-84363453D01*
X118963555Y-84426541D01*
X119101176Y-84610746D01*
X119210350Y-84709000D01*
X115461735Y-84709000D01*
X115481657Y-84684724D01*
X115502735Y-84645289D01*
X115515715Y-84602500D01*
X115520098Y-84558000D01*
X115519000Y-83487750D01*
X115478250Y-83447000D01*
X118908520Y-83447000D01*
X119642000Y-83447000D01*
X120388000Y-83447000D01*
X121121480Y-83447000D01*
X121109343Y-83276547D01*
X121066445Y-83213459D01*
X120928824Y-83029254D01*
X120757911Y-82875437D01*
X120560274Y-82757919D01*
X120388000Y-82749876D01*
X120388000Y-83447000D01*
X119642000Y-83447000D01*
X119642000Y-82749876D01*
X119469726Y-82757919D01*
X119272089Y-82875437D01*
X119101176Y-83029254D01*
X118963555Y-83213459D01*
X118920657Y-83276547D01*
X118908520Y-83447000D01*
X115478250Y-83447000D01*
X115462250Y-83431000D01*
X114165000Y-83431000D01*
X114165000Y-83451000D01*
X113419000Y-83451000D01*
X113419000Y-83431000D01*
X112121750Y-83431000D01*
X112065000Y-83487750D01*
X112063902Y-84558000D01*
X112068285Y-84602500D01*
X112081265Y-84645289D01*
X112102343Y-84684724D01*
X112122265Y-84709000D01*
X111506000Y-84709000D01*
X111506000Y-81558000D01*
X112063902Y-81558000D01*
X112065000Y-82628250D01*
X112121750Y-82685000D01*
X113419000Y-82685000D01*
X113419000Y-81387750D01*
X114165000Y-81387750D01*
X114165000Y-82685000D01*
X115462250Y-82685000D01*
X115519000Y-82628250D01*
X115520030Y-81624000D01*
X120850402Y-81624000D01*
X120854785Y-81668500D01*
X120867765Y-81711289D01*
X120888843Y-81750724D01*
X120917210Y-81785290D01*
X120951776Y-81813657D01*
X120991211Y-81834735D01*
X121034000Y-81847715D01*
X121078500Y-81852098D01*
X121236250Y-81851000D01*
X121293000Y-81794250D01*
X121293000Y-81272000D01*
X122039000Y-81272000D01*
X122039000Y-81794250D01*
X122095750Y-81851000D01*
X122253500Y-81852098D01*
X122298000Y-81847715D01*
X122340789Y-81834735D01*
X122380224Y-81813657D01*
X122414790Y-81785290D01*
X122443157Y-81750724D01*
X122464235Y-81711289D01*
X122477215Y-81668500D01*
X122481598Y-81624000D01*
X122480500Y-81328750D01*
X122423750Y-81272000D01*
X122039000Y-81272000D01*
X121293000Y-81272000D01*
X120908250Y-81272000D01*
X120851500Y-81328750D01*
X120850402Y-81624000D01*
X115520030Y-81624000D01*
X115520098Y-81558000D01*
X115515715Y-81513500D01*
X115502735Y-81470711D01*
X115481657Y-81431276D01*
X115453290Y-81396710D01*
X115418724Y-81368343D01*
X115379289Y-81347265D01*
X115336500Y-81334285D01*
X115292000Y-81329902D01*
X114221750Y-81331000D01*
X114165000Y-81387750D01*
X113419000Y-81387750D01*
X113362250Y-81331000D01*
X112292000Y-81329902D01*
X112247500Y-81334285D01*
X112204711Y-81347265D01*
X112165276Y-81368343D01*
X112130710Y-81396710D01*
X112102343Y-81431276D01*
X112081265Y-81470711D01*
X112068285Y-81513500D01*
X112063902Y-81558000D01*
X111506000Y-81558000D01*
X111506000Y-80174000D01*
X120850402Y-80174000D01*
X120851500Y-80469250D01*
X120908250Y-80526000D01*
X121293000Y-80526000D01*
X121293000Y-80003750D01*
X122039000Y-80003750D01*
X122039000Y-80526000D01*
X122423750Y-80526000D01*
X122480500Y-80469250D01*
X122481598Y-80174000D01*
X122477215Y-80129500D01*
X122464235Y-80086711D01*
X122443157Y-80047276D01*
X122414790Y-80012710D01*
X122380224Y-79984343D01*
X122340789Y-79963265D01*
X122298000Y-79950285D01*
X122253500Y-79945902D01*
X122095750Y-79947000D01*
X122039000Y-80003750D01*
X121293000Y-80003750D01*
X121236250Y-79947000D01*
X121078500Y-79945902D01*
X121034000Y-79950285D01*
X120991211Y-79963265D01*
X120951776Y-79984343D01*
X120917210Y-80012710D01*
X120888843Y-80047276D01*
X120867765Y-80086711D01*
X120854785Y-80129500D01*
X120850402Y-80174000D01*
X111506000Y-80174000D01*
X111506000Y-79592000D01*
X120934402Y-79592000D01*
X120938785Y-79636500D01*
X120951765Y-79679289D01*
X120972843Y-79718724D01*
X121001210Y-79753290D01*
X121035776Y-79781657D01*
X121075211Y-79802735D01*
X121118000Y-79815715D01*
X121162500Y-79820098D01*
X121320250Y-79819000D01*
X121377000Y-79762250D01*
X121377000Y-79240000D01*
X122123000Y-79240000D01*
X122123000Y-79762250D01*
X122179750Y-79819000D01*
X122337500Y-79820098D01*
X122382000Y-79815715D01*
X122424789Y-79802735D01*
X122464224Y-79781657D01*
X122498790Y-79753290D01*
X122527157Y-79718724D01*
X122548235Y-79679289D01*
X122561215Y-79636500D01*
X122565598Y-79592000D01*
X122564500Y-79296750D01*
X122507750Y-79240000D01*
X122123000Y-79240000D01*
X121377000Y-79240000D01*
X120992250Y-79240000D01*
X120935500Y-79296750D01*
X120934402Y-79592000D01*
X111506000Y-79592000D01*
X111506000Y-74930000D01*
X112117127Y-74930000D01*
X112060485Y-74976485D01*
G37*
%TD.AperFunction*%
%TD*%
M02*
