%TF.GenerationSoftware,KiCad,Pcbnew,(5.1.9)-1*%
%TF.CreationDate,2021-05-10T08:30:49+10:00*%
%TF.ProjectId,FlightBridgePCB,466c6967-6874-4427-9269-646765504342,rev?*%
%TF.SameCoordinates,Original*%
%TF.FileFunction,Copper,L1,Top*%
%TF.FilePolarity,Positive*%
%FSLAX46Y46*%
G04 Gerber Fmt 4.6, Leading zero omitted, Abs format (unit mm)*
G04 Created by KiCad (PCBNEW (5.1.9)-1) date 2021-05-10 08:30:49*
%MOMM*%
%LPD*%
G01*
G04 APERTURE LIST*
%TA.AperFunction,ComponentPad*%
%ADD10O,1.700000X1.700000*%
%TD*%
%TA.AperFunction,ComponentPad*%
%ADD11R,1.700000X1.700000*%
%TD*%
%TA.AperFunction,ComponentPad*%
%ADD12R,1.050000X1.500000*%
%TD*%
%TA.AperFunction,ComponentPad*%
%ADD13O,1.050000X1.500000*%
%TD*%
%TA.AperFunction,SMDPad,CuDef*%
%ADD14R,0.550000X1.500000*%
%TD*%
%TA.AperFunction,SMDPad,CuDef*%
%ADD15R,1.500000X0.550000*%
%TD*%
%TA.AperFunction,SMDPad,CuDef*%
%ADD16R,0.900000X0.800000*%
%TD*%
%TA.AperFunction,ComponentPad*%
%ADD17O,2.000000X1.905000*%
%TD*%
%TA.AperFunction,ComponentPad*%
%ADD18R,2.000000X1.905000*%
%TD*%
%TA.AperFunction,SMDPad,CuDef*%
%ADD19R,4.500000X2.000000*%
%TD*%
%TA.AperFunction,ViaPad*%
%ADD20C,0.800000*%
%TD*%
%TA.AperFunction,Conductor*%
%ADD21C,0.381000*%
%TD*%
%TA.AperFunction,Conductor*%
%ADD22C,0.508000*%
%TD*%
%TA.AperFunction,Conductor*%
%ADD23C,0.254000*%
%TD*%
%TA.AperFunction,Conductor*%
%ADD24C,0.100000*%
%TD*%
G04 APERTURE END LIST*
D10*
%TO.P,J4,4*%
%TO.N,SCL*%
X121158000Y-93726000D03*
%TO.P,J4,3*%
%TO.N,SDA*%
X123698000Y-93726000D03*
%TO.P,J4,2*%
%TO.N,GND*%
X126238000Y-93726000D03*
D11*
%TO.P,J4,1*%
%TO.N,+3V3*%
X128778000Y-93726000D03*
%TD*%
D10*
%TO.P,J3,3*%
%TO.N,MOSI*%
X132334000Y-93726000D03*
%TO.P,J3,2*%
%TO.N,GND1*%
X134874000Y-93726000D03*
D11*
%TO.P,J3,1*%
%TO.N,+5V*%
X137414000Y-93726000D03*
%TD*%
D12*
%TO.P,U2,1*%
%TO.N,GND*%
X130048000Y-77470000D03*
D13*
%TO.P,U2,3*%
%TO.N,+3V3*%
X132588000Y-77470000D03*
%TO.P,U2,2*%
%TO.N,Vin*%
X131318000Y-77470000D03*
%TD*%
%TO.P,C8,2*%
%TO.N,GND*%
%TA.AperFunction,SMDPad,CuDef*%
G36*
G01*
X170862500Y-89883000D02*
X170862500Y-88933000D01*
G75*
G02*
X171112500Y-88683000I250000J0D01*
G01*
X171787500Y-88683000D01*
G75*
G02*
X172037500Y-88933000I0J-250000D01*
G01*
X172037500Y-89883000D01*
G75*
G02*
X171787500Y-90133000I-250000J0D01*
G01*
X171112500Y-90133000D01*
G75*
G02*
X170862500Y-89883000I0J250000D01*
G01*
G37*
%TD.AperFunction*%
%TO.P,C8,1*%
%TO.N,+3V3*%
%TA.AperFunction,SMDPad,CuDef*%
G36*
G01*
X168787500Y-89883000D02*
X168787500Y-88933000D01*
G75*
G02*
X169037500Y-88683000I250000J0D01*
G01*
X169712500Y-88683000D01*
G75*
G02*
X169962500Y-88933000I0J-250000D01*
G01*
X169962500Y-89883000D01*
G75*
G02*
X169712500Y-90133000I-250000J0D01*
G01*
X169037500Y-90133000D01*
G75*
G02*
X168787500Y-89883000I0J250000D01*
G01*
G37*
%TD.AperFunction*%
%TD*%
%TO.P,C7,2*%
%TO.N,GND*%
%TA.AperFunction,SMDPad,CuDef*%
G36*
G01*
X168449500Y-78453000D02*
X168449500Y-77503000D01*
G75*
G02*
X168699500Y-77253000I250000J0D01*
G01*
X169374500Y-77253000D01*
G75*
G02*
X169624500Y-77503000I0J-250000D01*
G01*
X169624500Y-78453000D01*
G75*
G02*
X169374500Y-78703000I-250000J0D01*
G01*
X168699500Y-78703000D01*
G75*
G02*
X168449500Y-78453000I0J250000D01*
G01*
G37*
%TD.AperFunction*%
%TO.P,C7,1*%
%TO.N,+3V3*%
%TA.AperFunction,SMDPad,CuDef*%
G36*
G01*
X166374500Y-78453000D02*
X166374500Y-77503000D01*
G75*
G02*
X166624500Y-77253000I250000J0D01*
G01*
X167299500Y-77253000D01*
G75*
G02*
X167549500Y-77503000I0J-250000D01*
G01*
X167549500Y-78453000D01*
G75*
G02*
X167299500Y-78703000I-250000J0D01*
G01*
X166624500Y-78703000D01*
G75*
G02*
X166374500Y-78453000I0J250000D01*
G01*
G37*
%TD.AperFunction*%
%TD*%
D14*
%TO.P,U1,64*%
%TO.N,+3V3*%
X164500000Y-96200000D03*
%TO.P,U1,63*%
%TO.N,GND*%
X163700000Y-96200000D03*
%TO.P,U1,62*%
%TO.N,Net-(U1-Pad62)*%
X162900000Y-96200000D03*
%TO.P,U1,61*%
%TO.N,Net-(U1-Pad61)*%
X162100000Y-96200000D03*
%TO.P,U1,60*%
%TO.N,Net-(U1-Pad60)*%
X161300000Y-96200000D03*
%TO.P,U1,59*%
%TO.N,Net-(U1-Pad59)*%
X160500000Y-96200000D03*
%TO.P,U1,58*%
%TO.N,Net-(U1-Pad58)*%
X159700000Y-96200000D03*
%TO.P,U1,57*%
%TO.N,Net-(U1-Pad57)*%
X158900000Y-96200000D03*
%TO.P,U1,56*%
%TO.N,Net-(U1-Pad56)*%
X158100000Y-96200000D03*
%TO.P,U1,55*%
%TO.N,Net-(U1-Pad55)*%
X157300000Y-96200000D03*
%TO.P,U1,54*%
%TO.N,Net-(U1-Pad54)*%
X156500000Y-96200000D03*
%TO.P,U1,53*%
%TO.N,GND*%
X155700000Y-96200000D03*
%TO.P,U1,52*%
%TO.N,+3V3*%
X154900000Y-96200000D03*
%TO.P,U1,51*%
%TO.N,Net-(U1-Pad51)*%
X154100000Y-96200000D03*
%TO.P,U1,50*%
%TO.N,Net-(U1-Pad50)*%
X153300000Y-96200000D03*
%TO.P,U1,49*%
%TO.N,A*%
X152500000Y-96200000D03*
D15*
%TO.P,U1,48*%
%TO.N,R*%
X150800000Y-94500000D03*
%TO.P,U1,47*%
%TO.N,N*%
X150800000Y-93700000D03*
%TO.P,U1,46*%
%TO.N,~POWER_EN~*%
X150800000Y-92900000D03*
%TO.P,U1,45*%
%TO.N,Net-(U1-Pad45)*%
X150800000Y-92100000D03*
%TO.P,U1,44*%
%TO.N,Net-(U1-Pad44)*%
X150800000Y-91300000D03*
%TO.P,U1,43*%
%TO.N,Net-(U1-Pad43)*%
X150800000Y-90500000D03*
%TO.P,U1,42*%
%TO.N,Net-(U1-Pad42)*%
X150800000Y-89700000D03*
%TO.P,U1,41*%
%TO.N,Net-(U1-Pad41)*%
X150800000Y-88900000D03*
%TO.P,U1,40*%
%TO.N,Net-(U1-Pad40)*%
X150800000Y-88100000D03*
%TO.P,U1,39*%
%TO.N,Net-(U1-Pad39)*%
X150800000Y-87300000D03*
%TO.P,U1,38*%
%TO.N,Net-(U1-Pad38)*%
X150800000Y-86500000D03*
%TO.P,U1,37*%
%TO.N,Net-(U1-Pad37)*%
X150800000Y-85700000D03*
%TO.P,U1,36*%
%TO.N,SUPERVISOR_RESET*%
X150800000Y-84900000D03*
%TO.P,U1,35*%
%TO.N,ABORT*%
X150800000Y-84100000D03*
%TO.P,U1,34*%
%TO.N,Net-(U1-Pad34)*%
X150800000Y-83300000D03*
%TO.P,U1,33*%
%TO.N,Net-(U1-Pad33)*%
X150800000Y-82500000D03*
D14*
%TO.P,U1,32*%
%TO.N,Net-(U1-Pad32)*%
X152500000Y-80800000D03*
%TO.P,U1,31*%
%TO.N,Net-(U1-Pad31)*%
X153300000Y-80800000D03*
%TO.P,U1,30*%
%TO.N,Net-(U1-Pad30)*%
X154100000Y-80800000D03*
%TO.P,U1,29*%
%TO.N,Net-(U1-Pad29)*%
X154900000Y-80800000D03*
%TO.P,U1,28*%
%TO.N,Net-(U1-Pad28)*%
X155700000Y-80800000D03*
%TO.P,U1,27*%
%TO.N,Net-(U1-Pad27)*%
X156500000Y-80800000D03*
%TO.P,U1,26*%
%TO.N,Net-(U1-Pad26)*%
X157300000Y-80800000D03*
%TO.P,U1,25*%
%TO.N,Net-(U1-Pad25)*%
X158100000Y-80800000D03*
%TO.P,U1,24*%
%TO.N,Net-(C1-Pad1)*%
X158900000Y-80800000D03*
%TO.P,U1,23*%
%TO.N,Net-(C2-Pad2)*%
X159700000Y-80800000D03*
%TO.P,U1,22*%
%TO.N,GND*%
X160500000Y-80800000D03*
%TO.P,U1,21*%
%TO.N,+3V3*%
X161300000Y-80800000D03*
%TO.P,U1,20*%
%TO.N,~RST~*%
X162100000Y-80800000D03*
%TO.P,U1,19*%
%TO.N,Net-(U1-Pad19)*%
X162900000Y-80800000D03*
%TO.P,U1,18*%
%TO.N,Net-(U1-Pad18)*%
X163700000Y-80800000D03*
%TO.P,U1,17*%
%TO.N,Net-(U1-Pad17)*%
X164500000Y-80800000D03*
D15*
%TO.P,U1,16*%
%TO.N,Net-(U1-Pad16)*%
X166200000Y-82500000D03*
%TO.P,U1,15*%
%TO.N,Net-(U1-Pad15)*%
X166200000Y-83300000D03*
%TO.P,U1,14*%
%TO.N,Net-(U1-Pad14)*%
X166200000Y-84100000D03*
%TO.P,U1,13*%
%TO.N,Net-(U1-Pad13)*%
X166200000Y-84900000D03*
%TO.P,U1,12*%
%TO.N,Net-(U1-Pad12)*%
X166200000Y-85700000D03*
%TO.P,U1,11*%
%TO.N,SCK*%
X166200000Y-86500000D03*
%TO.P,U1,10*%
%TO.N,Net-(U1-Pad10)*%
X166200000Y-87300000D03*
%TO.P,U1,9*%
%TO.N,Net-(U1-Pad9)*%
X166200000Y-88100000D03*
%TO.P,U1,8*%
%TO.N,Net-(U1-Pad8)*%
X166200000Y-88900000D03*
%TO.P,U1,7*%
%TO.N,Net-(U1-Pad7)*%
X166200000Y-89700000D03*
%TO.P,U1,6*%
%TO.N,Net-(U1-Pad6)*%
X166200000Y-90500000D03*
%TO.P,U1,5*%
%TO.N,Net-(U1-Pad5)*%
X166200000Y-91300000D03*
%TO.P,U1,4*%
%TO.N,Net-(U1-Pad4)*%
X166200000Y-92100000D03*
%TO.P,U1,3*%
%TO.N,MISO*%
X166200000Y-92900000D03*
%TO.P,U1,2*%
%TO.N,MOSI*%
X166200000Y-93700000D03*
%TO.P,U1,1*%
%TO.N,Net-(U1-Pad1)*%
X166200000Y-94500000D03*
%TD*%
%TO.P,C4,2*%
%TO.N,GND*%
%TA.AperFunction,SMDPad,CuDef*%
G36*
G01*
X135603000Y-76665500D02*
X134653000Y-76665500D01*
G75*
G02*
X134403000Y-76415500I0J250000D01*
G01*
X134403000Y-75740500D01*
G75*
G02*
X134653000Y-75490500I250000J0D01*
G01*
X135603000Y-75490500D01*
G75*
G02*
X135853000Y-75740500I0J-250000D01*
G01*
X135853000Y-76415500D01*
G75*
G02*
X135603000Y-76665500I-250000J0D01*
G01*
G37*
%TD.AperFunction*%
%TO.P,C4,1*%
%TO.N,+3V3*%
%TA.AperFunction,SMDPad,CuDef*%
G36*
G01*
X135603000Y-78740500D02*
X134653000Y-78740500D01*
G75*
G02*
X134403000Y-78490500I0J250000D01*
G01*
X134403000Y-77815500D01*
G75*
G02*
X134653000Y-77565500I250000J0D01*
G01*
X135603000Y-77565500D01*
G75*
G02*
X135853000Y-77815500I0J-250000D01*
G01*
X135853000Y-78490500D01*
G75*
G02*
X135603000Y-78740500I-250000J0D01*
G01*
G37*
%TD.AperFunction*%
%TD*%
%TO.P,C3,2*%
%TO.N,GND*%
%TA.AperFunction,SMDPad,CuDef*%
G36*
G01*
X127729000Y-76612500D02*
X126779000Y-76612500D01*
G75*
G02*
X126529000Y-76362500I0J250000D01*
G01*
X126529000Y-75687500D01*
G75*
G02*
X126779000Y-75437500I250000J0D01*
G01*
X127729000Y-75437500D01*
G75*
G02*
X127979000Y-75687500I0J-250000D01*
G01*
X127979000Y-76362500D01*
G75*
G02*
X127729000Y-76612500I-250000J0D01*
G01*
G37*
%TD.AperFunction*%
%TO.P,C3,1*%
%TO.N,Vin*%
%TA.AperFunction,SMDPad,CuDef*%
G36*
G01*
X127729000Y-78687500D02*
X126779000Y-78687500D01*
G75*
G02*
X126529000Y-78437500I0J250000D01*
G01*
X126529000Y-77762500D01*
G75*
G02*
X126779000Y-77512500I250000J0D01*
G01*
X127729000Y-77512500D01*
G75*
G02*
X127979000Y-77762500I0J-250000D01*
G01*
X127979000Y-78437500D01*
G75*
G02*
X127729000Y-78687500I-250000J0D01*
G01*
G37*
%TD.AperFunction*%
%TD*%
D16*
%TO.P,Q2,3*%
%TO.N,Net-(Q1-Pad1)*%
X123587000Y-88519000D03*
%TO.P,Q2,2*%
%TO.N,GND*%
X125587000Y-87569000D03*
%TO.P,Q2,1*%
%TO.N,Net-(Q2-Pad1)*%
X125587000Y-89469000D03*
%TD*%
%TO.P,J5,3*%
%TO.N,Vin*%
%TA.AperFunction,ComponentPad*%
G36*
G01*
X114542000Y-78208000D02*
X113042000Y-78208000D01*
G75*
G02*
X112292000Y-77458000I0J750000D01*
G01*
X112292000Y-75958000D01*
G75*
G02*
X113042000Y-75208000I750000J0D01*
G01*
X114542000Y-75208000D01*
G75*
G02*
X115292000Y-75958000I0J-750000D01*
G01*
X115292000Y-77458000D01*
G75*
G02*
X114542000Y-78208000I-750000J0D01*
G01*
G37*
%TD.AperFunction*%
%TO.P,J5,2*%
%TO.N,GND*%
%TA.AperFunction,ComponentPad*%
G36*
G01*
X114542000Y-84558000D02*
X113042000Y-84558000D01*
G75*
G02*
X112292000Y-83808000I0J750000D01*
G01*
X112292000Y-82308000D01*
G75*
G02*
X113042000Y-81558000I750000J0D01*
G01*
X114542000Y-81558000D01*
G75*
G02*
X115292000Y-82308000I0J-750000D01*
G01*
X115292000Y-83808000D01*
G75*
G02*
X114542000Y-84558000I-750000J0D01*
G01*
G37*
%TD.AperFunction*%
%TO.P,J5,1*%
%TO.N,GND1*%
%TA.AperFunction,ComponentPad*%
G36*
G01*
X114542000Y-90908000D02*
X113042000Y-90908000D01*
G75*
G02*
X112292000Y-90158000I0J750000D01*
G01*
X112292000Y-88658000D01*
G75*
G02*
X113042000Y-87908000I750000J0D01*
G01*
X114542000Y-87908000D01*
G75*
G02*
X115292000Y-88658000I0J-750000D01*
G01*
X115292000Y-90158000D01*
G75*
G02*
X114542000Y-90908000I-750000J0D01*
G01*
G37*
%TD.AperFunction*%
%TD*%
D17*
%TO.P,Q1,3*%
%TO.N,GND*%
X120015000Y-83820000D03*
%TO.P,Q1,2*%
%TO.N,GND1*%
X120015000Y-86360000D03*
D18*
%TO.P,Q1,1*%
%TO.N,Net-(Q1-Pad1)*%
X120015000Y-88900000D03*
%TD*%
%TO.P,R10,2*%
%TO.N,~POWER_EN~*%
%TA.AperFunction,SMDPad,CuDef*%
G36*
G01*
X129321000Y-89858001D02*
X129321000Y-88957999D01*
G75*
G02*
X129570999Y-88708000I249999J0D01*
G01*
X130271001Y-88708000D01*
G75*
G02*
X130521000Y-88957999I0J-249999D01*
G01*
X130521000Y-89858001D01*
G75*
G02*
X130271001Y-90108000I-249999J0D01*
G01*
X129570999Y-90108000D01*
G75*
G02*
X129321000Y-89858001I0J249999D01*
G01*
G37*
%TD.AperFunction*%
%TO.P,R10,1*%
%TO.N,Net-(Q2-Pad1)*%
%TA.AperFunction,SMDPad,CuDef*%
G36*
G01*
X127321000Y-89858001D02*
X127321000Y-88957999D01*
G75*
G02*
X127570999Y-88708000I249999J0D01*
G01*
X128271001Y-88708000D01*
G75*
G02*
X128521000Y-88957999I0J-249999D01*
G01*
X128521000Y-89858001D01*
G75*
G02*
X128271001Y-90108000I-249999J0D01*
G01*
X127570999Y-90108000D01*
G75*
G02*
X127321000Y-89858001I0J249999D01*
G01*
G37*
%TD.AperFunction*%
%TD*%
%TO.P,R9,2*%
%TO.N,Net-(Q1-Pad1)*%
%TA.AperFunction,SMDPad,CuDef*%
G36*
G01*
X123374999Y-84839000D02*
X124275001Y-84839000D01*
G75*
G02*
X124525000Y-85088999I0J-249999D01*
G01*
X124525000Y-85789001D01*
G75*
G02*
X124275001Y-86039000I-249999J0D01*
G01*
X123374999Y-86039000D01*
G75*
G02*
X123125000Y-85789001I0J249999D01*
G01*
X123125000Y-85088999D01*
G75*
G02*
X123374999Y-84839000I249999J0D01*
G01*
G37*
%TD.AperFunction*%
%TO.P,R9,1*%
%TO.N,Vin*%
%TA.AperFunction,SMDPad,CuDef*%
G36*
G01*
X123374999Y-82839000D02*
X124275001Y-82839000D01*
G75*
G02*
X124525000Y-83088999I0J-249999D01*
G01*
X124525000Y-83789001D01*
G75*
G02*
X124275001Y-84039000I-249999J0D01*
G01*
X123374999Y-84039000D01*
G75*
G02*
X123125000Y-83789001I0J249999D01*
G01*
X123125000Y-83088999D01*
G75*
G02*
X123374999Y-82839000I249999J0D01*
G01*
G37*
%TD.AperFunction*%
%TD*%
D10*
%TO.P,J2,6*%
%TO.N,GND*%
X170210000Y-81170000D03*
%TO.P,J2,5*%
%TO.N,~RST~*%
X172750000Y-81170000D03*
%TO.P,J2,4*%
%TO.N,MOSI*%
X170210000Y-83710000D03*
%TO.P,J2,3*%
%TO.N,SCK*%
X172750000Y-83710000D03*
%TO.P,J2,2*%
%TO.N,+3V3*%
X170210000Y-86250000D03*
D11*
%TO.P,J2,1*%
%TO.N,MISO*%
X172750000Y-86250000D03*
%TD*%
%TO.P,R6,2*%
%TO.N,Net-(D5-Pad2)*%
%TA.AperFunction,SMDPad,CuDef*%
G36*
G01*
X122282000Y-75241999D02*
X122282000Y-76142001D01*
G75*
G02*
X122032001Y-76392000I-249999J0D01*
G01*
X121331999Y-76392000D01*
G75*
G02*
X121082000Y-76142001I0J249999D01*
G01*
X121082000Y-75241999D01*
G75*
G02*
X121331999Y-74992000I249999J0D01*
G01*
X122032001Y-74992000D01*
G75*
G02*
X122282000Y-75241999I0J-249999D01*
G01*
G37*
%TD.AperFunction*%
%TO.P,R6,1*%
%TO.N,+5V*%
%TA.AperFunction,SMDPad,CuDef*%
G36*
G01*
X124282000Y-75241999D02*
X124282000Y-76142001D01*
G75*
G02*
X124032001Y-76392000I-249999J0D01*
G01*
X123331999Y-76392000D01*
G75*
G02*
X123082000Y-76142001I0J249999D01*
G01*
X123082000Y-75241999D01*
G75*
G02*
X123331999Y-74992000I249999J0D01*
G01*
X124032001Y-74992000D01*
G75*
G02*
X124282000Y-75241999I0J-249999D01*
G01*
G37*
%TD.AperFunction*%
%TD*%
%TO.P,R5,2*%
%TO.N,Net-(D4-Pad2)*%
%TA.AperFunction,SMDPad,CuDef*%
G36*
G01*
X122298000Y-78035999D02*
X122298000Y-78936001D01*
G75*
G02*
X122048001Y-79186000I-249999J0D01*
G01*
X121347999Y-79186000D01*
G75*
G02*
X121098000Y-78936001I0J249999D01*
G01*
X121098000Y-78035999D01*
G75*
G02*
X121347999Y-77786000I249999J0D01*
G01*
X122048001Y-77786000D01*
G75*
G02*
X122298000Y-78035999I0J-249999D01*
G01*
G37*
%TD.AperFunction*%
%TO.P,R5,1*%
%TO.N,+3V3*%
%TA.AperFunction,SMDPad,CuDef*%
G36*
G01*
X124298000Y-78035999D02*
X124298000Y-78936001D01*
G75*
G02*
X124048001Y-79186000I-249999J0D01*
G01*
X123347999Y-79186000D01*
G75*
G02*
X123098000Y-78936001I0J249999D01*
G01*
X123098000Y-78035999D01*
G75*
G02*
X123347999Y-77786000I249999J0D01*
G01*
X124048001Y-77786000D01*
G75*
G02*
X124298000Y-78035999I0J-249999D01*
G01*
G37*
%TD.AperFunction*%
%TD*%
%TO.P,R4,2*%
%TO.N,Net-(D3-Pad2)*%
%TA.AperFunction,SMDPad,CuDef*%
G36*
G01*
X147049999Y-90400000D02*
X147950001Y-90400000D01*
G75*
G02*
X148200000Y-90649999I0J-249999D01*
G01*
X148200000Y-91350001D01*
G75*
G02*
X147950001Y-91600000I-249999J0D01*
G01*
X147049999Y-91600000D01*
G75*
G02*
X146800000Y-91350001I0J249999D01*
G01*
X146800000Y-90649999D01*
G75*
G02*
X147049999Y-90400000I249999J0D01*
G01*
G37*
%TD.AperFunction*%
%TO.P,R4,1*%
%TO.N,N*%
%TA.AperFunction,SMDPad,CuDef*%
G36*
G01*
X147049999Y-88400000D02*
X147950001Y-88400000D01*
G75*
G02*
X148200000Y-88649999I0J-249999D01*
G01*
X148200000Y-89350001D01*
G75*
G02*
X147950001Y-89600000I-249999J0D01*
G01*
X147049999Y-89600000D01*
G75*
G02*
X146800000Y-89350001I0J249999D01*
G01*
X146800000Y-88649999D01*
G75*
G02*
X147049999Y-88400000I249999J0D01*
G01*
G37*
%TD.AperFunction*%
%TD*%
%TO.P,R3,2*%
%TO.N,Net-(D2-Pad2)*%
%TA.AperFunction,SMDPad,CuDef*%
G36*
G01*
X143803999Y-90400000D02*
X144704001Y-90400000D01*
G75*
G02*
X144954000Y-90649999I0J-249999D01*
G01*
X144954000Y-91350001D01*
G75*
G02*
X144704001Y-91600000I-249999J0D01*
G01*
X143803999Y-91600000D01*
G75*
G02*
X143554000Y-91350001I0J249999D01*
G01*
X143554000Y-90649999D01*
G75*
G02*
X143803999Y-90400000I249999J0D01*
G01*
G37*
%TD.AperFunction*%
%TO.P,R3,1*%
%TO.N,R*%
%TA.AperFunction,SMDPad,CuDef*%
G36*
G01*
X143803999Y-88400000D02*
X144704001Y-88400000D01*
G75*
G02*
X144954000Y-88649999I0J-249999D01*
G01*
X144954000Y-89350001D01*
G75*
G02*
X144704001Y-89600000I-249999J0D01*
G01*
X143803999Y-89600000D01*
G75*
G02*
X143554000Y-89350001I0J249999D01*
G01*
X143554000Y-88649999D01*
G75*
G02*
X143803999Y-88400000I249999J0D01*
G01*
G37*
%TD.AperFunction*%
%TD*%
%TO.P,R2,2*%
%TO.N,Net-(D1-Pad2)*%
%TA.AperFunction,SMDPad,CuDef*%
G36*
G01*
X140549999Y-90400000D02*
X141450001Y-90400000D01*
G75*
G02*
X141700000Y-90649999I0J-249999D01*
G01*
X141700000Y-91350001D01*
G75*
G02*
X141450001Y-91600000I-249999J0D01*
G01*
X140549999Y-91600000D01*
G75*
G02*
X140300000Y-91350001I0J249999D01*
G01*
X140300000Y-90649999D01*
G75*
G02*
X140549999Y-90400000I249999J0D01*
G01*
G37*
%TD.AperFunction*%
%TO.P,R2,1*%
%TO.N,A*%
%TA.AperFunction,SMDPad,CuDef*%
G36*
G01*
X140549999Y-88400000D02*
X141450001Y-88400000D01*
G75*
G02*
X141700000Y-88649999I0J-249999D01*
G01*
X141700000Y-89350001D01*
G75*
G02*
X141450001Y-89600000I-249999J0D01*
G01*
X140549999Y-89600000D01*
G75*
G02*
X140300000Y-89350001I0J249999D01*
G01*
X140300000Y-88649999D01*
G75*
G02*
X140549999Y-88400000I249999J0D01*
G01*
G37*
%TD.AperFunction*%
%TD*%
%TO.P,D5,2*%
%TO.N,Net-(D5-Pad2)*%
%TA.AperFunction,SMDPad,CuDef*%
G36*
G01*
X118864500Y-76092001D02*
X118864500Y-75291999D01*
G75*
G02*
X119114499Y-75042000I249999J0D01*
G01*
X119939501Y-75042000D01*
G75*
G02*
X120189500Y-75291999I0J-249999D01*
G01*
X120189500Y-76092001D01*
G75*
G02*
X119939501Y-76342000I-249999J0D01*
G01*
X119114499Y-76342000D01*
G75*
G02*
X118864500Y-76092001I0J249999D01*
G01*
G37*
%TD.AperFunction*%
%TO.P,D5,1*%
%TO.N,GND*%
%TA.AperFunction,SMDPad,CuDef*%
G36*
G01*
X116939500Y-76092001D02*
X116939500Y-75291999D01*
G75*
G02*
X117189499Y-75042000I249999J0D01*
G01*
X118014501Y-75042000D01*
G75*
G02*
X118264500Y-75291999I0J-249999D01*
G01*
X118264500Y-76092001D01*
G75*
G02*
X118014501Y-76342000I-249999J0D01*
G01*
X117189499Y-76342000D01*
G75*
G02*
X116939500Y-76092001I0J249999D01*
G01*
G37*
%TD.AperFunction*%
%TD*%
%TO.P,D4,2*%
%TO.N,Net-(D4-Pad2)*%
%TA.AperFunction,SMDPad,CuDef*%
G36*
G01*
X118971500Y-78886001D02*
X118971500Y-78085999D01*
G75*
G02*
X119221499Y-77836000I249999J0D01*
G01*
X120046501Y-77836000D01*
G75*
G02*
X120296500Y-78085999I0J-249999D01*
G01*
X120296500Y-78886001D01*
G75*
G02*
X120046501Y-79136000I-249999J0D01*
G01*
X119221499Y-79136000D01*
G75*
G02*
X118971500Y-78886001I0J249999D01*
G01*
G37*
%TD.AperFunction*%
%TO.P,D4,1*%
%TO.N,GND*%
%TA.AperFunction,SMDPad,CuDef*%
G36*
G01*
X117046500Y-78886001D02*
X117046500Y-78085999D01*
G75*
G02*
X117296499Y-77836000I249999J0D01*
G01*
X118121501Y-77836000D01*
G75*
G02*
X118371500Y-78085999I0J-249999D01*
G01*
X118371500Y-78886001D01*
G75*
G02*
X118121501Y-79136000I-249999J0D01*
G01*
X117296499Y-79136000D01*
G75*
G02*
X117046500Y-78886001I0J249999D01*
G01*
G37*
%TD.AperFunction*%
%TD*%
%TO.P,D3,2*%
%TO.N,Net-(D3-Pad2)*%
%TA.AperFunction,SMDPad,CuDef*%
G36*
G01*
X147900001Y-94162500D02*
X147099999Y-94162500D01*
G75*
G02*
X146850000Y-93912501I0J249999D01*
G01*
X146850000Y-93087499D01*
G75*
G02*
X147099999Y-92837500I249999J0D01*
G01*
X147900001Y-92837500D01*
G75*
G02*
X148150000Y-93087499I0J-249999D01*
G01*
X148150000Y-93912501D01*
G75*
G02*
X147900001Y-94162500I-249999J0D01*
G01*
G37*
%TD.AperFunction*%
%TO.P,D3,1*%
%TO.N,GND*%
%TA.AperFunction,SMDPad,CuDef*%
G36*
G01*
X147900001Y-96087500D02*
X147099999Y-96087500D01*
G75*
G02*
X146850000Y-95837501I0J249999D01*
G01*
X146850000Y-95012499D01*
G75*
G02*
X147099999Y-94762500I249999J0D01*
G01*
X147900001Y-94762500D01*
G75*
G02*
X148150000Y-95012499I0J-249999D01*
G01*
X148150000Y-95837501D01*
G75*
G02*
X147900001Y-96087500I-249999J0D01*
G01*
G37*
%TD.AperFunction*%
%TD*%
%TO.P,D2,2*%
%TO.N,Net-(D2-Pad2)*%
%TA.AperFunction,SMDPad,CuDef*%
G36*
G01*
X144654001Y-94162500D02*
X143853999Y-94162500D01*
G75*
G02*
X143604000Y-93912501I0J249999D01*
G01*
X143604000Y-93087499D01*
G75*
G02*
X143853999Y-92837500I249999J0D01*
G01*
X144654001Y-92837500D01*
G75*
G02*
X144904000Y-93087499I0J-249999D01*
G01*
X144904000Y-93912501D01*
G75*
G02*
X144654001Y-94162500I-249999J0D01*
G01*
G37*
%TD.AperFunction*%
%TO.P,D2,1*%
%TO.N,GND*%
%TA.AperFunction,SMDPad,CuDef*%
G36*
G01*
X144654001Y-96087500D02*
X143853999Y-96087500D01*
G75*
G02*
X143604000Y-95837501I0J249999D01*
G01*
X143604000Y-95012499D01*
G75*
G02*
X143853999Y-94762500I249999J0D01*
G01*
X144654001Y-94762500D01*
G75*
G02*
X144904000Y-95012499I0J-249999D01*
G01*
X144904000Y-95837501D01*
G75*
G02*
X144654001Y-96087500I-249999J0D01*
G01*
G37*
%TD.AperFunction*%
%TD*%
%TO.P,D1,2*%
%TO.N,Net-(D1-Pad2)*%
%TA.AperFunction,SMDPad,CuDef*%
G36*
G01*
X141400001Y-94162500D02*
X140599999Y-94162500D01*
G75*
G02*
X140350000Y-93912501I0J249999D01*
G01*
X140350000Y-93087499D01*
G75*
G02*
X140599999Y-92837500I249999J0D01*
G01*
X141400001Y-92837500D01*
G75*
G02*
X141650000Y-93087499I0J-249999D01*
G01*
X141650000Y-93912501D01*
G75*
G02*
X141400001Y-94162500I-249999J0D01*
G01*
G37*
%TD.AperFunction*%
%TO.P,D1,1*%
%TO.N,GND*%
%TA.AperFunction,SMDPad,CuDef*%
G36*
G01*
X141400001Y-96087500D02*
X140599999Y-96087500D01*
G75*
G02*
X140350000Y-95837501I0J249999D01*
G01*
X140350000Y-95012499D01*
G75*
G02*
X140599999Y-94762500I249999J0D01*
G01*
X141400001Y-94762500D01*
G75*
G02*
X141650000Y-95012499I0J-249999D01*
G01*
X141650000Y-95837501D01*
G75*
G02*
X141400001Y-96087500I-249999J0D01*
G01*
G37*
%TD.AperFunction*%
%TD*%
D19*
%TO.P,Y1,2*%
%TO.N,Net-(C2-Pad2)*%
X163389000Y-77000000D03*
%TO.P,Y1,1*%
%TO.N,Net-(C1-Pad1)*%
X154889000Y-77000000D03*
%TD*%
%TO.P,R1,2*%
%TO.N,~RST~*%
%TA.AperFunction,SMDPad,CuDef*%
G36*
G01*
X172501000Y-78428001D02*
X172501000Y-77527999D01*
G75*
G02*
X172750999Y-77278000I249999J0D01*
G01*
X173451001Y-77278000D01*
G75*
G02*
X173701000Y-77527999I0J-249999D01*
G01*
X173701000Y-78428001D01*
G75*
G02*
X173451001Y-78678000I-249999J0D01*
G01*
X172750999Y-78678000D01*
G75*
G02*
X172501000Y-78428001I0J249999D01*
G01*
G37*
%TD.AperFunction*%
%TO.P,R1,1*%
%TO.N,+3V3*%
%TA.AperFunction,SMDPad,CuDef*%
G36*
G01*
X170501000Y-78428001D02*
X170501000Y-77527999D01*
G75*
G02*
X170750999Y-77278000I249999J0D01*
G01*
X171451001Y-77278000D01*
G75*
G02*
X171701000Y-77527999I0J-249999D01*
G01*
X171701000Y-78428001D01*
G75*
G02*
X171451001Y-78678000I-249999J0D01*
G01*
X170750999Y-78678000D01*
G75*
G02*
X170501000Y-78428001I0J249999D01*
G01*
G37*
%TD.AperFunction*%
%TD*%
D10*
%TO.P,J1,40*%
%TO.N,Net-(J1-Pad40)*%
X166878000Y-70234000D03*
%TO.P,J1,39*%
%TO.N,GND1*%
X166878000Y-72774000D03*
%TO.P,J1,38*%
%TO.N,Net-(J1-Pad38)*%
X164338000Y-70234000D03*
%TO.P,J1,37*%
%TO.N,Net-(J1-Pad37)*%
X164338000Y-72774000D03*
%TO.P,J1,36*%
%TO.N,Net-(J1-Pad36)*%
X161798000Y-70234000D03*
%TO.P,J1,35*%
%TO.N,Net-(J1-Pad35)*%
X161798000Y-72774000D03*
%TO.P,J1,34*%
%TO.N,GND1*%
X159258000Y-70234000D03*
%TO.P,J1,33*%
%TO.N,Net-(J1-Pad33)*%
X159258000Y-72774000D03*
%TO.P,J1,32*%
%TO.N,Net-(J1-Pad32)*%
X156718000Y-70234000D03*
%TO.P,J1,31*%
%TO.N,Net-(J1-Pad31)*%
X156718000Y-72774000D03*
%TO.P,J1,30*%
%TO.N,GND1*%
X154178000Y-70234000D03*
%TO.P,J1,29*%
%TO.N,Net-(J1-Pad29)*%
X154178000Y-72774000D03*
%TO.P,J1,28*%
%TO.N,Net-(J1-Pad28)*%
X151638000Y-70234000D03*
%TO.P,J1,27*%
%TO.N,Net-(J1-Pad27)*%
X151638000Y-72774000D03*
%TO.P,J1,26*%
%TO.N,Net-(J1-Pad26)*%
X149098000Y-70234000D03*
%TO.P,J1,25*%
%TO.N,GND1*%
X149098000Y-72774000D03*
%TO.P,J1,24*%
%TO.N,Net-(J1-Pad24)*%
X146558000Y-70234000D03*
%TO.P,J1,23*%
%TO.N,Net-(J1-Pad23)*%
X146558000Y-72774000D03*
%TO.P,J1,22*%
%TO.N,Net-(J1-Pad22)*%
X144018000Y-70234000D03*
%TO.P,J1,21*%
%TO.N,Net-(J1-Pad21)*%
X144018000Y-72774000D03*
%TO.P,J1,20*%
%TO.N,GND1*%
X141478000Y-70234000D03*
%TO.P,J1,19*%
%TO.N,Net-(J1-Pad19)*%
X141478000Y-72774000D03*
%TO.P,J1,18*%
%TO.N,Net-(J1-Pad18)*%
X138938000Y-70234000D03*
%TO.P,J1,17*%
%TO.N,Net-(J1-Pad17)*%
X138938000Y-72774000D03*
%TO.P,J1,16*%
%TO.N,SUPERVISOR_RESET*%
X136398000Y-70234000D03*
%TO.P,J1,15*%
%TO.N,ABORT*%
X136398000Y-72774000D03*
%TO.P,J1,14*%
%TO.N,GND1*%
X133858000Y-70234000D03*
%TO.P,J1,13*%
%TO.N,Net-(J1-Pad13)*%
X133858000Y-72774000D03*
%TO.P,J1,12*%
%TO.N,Net-(J1-Pad12)*%
X131318000Y-70234000D03*
%TO.P,J1,11*%
%TO.N,Net-(J1-Pad11)*%
X131318000Y-72774000D03*
%TO.P,J1,10*%
%TO.N,UART_TELEM_PI*%
X128778000Y-70234000D03*
%TO.P,J1,9*%
%TO.N,GND1*%
X128778000Y-72774000D03*
%TO.P,J1,8*%
%TO.N,MOSI*%
X126238000Y-70234000D03*
%TO.P,J1,7*%
%TO.N,Net-(J1-Pad7)*%
X126238000Y-72774000D03*
%TO.P,J1,6*%
%TO.N,GND1*%
X123698000Y-70234000D03*
%TO.P,J1,5*%
%TO.N,SCL*%
X123698000Y-72774000D03*
%TO.P,J1,4*%
%TO.N,+5V*%
X121158000Y-70234000D03*
%TO.P,J1,3*%
%TO.N,SDA*%
X121158000Y-72774000D03*
%TO.P,J1,2*%
%TO.N,+5V*%
X118618000Y-70234000D03*
D11*
%TO.P,J1,1*%
%TO.N,Net-(J1-Pad1)*%
X118618000Y-72774000D03*
%TD*%
%TO.P,C2,2*%
%TO.N,Net-(C2-Pad2)*%
%TA.AperFunction,SMDPad,CuDef*%
G36*
G01*
X167592500Y-75217000D02*
X167592500Y-76167000D01*
G75*
G02*
X167342500Y-76417000I-250000J0D01*
G01*
X166667500Y-76417000D01*
G75*
G02*
X166417500Y-76167000I0J250000D01*
G01*
X166417500Y-75217000D01*
G75*
G02*
X166667500Y-74967000I250000J0D01*
G01*
X167342500Y-74967000D01*
G75*
G02*
X167592500Y-75217000I0J-250000D01*
G01*
G37*
%TD.AperFunction*%
%TO.P,C2,1*%
%TO.N,GND*%
%TA.AperFunction,SMDPad,CuDef*%
G36*
G01*
X169667500Y-75217000D02*
X169667500Y-76167000D01*
G75*
G02*
X169417500Y-76417000I-250000J0D01*
G01*
X168742500Y-76417000D01*
G75*
G02*
X168492500Y-76167000I0J250000D01*
G01*
X168492500Y-75217000D01*
G75*
G02*
X168742500Y-74967000I250000J0D01*
G01*
X169417500Y-74967000D01*
G75*
G02*
X169667500Y-75217000I0J-250000D01*
G01*
G37*
%TD.AperFunction*%
%TD*%
%TO.P,C1,2*%
%TO.N,GND*%
%TA.AperFunction,SMDPad,CuDef*%
G36*
G01*
X151351000Y-75601500D02*
X150401000Y-75601500D01*
G75*
G02*
X150151000Y-75351500I0J250000D01*
G01*
X150151000Y-74676500D01*
G75*
G02*
X150401000Y-74426500I250000J0D01*
G01*
X151351000Y-74426500D01*
G75*
G02*
X151601000Y-74676500I0J-250000D01*
G01*
X151601000Y-75351500D01*
G75*
G02*
X151351000Y-75601500I-250000J0D01*
G01*
G37*
%TD.AperFunction*%
%TO.P,C1,1*%
%TO.N,Net-(C1-Pad1)*%
%TA.AperFunction,SMDPad,CuDef*%
G36*
G01*
X151351000Y-77676500D02*
X150401000Y-77676500D01*
G75*
G02*
X150151000Y-77426500I0J250000D01*
G01*
X150151000Y-76751500D01*
G75*
G02*
X150401000Y-76501500I250000J0D01*
G01*
X151351000Y-76501500D01*
G75*
G02*
X151601000Y-76751500I0J-250000D01*
G01*
X151601000Y-77426500D01*
G75*
G02*
X151351000Y-77676500I-250000J0D01*
G01*
G37*
%TD.AperFunction*%
%TD*%
D20*
%TO.N,GND*%
X145796000Y-95377000D03*
X157226000Y-94849998D03*
X162077524Y-94849998D03*
X160274000Y-82169000D03*
X152400000Y-74930000D03*
X116840000Y-77089000D03*
X124587000Y-87376000D03*
X122555000Y-87122000D03*
X170307000Y-76454000D03*
X172847000Y-89408000D03*
X118110000Y-84074000D03*
X116459000Y-84074000D03*
X116459000Y-81788000D03*
X118110000Y-81788000D03*
%TO.N,+3V3*%
X147193000Y-78232000D03*
X161290000Y-83058000D03*
X161290000Y-93726000D03*
X167894000Y-89408000D03*
X164465000Y-89408000D03*
X161290000Y-89408000D03*
X131543500Y-88900000D03*
X131572000Y-83312000D03*
%TO.N,+5V*%
X127000000Y-87630000D03*
X126873000Y-90678000D03*
X125349000Y-77724000D03*
X125349000Y-82550000D03*
%TO.N,~RST~*%
X165989000Y-79629000D03*
X168148000Y-79629000D03*
%TO.N,MOSI*%
X126492000Y-82550000D03*
X152651043Y-86388500D03*
X148209000Y-86360000D03*
X132715000Y-86614000D03*
X168656000Y-92964000D03*
X125889370Y-75532630D03*
%TO.N,MISO*%
X170180000Y-91186000D03*
%TO.N,A*%
X154400006Y-89154000D03*
X146939000Y-87150500D03*
%TO.N,R*%
X153400003Y-89154000D03*
X145796000Y-88011000D03*
%TO.N,N*%
X152400000Y-89154000D03*
X149098000Y-89027000D03*
%TO.N,Vin*%
X130048000Y-80645000D03*
%TO.N,GND1*%
X118110000Y-85852000D03*
X117094000Y-87249000D03*
X116205000Y-85852000D03*
X115189000Y-87249000D03*
X114173000Y-85852000D03*
X128714832Y-82515000D03*
X127812968Y-85674032D03*
X134874000Y-90170000D03*
X134112000Y-85090000D03*
%TO.N,~POWER_EN~*%
X149225000Y-92329000D03*
X129921000Y-91059000D03*
%TO.N,SCL*%
X128778000Y-74224003D03*
X137922000Y-76200000D03*
X137922000Y-79502000D03*
X137922000Y-86614000D03*
X137922000Y-88392000D03*
%TO.N,SDA*%
X128522217Y-75190740D03*
X136906000Y-88392000D03*
X136906000Y-86614000D03*
X136899933Y-76206067D03*
X136906000Y-79502000D03*
%TD*%
D21*
%TO.N,GND*%
X117602000Y-78379000D02*
X117709000Y-78486000D01*
X117602000Y-75692000D02*
X117602000Y-77089000D01*
X117602000Y-77089000D02*
X117602000Y-78379000D01*
D22*
X141000000Y-95425000D02*
X144254000Y-95425000D01*
X145748000Y-95425000D02*
X145796000Y-95377000D01*
X145717000Y-95425000D02*
X145748000Y-95425000D01*
X147500000Y-95425000D02*
X145717000Y-95425000D01*
X145717000Y-95425000D02*
X144254000Y-95425000D01*
D21*
X156122100Y-94849998D02*
X157226000Y-94849998D01*
X155700000Y-95272098D02*
X156122100Y-94849998D01*
X155700000Y-96200000D02*
X155700000Y-95272098D01*
X163277900Y-94849998D02*
X162077524Y-94849998D01*
X163700000Y-95272098D02*
X163277900Y-94849998D01*
X163700000Y-96200000D02*
X163700000Y-95272098D01*
X160500000Y-81943000D02*
X160274000Y-82169000D01*
X160500000Y-80800000D02*
X160500000Y-81943000D01*
X152316000Y-75014000D02*
X152400000Y-74930000D01*
X150876000Y-75014000D02*
X152316000Y-75014000D01*
X117602000Y-77089000D02*
X116840000Y-77089000D01*
X124780000Y-87569000D02*
X124587000Y-87376000D01*
X125587000Y-87569000D02*
X124780000Y-87569000D01*
X122555000Y-87122000D02*
X122555000Y-84709000D01*
X121666000Y-83820000D02*
X120015000Y-83820000D01*
X122555000Y-84709000D02*
X121666000Y-83820000D01*
X169037000Y-75735000D02*
X169080000Y-75692000D01*
X169926000Y-76835000D02*
X170307000Y-76454000D01*
X169037000Y-76835000D02*
X169926000Y-76835000D01*
X169037000Y-77978000D02*
X169037000Y-76835000D01*
X169037000Y-76835000D02*
X169037000Y-75735000D01*
X171450000Y-89408000D02*
X172847000Y-89408000D01*
D22*
X130182000Y-76078000D02*
X135128000Y-76078000D01*
X130048000Y-76212000D02*
X130182000Y-76078000D01*
X130048000Y-77470000D02*
X130048000Y-76212000D01*
X127307000Y-76078000D02*
X127254000Y-76025000D01*
X130182000Y-76078000D02*
X127307000Y-76078000D01*
%TO.N,Net-(C1-Pad1)*%
X156358000Y-77000000D02*
X154889000Y-77000000D01*
X158900000Y-79542000D02*
X156358000Y-77000000D01*
X158900000Y-80800000D02*
X158900000Y-79542000D01*
X154800000Y-77089000D02*
X154889000Y-77000000D01*
X150876000Y-77089000D02*
X154800000Y-77089000D01*
%TO.N,Net-(C2-Pad2)*%
X162242000Y-77000000D02*
X163389000Y-77000000D01*
X159700000Y-79542000D02*
X162242000Y-77000000D01*
X159700000Y-80800000D02*
X159700000Y-79542000D01*
D21*
X163389000Y-77000000D02*
X163538000Y-77000000D01*
X164846000Y-75692000D02*
X167005000Y-75692000D01*
X163538000Y-77000000D02*
X164846000Y-75692000D01*
D22*
%TO.N,+3V3*%
X147114000Y-78153000D02*
X147193000Y-78232000D01*
X135128000Y-78153000D02*
X147114000Y-78153000D01*
X161290000Y-80810000D02*
X161300000Y-80800000D01*
X161290000Y-83058000D02*
X161290000Y-80810000D01*
X164500000Y-95157798D02*
X164500000Y-96200000D01*
X163068202Y-93726000D02*
X164500000Y-95157798D01*
X161290000Y-93726000D02*
X163068202Y-93726000D01*
X154900000Y-95157798D02*
X154900000Y-96200000D01*
X156331798Y-93726000D02*
X154900000Y-95157798D01*
X161290000Y-93726000D02*
X156331798Y-93726000D01*
X164465000Y-89408000D02*
X161290000Y-89408000D01*
X161290000Y-83058000D02*
X161290000Y-89408000D01*
D21*
X166962000Y-80065902D02*
X166962000Y-77978000D01*
X163969902Y-83058000D02*
X166962000Y-80065902D01*
X161290000Y-83058000D02*
X163969902Y-83058000D01*
D22*
X174508011Y-87259011D02*
X174508011Y-77353011D01*
X174508011Y-77353011D02*
X173736000Y-76581000D01*
X171101000Y-77057000D02*
X171101000Y-77978000D01*
X173736000Y-76581000D02*
X171577000Y-76581000D01*
X171577000Y-76581000D02*
X171101000Y-77057000D01*
X167894000Y-89408000D02*
X169375000Y-89408000D01*
X169375000Y-89408000D02*
X169375000Y-89070000D01*
X170210000Y-88235000D02*
X170210000Y-86250000D01*
X169375000Y-89070000D02*
X170210000Y-88235000D01*
X173538032Y-88228990D02*
X174508011Y-87259011D01*
X170216010Y-88228990D02*
X173538032Y-88228990D01*
X170210000Y-88235000D02*
X170216010Y-88228990D01*
X123698000Y-78486000D02*
X123698000Y-78740000D01*
X123698000Y-78740000D02*
X124748999Y-79790999D01*
X135128000Y-78740000D02*
X135128000Y-78153000D01*
X134077001Y-79790999D02*
X135128000Y-78740000D01*
X132588000Y-77470000D02*
X132588000Y-79756000D01*
X132622999Y-79790999D02*
X134077001Y-79790999D01*
X132588000Y-79756000D02*
X132622999Y-79790999D01*
X124748999Y-79790999D02*
X132622999Y-79790999D01*
X131543500Y-90960500D02*
X131543500Y-88900000D01*
X128778000Y-93726000D02*
X131543500Y-90960500D01*
X131572000Y-83312000D02*
X131572000Y-82296000D01*
X132588000Y-81280000D02*
X132588000Y-79756000D01*
X131572000Y-82296000D02*
X132588000Y-81280000D01*
%TO.N,+5V*%
X123682000Y-75692000D02*
X124841000Y-75692000D01*
X124841000Y-75692000D02*
X125349000Y-76200000D01*
X127000000Y-87122000D02*
X127000000Y-87630000D01*
X125349000Y-85471000D02*
X127000000Y-87122000D01*
X125349000Y-76200000D02*
X125349000Y-77724000D01*
X125349000Y-85471000D02*
X125349000Y-82550000D01*
X118618000Y-70234000D02*
X121158000Y-70234000D01*
X118491000Y-92583000D02*
X120396000Y-90678000D01*
X122555000Y-90678000D02*
X126873000Y-90678000D01*
X120396000Y-90678000D02*
X122555000Y-90678000D01*
X118491000Y-96139000D02*
X118491000Y-92583000D01*
X119761000Y-97409000D02*
X118491000Y-96139000D01*
X136398000Y-97409000D02*
X119761000Y-97409000D01*
X137414000Y-96393000D02*
X136398000Y-97409000D01*
X137414000Y-93853000D02*
X137414000Y-96393000D01*
X123682000Y-75692000D02*
X123682000Y-74660000D01*
X123682000Y-74660000D02*
X123444000Y-74422000D01*
X117313999Y-73987201D02*
X117313999Y-70646001D01*
X117748798Y-74422000D02*
X117313999Y-73987201D01*
X123444000Y-74422000D02*
X117748798Y-74422000D01*
X117726000Y-70234000D02*
X118618000Y-70234000D01*
X117313999Y-70646001D02*
X117726000Y-70234000D01*
%TO.N,~RST~*%
X173101000Y-80819000D02*
X172750000Y-81170000D01*
X173101000Y-79375000D02*
X173101000Y-80819000D01*
X173101000Y-77978000D02*
X173101000Y-79375000D01*
D21*
X162100000Y-79669000D02*
X162394000Y-79375000D01*
X162100000Y-80800000D02*
X162100000Y-79669000D01*
X162394000Y-79375000D02*
X165608000Y-79375000D01*
X165862000Y-79629000D02*
X165989000Y-79629000D01*
X165608000Y-79375000D02*
X165862000Y-79629000D01*
X172847000Y-79629000D02*
X173101000Y-79375000D01*
X168148000Y-79629000D02*
X172847000Y-79629000D01*
%TO.N,MOSI*%
X127478501Y-71474501D02*
X127478501Y-74519501D01*
X126238000Y-70234000D02*
X127478501Y-71474501D01*
X166200000Y-93700000D02*
X164185000Y-93700000D01*
X164185000Y-93700000D02*
X162433000Y-91948000D01*
X162433000Y-91948000D02*
X159512000Y-91948000D01*
X153952500Y-86388500D02*
X152651043Y-86388500D01*
X159512000Y-91948000D02*
X153952500Y-86388500D01*
X141351000Y-86360000D02*
X140208000Y-87503000D01*
X148209000Y-86360000D02*
X141351000Y-86360000D01*
X132715000Y-87503000D02*
X132715000Y-86614000D01*
X132715000Y-87503000D02*
X140208000Y-87503000D01*
X132334000Y-87884000D02*
X132715000Y-87503000D01*
X132334000Y-93726000D02*
X132334000Y-87884000D01*
X166226000Y-93726000D02*
X166200000Y-93700000D01*
X167920000Y-93700000D02*
X166200000Y-93700000D01*
X168656000Y-92964000D02*
X167920000Y-93700000D01*
X127478501Y-74519501D02*
X127478501Y-74705499D01*
X127137010Y-75046990D02*
X126121010Y-75046990D01*
X127478501Y-74705499D02*
X127137010Y-75046990D01*
X126121010Y-75046990D02*
X125984000Y-75184000D01*
X125984000Y-75184000D02*
X125984000Y-75692000D01*
X126492000Y-85471000D02*
X126492000Y-82550000D01*
X126492000Y-85523006D02*
X126492000Y-85471000D01*
X128471994Y-87503000D02*
X126492000Y-85523006D01*
X132715000Y-87503000D02*
X128471994Y-87503000D01*
D23*
%TO.N,SCK*%
X172750000Y-83710000D02*
X171497000Y-84963000D01*
X171497000Y-84963000D02*
X168910000Y-84963000D01*
X167373000Y-86500000D02*
X166200000Y-86500000D01*
X168910000Y-84963000D02*
X167373000Y-86500000D01*
D21*
%TO.N,MISO*%
X167894000Y-92337000D02*
X167894000Y-91440000D01*
X167331000Y-92900000D02*
X167894000Y-92337000D01*
X166200000Y-92900000D02*
X167331000Y-92900000D01*
X167894000Y-91440000D02*
X168148000Y-91186000D01*
X168148000Y-91186000D02*
X170180000Y-91186000D01*
D22*
%TO.N,Net-(D1-Pad2)*%
X141000000Y-91000000D02*
X141000000Y-93500000D01*
%TO.N,Net-(D2-Pad2)*%
X144254000Y-91000000D02*
X144254000Y-93500000D01*
%TO.N,Net-(D3-Pad2)*%
X147500000Y-91000000D02*
X147500000Y-93500000D01*
%TO.N,Net-(D4-Pad2)*%
X119634000Y-78486000D02*
X121698000Y-78486000D01*
%TO.N,Net-(D5-Pad2)*%
X119527000Y-75692000D02*
X121682000Y-75692000D01*
D21*
%TO.N,SUPERVISOR_RESET*%
X148770991Y-84060663D02*
X149610328Y-84900000D01*
X148770991Y-75618991D02*
X148770991Y-84060663D01*
X148282010Y-75130010D02*
X148770991Y-75618991D01*
X149610328Y-84900000D02*
X150800000Y-84900000D01*
X137932338Y-75130010D02*
X148282010Y-75130010D01*
X136843328Y-74041000D02*
X137932338Y-75130010D01*
X135636000Y-74041000D02*
X136843328Y-74041000D01*
X135157499Y-73562499D02*
X135636000Y-74041000D01*
X135157499Y-71474501D02*
X135157499Y-73562499D01*
X136398000Y-70234000D02*
X135157499Y-71474501D01*
%TO.N,ABORT*%
X136398000Y-72774000D02*
X138173000Y-74549000D01*
X138173000Y-74549000D02*
X148590000Y-74549000D01*
X148590000Y-74549000D02*
X149352000Y-75311000D01*
X149632000Y-84100000D02*
X150800000Y-84100000D01*
X149352000Y-83820000D02*
X149632000Y-84100000D01*
X149352000Y-75311000D02*
X149352000Y-80645000D01*
X149352000Y-80645000D02*
X149352000Y-83820000D01*
%TO.N,A*%
X154400006Y-92874338D02*
X154400006Y-89154000D01*
X152500000Y-94774344D02*
X154400006Y-92874338D01*
X152500000Y-96200000D02*
X152500000Y-94774344D01*
X141000000Y-87727000D02*
X141000000Y-89000000D01*
X141576500Y-87150500D02*
X141000000Y-87727000D01*
X146939000Y-87150500D02*
X141576500Y-87150500D01*
%TO.N,R*%
X153400003Y-93052669D02*
X153400003Y-89154000D01*
X151952672Y-94500000D02*
X153400003Y-93052669D01*
X150800000Y-94500000D02*
X151952672Y-94500000D01*
X145796000Y-88011000D02*
X144653000Y-88011000D01*
X144254000Y-88410000D02*
X144254000Y-89000000D01*
X144653000Y-88011000D02*
X144254000Y-88410000D01*
%TO.N,N*%
X152400000Y-93231000D02*
X152400000Y-89154000D01*
X151931000Y-93700000D02*
X152400000Y-93231000D01*
X150800000Y-93700000D02*
X151931000Y-93700000D01*
X147527000Y-89027000D02*
X147500000Y-89000000D01*
X149098000Y-89027000D02*
X147527000Y-89027000D01*
D22*
%TO.N,Net-(Q1-Pad1)*%
X123825000Y-85439000D02*
X123825000Y-86741000D01*
X123587000Y-86979000D02*
X123587000Y-88519000D01*
X123825000Y-86741000D02*
X123587000Y-86979000D01*
X120015000Y-88900000D02*
X122174000Y-88900000D01*
X122555000Y-88519000D02*
X123587000Y-88519000D01*
X122174000Y-88900000D02*
X122555000Y-88519000D01*
%TO.N,Vin*%
X123825000Y-81661000D02*
X123825000Y-83439000D01*
X113792000Y-76708000D02*
X113792000Y-78994000D01*
X114808000Y-80010000D02*
X122174000Y-80010000D01*
X113792000Y-78994000D02*
X114808000Y-80010000D01*
X122174000Y-80010000D02*
X123825000Y-81661000D01*
X123825000Y-81661000D02*
X129032000Y-81661000D01*
X129032000Y-81661000D02*
X130048000Y-80645000D01*
X127828001Y-78674001D02*
X127254000Y-78100000D01*
X130936201Y-78674001D02*
X127828001Y-78674001D01*
X131318000Y-78292202D02*
X130936201Y-78674001D01*
X131318000Y-77470000D02*
X131318000Y-78292202D01*
%TO.N,GND1*%
X127812968Y-83416864D02*
X128714832Y-82515000D01*
X134874000Y-93726000D02*
X134874000Y-90170000D01*
X133553032Y-84531032D02*
X127812968Y-84531032D01*
X134112000Y-85090000D02*
X133553032Y-84531032D01*
X127812968Y-84531032D02*
X127812968Y-83416864D01*
X127812968Y-85674032D02*
X127812968Y-84531032D01*
D21*
%TO.N,~POWER_EN~*%
X149796000Y-92900000D02*
X149225000Y-92329000D01*
X150800000Y-92900000D02*
X149796000Y-92900000D01*
X129921000Y-91059000D02*
X129921000Y-89408000D01*
D22*
%TO.N,Net-(Q2-Pad1)*%
X127860000Y-89469000D02*
X127921000Y-89408000D01*
X125587000Y-89469000D02*
X127860000Y-89469000D01*
D23*
%TO.N,SCL*%
X136346002Y-74624002D02*
X137922000Y-76200000D01*
X129177999Y-74624002D02*
X136346002Y-74624002D01*
X128778000Y-74224003D02*
X129177999Y-74624002D01*
X137922000Y-79502000D02*
X137922000Y-86614000D01*
X137922000Y-88392000D02*
X137922000Y-89408000D01*
X136051001Y-91278999D02*
X136051001Y-95088999D01*
X137922000Y-89408000D02*
X136051001Y-91278999D01*
X136051001Y-95088999D02*
X134620000Y-96520000D01*
X134620000Y-96520000D02*
X121920000Y-96520000D01*
X121158000Y-95758000D02*
X121158000Y-93726000D01*
X121920000Y-96520000D02*
X121158000Y-95758000D01*
%TO.N,SDA*%
X136157946Y-75078012D02*
X136899933Y-75819999D01*
X128778000Y-75438000D02*
X129032000Y-75438000D01*
X129032000Y-75438000D02*
X129391988Y-75078012D01*
X129391988Y-75078012D02*
X136157946Y-75078012D01*
X136899933Y-75819999D02*
X136899933Y-76206067D01*
X136906000Y-79502000D02*
X136906000Y-86614000D01*
X134620000Y-88392000D02*
X136906000Y-88392000D01*
X133511001Y-89500999D02*
X134620000Y-88392000D01*
X133511001Y-95088999D02*
X133511001Y-89500999D01*
X133096000Y-95504000D02*
X133511001Y-95088999D01*
X123952000Y-95504000D02*
X133096000Y-95504000D01*
X123698000Y-95250000D02*
X123952000Y-95504000D01*
X123698000Y-93726000D02*
X123698000Y-95250000D01*
%TD*%
%TO.N,GND*%
X114466149Y-80835303D02*
X114560758Y-80864002D01*
X114633725Y-80886136D01*
X114650325Y-80887771D01*
X114764333Y-80899000D01*
X114764340Y-80899000D01*
X114808000Y-80903300D01*
X114851660Y-80899000D01*
X121285000Y-80899000D01*
X121285000Y-84709000D01*
X111379000Y-84709000D01*
X111379000Y-80772000D01*
X114347718Y-80772000D01*
X114466149Y-80835303D01*
%TA.AperFunction,Conductor*%
D24*
G36*
X114466149Y-80835303D02*
G01*
X114560758Y-80864002D01*
X114633725Y-80886136D01*
X114650325Y-80887771D01*
X114764333Y-80899000D01*
X114764340Y-80899000D01*
X114808000Y-80903300D01*
X114851660Y-80899000D01*
X121285000Y-80899000D01*
X121285000Y-84709000D01*
X111379000Y-84709000D01*
X111379000Y-80772000D01*
X114347718Y-80772000D01*
X114466149Y-80835303D01*
G37*
%TD.AperFunction*%
%TD*%
D23*
%TO.N,GND1*%
X121285000Y-87371799D02*
X121259180Y-87357998D01*
X121139482Y-87321688D01*
X121015000Y-87309428D01*
X119015000Y-87309428D01*
X118890518Y-87321688D01*
X118770820Y-87357998D01*
X118660506Y-87416963D01*
X118563815Y-87496315D01*
X118558329Y-87503000D01*
X118237000Y-87503000D01*
X118212224Y-87505440D01*
X118188399Y-87512667D01*
X118166443Y-87524403D01*
X118147197Y-87540197D01*
X117385197Y-88302197D01*
X117369403Y-88321443D01*
X117357667Y-88343399D01*
X117350440Y-88367224D01*
X117348000Y-88392000D01*
X117348000Y-89606619D01*
X115647128Y-91186000D01*
X111379000Y-91186000D01*
X111379000Y-85471000D01*
X121285000Y-85471000D01*
X121285000Y-87371799D01*
%TA.AperFunction,Conductor*%
D24*
G36*
X121285000Y-87371799D02*
G01*
X121259180Y-87357998D01*
X121139482Y-87321688D01*
X121015000Y-87309428D01*
X119015000Y-87309428D01*
X118890518Y-87321688D01*
X118770820Y-87357998D01*
X118660506Y-87416963D01*
X118563815Y-87496315D01*
X118558329Y-87503000D01*
X118237000Y-87503000D01*
X118212224Y-87505440D01*
X118188399Y-87512667D01*
X118166443Y-87524403D01*
X118147197Y-87540197D01*
X117385197Y-88302197D01*
X117369403Y-88321443D01*
X117357667Y-88343399D01*
X117350440Y-88367224D01*
X117348000Y-88392000D01*
X117348000Y-89606619D01*
X115647128Y-91186000D01*
X111379000Y-91186000D01*
X111379000Y-85471000D01*
X121285000Y-85471000D01*
X121285000Y-87371799D01*
G37*
%TD.AperFunction*%
%TD*%
M02*
