%TF.GenerationSoftware,KiCad,Pcbnew,(5.1.9)-1*%
%TF.CreationDate,2021-04-12T22:32:52+10:00*%
%TF.ProjectId,FlightBridgePCB,466c6967-6874-4427-9269-646765504342,rev?*%
%TF.SameCoordinates,Original*%
%TF.FileFunction,Legend,Top*%
%TF.FilePolarity,Positive*%
%FSLAX46Y46*%
G04 Gerber Fmt 4.6, Leading zero omitted, Abs format (unit mm)*
G04 Created by KiCad (PCBNEW (5.1.9)-1) date 2021-04-12 22:32:52*
%MOMM*%
%LPD*%
G01*
G04 APERTURE LIST*
%ADD10C,0.150000*%
%ADD11C,0.125000*%
%ADD12C,0.010000*%
%ADD13C,0.120000*%
G04 APERTURE END LIST*
D10*
X123343047Y-86643857D02*
X123076380Y-86643857D01*
X123076380Y-87062904D02*
X123076380Y-86262904D01*
X123457333Y-86262904D01*
X123876380Y-87062904D02*
X123800190Y-87024809D01*
X123762095Y-86948619D01*
X123762095Y-86262904D01*
X124181142Y-87062904D02*
X124181142Y-86529571D01*
X124181142Y-86262904D02*
X124143047Y-86301000D01*
X124181142Y-86339095D01*
X124219238Y-86301000D01*
X124181142Y-86262904D01*
X124181142Y-86339095D01*
X124904952Y-86529571D02*
X124904952Y-87177190D01*
X124866857Y-87253380D01*
X124828761Y-87291476D01*
X124752571Y-87329571D01*
X124638285Y-87329571D01*
X124562095Y-87291476D01*
X124904952Y-87024809D02*
X124828761Y-87062904D01*
X124676380Y-87062904D01*
X124600190Y-87024809D01*
X124562095Y-86986714D01*
X124524000Y-86910523D01*
X124524000Y-86681952D01*
X124562095Y-86605761D01*
X124600190Y-86567666D01*
X124676380Y-86529571D01*
X124828761Y-86529571D01*
X124904952Y-86567666D01*
X125285904Y-87062904D02*
X125285904Y-86262904D01*
X125628761Y-87062904D02*
X125628761Y-86643857D01*
X125590666Y-86567666D01*
X125514476Y-86529571D01*
X125400190Y-86529571D01*
X125324000Y-86567666D01*
X125285904Y-86605761D01*
X125895428Y-86529571D02*
X126200190Y-86529571D01*
X126009714Y-86262904D02*
X126009714Y-86948619D01*
X126047809Y-87024809D01*
X126124000Y-87062904D01*
X126200190Y-87062904D01*
X126733523Y-86643857D02*
X126847809Y-86681952D01*
X126885904Y-86720047D01*
X126924000Y-86796238D01*
X126924000Y-86910523D01*
X126885904Y-86986714D01*
X126847809Y-87024809D01*
X126771619Y-87062904D01*
X126466857Y-87062904D01*
X126466857Y-86262904D01*
X126733523Y-86262904D01*
X126809714Y-86301000D01*
X126847809Y-86339095D01*
X126885904Y-86415285D01*
X126885904Y-86491476D01*
X126847809Y-86567666D01*
X126809714Y-86605761D01*
X126733523Y-86643857D01*
X126466857Y-86643857D01*
X127266857Y-87062904D02*
X127266857Y-86529571D01*
X127266857Y-86681952D02*
X127304952Y-86605761D01*
X127343047Y-86567666D01*
X127419238Y-86529571D01*
X127495428Y-86529571D01*
X127762095Y-87062904D02*
X127762095Y-86529571D01*
X127762095Y-86262904D02*
X127724000Y-86301000D01*
X127762095Y-86339095D01*
X127800190Y-86301000D01*
X127762095Y-86262904D01*
X127762095Y-86339095D01*
X128485904Y-87062904D02*
X128485904Y-86262904D01*
X128485904Y-87024809D02*
X128409714Y-87062904D01*
X128257333Y-87062904D01*
X128181142Y-87024809D01*
X128143047Y-86986714D01*
X128104952Y-86910523D01*
X128104952Y-86681952D01*
X128143047Y-86605761D01*
X128181142Y-86567666D01*
X128257333Y-86529571D01*
X128409714Y-86529571D01*
X128485904Y-86567666D01*
X129209714Y-86529571D02*
X129209714Y-87177190D01*
X129171619Y-87253380D01*
X129133523Y-87291476D01*
X129057333Y-87329571D01*
X128943047Y-87329571D01*
X128866857Y-87291476D01*
X129209714Y-87024809D02*
X129133523Y-87062904D01*
X128981142Y-87062904D01*
X128904952Y-87024809D01*
X128866857Y-86986714D01*
X128828761Y-86910523D01*
X128828761Y-86681952D01*
X128866857Y-86605761D01*
X128904952Y-86567666D01*
X128981142Y-86529571D01*
X129133523Y-86529571D01*
X129209714Y-86567666D01*
X129895428Y-87024809D02*
X129819238Y-87062904D01*
X129666857Y-87062904D01*
X129590666Y-87024809D01*
X129552571Y-86948619D01*
X129552571Y-86643857D01*
X129590666Y-86567666D01*
X129666857Y-86529571D01*
X129819238Y-86529571D01*
X129895428Y-86567666D01*
X129933523Y-86643857D01*
X129933523Y-86720047D01*
X129552571Y-86796238D01*
X131343047Y-87062904D02*
X131076380Y-86681952D01*
X130885904Y-87062904D02*
X130885904Y-86262904D01*
X131190666Y-86262904D01*
X131266857Y-86301000D01*
X131304952Y-86339095D01*
X131343047Y-86415285D01*
X131343047Y-86529571D01*
X131304952Y-86605761D01*
X131266857Y-86643857D01*
X131190666Y-86681952D01*
X130885904Y-86681952D01*
X131990666Y-87024809D02*
X131914476Y-87062904D01*
X131762095Y-87062904D01*
X131685904Y-87024809D01*
X131647809Y-86948619D01*
X131647809Y-86643857D01*
X131685904Y-86567666D01*
X131762095Y-86529571D01*
X131914476Y-86529571D01*
X131990666Y-86567666D01*
X132028761Y-86643857D01*
X132028761Y-86720047D01*
X131647809Y-86796238D01*
X132295428Y-86529571D02*
X132485904Y-87062904D01*
X132676380Y-86529571D01*
X134009714Y-87062904D02*
X133552571Y-87062904D01*
X133781142Y-87062904D02*
X133781142Y-86262904D01*
X133704952Y-86377190D01*
X133628761Y-86453380D01*
X133552571Y-86491476D01*
X121457333Y-88336714D02*
X121419238Y-88374809D01*
X121304952Y-88412904D01*
X121228761Y-88412904D01*
X121114476Y-88374809D01*
X121038285Y-88298619D01*
X121000190Y-88222428D01*
X120962095Y-88070047D01*
X120962095Y-87955761D01*
X121000190Y-87803380D01*
X121038285Y-87727190D01*
X121114476Y-87651000D01*
X121228761Y-87612904D01*
X121304952Y-87612904D01*
X121419238Y-87651000D01*
X121457333Y-87689095D01*
X121914476Y-88412904D02*
X121838285Y-88374809D01*
X121800190Y-88336714D01*
X121762095Y-88260523D01*
X121762095Y-88031952D01*
X121800190Y-87955761D01*
X121838285Y-87917666D01*
X121914476Y-87879571D01*
X122028761Y-87879571D01*
X122104952Y-87917666D01*
X122143047Y-87955761D01*
X122181142Y-88031952D01*
X122181142Y-88260523D01*
X122143047Y-88336714D01*
X122104952Y-88374809D01*
X122028761Y-88412904D01*
X121914476Y-88412904D01*
X122524000Y-87879571D02*
X122524000Y-88412904D01*
X122524000Y-87955761D02*
X122562095Y-87917666D01*
X122638285Y-87879571D01*
X122752571Y-87879571D01*
X122828761Y-87917666D01*
X122866857Y-87993857D01*
X122866857Y-88412904D01*
X123247809Y-87879571D02*
X123247809Y-88412904D01*
X123247809Y-87955761D02*
X123285904Y-87917666D01*
X123362095Y-87879571D01*
X123476380Y-87879571D01*
X123552571Y-87917666D01*
X123590666Y-87993857D01*
X123590666Y-88412904D01*
X124085904Y-88412904D02*
X124009714Y-88374809D01*
X123971619Y-88336714D01*
X123933523Y-88260523D01*
X123933523Y-88031952D01*
X123971619Y-87955761D01*
X124009714Y-87917666D01*
X124085904Y-87879571D01*
X124200190Y-87879571D01*
X124276380Y-87917666D01*
X124314476Y-87955761D01*
X124352571Y-88031952D01*
X124352571Y-88260523D01*
X124314476Y-88336714D01*
X124276380Y-88374809D01*
X124200190Y-88412904D01*
X124085904Y-88412904D01*
X124695428Y-88412904D02*
X124695428Y-87879571D01*
X124695428Y-88031952D02*
X124733523Y-87955761D01*
X124771619Y-87917666D01*
X124847809Y-87879571D01*
X124924000Y-87879571D01*
X126257333Y-88412904D02*
X125990666Y-88031952D01*
X125800190Y-88412904D02*
X125800190Y-87612904D01*
X126104952Y-87612904D01*
X126181142Y-87651000D01*
X126219238Y-87689095D01*
X126257333Y-87765285D01*
X126257333Y-87879571D01*
X126219238Y-87955761D01*
X126181142Y-87993857D01*
X126104952Y-88031952D01*
X125800190Y-88031952D01*
X126943047Y-88412904D02*
X126943047Y-87993857D01*
X126904952Y-87917666D01*
X126828761Y-87879571D01*
X126676380Y-87879571D01*
X126600190Y-87917666D01*
X126943047Y-88374809D02*
X126866857Y-88412904D01*
X126676380Y-88412904D01*
X126600190Y-88374809D01*
X126562095Y-88298619D01*
X126562095Y-88222428D01*
X126600190Y-88146238D01*
X126676380Y-88108142D01*
X126866857Y-88108142D01*
X126943047Y-88070047D01*
X127666857Y-87879571D02*
X127666857Y-88527190D01*
X127628761Y-88603380D01*
X127590666Y-88641476D01*
X127514476Y-88679571D01*
X127400190Y-88679571D01*
X127324000Y-88641476D01*
X127666857Y-88374809D02*
X127590666Y-88412904D01*
X127438285Y-88412904D01*
X127362095Y-88374809D01*
X127324000Y-88336714D01*
X127285904Y-88260523D01*
X127285904Y-88031952D01*
X127324000Y-87955761D01*
X127362095Y-87917666D01*
X127438285Y-87879571D01*
X127590666Y-87879571D01*
X127666857Y-87917666D01*
X128390666Y-87879571D02*
X128390666Y-88527190D01*
X128352571Y-88603380D01*
X128314476Y-88641476D01*
X128238285Y-88679571D01*
X128124000Y-88679571D01*
X128047809Y-88641476D01*
X128390666Y-88374809D02*
X128314476Y-88412904D01*
X128162095Y-88412904D01*
X128085904Y-88374809D01*
X128047809Y-88336714D01*
X128009714Y-88260523D01*
X128009714Y-88031952D01*
X128047809Y-87955761D01*
X128085904Y-87917666D01*
X128162095Y-87879571D01*
X128314476Y-87879571D01*
X128390666Y-87917666D01*
X129114476Y-88412904D02*
X129114476Y-87993857D01*
X129076380Y-87917666D01*
X129000190Y-87879571D01*
X128847809Y-87879571D01*
X128771619Y-87917666D01*
X129114476Y-88374809D02*
X129038285Y-88412904D01*
X128847809Y-88412904D01*
X128771619Y-88374809D01*
X128733523Y-88298619D01*
X128733523Y-88222428D01*
X128771619Y-88146238D01*
X128847809Y-88108142D01*
X129038285Y-88108142D01*
X129114476Y-88070047D01*
X129381142Y-87879571D02*
X129685904Y-87879571D01*
X129495428Y-87612904D02*
X129495428Y-88298619D01*
X129533523Y-88374809D01*
X129609714Y-88412904D01*
X129685904Y-88412904D01*
X129838285Y-87879571D02*
X130143047Y-87879571D01*
X129952571Y-87612904D02*
X129952571Y-88298619D01*
X129990666Y-88374809D01*
X130066857Y-88412904D01*
X130143047Y-88412904D01*
X131171619Y-87612904D02*
X131247809Y-87612904D01*
X131324000Y-87651000D01*
X131362095Y-87689095D01*
X131400190Y-87765285D01*
X131438285Y-87917666D01*
X131438285Y-88108142D01*
X131400190Y-88260523D01*
X131362095Y-88336714D01*
X131324000Y-88374809D01*
X131247809Y-88412904D01*
X131171619Y-88412904D01*
X131095428Y-88374809D01*
X131057333Y-88336714D01*
X131019238Y-88260523D01*
X130981142Y-88108142D01*
X130981142Y-87917666D01*
X131019238Y-87765285D01*
X131057333Y-87689095D01*
X131095428Y-87651000D01*
X131171619Y-87612904D01*
X132124000Y-87879571D02*
X132124000Y-88412904D01*
X131933523Y-87574809D02*
X131743047Y-88146238D01*
X132238285Y-88146238D01*
X133114476Y-87574809D02*
X132428761Y-88603380D01*
X133343047Y-87689095D02*
X133381142Y-87651000D01*
X133457333Y-87612904D01*
X133647809Y-87612904D01*
X133724000Y-87651000D01*
X133762095Y-87689095D01*
X133800190Y-87765285D01*
X133800190Y-87841476D01*
X133762095Y-87955761D01*
X133304952Y-88412904D01*
X133800190Y-88412904D01*
X134295428Y-87612904D02*
X134371619Y-87612904D01*
X134447809Y-87651000D01*
X134485904Y-87689095D01*
X134524000Y-87765285D01*
X134562095Y-87917666D01*
X134562095Y-88108142D01*
X134524000Y-88260523D01*
X134485904Y-88336714D01*
X134447809Y-88374809D01*
X134371619Y-88412904D01*
X134295428Y-88412904D01*
X134219238Y-88374809D01*
X134181142Y-88336714D01*
X134143047Y-88260523D01*
X134104952Y-88108142D01*
X134104952Y-87917666D01*
X134143047Y-87765285D01*
X134181142Y-87689095D01*
X134219238Y-87651000D01*
X134295428Y-87612904D01*
X134866857Y-87689095D02*
X134904952Y-87651000D01*
X134981142Y-87612904D01*
X135171619Y-87612904D01*
X135247809Y-87651000D01*
X135285904Y-87689095D01*
X135324000Y-87765285D01*
X135324000Y-87841476D01*
X135285904Y-87955761D01*
X134828761Y-88412904D01*
X135324000Y-88412904D01*
X136085904Y-88412904D02*
X135628761Y-88412904D01*
X135857333Y-88412904D02*
X135857333Y-87612904D01*
X135781142Y-87727190D01*
X135704952Y-87803380D01*
X135628761Y-87841476D01*
D11*
X167874190Y-86979047D02*
X167874190Y-86669523D01*
X168064666Y-86836190D01*
X168064666Y-86764761D01*
X168088476Y-86717142D01*
X168112285Y-86693333D01*
X168159904Y-86669523D01*
X168278952Y-86669523D01*
X168326571Y-86693333D01*
X168350380Y-86717142D01*
X168374190Y-86764761D01*
X168374190Y-86907619D01*
X168350380Y-86955238D01*
X168326571Y-86979047D01*
X167874190Y-86526666D02*
X168374190Y-86360000D01*
X167874190Y-86193333D01*
X167874190Y-86074285D02*
X167874190Y-85764761D01*
X168064666Y-85931428D01*
X168064666Y-85860000D01*
X168088476Y-85812380D01*
X168112285Y-85788571D01*
X168159904Y-85764761D01*
X168278952Y-85764761D01*
X168326571Y-85788571D01*
X168350380Y-85812380D01*
X168374190Y-85860000D01*
X168374190Y-86002857D01*
X168350380Y-86050476D01*
X168326571Y-86074285D01*
X168374190Y-84605714D02*
X167874190Y-84605714D01*
X168231333Y-84439047D01*
X167874190Y-84272380D01*
X168374190Y-84272380D01*
X167874190Y-83939047D02*
X167874190Y-83843809D01*
X167898000Y-83796190D01*
X167945619Y-83748571D01*
X168040857Y-83724761D01*
X168207523Y-83724761D01*
X168302761Y-83748571D01*
X168350380Y-83796190D01*
X168374190Y-83843809D01*
X168374190Y-83939047D01*
X168350380Y-83986666D01*
X168302761Y-84034285D01*
X168207523Y-84058095D01*
X168040857Y-84058095D01*
X167945619Y-84034285D01*
X167898000Y-83986666D01*
X167874190Y-83939047D01*
X168350380Y-83534285D02*
X168374190Y-83462857D01*
X168374190Y-83343809D01*
X168350380Y-83296190D01*
X168326571Y-83272380D01*
X168278952Y-83248571D01*
X168231333Y-83248571D01*
X168183714Y-83272380D01*
X168159904Y-83296190D01*
X168136095Y-83343809D01*
X168112285Y-83439047D01*
X168088476Y-83486666D01*
X168064666Y-83510476D01*
X168017047Y-83534285D01*
X167969428Y-83534285D01*
X167921809Y-83510476D01*
X167898000Y-83486666D01*
X167874190Y-83439047D01*
X167874190Y-83320000D01*
X167898000Y-83248571D01*
X168374190Y-83034285D02*
X167874190Y-83034285D01*
X167898000Y-81660952D02*
X167874190Y-81708571D01*
X167874190Y-81780000D01*
X167898000Y-81851428D01*
X167945619Y-81899047D01*
X167993238Y-81922857D01*
X168088476Y-81946666D01*
X168159904Y-81946666D01*
X168255142Y-81922857D01*
X168302761Y-81899047D01*
X168350380Y-81851428D01*
X168374190Y-81780000D01*
X168374190Y-81732380D01*
X168350380Y-81660952D01*
X168326571Y-81637142D01*
X168159904Y-81637142D01*
X168159904Y-81732380D01*
X168374190Y-81422857D02*
X167874190Y-81422857D01*
X168374190Y-81137142D01*
X167874190Y-81137142D01*
X168374190Y-80899047D02*
X167874190Y-80899047D01*
X167874190Y-80780000D01*
X167898000Y-80708571D01*
X167945619Y-80660952D01*
X167993238Y-80637142D01*
X168088476Y-80613333D01*
X168159904Y-80613333D01*
X168255142Y-80637142D01*
X168302761Y-80660952D01*
X168350380Y-80708571D01*
X168374190Y-80780000D01*
X168374190Y-80899047D01*
X136540952Y-91928190D02*
X136850476Y-91928190D01*
X136683809Y-92118666D01*
X136755238Y-92118666D01*
X136802857Y-92142476D01*
X136826666Y-92166285D01*
X136850476Y-92213904D01*
X136850476Y-92332952D01*
X136826666Y-92380571D01*
X136802857Y-92404380D01*
X136755238Y-92428190D01*
X136612380Y-92428190D01*
X136564761Y-92404380D01*
X136540952Y-92380571D01*
X136993333Y-91928190D02*
X137160000Y-92428190D01*
X137326666Y-91928190D01*
X137445714Y-91928190D02*
X137755238Y-91928190D01*
X137588571Y-92118666D01*
X137660000Y-92118666D01*
X137707619Y-92142476D01*
X137731428Y-92166285D01*
X137755238Y-92213904D01*
X137755238Y-92332952D01*
X137731428Y-92380571D01*
X137707619Y-92404380D01*
X137660000Y-92428190D01*
X137517142Y-92428190D01*
X137469523Y-92404380D01*
X137445714Y-92380571D01*
X133985047Y-91952000D02*
X133937428Y-91928190D01*
X133866000Y-91928190D01*
X133794571Y-91952000D01*
X133746952Y-91999619D01*
X133723142Y-92047238D01*
X133699333Y-92142476D01*
X133699333Y-92213904D01*
X133723142Y-92309142D01*
X133746952Y-92356761D01*
X133794571Y-92404380D01*
X133866000Y-92428190D01*
X133913619Y-92428190D01*
X133985047Y-92404380D01*
X134008857Y-92380571D01*
X134008857Y-92213904D01*
X133913619Y-92213904D01*
X134223142Y-92428190D02*
X134223142Y-91928190D01*
X134508857Y-92428190D01*
X134508857Y-91928190D01*
X134746952Y-92428190D02*
X134746952Y-91928190D01*
X134866000Y-91928190D01*
X134937428Y-91952000D01*
X134985047Y-91999619D01*
X135008857Y-92047238D01*
X135032666Y-92142476D01*
X135032666Y-92213904D01*
X135008857Y-92309142D01*
X134985047Y-92356761D01*
X134937428Y-92404380D01*
X134866000Y-92428190D01*
X134746952Y-92428190D01*
X130968857Y-92285333D02*
X131206952Y-92285333D01*
X130921238Y-92428190D02*
X131087904Y-91928190D01*
X131254571Y-92428190D01*
X131421238Y-91928190D02*
X131421238Y-92332952D01*
X131445047Y-92380571D01*
X131468857Y-92404380D01*
X131516476Y-92428190D01*
X131611714Y-92428190D01*
X131659333Y-92404380D01*
X131683142Y-92380571D01*
X131706952Y-92332952D01*
X131706952Y-91928190D01*
X131897428Y-91928190D02*
X132230761Y-92428190D01*
X132230761Y-91928190D02*
X131897428Y-92428190D01*
X132683142Y-92428190D02*
X132397428Y-92428190D01*
X132540285Y-92428190D02*
X132540285Y-91928190D01*
X132492666Y-91999619D01*
X132445047Y-92047238D01*
X132397428Y-92071047D01*
X128428857Y-92285333D02*
X128666952Y-92285333D01*
X128381238Y-92428190D02*
X128547904Y-91928190D01*
X128714571Y-92428190D01*
X128881238Y-91928190D02*
X128881238Y-92332952D01*
X128905047Y-92380571D01*
X128928857Y-92404380D01*
X128976476Y-92428190D01*
X129071714Y-92428190D01*
X129119333Y-92404380D01*
X129143142Y-92380571D01*
X129166952Y-92332952D01*
X129166952Y-91928190D01*
X129357428Y-91928190D02*
X129690761Y-92428190D01*
X129690761Y-91928190D02*
X129357428Y-92428190D01*
X129857428Y-91975809D02*
X129881238Y-91952000D01*
X129928857Y-91928190D01*
X130047904Y-91928190D01*
X130095523Y-91952000D01*
X130119333Y-91975809D01*
X130143142Y-92023428D01*
X130143142Y-92071047D01*
X130119333Y-92142476D01*
X129833619Y-92428190D01*
X130143142Y-92428190D01*
X124872761Y-92182190D02*
X124634666Y-92182190D01*
X124610857Y-92420285D01*
X124634666Y-92396476D01*
X124682285Y-92372666D01*
X124801333Y-92372666D01*
X124848952Y-92396476D01*
X124872761Y-92420285D01*
X124896571Y-92467904D01*
X124896571Y-92586952D01*
X124872761Y-92634571D01*
X124848952Y-92658380D01*
X124801333Y-92682190D01*
X124682285Y-92682190D01*
X124634666Y-92658380D01*
X124610857Y-92634571D01*
X125039428Y-92182190D02*
X125206095Y-92682190D01*
X125372761Y-92182190D01*
X122047047Y-92206000D02*
X121999428Y-92182190D01*
X121928000Y-92182190D01*
X121856571Y-92206000D01*
X121808952Y-92253619D01*
X121785142Y-92301238D01*
X121761333Y-92396476D01*
X121761333Y-92467904D01*
X121785142Y-92563142D01*
X121808952Y-92610761D01*
X121856571Y-92658380D01*
X121928000Y-92682190D01*
X121975619Y-92682190D01*
X122047047Y-92658380D01*
X122070857Y-92634571D01*
X122070857Y-92467904D01*
X121975619Y-92467904D01*
X122285142Y-92682190D02*
X122285142Y-92182190D01*
X122570857Y-92682190D01*
X122570857Y-92182190D01*
X122808952Y-92682190D02*
X122808952Y-92182190D01*
X122928000Y-92182190D01*
X122999428Y-92206000D01*
X123047047Y-92253619D01*
X123070857Y-92301238D01*
X123094666Y-92396476D01*
X123094666Y-92467904D01*
X123070857Y-92563142D01*
X123047047Y-92610761D01*
X122999428Y-92658380D01*
X122928000Y-92682190D01*
X122808952Y-92682190D01*
X117570476Y-92420285D02*
X117737142Y-92420285D01*
X117808571Y-92682190D02*
X117570476Y-92682190D01*
X117570476Y-92182190D01*
X117808571Y-92182190D01*
X117975238Y-92182190D02*
X118308571Y-92682190D01*
X118308571Y-92182190D02*
X117975238Y-92682190D01*
X118427619Y-92182190D02*
X118713333Y-92182190D01*
X118570476Y-92682190D02*
X118570476Y-92182190D01*
X119189523Y-92182190D02*
X119475238Y-92182190D01*
X119332380Y-92682190D02*
X119332380Y-92182190D01*
X119832380Y-92658380D02*
X119784761Y-92682190D01*
X119689523Y-92682190D01*
X119641904Y-92658380D01*
X119618095Y-92610761D01*
X119618095Y-92420285D01*
X119641904Y-92372666D01*
X119689523Y-92348857D01*
X119784761Y-92348857D01*
X119832380Y-92372666D01*
X119856190Y-92420285D01*
X119856190Y-92467904D01*
X119618095Y-92515523D01*
X120141904Y-92682190D02*
X120094285Y-92658380D01*
X120070476Y-92610761D01*
X120070476Y-92182190D01*
X120522857Y-92658380D02*
X120475238Y-92682190D01*
X120380000Y-92682190D01*
X120332380Y-92658380D01*
X120308571Y-92610761D01*
X120308571Y-92420285D01*
X120332380Y-92372666D01*
X120380000Y-92348857D01*
X120475238Y-92348857D01*
X120522857Y-92372666D01*
X120546666Y-92420285D01*
X120546666Y-92467904D01*
X120308571Y-92515523D01*
X120760952Y-92682190D02*
X120760952Y-92348857D01*
X120760952Y-92396476D02*
X120784761Y-92372666D01*
X120832380Y-92348857D01*
X120903809Y-92348857D01*
X120951428Y-92372666D01*
X120975238Y-92420285D01*
X120975238Y-92682190D01*
X120975238Y-92420285D02*
X120999047Y-92372666D01*
X121046666Y-92348857D01*
X121118095Y-92348857D01*
X121165714Y-92372666D01*
X121189523Y-92420285D01*
X121189523Y-92682190D01*
X115911333Y-78410571D02*
X115887523Y-78434380D01*
X115816095Y-78458190D01*
X115768476Y-78458190D01*
X115697047Y-78434380D01*
X115649428Y-78386761D01*
X115625619Y-78339142D01*
X115601809Y-78243904D01*
X115601809Y-78172476D01*
X115625619Y-78077238D01*
X115649428Y-78029619D01*
X115697047Y-77982000D01*
X115768476Y-77958190D01*
X115816095Y-77958190D01*
X115887523Y-77982000D01*
X115911333Y-78005809D01*
X116363714Y-78458190D02*
X116125619Y-78458190D01*
X116125619Y-77958190D01*
X116530380Y-78458190D02*
X116530380Y-77958190D01*
X115439142Y-81228380D02*
X115510571Y-81252190D01*
X115629619Y-81252190D01*
X115677238Y-81228380D01*
X115701047Y-81204571D01*
X115724857Y-81156952D01*
X115724857Y-81109333D01*
X115701047Y-81061714D01*
X115677238Y-81037904D01*
X115629619Y-81014095D01*
X115534380Y-80990285D01*
X115486761Y-80966476D01*
X115462952Y-80942666D01*
X115439142Y-80895047D01*
X115439142Y-80847428D01*
X115462952Y-80799809D01*
X115486761Y-80776000D01*
X115534380Y-80752190D01*
X115653428Y-80752190D01*
X115724857Y-80776000D01*
X116105809Y-80990285D02*
X116177238Y-81014095D01*
X116201047Y-81037904D01*
X116224857Y-81085523D01*
X116224857Y-81156952D01*
X116201047Y-81204571D01*
X116177238Y-81228380D01*
X116129619Y-81252190D01*
X115939142Y-81252190D01*
X115939142Y-80752190D01*
X116105809Y-80752190D01*
X116153428Y-80776000D01*
X116177238Y-80799809D01*
X116201047Y-80847428D01*
X116201047Y-80895047D01*
X116177238Y-80942666D01*
X116153428Y-80966476D01*
X116105809Y-80990285D01*
X115939142Y-80990285D01*
X116439142Y-80752190D02*
X116439142Y-81156952D01*
X116462952Y-81204571D01*
X116486761Y-81228380D01*
X116534380Y-81252190D01*
X116629619Y-81252190D01*
X116677238Y-81228380D01*
X116701047Y-81204571D01*
X116724857Y-81156952D01*
X116724857Y-80752190D01*
X116939142Y-81228380D02*
X117010571Y-81252190D01*
X117129619Y-81252190D01*
X117177238Y-81228380D01*
X117201047Y-81204571D01*
X117224857Y-81156952D01*
X117224857Y-81109333D01*
X117201047Y-81061714D01*
X117177238Y-81037904D01*
X117129619Y-81014095D01*
X117034380Y-80990285D01*
X116986761Y-80966476D01*
X116962952Y-80942666D01*
X116939142Y-80895047D01*
X116939142Y-80847428D01*
X116962952Y-80799809D01*
X116986761Y-80776000D01*
X117034380Y-80752190D01*
X117153428Y-80752190D01*
X117224857Y-80776000D01*
X115641619Y-83530285D02*
X115474952Y-83530285D01*
X115474952Y-83792190D02*
X115474952Y-83292190D01*
X115713047Y-83292190D01*
X116189238Y-83744571D02*
X116165428Y-83768380D01*
X116094000Y-83792190D01*
X116046380Y-83792190D01*
X115974952Y-83768380D01*
X115927333Y-83720761D01*
X115903523Y-83673142D01*
X115879714Y-83577904D01*
X115879714Y-83506476D01*
X115903523Y-83411238D01*
X115927333Y-83363619D01*
X115974952Y-83316000D01*
X116046380Y-83292190D01*
X116094000Y-83292190D01*
X116165428Y-83316000D01*
X116189238Y-83339809D01*
X116713047Y-83292190D02*
X116998761Y-83292190D01*
X116855904Y-83792190D02*
X116855904Y-83292190D01*
X117355904Y-83768380D02*
X117308285Y-83792190D01*
X117213047Y-83792190D01*
X117165428Y-83768380D01*
X117141619Y-83720761D01*
X117141619Y-83530285D01*
X117165428Y-83482666D01*
X117213047Y-83458857D01*
X117308285Y-83458857D01*
X117355904Y-83482666D01*
X117379714Y-83530285D01*
X117379714Y-83577904D01*
X117141619Y-83625523D01*
X117665428Y-83792190D02*
X117617809Y-83768380D01*
X117594000Y-83720761D01*
X117594000Y-83292190D01*
X118046380Y-83768380D02*
X117998761Y-83792190D01*
X117903523Y-83792190D01*
X117855904Y-83768380D01*
X117832095Y-83720761D01*
X117832095Y-83530285D01*
X117855904Y-83482666D01*
X117903523Y-83458857D01*
X117998761Y-83458857D01*
X118046380Y-83482666D01*
X118070190Y-83530285D01*
X118070190Y-83577904D01*
X117832095Y-83625523D01*
X118284476Y-83792190D02*
X118284476Y-83458857D01*
X118284476Y-83506476D02*
X118308285Y-83482666D01*
X118355904Y-83458857D01*
X118427333Y-83458857D01*
X118474952Y-83482666D01*
X118498761Y-83530285D01*
X118498761Y-83792190D01*
X118498761Y-83530285D02*
X118522571Y-83482666D01*
X118570190Y-83458857D01*
X118641619Y-83458857D01*
X118689238Y-83482666D01*
X118713047Y-83530285D01*
X118713047Y-83792190D01*
X115697047Y-85856000D02*
X115649428Y-85832190D01*
X115578000Y-85832190D01*
X115506571Y-85856000D01*
X115458952Y-85903619D01*
X115435142Y-85951238D01*
X115411333Y-86046476D01*
X115411333Y-86117904D01*
X115435142Y-86213142D01*
X115458952Y-86260761D01*
X115506571Y-86308380D01*
X115578000Y-86332190D01*
X115625619Y-86332190D01*
X115697047Y-86308380D01*
X115720857Y-86284571D01*
X115720857Y-86117904D01*
X115625619Y-86117904D01*
X115935142Y-86332190D02*
X115935142Y-85832190D01*
X116220857Y-86332190D01*
X116220857Y-85832190D01*
X116458952Y-86332190D02*
X116458952Y-85832190D01*
X116578000Y-85832190D01*
X116649428Y-85856000D01*
X116697047Y-85903619D01*
X116720857Y-85951238D01*
X116744666Y-86046476D01*
X116744666Y-86117904D01*
X116720857Y-86213142D01*
X116697047Y-86260761D01*
X116649428Y-86308380D01*
X116578000Y-86332190D01*
X116458952Y-86332190D01*
X115728761Y-88118190D02*
X115490666Y-88118190D01*
X115466857Y-88356285D01*
X115490666Y-88332476D01*
X115538285Y-88308666D01*
X115657333Y-88308666D01*
X115704952Y-88332476D01*
X115728761Y-88356285D01*
X115752571Y-88403904D01*
X115752571Y-88522952D01*
X115728761Y-88570571D01*
X115704952Y-88594380D01*
X115657333Y-88618190D01*
X115538285Y-88618190D01*
X115490666Y-88594380D01*
X115466857Y-88570571D01*
X115895428Y-88118190D02*
X116062095Y-88618190D01*
X116228761Y-88118190D01*
X126126952Y-76180190D02*
X126436476Y-76180190D01*
X126269809Y-76370666D01*
X126341238Y-76370666D01*
X126388857Y-76394476D01*
X126412666Y-76418285D01*
X126436476Y-76465904D01*
X126436476Y-76584952D01*
X126412666Y-76632571D01*
X126388857Y-76656380D01*
X126341238Y-76680190D01*
X126198380Y-76680190D01*
X126150761Y-76656380D01*
X126126952Y-76632571D01*
X126579333Y-76180190D02*
X126746000Y-76680190D01*
X126912666Y-76180190D01*
X127031714Y-76180190D02*
X127341238Y-76180190D01*
X127174571Y-76370666D01*
X127246000Y-76370666D01*
X127293619Y-76394476D01*
X127317428Y-76418285D01*
X127341238Y-76465904D01*
X127341238Y-76584952D01*
X127317428Y-76632571D01*
X127293619Y-76656380D01*
X127246000Y-76680190D01*
X127103142Y-76680190D01*
X127055523Y-76656380D01*
X127031714Y-76632571D01*
X126396761Y-79482190D02*
X126158666Y-79482190D01*
X126134857Y-79720285D01*
X126158666Y-79696476D01*
X126206285Y-79672666D01*
X126325333Y-79672666D01*
X126372952Y-79696476D01*
X126396761Y-79720285D01*
X126420571Y-79767904D01*
X126420571Y-79886952D01*
X126396761Y-79934571D01*
X126372952Y-79958380D01*
X126325333Y-79982190D01*
X126206285Y-79982190D01*
X126158666Y-79958380D01*
X126134857Y-79934571D01*
X126563428Y-79482190D02*
X126730095Y-79982190D01*
X126896761Y-79482190D01*
X142636952Y-85578190D02*
X142946476Y-85578190D01*
X142779809Y-85768666D01*
X142851238Y-85768666D01*
X142898857Y-85792476D01*
X142922666Y-85816285D01*
X142946476Y-85863904D01*
X142946476Y-85982952D01*
X142922666Y-86030571D01*
X142898857Y-86054380D01*
X142851238Y-86078190D01*
X142708380Y-86078190D01*
X142660761Y-86054380D01*
X142636952Y-86030571D01*
X143089333Y-85578190D02*
X143256000Y-86078190D01*
X143422666Y-85578190D01*
X143541714Y-85578190D02*
X143851238Y-85578190D01*
X143684571Y-85768666D01*
X143756000Y-85768666D01*
X143803619Y-85792476D01*
X143827428Y-85816285D01*
X143851238Y-85863904D01*
X143851238Y-85982952D01*
X143827428Y-86030571D01*
X143803619Y-86054380D01*
X143756000Y-86078190D01*
X143613142Y-86078190D01*
X143565523Y-86054380D01*
X143541714Y-86030571D01*
X140787619Y-84546285D02*
X140620952Y-84546285D01*
X140620952Y-84808190D02*
X140620952Y-84308190D01*
X140859047Y-84308190D01*
X141335238Y-84760571D02*
X141311428Y-84784380D01*
X141240000Y-84808190D01*
X141192380Y-84808190D01*
X141120952Y-84784380D01*
X141073333Y-84736761D01*
X141049523Y-84689142D01*
X141025714Y-84593904D01*
X141025714Y-84522476D01*
X141049523Y-84427238D01*
X141073333Y-84379619D01*
X141120952Y-84332000D01*
X141192380Y-84308190D01*
X141240000Y-84308190D01*
X141311428Y-84332000D01*
X141335238Y-84355809D01*
X141859047Y-84308190D02*
X142144761Y-84308190D01*
X142001904Y-84808190D02*
X142001904Y-84308190D01*
X142501904Y-84784380D02*
X142454285Y-84808190D01*
X142359047Y-84808190D01*
X142311428Y-84784380D01*
X142287619Y-84736761D01*
X142287619Y-84546285D01*
X142311428Y-84498666D01*
X142359047Y-84474857D01*
X142454285Y-84474857D01*
X142501904Y-84498666D01*
X142525714Y-84546285D01*
X142525714Y-84593904D01*
X142287619Y-84641523D01*
X142811428Y-84808190D02*
X142763809Y-84784380D01*
X142740000Y-84736761D01*
X142740000Y-84308190D01*
X143192380Y-84784380D02*
X143144761Y-84808190D01*
X143049523Y-84808190D01*
X143001904Y-84784380D01*
X142978095Y-84736761D01*
X142978095Y-84546285D01*
X143001904Y-84498666D01*
X143049523Y-84474857D01*
X143144761Y-84474857D01*
X143192380Y-84498666D01*
X143216190Y-84546285D01*
X143216190Y-84593904D01*
X142978095Y-84641523D01*
X143430476Y-84808190D02*
X143430476Y-84474857D01*
X143430476Y-84522476D02*
X143454285Y-84498666D01*
X143501904Y-84474857D01*
X143573333Y-84474857D01*
X143620952Y-84498666D01*
X143644761Y-84546285D01*
X143644761Y-84808190D01*
X143644761Y-84546285D02*
X143668571Y-84498666D01*
X143716190Y-84474857D01*
X143787619Y-84474857D01*
X143835238Y-84498666D01*
X143859047Y-84546285D01*
X143859047Y-84808190D01*
X138628761Y-83530285D02*
X138462095Y-83530285D01*
X138462095Y-83792190D02*
X138462095Y-83292190D01*
X138700190Y-83292190D01*
X139176380Y-83744571D02*
X139152571Y-83768380D01*
X139081142Y-83792190D01*
X139033523Y-83792190D01*
X138962095Y-83768380D01*
X138914476Y-83720761D01*
X138890666Y-83673142D01*
X138866857Y-83577904D01*
X138866857Y-83506476D01*
X138890666Y-83411238D01*
X138914476Y-83363619D01*
X138962095Y-83316000D01*
X139033523Y-83292190D01*
X139081142Y-83292190D01*
X139152571Y-83316000D01*
X139176380Y-83339809D01*
X140057333Y-83744571D02*
X140033523Y-83768380D01*
X139962095Y-83792190D01*
X139914476Y-83792190D01*
X139843047Y-83768380D01*
X139795428Y-83720761D01*
X139771619Y-83673142D01*
X139747809Y-83577904D01*
X139747809Y-83506476D01*
X139771619Y-83411238D01*
X139795428Y-83363619D01*
X139843047Y-83316000D01*
X139914476Y-83292190D01*
X139962095Y-83292190D01*
X140033523Y-83316000D01*
X140057333Y-83339809D01*
X140509714Y-83792190D02*
X140271619Y-83792190D01*
X140271619Y-83292190D01*
X140676380Y-83792190D02*
X140676380Y-83292190D01*
X141438285Y-83982666D02*
X141414476Y-83958857D01*
X141366857Y-83887428D01*
X141343047Y-83839809D01*
X141319238Y-83768380D01*
X141295428Y-83649333D01*
X141295428Y-83554095D01*
X141319238Y-83435047D01*
X141343047Y-83363619D01*
X141366857Y-83316000D01*
X141414476Y-83244571D01*
X141438285Y-83220761D01*
X141914476Y-83792190D02*
X141747809Y-83554095D01*
X141628761Y-83792190D02*
X141628761Y-83292190D01*
X141819238Y-83292190D01*
X141866857Y-83316000D01*
X141890666Y-83339809D01*
X141914476Y-83387428D01*
X141914476Y-83458857D01*
X141890666Y-83506476D01*
X141866857Y-83530285D01*
X141819238Y-83554095D01*
X141628761Y-83554095D01*
X142128761Y-83530285D02*
X142295428Y-83530285D01*
X142366857Y-83792190D02*
X142128761Y-83792190D01*
X142128761Y-83292190D01*
X142366857Y-83292190D01*
X142557333Y-83768380D02*
X142628761Y-83792190D01*
X142747809Y-83792190D01*
X142795428Y-83768380D01*
X142819238Y-83744571D01*
X142843047Y-83696952D01*
X142843047Y-83649333D01*
X142819238Y-83601714D01*
X142795428Y-83577904D01*
X142747809Y-83554095D01*
X142652571Y-83530285D01*
X142604952Y-83506476D01*
X142581142Y-83482666D01*
X142557333Y-83435047D01*
X142557333Y-83387428D01*
X142581142Y-83339809D01*
X142604952Y-83316000D01*
X142652571Y-83292190D01*
X142771619Y-83292190D01*
X142843047Y-83316000D01*
X143057333Y-83530285D02*
X143224000Y-83530285D01*
X143295428Y-83792190D02*
X143057333Y-83792190D01*
X143057333Y-83292190D01*
X143295428Y-83292190D01*
X143438285Y-83292190D02*
X143724000Y-83292190D01*
X143581142Y-83792190D02*
X143581142Y-83292190D01*
X143843047Y-83982666D02*
X143866857Y-83958857D01*
X143914476Y-83887428D01*
X143938285Y-83839809D01*
X143962095Y-83768380D01*
X143985904Y-83649333D01*
X143985904Y-83554095D01*
X143962095Y-83435047D01*
X143938285Y-83363619D01*
X143914476Y-83316000D01*
X143866857Y-83244571D01*
X143843047Y-83220761D01*
X141855142Y-82752380D02*
X141926571Y-82776190D01*
X142045619Y-82776190D01*
X142093238Y-82752380D01*
X142117047Y-82728571D01*
X142140857Y-82680952D01*
X142140857Y-82633333D01*
X142117047Y-82585714D01*
X142093238Y-82561904D01*
X142045619Y-82538095D01*
X141950380Y-82514285D01*
X141902761Y-82490476D01*
X141878952Y-82466666D01*
X141855142Y-82419047D01*
X141855142Y-82371428D01*
X141878952Y-82323809D01*
X141902761Y-82300000D01*
X141950380Y-82276190D01*
X142069428Y-82276190D01*
X142140857Y-82300000D01*
X142521809Y-82514285D02*
X142593238Y-82538095D01*
X142617047Y-82561904D01*
X142640857Y-82609523D01*
X142640857Y-82680952D01*
X142617047Y-82728571D01*
X142593238Y-82752380D01*
X142545619Y-82776190D01*
X142355142Y-82776190D01*
X142355142Y-82276190D01*
X142521809Y-82276190D01*
X142569428Y-82300000D01*
X142593238Y-82323809D01*
X142617047Y-82371428D01*
X142617047Y-82419047D01*
X142593238Y-82466666D01*
X142569428Y-82490476D01*
X142521809Y-82514285D01*
X142355142Y-82514285D01*
X142855142Y-82276190D02*
X142855142Y-82680952D01*
X142878952Y-82728571D01*
X142902761Y-82752380D01*
X142950380Y-82776190D01*
X143045619Y-82776190D01*
X143093238Y-82752380D01*
X143117047Y-82728571D01*
X143140857Y-82680952D01*
X143140857Y-82276190D01*
X143355142Y-82752380D02*
X143426571Y-82776190D01*
X143545619Y-82776190D01*
X143593238Y-82752380D01*
X143617047Y-82728571D01*
X143640857Y-82680952D01*
X143640857Y-82633333D01*
X143617047Y-82585714D01*
X143593238Y-82561904D01*
X143545619Y-82538095D01*
X143450380Y-82514285D01*
X143402761Y-82490476D01*
X143378952Y-82466666D01*
X143355142Y-82419047D01*
X143355142Y-82371428D01*
X143378952Y-82323809D01*
X143402761Y-82300000D01*
X143450380Y-82276190D01*
X143569428Y-82276190D01*
X143640857Y-82300000D01*
X140716190Y-81506190D02*
X140716190Y-81006190D01*
X140906666Y-81006190D01*
X140954285Y-81030000D01*
X140978095Y-81053809D01*
X141001904Y-81101428D01*
X141001904Y-81172857D01*
X140978095Y-81220476D01*
X140954285Y-81244285D01*
X140906666Y-81268095D01*
X140716190Y-81268095D01*
X141216190Y-81506190D02*
X141216190Y-81172857D01*
X141216190Y-81006190D02*
X141192380Y-81030000D01*
X141216190Y-81053809D01*
X141240000Y-81030000D01*
X141216190Y-81006190D01*
X141216190Y-81053809D01*
X141763809Y-81006190D02*
X142049523Y-81006190D01*
X141906666Y-81506190D02*
X141906666Y-81006190D01*
X142406666Y-81482380D02*
X142359047Y-81506190D01*
X142263809Y-81506190D01*
X142216190Y-81482380D01*
X142192380Y-81434761D01*
X142192380Y-81244285D01*
X142216190Y-81196666D01*
X142263809Y-81172857D01*
X142359047Y-81172857D01*
X142406666Y-81196666D01*
X142430476Y-81244285D01*
X142430476Y-81291904D01*
X142192380Y-81339523D01*
X142716190Y-81506190D02*
X142668571Y-81482380D01*
X142644761Y-81434761D01*
X142644761Y-81006190D01*
X143097142Y-81482380D02*
X143049523Y-81506190D01*
X142954285Y-81506190D01*
X142906666Y-81482380D01*
X142882857Y-81434761D01*
X142882857Y-81244285D01*
X142906666Y-81196666D01*
X142954285Y-81172857D01*
X143049523Y-81172857D01*
X143097142Y-81196666D01*
X143120952Y-81244285D01*
X143120952Y-81291904D01*
X142882857Y-81339523D01*
X143335238Y-81506190D02*
X143335238Y-81172857D01*
X143335238Y-81220476D02*
X143359047Y-81196666D01*
X143406666Y-81172857D01*
X143478095Y-81172857D01*
X143525714Y-81196666D01*
X143549523Y-81244285D01*
X143549523Y-81506190D01*
X143549523Y-81244285D02*
X143573333Y-81196666D01*
X143620952Y-81172857D01*
X143692380Y-81172857D01*
X143740000Y-81196666D01*
X143763809Y-81244285D01*
X143763809Y-81506190D01*
D12*
%TO.C,G\u002A\u002A\u002A*%
G36*
X130933309Y-78328643D02*
G01*
X130937000Y-78359000D01*
X130840356Y-78482309D01*
X130810000Y-78486000D01*
X130686690Y-78389356D01*
X130683000Y-78359000D01*
X130779643Y-78235690D01*
X130810000Y-78232000D01*
X130933309Y-78328643D01*
G37*
X130933309Y-78328643D02*
X130937000Y-78359000D01*
X130840356Y-78482309D01*
X130810000Y-78486000D01*
X130686690Y-78389356D01*
X130683000Y-78359000D01*
X130779643Y-78235690D01*
X130810000Y-78232000D01*
X130933309Y-78328643D01*
G36*
X135255000Y-82740500D02*
G01*
X135191500Y-82804000D01*
X135128000Y-82740500D01*
X135191500Y-82677000D01*
X135255000Y-82740500D01*
G37*
X135255000Y-82740500D02*
X135191500Y-82804000D01*
X135128000Y-82740500D01*
X135191500Y-82677000D01*
X135255000Y-82740500D01*
G36*
X131191000Y-81470500D02*
G01*
X131127500Y-81534000D01*
X131064000Y-81470500D01*
X131127500Y-81407000D01*
X131191000Y-81470500D01*
G37*
X131191000Y-81470500D02*
X131127500Y-81534000D01*
X131064000Y-81470500D01*
X131127500Y-81407000D01*
X131191000Y-81470500D01*
G36*
X131953000Y-81597500D02*
G01*
X131889500Y-81661000D01*
X131826000Y-81597500D01*
X131889500Y-81534000D01*
X131953000Y-81597500D01*
G37*
X131953000Y-81597500D02*
X131889500Y-81661000D01*
X131826000Y-81597500D01*
X131889500Y-81534000D01*
X131953000Y-81597500D01*
G36*
X130810000Y-81851500D02*
G01*
X130746500Y-81915000D01*
X130683000Y-81851500D01*
X130746500Y-81788000D01*
X130810000Y-81851500D01*
G37*
X130810000Y-81851500D02*
X130746500Y-81915000D01*
X130683000Y-81851500D01*
X130746500Y-81788000D01*
X130810000Y-81851500D01*
G36*
X132842000Y-82105500D02*
G01*
X132778500Y-82169000D01*
X132715000Y-82105500D01*
X132778500Y-82042000D01*
X132842000Y-82105500D01*
G37*
X132842000Y-82105500D02*
X132778500Y-82169000D01*
X132715000Y-82105500D01*
X132778500Y-82042000D01*
X132842000Y-82105500D01*
G36*
X132588000Y-82867500D02*
G01*
X132524500Y-82931000D01*
X132461000Y-82867500D01*
X132524500Y-82804000D01*
X132588000Y-82867500D01*
G37*
X132588000Y-82867500D02*
X132524500Y-82931000D01*
X132461000Y-82867500D01*
X132524500Y-82804000D01*
X132588000Y-82867500D01*
G36*
X131346196Y-82632876D02*
G01*
X131374796Y-82666152D01*
X131362123Y-82832196D01*
X131328847Y-82860796D01*
X131162803Y-82848123D01*
X131134203Y-82814847D01*
X131146876Y-82648803D01*
X131180152Y-82620203D01*
X131346196Y-82632876D01*
G37*
X131346196Y-82632876D02*
X131374796Y-82666152D01*
X131362123Y-82832196D01*
X131328847Y-82860796D01*
X131162803Y-82848123D01*
X131134203Y-82814847D01*
X131146876Y-82648803D01*
X131180152Y-82620203D01*
X131346196Y-82632876D01*
G36*
X132489196Y-83775876D02*
G01*
X132517796Y-83809152D01*
X132505123Y-83975196D01*
X132471847Y-84003796D01*
X132305803Y-83991123D01*
X132277203Y-83957847D01*
X132289876Y-83791803D01*
X132323152Y-83763203D01*
X132489196Y-83775876D01*
G37*
X132489196Y-83775876D02*
X132517796Y-83809152D01*
X132505123Y-83975196D01*
X132471847Y-84003796D01*
X132305803Y-83991123D01*
X132277203Y-83957847D01*
X132289876Y-83791803D01*
X132323152Y-83763203D01*
X132489196Y-83775876D01*
G36*
X133794937Y-76940412D02*
G01*
X134691070Y-77361452D01*
X135452949Y-77991206D01*
X136058849Y-78815423D01*
X136122053Y-78930500D01*
X136290493Y-79281969D01*
X136392019Y-79612143D01*
X136442725Y-80005904D01*
X136458705Y-80548134D01*
X136459161Y-80708500D01*
X136448987Y-81299454D01*
X136407676Y-81722326D01*
X136319040Y-82062593D01*
X136166894Y-82405731D01*
X136120946Y-82494558D01*
X135729397Y-83084919D01*
X135220846Y-83636112D01*
X134671185Y-84073720D01*
X134311439Y-84268949D01*
X133987593Y-84470881D01*
X133632801Y-84787941D01*
X133483432Y-84955108D01*
X133178977Y-85292466D01*
X132959031Y-85462993D01*
X132849500Y-85448671D01*
X132842000Y-85401193D01*
X132894696Y-85250650D01*
X133022015Y-84983302D01*
X133027297Y-84973060D01*
X133212594Y-84614735D01*
X132707948Y-84582000D01*
X133350000Y-84582000D01*
X133396467Y-84686535D01*
X133434666Y-84666666D01*
X133449866Y-84515947D01*
X133434666Y-84497333D01*
X133359165Y-84514766D01*
X133350000Y-84582000D01*
X132707948Y-84582000D01*
X132297047Y-84555346D01*
X131311724Y-84387059D01*
X130478375Y-84016308D01*
X129788045Y-83437144D01*
X129231779Y-82643619D01*
X129133346Y-82453638D01*
X128899334Y-81934155D01*
X128772433Y-81499298D01*
X128771939Y-81494581D01*
X128923747Y-81494581D01*
X129020520Y-81809075D01*
X129246346Y-82302832D01*
X129293579Y-82398046D01*
X129821433Y-83199161D01*
X130510181Y-83804685D01*
X131369252Y-84222971D01*
X131891224Y-84362951D01*
X132415799Y-84437221D01*
X132863768Y-84439837D01*
X133155925Y-84364859D01*
X133166710Y-84357805D01*
X133349115Y-84121392D01*
X133492105Y-83729492D01*
X133592641Y-83238685D01*
X133647684Y-82705551D01*
X133654195Y-82186672D01*
X133609136Y-81738628D01*
X133509468Y-81418000D01*
X133352152Y-81281369D01*
X133332008Y-81280000D01*
X133244434Y-81184370D01*
X133249067Y-81117998D01*
X133200233Y-80920328D01*
X133032242Y-80638805D01*
X132986135Y-80578248D01*
X132686001Y-80200500D01*
X132735606Y-80740250D01*
X132754378Y-81078474D01*
X132704189Y-81234642D01*
X132550034Y-81278417D01*
X132464356Y-81280078D01*
X132277046Y-81263466D01*
X132188432Y-81170640D01*
X132171114Y-80937297D01*
X132188365Y-80632358D01*
X132206825Y-80255144D01*
X132179256Y-80075816D01*
X132083966Y-80039426D01*
X131966115Y-80069337D01*
X131751630Y-80086889D01*
X131699000Y-80018558D01*
X131602213Y-79888456D01*
X131564504Y-79883000D01*
X131488655Y-79960804D01*
X131508500Y-80010000D01*
X131504465Y-80127291D01*
X131463078Y-80137000D01*
X131312172Y-80036813D01*
X131282470Y-79978250D01*
X131168642Y-79895484D01*
X131113136Y-79926133D01*
X131125565Y-80066359D01*
X131308703Y-80277083D01*
X131360948Y-80320833D01*
X131630098Y-80620739D01*
X131678448Y-80912699D01*
X131637782Y-81070723D01*
X131533380Y-81165432D01*
X131308335Y-81217005D01*
X130905740Y-81245621D01*
X130716615Y-81253776D01*
X130241100Y-81265963D01*
X129972859Y-81248545D01*
X129866035Y-81192892D01*
X129872952Y-81095026D01*
X129864082Y-80947075D01*
X129652585Y-80899380D01*
X129617087Y-80899000D01*
X129351578Y-80962934D01*
X129286000Y-81089500D01*
X129184340Y-81257872D01*
X129095500Y-81280000D01*
X128950561Y-81328504D01*
X128923747Y-81494581D01*
X128771939Y-81494581D01*
X128722177Y-81020175D01*
X128718802Y-80834097D01*
X128808013Y-80834097D01*
X128861077Y-81009574D01*
X128982436Y-80946495D01*
X129155886Y-80642175D01*
X129209051Y-80518000D01*
X129540000Y-80518000D01*
X129586467Y-80622535D01*
X129624666Y-80602666D01*
X129639608Y-80454500D01*
X129794000Y-80454500D01*
X129857500Y-80518000D01*
X129921000Y-80454500D01*
X129857500Y-80391000D01*
X129794000Y-80454500D01*
X129639608Y-80454500D01*
X129639866Y-80451947D01*
X129624666Y-80433333D01*
X129549165Y-80450766D01*
X129540000Y-80518000D01*
X129209051Y-80518000D01*
X129222645Y-80486250D01*
X129368691Y-80124492D01*
X129479113Y-79850042D01*
X129504022Y-79787750D01*
X129454790Y-79674690D01*
X129282281Y-79629000D01*
X129805685Y-79629000D01*
X130116358Y-80295750D01*
X130334992Y-80693660D01*
X130525337Y-80904495D01*
X130608939Y-80927381D01*
X130821409Y-80971667D01*
X130871418Y-81022631D01*
X131053822Y-81147741D01*
X131237551Y-81052218D01*
X131248498Y-81035711D01*
X131203812Y-80894507D01*
X131001615Y-80693403D01*
X130938493Y-80646063D01*
X130635237Y-80338502D01*
X130605392Y-80200500D01*
X130683000Y-80200500D01*
X130746500Y-80264000D01*
X130810000Y-80200500D01*
X130746500Y-80137000D01*
X130683000Y-80200500D01*
X130605392Y-80200500D01*
X130568553Y-80030162D01*
X130708400Y-79781399D01*
X130752226Y-79684149D01*
X130605359Y-79638236D01*
X130333242Y-79628999D01*
X129805685Y-79629000D01*
X129282281Y-79629000D01*
X129272271Y-79626349D01*
X129072112Y-79656966D01*
X128988361Y-79724250D01*
X128936273Y-79897375D01*
X128870819Y-80228227D01*
X128839446Y-80422750D01*
X128808013Y-80834097D01*
X128718802Y-80834097D01*
X128716163Y-80688686D01*
X128714500Y-79767774D01*
X127190500Y-79888018D01*
X127746299Y-79629900D01*
X127895540Y-79565500D01*
X128270000Y-79565500D01*
X128333500Y-79629000D01*
X128397000Y-79565500D01*
X128333500Y-79502000D01*
X128270000Y-79565500D01*
X127895540Y-79565500D01*
X128145855Y-79457486D01*
X128197106Y-79438500D01*
X128778000Y-79438500D01*
X128841500Y-79502000D01*
X128905000Y-79438500D01*
X128841500Y-79375000D01*
X128778000Y-79438500D01*
X128197106Y-79438500D01*
X128392047Y-79366285D01*
X129032000Y-79366285D01*
X129152685Y-79422124D01*
X129489485Y-79475489D01*
X130004513Y-79523613D01*
X130659884Y-79563726D01*
X131417711Y-79593061D01*
X132240110Y-79608850D01*
X132365750Y-79609872D01*
X132822402Y-79620096D01*
X133080552Y-79654591D01*
X133195598Y-79730577D01*
X133222938Y-79865268D01*
X133223000Y-79876291D01*
X133162384Y-80092993D01*
X133034256Y-80121051D01*
X132933470Y-79978250D01*
X132829041Y-79884560D01*
X132783036Y-79906433D01*
X132799638Y-80044242D01*
X132957294Y-80278807D01*
X133019649Y-80349636D01*
X133350000Y-80705904D01*
X133350000Y-80204485D01*
X133731000Y-80204485D01*
X133810735Y-80372120D01*
X133972122Y-80353647D01*
X134040275Y-80277307D01*
X134006464Y-80142805D01*
X133920770Y-80090793D01*
X133757451Y-80110952D01*
X133731000Y-80204485D01*
X133350000Y-80204485D01*
X133350000Y-80167452D01*
X133361696Y-79829566D01*
X133434572Y-79674490D01*
X133625309Y-79631072D01*
X133778949Y-79629000D01*
X134201458Y-79707626D01*
X134423711Y-79941271D01*
X134442764Y-80326586D01*
X134433298Y-80373707D01*
X134413807Y-80676178D01*
X134485564Y-80830904D01*
X134609394Y-81019389D01*
X134620000Y-81096995D01*
X134524610Y-81236055D01*
X134323700Y-81276492D01*
X134145155Y-81212317D01*
X134101973Y-81121250D01*
X134076445Y-81027662D01*
X134027890Y-81121250D01*
X133860038Y-81268408D01*
X133790523Y-81280000D01*
X133684723Y-81331752D01*
X133706273Y-81526614D01*
X133746471Y-81650791D01*
X133792844Y-81965471D01*
X133793805Y-82441171D01*
X133756522Y-82990411D01*
X133688158Y-83525712D01*
X133595882Y-83959595D01*
X133545371Y-84105750D01*
X133518276Y-84287058D01*
X133570465Y-84328000D01*
X133683910Y-84229057D01*
X133943356Y-84229057D01*
X134343464Y-84022153D01*
X134699058Y-83801727D01*
X135088657Y-83509355D01*
X135184694Y-83427938D01*
X135559216Y-82996832D01*
X135912050Y-82416334D01*
X136188235Y-81788863D01*
X136318159Y-81315718D01*
X136358825Y-81044671D01*
X136320220Y-80992815D01*
X136167726Y-81129300D01*
X136140031Y-81156968D01*
X135864927Y-81345402D01*
X135638419Y-81407000D01*
X135407449Y-81517459D01*
X135303407Y-81756250D01*
X135199837Y-82070433D01*
X135099760Y-82258439D01*
X134962017Y-82469325D01*
X134782902Y-82784487D01*
X134758696Y-82829939D01*
X134544426Y-83218522D01*
X134293509Y-83650747D01*
X134240602Y-83738778D01*
X133943356Y-84229057D01*
X133683910Y-84229057D01*
X133687189Y-84226198D01*
X133890746Y-83955646D01*
X134142826Y-83568628D01*
X134219052Y-83442883D01*
X134465048Y-83017093D01*
X134649924Y-82671630D01*
X134742100Y-82466333D01*
X134747000Y-82442434D01*
X134833771Y-82271198D01*
X134923436Y-82180671D01*
X135127970Y-81868332D01*
X135156917Y-81488809D01*
X135003406Y-81156224D01*
X134986215Y-81138215D01*
X134789121Y-80786739D01*
X135257014Y-80786739D01*
X135306826Y-80988841D01*
X135366125Y-81026000D01*
X135464723Y-80915994D01*
X135488731Y-80842995D01*
X135636000Y-80842995D01*
X135707008Y-81007135D01*
X135763000Y-81026000D01*
X135865187Y-80919311D01*
X135890000Y-80764504D01*
X135841110Y-80588899D01*
X135763000Y-80581500D01*
X135646143Y-80765253D01*
X135636000Y-80842995D01*
X135488731Y-80842995D01*
X135552468Y-80649201D01*
X135556625Y-80629125D01*
X135630200Y-80193682D01*
X135630139Y-80189916D01*
X135773026Y-80189916D01*
X135796376Y-80354637D01*
X135839729Y-80356604D01*
X135870046Y-80186628D01*
X135849755Y-80113187D01*
X135793363Y-80065082D01*
X135773026Y-80189916D01*
X135630139Y-80189916D01*
X135626622Y-79974775D01*
X135541054Y-79945452D01*
X135445500Y-80010000D01*
X135333839Y-80201471D01*
X135268514Y-80492333D01*
X135257014Y-80786739D01*
X134789121Y-80786739D01*
X134783665Y-80777010D01*
X134775484Y-80358575D01*
X134940907Y-79960710D01*
X135259168Y-79661216D01*
X135397875Y-79595854D01*
X135476495Y-79479588D01*
X135368209Y-79292746D01*
X135117296Y-79069964D01*
X134768034Y-78845880D01*
X134364701Y-78655129D01*
X134073533Y-78559889D01*
X133723567Y-78478107D01*
X133420520Y-78439555D01*
X133093055Y-78446419D01*
X132669833Y-78500885D01*
X132079518Y-78605139D01*
X131978033Y-78624103D01*
X131342659Y-78749766D01*
X130729307Y-78882370D01*
X130224728Y-79002631D01*
X130001666Y-79063402D01*
X129609352Y-79170751D01*
X129302473Y-79237323D01*
X129207916Y-79247999D01*
X129048417Y-79316532D01*
X129032000Y-79366285D01*
X128392047Y-79366285D01*
X128497999Y-79327036D01*
X128598860Y-79297300D01*
X128850643Y-79138231D01*
X128925896Y-79050583D01*
X129301760Y-79050583D01*
X129303263Y-79052161D01*
X129440920Y-79045091D01*
X129730789Y-78973748D01*
X129857500Y-78935257D01*
X130185595Y-78848117D01*
X130692192Y-78733829D01*
X131305394Y-78607887D01*
X131889500Y-78497293D01*
X132542663Y-78382130D01*
X133010696Y-78313381D01*
X133357800Y-78288979D01*
X133648174Y-78306855D01*
X133946020Y-78364943D01*
X134175497Y-78423672D01*
X134687925Y-78608866D01*
X135139724Y-78859174D01*
X135473208Y-79134342D01*
X135630689Y-79394113D01*
X135636000Y-79442853D01*
X135726355Y-79587339D01*
X135928039Y-79719948D01*
X136136983Y-79788460D01*
X136246482Y-79749173D01*
X136214869Y-79589274D01*
X136092250Y-79283010D01*
X135966744Y-79020136D01*
X135436557Y-78232228D01*
X134759183Y-77627014D01*
X133971768Y-77212442D01*
X133111460Y-76996459D01*
X132215405Y-76987013D01*
X131320752Y-77192051D01*
X130464648Y-77619520D01*
X130222400Y-77791169D01*
X129971745Y-78023625D01*
X129707611Y-78329922D01*
X129476739Y-78645933D01*
X129325875Y-78907530D01*
X129301760Y-79050583D01*
X128925896Y-79050583D01*
X129124024Y-78819824D01*
X129216916Y-78674571D01*
X129786554Y-77932691D01*
X130512243Y-77346090D01*
X131344144Y-76941748D01*
X132232417Y-76746645D01*
X132786273Y-76742335D01*
X133794937Y-76940412D01*
G37*
X133794937Y-76940412D02*
X134691070Y-77361452D01*
X135452949Y-77991206D01*
X136058849Y-78815423D01*
X136122053Y-78930500D01*
X136290493Y-79281969D01*
X136392019Y-79612143D01*
X136442725Y-80005904D01*
X136458705Y-80548134D01*
X136459161Y-80708500D01*
X136448987Y-81299454D01*
X136407676Y-81722326D01*
X136319040Y-82062593D01*
X136166894Y-82405731D01*
X136120946Y-82494558D01*
X135729397Y-83084919D01*
X135220846Y-83636112D01*
X134671185Y-84073720D01*
X134311439Y-84268949D01*
X133987593Y-84470881D01*
X133632801Y-84787941D01*
X133483432Y-84955108D01*
X133178977Y-85292466D01*
X132959031Y-85462993D01*
X132849500Y-85448671D01*
X132842000Y-85401193D01*
X132894696Y-85250650D01*
X133022015Y-84983302D01*
X133027297Y-84973060D01*
X133212594Y-84614735D01*
X132707948Y-84582000D01*
X133350000Y-84582000D01*
X133396467Y-84686535D01*
X133434666Y-84666666D01*
X133449866Y-84515947D01*
X133434666Y-84497333D01*
X133359165Y-84514766D01*
X133350000Y-84582000D01*
X132707948Y-84582000D01*
X132297047Y-84555346D01*
X131311724Y-84387059D01*
X130478375Y-84016308D01*
X129788045Y-83437144D01*
X129231779Y-82643619D01*
X129133346Y-82453638D01*
X128899334Y-81934155D01*
X128772433Y-81499298D01*
X128771939Y-81494581D01*
X128923747Y-81494581D01*
X129020520Y-81809075D01*
X129246346Y-82302832D01*
X129293579Y-82398046D01*
X129821433Y-83199161D01*
X130510181Y-83804685D01*
X131369252Y-84222971D01*
X131891224Y-84362951D01*
X132415799Y-84437221D01*
X132863768Y-84439837D01*
X133155925Y-84364859D01*
X133166710Y-84357805D01*
X133349115Y-84121392D01*
X133492105Y-83729492D01*
X133592641Y-83238685D01*
X133647684Y-82705551D01*
X133654195Y-82186672D01*
X133609136Y-81738628D01*
X133509468Y-81418000D01*
X133352152Y-81281369D01*
X133332008Y-81280000D01*
X133244434Y-81184370D01*
X133249067Y-81117998D01*
X133200233Y-80920328D01*
X133032242Y-80638805D01*
X132986135Y-80578248D01*
X132686001Y-80200500D01*
X132735606Y-80740250D01*
X132754378Y-81078474D01*
X132704189Y-81234642D01*
X132550034Y-81278417D01*
X132464356Y-81280078D01*
X132277046Y-81263466D01*
X132188432Y-81170640D01*
X132171114Y-80937297D01*
X132188365Y-80632358D01*
X132206825Y-80255144D01*
X132179256Y-80075816D01*
X132083966Y-80039426D01*
X131966115Y-80069337D01*
X131751630Y-80086889D01*
X131699000Y-80018558D01*
X131602213Y-79888456D01*
X131564504Y-79883000D01*
X131488655Y-79960804D01*
X131508500Y-80010000D01*
X131504465Y-80127291D01*
X131463078Y-80137000D01*
X131312172Y-80036813D01*
X131282470Y-79978250D01*
X131168642Y-79895484D01*
X131113136Y-79926133D01*
X131125565Y-80066359D01*
X131308703Y-80277083D01*
X131360948Y-80320833D01*
X131630098Y-80620739D01*
X131678448Y-80912699D01*
X131637782Y-81070723D01*
X131533380Y-81165432D01*
X131308335Y-81217005D01*
X130905740Y-81245621D01*
X130716615Y-81253776D01*
X130241100Y-81265963D01*
X129972859Y-81248545D01*
X129866035Y-81192892D01*
X129872952Y-81095026D01*
X129864082Y-80947075D01*
X129652585Y-80899380D01*
X129617087Y-80899000D01*
X129351578Y-80962934D01*
X129286000Y-81089500D01*
X129184340Y-81257872D01*
X129095500Y-81280000D01*
X128950561Y-81328504D01*
X128923747Y-81494581D01*
X128771939Y-81494581D01*
X128722177Y-81020175D01*
X128718802Y-80834097D01*
X128808013Y-80834097D01*
X128861077Y-81009574D01*
X128982436Y-80946495D01*
X129155886Y-80642175D01*
X129209051Y-80518000D01*
X129540000Y-80518000D01*
X129586467Y-80622535D01*
X129624666Y-80602666D01*
X129639608Y-80454500D01*
X129794000Y-80454500D01*
X129857500Y-80518000D01*
X129921000Y-80454500D01*
X129857500Y-80391000D01*
X129794000Y-80454500D01*
X129639608Y-80454500D01*
X129639866Y-80451947D01*
X129624666Y-80433333D01*
X129549165Y-80450766D01*
X129540000Y-80518000D01*
X129209051Y-80518000D01*
X129222645Y-80486250D01*
X129368691Y-80124492D01*
X129479113Y-79850042D01*
X129504022Y-79787750D01*
X129454790Y-79674690D01*
X129282281Y-79629000D01*
X129805685Y-79629000D01*
X130116358Y-80295750D01*
X130334992Y-80693660D01*
X130525337Y-80904495D01*
X130608939Y-80927381D01*
X130821409Y-80971667D01*
X130871418Y-81022631D01*
X131053822Y-81147741D01*
X131237551Y-81052218D01*
X131248498Y-81035711D01*
X131203812Y-80894507D01*
X131001615Y-80693403D01*
X130938493Y-80646063D01*
X130635237Y-80338502D01*
X130605392Y-80200500D01*
X130683000Y-80200500D01*
X130746500Y-80264000D01*
X130810000Y-80200500D01*
X130746500Y-80137000D01*
X130683000Y-80200500D01*
X130605392Y-80200500D01*
X130568553Y-80030162D01*
X130708400Y-79781399D01*
X130752226Y-79684149D01*
X130605359Y-79638236D01*
X130333242Y-79628999D01*
X129805685Y-79629000D01*
X129282281Y-79629000D01*
X129272271Y-79626349D01*
X129072112Y-79656966D01*
X128988361Y-79724250D01*
X128936273Y-79897375D01*
X128870819Y-80228227D01*
X128839446Y-80422750D01*
X128808013Y-80834097D01*
X128718802Y-80834097D01*
X128716163Y-80688686D01*
X128714500Y-79767774D01*
X127190500Y-79888018D01*
X127746299Y-79629900D01*
X127895540Y-79565500D01*
X128270000Y-79565500D01*
X128333500Y-79629000D01*
X128397000Y-79565500D01*
X128333500Y-79502000D01*
X128270000Y-79565500D01*
X127895540Y-79565500D01*
X128145855Y-79457486D01*
X128197106Y-79438500D01*
X128778000Y-79438500D01*
X128841500Y-79502000D01*
X128905000Y-79438500D01*
X128841500Y-79375000D01*
X128778000Y-79438500D01*
X128197106Y-79438500D01*
X128392047Y-79366285D01*
X129032000Y-79366285D01*
X129152685Y-79422124D01*
X129489485Y-79475489D01*
X130004513Y-79523613D01*
X130659884Y-79563726D01*
X131417711Y-79593061D01*
X132240110Y-79608850D01*
X132365750Y-79609872D01*
X132822402Y-79620096D01*
X133080552Y-79654591D01*
X133195598Y-79730577D01*
X133222938Y-79865268D01*
X133223000Y-79876291D01*
X133162384Y-80092993D01*
X133034256Y-80121051D01*
X132933470Y-79978250D01*
X132829041Y-79884560D01*
X132783036Y-79906433D01*
X132799638Y-80044242D01*
X132957294Y-80278807D01*
X133019649Y-80349636D01*
X133350000Y-80705904D01*
X133350000Y-80204485D01*
X133731000Y-80204485D01*
X133810735Y-80372120D01*
X133972122Y-80353647D01*
X134040275Y-80277307D01*
X134006464Y-80142805D01*
X133920770Y-80090793D01*
X133757451Y-80110952D01*
X133731000Y-80204485D01*
X133350000Y-80204485D01*
X133350000Y-80167452D01*
X133361696Y-79829566D01*
X133434572Y-79674490D01*
X133625309Y-79631072D01*
X133778949Y-79629000D01*
X134201458Y-79707626D01*
X134423711Y-79941271D01*
X134442764Y-80326586D01*
X134433298Y-80373707D01*
X134413807Y-80676178D01*
X134485564Y-80830904D01*
X134609394Y-81019389D01*
X134620000Y-81096995D01*
X134524610Y-81236055D01*
X134323700Y-81276492D01*
X134145155Y-81212317D01*
X134101973Y-81121250D01*
X134076445Y-81027662D01*
X134027890Y-81121250D01*
X133860038Y-81268408D01*
X133790523Y-81280000D01*
X133684723Y-81331752D01*
X133706273Y-81526614D01*
X133746471Y-81650791D01*
X133792844Y-81965471D01*
X133793805Y-82441171D01*
X133756522Y-82990411D01*
X133688158Y-83525712D01*
X133595882Y-83959595D01*
X133545371Y-84105750D01*
X133518276Y-84287058D01*
X133570465Y-84328000D01*
X133683910Y-84229057D01*
X133943356Y-84229057D01*
X134343464Y-84022153D01*
X134699058Y-83801727D01*
X135088657Y-83509355D01*
X135184694Y-83427938D01*
X135559216Y-82996832D01*
X135912050Y-82416334D01*
X136188235Y-81788863D01*
X136318159Y-81315718D01*
X136358825Y-81044671D01*
X136320220Y-80992815D01*
X136167726Y-81129300D01*
X136140031Y-81156968D01*
X135864927Y-81345402D01*
X135638419Y-81407000D01*
X135407449Y-81517459D01*
X135303407Y-81756250D01*
X135199837Y-82070433D01*
X135099760Y-82258439D01*
X134962017Y-82469325D01*
X134782902Y-82784487D01*
X134758696Y-82829939D01*
X134544426Y-83218522D01*
X134293509Y-83650747D01*
X134240602Y-83738778D01*
X133943356Y-84229057D01*
X133683910Y-84229057D01*
X133687189Y-84226198D01*
X133890746Y-83955646D01*
X134142826Y-83568628D01*
X134219052Y-83442883D01*
X134465048Y-83017093D01*
X134649924Y-82671630D01*
X134742100Y-82466333D01*
X134747000Y-82442434D01*
X134833771Y-82271198D01*
X134923436Y-82180671D01*
X135127970Y-81868332D01*
X135156917Y-81488809D01*
X135003406Y-81156224D01*
X134986215Y-81138215D01*
X134789121Y-80786739D01*
X135257014Y-80786739D01*
X135306826Y-80988841D01*
X135366125Y-81026000D01*
X135464723Y-80915994D01*
X135488731Y-80842995D01*
X135636000Y-80842995D01*
X135707008Y-81007135D01*
X135763000Y-81026000D01*
X135865187Y-80919311D01*
X135890000Y-80764504D01*
X135841110Y-80588899D01*
X135763000Y-80581500D01*
X135646143Y-80765253D01*
X135636000Y-80842995D01*
X135488731Y-80842995D01*
X135552468Y-80649201D01*
X135556625Y-80629125D01*
X135630200Y-80193682D01*
X135630139Y-80189916D01*
X135773026Y-80189916D01*
X135796376Y-80354637D01*
X135839729Y-80356604D01*
X135870046Y-80186628D01*
X135849755Y-80113187D01*
X135793363Y-80065082D01*
X135773026Y-80189916D01*
X135630139Y-80189916D01*
X135626622Y-79974775D01*
X135541054Y-79945452D01*
X135445500Y-80010000D01*
X135333839Y-80201471D01*
X135268514Y-80492333D01*
X135257014Y-80786739D01*
X134789121Y-80786739D01*
X134783665Y-80777010D01*
X134775484Y-80358575D01*
X134940907Y-79960710D01*
X135259168Y-79661216D01*
X135397875Y-79595854D01*
X135476495Y-79479588D01*
X135368209Y-79292746D01*
X135117296Y-79069964D01*
X134768034Y-78845880D01*
X134364701Y-78655129D01*
X134073533Y-78559889D01*
X133723567Y-78478107D01*
X133420520Y-78439555D01*
X133093055Y-78446419D01*
X132669833Y-78500885D01*
X132079518Y-78605139D01*
X131978033Y-78624103D01*
X131342659Y-78749766D01*
X130729307Y-78882370D01*
X130224728Y-79002631D01*
X130001666Y-79063402D01*
X129609352Y-79170751D01*
X129302473Y-79237323D01*
X129207916Y-79247999D01*
X129048417Y-79316532D01*
X129032000Y-79366285D01*
X128392047Y-79366285D01*
X128497999Y-79327036D01*
X128598860Y-79297300D01*
X128850643Y-79138231D01*
X128925896Y-79050583D01*
X129301760Y-79050583D01*
X129303263Y-79052161D01*
X129440920Y-79045091D01*
X129730789Y-78973748D01*
X129857500Y-78935257D01*
X130185595Y-78848117D01*
X130692192Y-78733829D01*
X131305394Y-78607887D01*
X131889500Y-78497293D01*
X132542663Y-78382130D01*
X133010696Y-78313381D01*
X133357800Y-78288979D01*
X133648174Y-78306855D01*
X133946020Y-78364943D01*
X134175497Y-78423672D01*
X134687925Y-78608866D01*
X135139724Y-78859174D01*
X135473208Y-79134342D01*
X135630689Y-79394113D01*
X135636000Y-79442853D01*
X135726355Y-79587339D01*
X135928039Y-79719948D01*
X136136983Y-79788460D01*
X136246482Y-79749173D01*
X136214869Y-79589274D01*
X136092250Y-79283010D01*
X135966744Y-79020136D01*
X135436557Y-78232228D01*
X134759183Y-77627014D01*
X133971768Y-77212442D01*
X133111460Y-76996459D01*
X132215405Y-76987013D01*
X131320752Y-77192051D01*
X130464648Y-77619520D01*
X130222400Y-77791169D01*
X129971745Y-78023625D01*
X129707611Y-78329922D01*
X129476739Y-78645933D01*
X129325875Y-78907530D01*
X129301760Y-79050583D01*
X128925896Y-79050583D01*
X129124024Y-78819824D01*
X129216916Y-78674571D01*
X129786554Y-77932691D01*
X130512243Y-77346090D01*
X131344144Y-76941748D01*
X132232417Y-76746645D01*
X132786273Y-76742335D01*
X133794937Y-76940412D01*
D10*
%TO.C,U1*%
X165675000Y-95675000D02*
X165675000Y-95100000D01*
X151325000Y-95675000D02*
X151325000Y-95000000D01*
X151325000Y-81325000D02*
X151325000Y-82000000D01*
X165675000Y-81325000D02*
X165675000Y-82000000D01*
X165675000Y-95675000D02*
X165000000Y-95675000D01*
X165675000Y-81325000D02*
X165000000Y-81325000D01*
X151325000Y-81325000D02*
X152000000Y-81325000D01*
X151325000Y-95675000D02*
X152000000Y-95675000D01*
X165675000Y-95100000D02*
X166950000Y-95100000D01*
D13*
%TO.C,J4*%
X126270000Y-92730000D02*
X126270000Y-94000000D01*
X125000000Y-92730000D02*
X126270000Y-92730000D01*
X119540000Y-95042929D02*
X119540000Y-95440000D01*
X120300000Y-95042929D02*
X120300000Y-95440000D01*
X119540000Y-104100000D02*
X119540000Y-98100000D01*
X120300000Y-104100000D02*
X119540000Y-104100000D01*
X120300000Y-98100000D02*
X120300000Y-104100000D01*
X121190000Y-95440000D02*
X121190000Y-98100000D01*
X122080000Y-95042929D02*
X122080000Y-95440000D01*
X122840000Y-95042929D02*
X122840000Y-95440000D01*
X122080000Y-104100000D02*
X122080000Y-98100000D01*
X122840000Y-104100000D02*
X122080000Y-104100000D01*
X122840000Y-98100000D02*
X122840000Y-104100000D01*
X123730000Y-95440000D02*
X123730000Y-98100000D01*
X124620000Y-95110000D02*
X124620000Y-95440000D01*
X125380000Y-95110000D02*
X125380000Y-95440000D01*
X124720000Y-98100000D02*
X124720000Y-104100000D01*
X124840000Y-98100000D02*
X124840000Y-104100000D01*
X124960000Y-98100000D02*
X124960000Y-104100000D01*
X125080000Y-98100000D02*
X125080000Y-104100000D01*
X125200000Y-98100000D02*
X125200000Y-104100000D01*
X125320000Y-98100000D02*
X125320000Y-104100000D01*
X124620000Y-104100000D02*
X124620000Y-98100000D01*
X125380000Y-104100000D02*
X124620000Y-104100000D01*
X125380000Y-98100000D02*
X125380000Y-104100000D01*
X126330000Y-98100000D02*
X126330000Y-95440000D01*
X118590000Y-98100000D02*
X126330000Y-98100000D01*
X118590000Y-95440000D02*
X118590000Y-98100000D01*
X126330000Y-95440000D02*
X118590000Y-95440000D01*
%TO.C,J2*%
X174080000Y-87580000D02*
X172750000Y-87580000D01*
X174080000Y-86250000D02*
X174080000Y-87580000D01*
X171480000Y-87580000D02*
X168880000Y-87580000D01*
X171480000Y-84980000D02*
X171480000Y-87580000D01*
X174080000Y-84980000D02*
X171480000Y-84980000D01*
X168880000Y-87580000D02*
X168880000Y-79840000D01*
X174080000Y-84980000D02*
X174080000Y-79840000D01*
X174080000Y-79840000D02*
X168880000Y-79840000D01*
%TO.C,J5*%
X138270000Y-92730000D02*
X138270000Y-94000000D01*
X137000000Y-92730000D02*
X138270000Y-92730000D01*
X129000000Y-95042929D02*
X129000000Y-95440000D01*
X129760000Y-95042929D02*
X129760000Y-95440000D01*
X129000000Y-104100000D02*
X129000000Y-98100000D01*
X129760000Y-104100000D02*
X129000000Y-104100000D01*
X129760000Y-98100000D02*
X129760000Y-104100000D01*
X130650000Y-95440000D02*
X130650000Y-98100000D01*
X131540000Y-95042929D02*
X131540000Y-95440000D01*
X132300000Y-95042929D02*
X132300000Y-95440000D01*
X131540000Y-104100000D02*
X131540000Y-98100000D01*
X132300000Y-104100000D02*
X131540000Y-104100000D01*
X132300000Y-98100000D02*
X132300000Y-104100000D01*
X133190000Y-95440000D02*
X133190000Y-98100000D01*
X134080000Y-95042929D02*
X134080000Y-95440000D01*
X134840000Y-95042929D02*
X134840000Y-95440000D01*
X134080000Y-104100000D02*
X134080000Y-98100000D01*
X134840000Y-104100000D02*
X134080000Y-104100000D01*
X134840000Y-98100000D02*
X134840000Y-104100000D01*
X135730000Y-95440000D02*
X135730000Y-98100000D01*
X136620000Y-95110000D02*
X136620000Y-95440000D01*
X137380000Y-95110000D02*
X137380000Y-95440000D01*
X136720000Y-98100000D02*
X136720000Y-104100000D01*
X136840000Y-98100000D02*
X136840000Y-104100000D01*
X136960000Y-98100000D02*
X136960000Y-104100000D01*
X137080000Y-98100000D02*
X137080000Y-104100000D01*
X137200000Y-98100000D02*
X137200000Y-104100000D01*
X137320000Y-98100000D02*
X137320000Y-104100000D01*
X136620000Y-104100000D02*
X136620000Y-98100000D01*
X137380000Y-104100000D02*
X136620000Y-104100000D01*
X137380000Y-98100000D02*
X137380000Y-104100000D01*
X138330000Y-98100000D02*
X138330000Y-95440000D01*
X128050000Y-98100000D02*
X138330000Y-98100000D01*
X128050000Y-95440000D02*
X128050000Y-98100000D01*
X138330000Y-95440000D02*
X128050000Y-95440000D01*
%TO.C,R8*%
X119227064Y-88765000D02*
X118772936Y-88765000D01*
X119227064Y-90235000D02*
X118772936Y-90235000D01*
%TO.C,R7*%
X118772936Y-87735000D02*
X119227064Y-87735000D01*
X118772936Y-86265000D02*
X119227064Y-86265000D01*
%TO.C,R6*%
X119472936Y-80535000D02*
X119927064Y-80535000D01*
X119472936Y-79065000D02*
X119927064Y-79065000D01*
%TO.C,R5*%
X119472936Y-77135000D02*
X119927064Y-77135000D01*
X119472936Y-75665000D02*
X119927064Y-75665000D01*
%TO.C,R4*%
X146765000Y-89772936D02*
X146765000Y-90227064D01*
X148235000Y-89772936D02*
X148235000Y-90227064D01*
%TO.C,R3*%
X143265000Y-89772936D02*
X143265000Y-90227064D01*
X144735000Y-89772936D02*
X144735000Y-90227064D01*
%TO.C,R2*%
X140265000Y-89772936D02*
X140265000Y-90227064D01*
X141735000Y-89772936D02*
X141735000Y-90227064D01*
%TO.C,J3*%
X115270000Y-89810000D02*
X114000000Y-89810000D01*
X115270000Y-88540000D02*
X115270000Y-89810000D01*
X112957071Y-78000000D02*
X112560000Y-78000000D01*
X112957071Y-78760000D02*
X112560000Y-78760000D01*
X103900000Y-78000000D02*
X109900000Y-78000000D01*
X103900000Y-78760000D02*
X103900000Y-78000000D01*
X109900000Y-78760000D02*
X103900000Y-78760000D01*
X112560000Y-79650000D02*
X109900000Y-79650000D01*
X112957071Y-80540000D02*
X112560000Y-80540000D01*
X112957071Y-81300000D02*
X112560000Y-81300000D01*
X103900000Y-80540000D02*
X109900000Y-80540000D01*
X103900000Y-81300000D02*
X103900000Y-80540000D01*
X109900000Y-81300000D02*
X103900000Y-81300000D01*
X112560000Y-82190000D02*
X109900000Y-82190000D01*
X112957071Y-83080000D02*
X112560000Y-83080000D01*
X112957071Y-83840000D02*
X112560000Y-83840000D01*
X103900000Y-83080000D02*
X109900000Y-83080000D01*
X103900000Y-83840000D02*
X103900000Y-83080000D01*
X109900000Y-83840000D02*
X103900000Y-83840000D01*
X112560000Y-84730000D02*
X109900000Y-84730000D01*
X112957071Y-85620000D02*
X112560000Y-85620000D01*
X112957071Y-86380000D02*
X112560000Y-86380000D01*
X103900000Y-85620000D02*
X109900000Y-85620000D01*
X103900000Y-86380000D02*
X103900000Y-85620000D01*
X109900000Y-86380000D02*
X103900000Y-86380000D01*
X112560000Y-87270000D02*
X109900000Y-87270000D01*
X112890000Y-88160000D02*
X112560000Y-88160000D01*
X112890000Y-88920000D02*
X112560000Y-88920000D01*
X109900000Y-88260000D02*
X103900000Y-88260000D01*
X109900000Y-88380000D02*
X103900000Y-88380000D01*
X109900000Y-88500000D02*
X103900000Y-88500000D01*
X109900000Y-88620000D02*
X103900000Y-88620000D01*
X109900000Y-88740000D02*
X103900000Y-88740000D01*
X109900000Y-88860000D02*
X103900000Y-88860000D01*
X103900000Y-88160000D02*
X109900000Y-88160000D01*
X103900000Y-88920000D02*
X103900000Y-88160000D01*
X109900000Y-88920000D02*
X103900000Y-88920000D01*
X109900000Y-89870000D02*
X112560000Y-89870000D01*
X109900000Y-77050000D02*
X109900000Y-89870000D01*
X112560000Y-77050000D02*
X109900000Y-77050000D01*
X112560000Y-89870000D02*
X112560000Y-77050000D01*
%TO.C,D5*%
X125847500Y-78890000D02*
X122962500Y-78890000D01*
X125847500Y-80710000D02*
X125847500Y-78890000D01*
X122962500Y-80710000D02*
X125847500Y-80710000D01*
%TO.C,D4*%
X125822500Y-75490000D02*
X122937500Y-75490000D01*
X125822500Y-77310000D02*
X125822500Y-75490000D01*
X122937500Y-77310000D02*
X125822500Y-77310000D01*
%TO.C,D3*%
X148410000Y-96347500D02*
X148410000Y-93462500D01*
X146590000Y-96347500D02*
X148410000Y-96347500D01*
X146590000Y-93462500D02*
X146590000Y-96347500D01*
%TO.C,D2*%
X144910000Y-96347500D02*
X144910000Y-93462500D01*
X143090000Y-96347500D02*
X144910000Y-96347500D01*
X143090000Y-93462500D02*
X143090000Y-96347500D01*
%TO.C,D1*%
X141910000Y-96347500D02*
X141910000Y-93462500D01*
X140090000Y-96347500D02*
X141910000Y-96347500D01*
X140090000Y-93462500D02*
X140090000Y-96347500D01*
%TO.C,Y1*%
X164150000Y-74450000D02*
X151550000Y-74450000D01*
X151550000Y-74450000D02*
X151550000Y-79550000D01*
X151550000Y-79550000D02*
X164150000Y-79550000D01*
%TO.C,R1*%
X171522936Y-77515000D02*
X171977064Y-77515000D01*
X171522936Y-78985000D02*
X171977064Y-78985000D01*
%TO.C,C2*%
X167798752Y-77735000D02*
X167276248Y-77735000D01*
X167798752Y-76265000D02*
X167276248Y-76265000D01*
%TO.C,C1*%
X149223752Y-77735000D02*
X148701248Y-77735000D01*
X149223752Y-76265000D02*
X148701248Y-76265000D01*
%TO.C,U1*%
D10*
X157738095Y-87952380D02*
X157738095Y-88761904D01*
X157785714Y-88857142D01*
X157833333Y-88904761D01*
X157928571Y-88952380D01*
X158119047Y-88952380D01*
X158214285Y-88904761D01*
X158261904Y-88857142D01*
X158309523Y-88761904D01*
X158309523Y-87952380D01*
X159309523Y-88952380D02*
X158738095Y-88952380D01*
X159023809Y-88952380D02*
X159023809Y-87952380D01*
X158928571Y-88095238D01*
X158833333Y-88190476D01*
X158738095Y-88238095D01*
%TO.C,J4*%
X126722380Y-98718333D02*
X127436666Y-98718333D01*
X127579523Y-98765952D01*
X127674761Y-98861190D01*
X127722380Y-99004047D01*
X127722380Y-99099285D01*
X127055714Y-97813571D02*
X127722380Y-97813571D01*
X126674761Y-98051666D02*
X127389047Y-98289761D01*
X127389047Y-97670714D01*
%TO.C,J2*%
X171146666Y-88032380D02*
X171146666Y-88746666D01*
X171099047Y-88889523D01*
X171003809Y-88984761D01*
X170860952Y-89032380D01*
X170765714Y-89032380D01*
X171575238Y-88127619D02*
X171622857Y-88080000D01*
X171718095Y-88032380D01*
X171956190Y-88032380D01*
X172051428Y-88080000D01*
X172099047Y-88127619D01*
X172146666Y-88222857D01*
X172146666Y-88318095D01*
X172099047Y-88460952D01*
X171527619Y-89032380D01*
X172146666Y-89032380D01*
%TO.C,J5*%
X138722380Y-98718333D02*
X139436666Y-98718333D01*
X139579523Y-98765952D01*
X139674761Y-98861190D01*
X139722380Y-99004047D01*
X139722380Y-99099285D01*
X138722380Y-97765952D02*
X138722380Y-98242142D01*
X139198571Y-98289761D01*
X139150952Y-98242142D01*
X139103333Y-98146904D01*
X139103333Y-97908809D01*
X139150952Y-97813571D01*
X139198571Y-97765952D01*
X139293809Y-97718333D01*
X139531904Y-97718333D01*
X139627142Y-97765952D01*
X139674761Y-97813571D01*
X139722380Y-97908809D01*
X139722380Y-98146904D01*
X139674761Y-98242142D01*
X139627142Y-98289761D01*
%TO.C,*%
%TO.C,R8*%
X118833333Y-91602380D02*
X118500000Y-91126190D01*
X118261904Y-91602380D02*
X118261904Y-90602380D01*
X118642857Y-90602380D01*
X118738095Y-90650000D01*
X118785714Y-90697619D01*
X118833333Y-90792857D01*
X118833333Y-90935714D01*
X118785714Y-91030952D01*
X118738095Y-91078571D01*
X118642857Y-91126190D01*
X118261904Y-91126190D01*
X119404761Y-91030952D02*
X119309523Y-90983333D01*
X119261904Y-90935714D01*
X119214285Y-90840476D01*
X119214285Y-90792857D01*
X119261904Y-90697619D01*
X119309523Y-90650000D01*
X119404761Y-90602380D01*
X119595238Y-90602380D01*
X119690476Y-90650000D01*
X119738095Y-90697619D01*
X119785714Y-90792857D01*
X119785714Y-90840476D01*
X119738095Y-90935714D01*
X119690476Y-90983333D01*
X119595238Y-91030952D01*
X119404761Y-91030952D01*
X119309523Y-91078571D01*
X119261904Y-91126190D01*
X119214285Y-91221428D01*
X119214285Y-91411904D01*
X119261904Y-91507142D01*
X119309523Y-91554761D01*
X119404761Y-91602380D01*
X119595238Y-91602380D01*
X119690476Y-91554761D01*
X119738095Y-91507142D01*
X119785714Y-91411904D01*
X119785714Y-91221428D01*
X119738095Y-91126190D01*
X119690476Y-91078571D01*
X119595238Y-91030952D01*
%TO.C,R7*%
X118833333Y-85802380D02*
X118500000Y-85326190D01*
X118261904Y-85802380D02*
X118261904Y-84802380D01*
X118642857Y-84802380D01*
X118738095Y-84850000D01*
X118785714Y-84897619D01*
X118833333Y-84992857D01*
X118833333Y-85135714D01*
X118785714Y-85230952D01*
X118738095Y-85278571D01*
X118642857Y-85326190D01*
X118261904Y-85326190D01*
X119166666Y-84802380D02*
X119833333Y-84802380D01*
X119404761Y-85802380D01*
%TO.C,R6*%
X119533333Y-78602380D02*
X119200000Y-78126190D01*
X118961904Y-78602380D02*
X118961904Y-77602380D01*
X119342857Y-77602380D01*
X119438095Y-77650000D01*
X119485714Y-77697619D01*
X119533333Y-77792857D01*
X119533333Y-77935714D01*
X119485714Y-78030952D01*
X119438095Y-78078571D01*
X119342857Y-78126190D01*
X118961904Y-78126190D01*
X120390476Y-77602380D02*
X120200000Y-77602380D01*
X120104761Y-77650000D01*
X120057142Y-77697619D01*
X119961904Y-77840476D01*
X119914285Y-78030952D01*
X119914285Y-78411904D01*
X119961904Y-78507142D01*
X120009523Y-78554761D01*
X120104761Y-78602380D01*
X120295238Y-78602380D01*
X120390476Y-78554761D01*
X120438095Y-78507142D01*
X120485714Y-78411904D01*
X120485714Y-78173809D01*
X120438095Y-78078571D01*
X120390476Y-78030952D01*
X120295238Y-77983333D01*
X120104761Y-77983333D01*
X120009523Y-78030952D01*
X119961904Y-78078571D01*
X119914285Y-78173809D01*
%TO.C,R5*%
X119533333Y-75202380D02*
X119200000Y-74726190D01*
X118961904Y-75202380D02*
X118961904Y-74202380D01*
X119342857Y-74202380D01*
X119438095Y-74250000D01*
X119485714Y-74297619D01*
X119533333Y-74392857D01*
X119533333Y-74535714D01*
X119485714Y-74630952D01*
X119438095Y-74678571D01*
X119342857Y-74726190D01*
X118961904Y-74726190D01*
X120438095Y-74202380D02*
X119961904Y-74202380D01*
X119914285Y-74678571D01*
X119961904Y-74630952D01*
X120057142Y-74583333D01*
X120295238Y-74583333D01*
X120390476Y-74630952D01*
X120438095Y-74678571D01*
X120485714Y-74773809D01*
X120485714Y-75011904D01*
X120438095Y-75107142D01*
X120390476Y-75154761D01*
X120295238Y-75202380D01*
X120057142Y-75202380D01*
X119961904Y-75154761D01*
X119914285Y-75107142D01*
%TO.C,R4*%
X149602380Y-90166666D02*
X149126190Y-90500000D01*
X149602380Y-90738095D02*
X148602380Y-90738095D01*
X148602380Y-90357142D01*
X148650000Y-90261904D01*
X148697619Y-90214285D01*
X148792857Y-90166666D01*
X148935714Y-90166666D01*
X149030952Y-90214285D01*
X149078571Y-90261904D01*
X149126190Y-90357142D01*
X149126190Y-90738095D01*
X148935714Y-89309523D02*
X149602380Y-89309523D01*
X148554761Y-89547619D02*
X149269047Y-89785714D01*
X149269047Y-89166666D01*
%TO.C,R3*%
X146102380Y-90166666D02*
X145626190Y-90500000D01*
X146102380Y-90738095D02*
X145102380Y-90738095D01*
X145102380Y-90357142D01*
X145150000Y-90261904D01*
X145197619Y-90214285D01*
X145292857Y-90166666D01*
X145435714Y-90166666D01*
X145530952Y-90214285D01*
X145578571Y-90261904D01*
X145626190Y-90357142D01*
X145626190Y-90738095D01*
X145102380Y-89833333D02*
X145102380Y-89214285D01*
X145483333Y-89547619D01*
X145483333Y-89404761D01*
X145530952Y-89309523D01*
X145578571Y-89261904D01*
X145673809Y-89214285D01*
X145911904Y-89214285D01*
X146007142Y-89261904D01*
X146054761Y-89309523D01*
X146102380Y-89404761D01*
X146102380Y-89690476D01*
X146054761Y-89785714D01*
X146007142Y-89833333D01*
%TO.C,R2*%
X143102380Y-90166666D02*
X142626190Y-90500000D01*
X143102380Y-90738095D02*
X142102380Y-90738095D01*
X142102380Y-90357142D01*
X142150000Y-90261904D01*
X142197619Y-90214285D01*
X142292857Y-90166666D01*
X142435714Y-90166666D01*
X142530952Y-90214285D01*
X142578571Y-90261904D01*
X142626190Y-90357142D01*
X142626190Y-90738095D01*
X142197619Y-89785714D02*
X142150000Y-89738095D01*
X142102380Y-89642857D01*
X142102380Y-89404761D01*
X142150000Y-89309523D01*
X142197619Y-89261904D01*
X142292857Y-89214285D01*
X142388095Y-89214285D01*
X142530952Y-89261904D01*
X143102380Y-89833333D01*
X143102380Y-89214285D01*
%TO.C,J3*%
X109281666Y-90262380D02*
X109281666Y-90976666D01*
X109234047Y-91119523D01*
X109138809Y-91214761D01*
X108995952Y-91262380D01*
X108900714Y-91262380D01*
X109662619Y-90262380D02*
X110281666Y-90262380D01*
X109948333Y-90643333D01*
X110091190Y-90643333D01*
X110186428Y-90690952D01*
X110234047Y-90738571D01*
X110281666Y-90833809D01*
X110281666Y-91071904D01*
X110234047Y-91167142D01*
X110186428Y-91214761D01*
X110091190Y-91262380D01*
X109805476Y-91262380D01*
X109710238Y-91214761D01*
X109662619Y-91167142D01*
%TO.C,D5*%
X123224404Y-81852380D02*
X123224404Y-80852380D01*
X123462500Y-80852380D01*
X123605357Y-80900000D01*
X123700595Y-80995238D01*
X123748214Y-81090476D01*
X123795833Y-81280952D01*
X123795833Y-81423809D01*
X123748214Y-81614285D01*
X123700595Y-81709523D01*
X123605357Y-81804761D01*
X123462500Y-81852380D01*
X123224404Y-81852380D01*
X124700595Y-80852380D02*
X124224404Y-80852380D01*
X124176785Y-81328571D01*
X124224404Y-81280952D01*
X124319642Y-81233333D01*
X124557738Y-81233333D01*
X124652976Y-81280952D01*
X124700595Y-81328571D01*
X124748214Y-81423809D01*
X124748214Y-81661904D01*
X124700595Y-81757142D01*
X124652976Y-81804761D01*
X124557738Y-81852380D01*
X124319642Y-81852380D01*
X124224404Y-81804761D01*
X124176785Y-81757142D01*
%TO.C,D4*%
X123213904Y-75128380D02*
X123213904Y-74128380D01*
X123452000Y-74128380D01*
X123594857Y-74176000D01*
X123690095Y-74271238D01*
X123737714Y-74366476D01*
X123785333Y-74556952D01*
X123785333Y-74699809D01*
X123737714Y-74890285D01*
X123690095Y-74985523D01*
X123594857Y-75080761D01*
X123452000Y-75128380D01*
X123213904Y-75128380D01*
X124642476Y-74461714D02*
X124642476Y-75128380D01*
X124404380Y-74080761D02*
X124166285Y-74795047D01*
X124785333Y-74795047D01*
%TO.C,D3*%
X146352380Y-95200595D02*
X145352380Y-95200595D01*
X145352380Y-94962500D01*
X145400000Y-94819642D01*
X145495238Y-94724404D01*
X145590476Y-94676785D01*
X145780952Y-94629166D01*
X145923809Y-94629166D01*
X146114285Y-94676785D01*
X146209523Y-94724404D01*
X146304761Y-94819642D01*
X146352380Y-94962500D01*
X146352380Y-95200595D01*
X145352380Y-94295833D02*
X145352380Y-93676785D01*
X145733333Y-94010119D01*
X145733333Y-93867261D01*
X145780952Y-93772023D01*
X145828571Y-93724404D01*
X145923809Y-93676785D01*
X146161904Y-93676785D01*
X146257142Y-93724404D01*
X146304761Y-93772023D01*
X146352380Y-93867261D01*
X146352380Y-94152976D01*
X146304761Y-94248214D01*
X146257142Y-94295833D01*
%TO.C,D2*%
X142852380Y-95200595D02*
X141852380Y-95200595D01*
X141852380Y-94962500D01*
X141900000Y-94819642D01*
X141995238Y-94724404D01*
X142090476Y-94676785D01*
X142280952Y-94629166D01*
X142423809Y-94629166D01*
X142614285Y-94676785D01*
X142709523Y-94724404D01*
X142804761Y-94819642D01*
X142852380Y-94962500D01*
X142852380Y-95200595D01*
X141947619Y-94248214D02*
X141900000Y-94200595D01*
X141852380Y-94105357D01*
X141852380Y-93867261D01*
X141900000Y-93772023D01*
X141947619Y-93724404D01*
X142042857Y-93676785D01*
X142138095Y-93676785D01*
X142280952Y-93724404D01*
X142852380Y-94295833D01*
X142852380Y-93676785D01*
%TO.C,D1*%
X139852380Y-95200595D02*
X138852380Y-95200595D01*
X138852380Y-94962500D01*
X138900000Y-94819642D01*
X138995238Y-94724404D01*
X139090476Y-94676785D01*
X139280952Y-94629166D01*
X139423809Y-94629166D01*
X139614285Y-94676785D01*
X139709523Y-94724404D01*
X139804761Y-94819642D01*
X139852380Y-94962500D01*
X139852380Y-95200595D01*
X139852380Y-93676785D02*
X139852380Y-94248214D01*
X139852380Y-93962500D02*
X138852380Y-93962500D01*
X138995238Y-94057738D01*
X139090476Y-94152976D01*
X139138095Y-94248214D01*
%TO.C,Y1*%
X157773809Y-73426190D02*
X157773809Y-73902380D01*
X157440476Y-72902380D02*
X157773809Y-73426190D01*
X158107142Y-72902380D01*
X158964285Y-73902380D02*
X158392857Y-73902380D01*
X158678571Y-73902380D02*
X158678571Y-72902380D01*
X158583333Y-73045238D01*
X158488095Y-73140476D01*
X158392857Y-73188095D01*
%TO.C,R1*%
X171583333Y-77052380D02*
X171250000Y-76576190D01*
X171011904Y-77052380D02*
X171011904Y-76052380D01*
X171392857Y-76052380D01*
X171488095Y-76100000D01*
X171535714Y-76147619D01*
X171583333Y-76242857D01*
X171583333Y-76385714D01*
X171535714Y-76480952D01*
X171488095Y-76528571D01*
X171392857Y-76576190D01*
X171011904Y-76576190D01*
X172535714Y-77052380D02*
X171964285Y-77052380D01*
X172250000Y-77052380D02*
X172250000Y-76052380D01*
X172154761Y-76195238D01*
X172059523Y-76290476D01*
X171964285Y-76338095D01*
%TO.C,C2*%
X167349333Y-79357142D02*
X167301714Y-79404761D01*
X167158857Y-79452380D01*
X167063619Y-79452380D01*
X166920761Y-79404761D01*
X166825523Y-79309523D01*
X166777904Y-79214285D01*
X166730285Y-79023809D01*
X166730285Y-78880952D01*
X166777904Y-78690476D01*
X166825523Y-78595238D01*
X166920761Y-78500000D01*
X167063619Y-78452380D01*
X167158857Y-78452380D01*
X167301714Y-78500000D01*
X167349333Y-78547619D01*
X167730285Y-78547619D02*
X167777904Y-78500000D01*
X167873142Y-78452380D01*
X168111238Y-78452380D01*
X168206476Y-78500000D01*
X168254095Y-78547619D01*
X168301714Y-78642857D01*
X168301714Y-78738095D01*
X168254095Y-78880952D01*
X167682666Y-79452380D01*
X168301714Y-79452380D01*
%TO.C,C1*%
X148795833Y-79037142D02*
X148748214Y-79084761D01*
X148605357Y-79132380D01*
X148510119Y-79132380D01*
X148367261Y-79084761D01*
X148272023Y-78989523D01*
X148224404Y-78894285D01*
X148176785Y-78703809D01*
X148176785Y-78560952D01*
X148224404Y-78370476D01*
X148272023Y-78275238D01*
X148367261Y-78180000D01*
X148510119Y-78132380D01*
X148605357Y-78132380D01*
X148748214Y-78180000D01*
X148795833Y-78227619D01*
X149748214Y-79132380D02*
X149176785Y-79132380D01*
X149462500Y-79132380D02*
X149462500Y-78132380D01*
X149367261Y-78275238D01*
X149272023Y-78370476D01*
X149176785Y-78418095D01*
%TD*%
M02*
