%TF.GenerationSoftware,KiCad,Pcbnew,(5.1.9)-1*%
%TF.CreationDate,2021-04-12T22:32:52+10:00*%
%TF.ProjectId,FlightBridgePCB,466c6967-6874-4427-9269-646765504342,rev?*%
%TF.SameCoordinates,Original*%
%TF.FileFunction,Copper,L1,Top*%
%TF.FilePolarity,Positive*%
%FSLAX46Y46*%
G04 Gerber Fmt 4.6, Leading zero omitted, Abs format (unit mm)*
G04 Created by KiCad (PCBNEW (5.1.9)-1) date 2021-04-12 22:32:52*
%MOMM*%
%LPD*%
G01*
G04 APERTURE LIST*
%TA.AperFunction,SMDPad,CuDef*%
%ADD10R,0.550000X1.500000*%
%TD*%
%TA.AperFunction,SMDPad,CuDef*%
%ADD11R,1.500000X0.550000*%
%TD*%
%TA.AperFunction,ComponentPad*%
%ADD12O,1.700000X1.700000*%
%TD*%
%TA.AperFunction,ComponentPad*%
%ADD13R,1.700000X1.700000*%
%TD*%
%TA.AperFunction,SMDPad,CuDef*%
%ADD14R,4.500000X2.000000*%
%TD*%
%TA.AperFunction,ViaPad*%
%ADD15C,0.800000*%
%TD*%
%TA.AperFunction,Conductor*%
%ADD16C,0.508000*%
%TD*%
%TA.AperFunction,Conductor*%
%ADD17C,0.254000*%
%TD*%
G04 APERTURE END LIST*
D10*
%TO.P,U1,64*%
%TO.N,+3V3*%
X164500000Y-96200000D03*
%TO.P,U1,63*%
%TO.N,GND*%
X163700000Y-96200000D03*
%TO.P,U1,62*%
%TO.N,Net-(U1-Pad62)*%
X162900000Y-96200000D03*
%TO.P,U1,61*%
%TO.N,Net-(U1-Pad61)*%
X162100000Y-96200000D03*
%TO.P,U1,60*%
%TO.N,Net-(U1-Pad60)*%
X161300000Y-96200000D03*
%TO.P,U1,59*%
%TO.N,Net-(U1-Pad59)*%
X160500000Y-96200000D03*
%TO.P,U1,58*%
%TO.N,Net-(U1-Pad58)*%
X159700000Y-96200000D03*
%TO.P,U1,57*%
%TO.N,Net-(U1-Pad57)*%
X158900000Y-96200000D03*
%TO.P,U1,56*%
%TO.N,Net-(U1-Pad56)*%
X158100000Y-96200000D03*
%TO.P,U1,55*%
%TO.N,Net-(U1-Pad55)*%
X157300000Y-96200000D03*
%TO.P,U1,54*%
%TO.N,Net-(U1-Pad54)*%
X156500000Y-96200000D03*
%TO.P,U1,53*%
%TO.N,GND*%
X155700000Y-96200000D03*
%TO.P,U1,52*%
%TO.N,+3V3*%
X154900000Y-96200000D03*
%TO.P,U1,51*%
%TO.N,Net-(U1-Pad51)*%
X154100000Y-96200000D03*
%TO.P,U1,50*%
%TO.N,Net-(U1-Pad50)*%
X153300000Y-96200000D03*
%TO.P,U1,49*%
%TO.N,A*%
X152500000Y-96200000D03*
D11*
%TO.P,U1,48*%
%TO.N,R*%
X150800000Y-94500000D03*
%TO.P,U1,47*%
%TO.N,N*%
X150800000Y-93700000D03*
%TO.P,U1,46*%
%TO.N,AUX1*%
X150800000Y-92900000D03*
%TO.P,U1,45*%
%TO.N,AUX2*%
X150800000Y-92100000D03*
%TO.P,U1,44*%
%TO.N,Net-(U1-Pad44)*%
X150800000Y-91300000D03*
%TO.P,U1,43*%
%TO.N,Net-(U1-Pad43)*%
X150800000Y-90500000D03*
%TO.P,U1,42*%
%TO.N,Net-(U1-Pad42)*%
X150800000Y-89700000D03*
%TO.P,U1,41*%
%TO.N,Net-(U1-Pad41)*%
X150800000Y-88900000D03*
%TO.P,U1,40*%
%TO.N,Net-(U1-Pad40)*%
X150800000Y-88100000D03*
%TO.P,U1,39*%
%TO.N,Net-(U1-Pad39)*%
X150800000Y-87300000D03*
%TO.P,U1,38*%
%TO.N,Net-(U1-Pad38)*%
X150800000Y-86500000D03*
%TO.P,U1,37*%
%TO.N,Net-(U1-Pad37)*%
X150800000Y-85700000D03*
%TO.P,U1,36*%
%TO.N,SUPERVISOR_RESET*%
X150800000Y-84900000D03*
%TO.P,U1,35*%
%TO.N,ABORT*%
X150800000Y-84100000D03*
%TO.P,U1,34*%
%TO.N,Net-(U1-Pad34)*%
X150800000Y-83300000D03*
%TO.P,U1,33*%
%TO.N,Net-(U1-Pad33)*%
X150800000Y-82500000D03*
D10*
%TO.P,U1,32*%
%TO.N,Net-(U1-Pad32)*%
X152500000Y-80800000D03*
%TO.P,U1,31*%
%TO.N,Net-(U1-Pad31)*%
X153300000Y-80800000D03*
%TO.P,U1,30*%
%TO.N,Net-(U1-Pad30)*%
X154100000Y-80800000D03*
%TO.P,U1,29*%
%TO.N,Net-(U1-Pad29)*%
X154900000Y-80800000D03*
%TO.P,U1,28*%
%TO.N,UART_RESET*%
X155700000Y-80800000D03*
%TO.P,U1,27*%
%TO.N,UART_TELEM*%
X156500000Y-80800000D03*
%TO.P,U1,26*%
%TO.N,Net-(U1-Pad26)*%
X157300000Y-80800000D03*
%TO.P,U1,25*%
%TO.N,Net-(U1-Pad25)*%
X158100000Y-80800000D03*
%TO.P,U1,24*%
%TO.N,Net-(C1-Pad1)*%
X158900000Y-80800000D03*
%TO.P,U1,23*%
%TO.N,Net-(C2-Pad2)*%
X159700000Y-80800000D03*
%TO.P,U1,22*%
%TO.N,GND*%
X160500000Y-80800000D03*
%TO.P,U1,21*%
%TO.N,+3V3*%
X161300000Y-80800000D03*
%TO.P,U1,20*%
%TO.N,~RST~*%
X162100000Y-80800000D03*
%TO.P,U1,19*%
%TO.N,Net-(U1-Pad19)*%
X162900000Y-80800000D03*
%TO.P,U1,18*%
%TO.N,Net-(U1-Pad18)*%
X163700000Y-80800000D03*
%TO.P,U1,17*%
%TO.N,Net-(U1-Pad17)*%
X164500000Y-80800000D03*
D11*
%TO.P,U1,16*%
%TO.N,Net-(U1-Pad16)*%
X166200000Y-82500000D03*
%TO.P,U1,15*%
%TO.N,Net-(U1-Pad15)*%
X166200000Y-83300000D03*
%TO.P,U1,14*%
%TO.N,Net-(U1-Pad14)*%
X166200000Y-84100000D03*
%TO.P,U1,13*%
%TO.N,MISO*%
X166200000Y-84900000D03*
%TO.P,U1,12*%
%TO.N,MOSI*%
X166200000Y-85700000D03*
%TO.P,U1,11*%
%TO.N,SCK*%
X166200000Y-86500000D03*
%TO.P,U1,10*%
%TO.N,Net-(U1-Pad10)*%
X166200000Y-87300000D03*
%TO.P,U1,9*%
%TO.N,Net-(U1-Pad9)*%
X166200000Y-88100000D03*
%TO.P,U1,8*%
%TO.N,Net-(U1-Pad8)*%
X166200000Y-88900000D03*
%TO.P,U1,7*%
%TO.N,Net-(U1-Pad7)*%
X166200000Y-89700000D03*
%TO.P,U1,6*%
%TO.N,Net-(U1-Pad6)*%
X166200000Y-90500000D03*
%TO.P,U1,5*%
%TO.N,Net-(U1-Pad5)*%
X166200000Y-91300000D03*
%TO.P,U1,4*%
%TO.N,Net-(U1-Pad4)*%
X166200000Y-92100000D03*
%TO.P,U1,3*%
%TO.N,UART_TELEM_PI*%
X166200000Y-92900000D03*
%TO.P,U1,2*%
%TO.N,UART_SBUS*%
X166200000Y-93700000D03*
%TO.P,U1,1*%
%TO.N,Net-(U1-Pad1)*%
X166200000Y-94500000D03*
%TD*%
D12*
%TO.P,J4,3*%
%TO.N,UART_TELEM_EXT*%
X119920000Y-94000000D03*
%TO.P,J4,2*%
%TO.N,GND*%
X122460000Y-94000000D03*
D13*
%TO.P,J4,1*%
%TO.N,+5V*%
X125000000Y-94000000D03*
%TD*%
D12*
%TO.P,J2,6*%
%TO.N,GND*%
X170210000Y-81170000D03*
%TO.P,J2,5*%
%TO.N,~RST~*%
X172750000Y-81170000D03*
%TO.P,J2,4*%
%TO.N,MOSI*%
X170210000Y-83710000D03*
%TO.P,J2,3*%
%TO.N,SCK*%
X172750000Y-83710000D03*
%TO.P,J2,2*%
%TO.N,+3V3*%
X170210000Y-86250000D03*
D13*
%TO.P,J2,1*%
%TO.N,MISO*%
X172750000Y-86250000D03*
%TD*%
D12*
%TO.P,J5,4*%
%TO.N,AUX2*%
X129380000Y-94000000D03*
%TO.P,J5,3*%
%TO.N,AUX1*%
X131920000Y-94000000D03*
%TO.P,J5,2*%
%TO.N,GND*%
X134460000Y-94000000D03*
D13*
%TO.P,J5,1*%
%TO.N,+3V3*%
X137000000Y-94000000D03*
%TD*%
%TO.P,R8,2*%
%TO.N,UART_TELEM_EXT*%
%TA.AperFunction,SMDPad,CuDef*%
G36*
G01*
X118600000Y-89049999D02*
X118600000Y-89950001D01*
G75*
G02*
X118350001Y-90200000I-249999J0D01*
G01*
X117649999Y-90200000D01*
G75*
G02*
X117400000Y-89950001I0J249999D01*
G01*
X117400000Y-89049999D01*
G75*
G02*
X117649999Y-88800000I249999J0D01*
G01*
X118350001Y-88800000D01*
G75*
G02*
X118600000Y-89049999I0J-249999D01*
G01*
G37*
%TD.AperFunction*%
%TO.P,R8,1*%
%TO.N,UART_TELEM*%
%TA.AperFunction,SMDPad,CuDef*%
G36*
G01*
X120600000Y-89049999D02*
X120600000Y-89950001D01*
G75*
G02*
X120350001Y-90200000I-249999J0D01*
G01*
X119649999Y-90200000D01*
G75*
G02*
X119400000Y-89950001I0J249999D01*
G01*
X119400000Y-89049999D01*
G75*
G02*
X119649999Y-88800000I249999J0D01*
G01*
X120350001Y-88800000D01*
G75*
G02*
X120600000Y-89049999I0J-249999D01*
G01*
G37*
%TD.AperFunction*%
%TD*%
%TO.P,R7,2*%
%TO.N,UART_TELEM*%
%TA.AperFunction,SMDPad,CuDef*%
G36*
G01*
X119400000Y-87450001D02*
X119400000Y-86549999D01*
G75*
G02*
X119649999Y-86300000I249999J0D01*
G01*
X120350001Y-86300000D01*
G75*
G02*
X120600000Y-86549999I0J-249999D01*
G01*
X120600000Y-87450001D01*
G75*
G02*
X120350001Y-87700000I-249999J0D01*
G01*
X119649999Y-87700000D01*
G75*
G02*
X119400000Y-87450001I0J249999D01*
G01*
G37*
%TD.AperFunction*%
%TO.P,R7,1*%
%TO.N,UART_TELEM_FC*%
%TA.AperFunction,SMDPad,CuDef*%
G36*
G01*
X117400000Y-87450001D02*
X117400000Y-86549999D01*
G75*
G02*
X117649999Y-86300000I249999J0D01*
G01*
X118350001Y-86300000D01*
G75*
G02*
X118600000Y-86549999I0J-249999D01*
G01*
X118600000Y-87450001D01*
G75*
G02*
X118350001Y-87700000I-249999J0D01*
G01*
X117649999Y-87700000D01*
G75*
G02*
X117400000Y-87450001I0J249999D01*
G01*
G37*
%TD.AperFunction*%
%TD*%
%TO.P,R6,2*%
%TO.N,Net-(D5-Pad2)*%
%TA.AperFunction,SMDPad,CuDef*%
G36*
G01*
X120100000Y-80250001D02*
X120100000Y-79349999D01*
G75*
G02*
X120349999Y-79100000I249999J0D01*
G01*
X121050001Y-79100000D01*
G75*
G02*
X121300000Y-79349999I0J-249999D01*
G01*
X121300000Y-80250001D01*
G75*
G02*
X121050001Y-80500000I-249999J0D01*
G01*
X120349999Y-80500000D01*
G75*
G02*
X120100000Y-80250001I0J249999D01*
G01*
G37*
%TD.AperFunction*%
%TO.P,R6,1*%
%TO.N,+5V*%
%TA.AperFunction,SMDPad,CuDef*%
G36*
G01*
X118100000Y-80250001D02*
X118100000Y-79349999D01*
G75*
G02*
X118349999Y-79100000I249999J0D01*
G01*
X119050001Y-79100000D01*
G75*
G02*
X119300000Y-79349999I0J-249999D01*
G01*
X119300000Y-80250001D01*
G75*
G02*
X119050001Y-80500000I-249999J0D01*
G01*
X118349999Y-80500000D01*
G75*
G02*
X118100000Y-80250001I0J249999D01*
G01*
G37*
%TD.AperFunction*%
%TD*%
%TO.P,R5,2*%
%TO.N,Net-(D4-Pad2)*%
%TA.AperFunction,SMDPad,CuDef*%
G36*
G01*
X120100000Y-76850001D02*
X120100000Y-75949999D01*
G75*
G02*
X120349999Y-75700000I249999J0D01*
G01*
X121050001Y-75700000D01*
G75*
G02*
X121300000Y-75949999I0J-249999D01*
G01*
X121300000Y-76850001D01*
G75*
G02*
X121050001Y-77100000I-249999J0D01*
G01*
X120349999Y-77100000D01*
G75*
G02*
X120100000Y-76850001I0J249999D01*
G01*
G37*
%TD.AperFunction*%
%TO.P,R5,1*%
%TO.N,+3V3*%
%TA.AperFunction,SMDPad,CuDef*%
G36*
G01*
X118100000Y-76850001D02*
X118100000Y-75949999D01*
G75*
G02*
X118349999Y-75700000I249999J0D01*
G01*
X119050001Y-75700000D01*
G75*
G02*
X119300000Y-75949999I0J-249999D01*
G01*
X119300000Y-76850001D01*
G75*
G02*
X119050001Y-77100000I-249999J0D01*
G01*
X118349999Y-77100000D01*
G75*
G02*
X118100000Y-76850001I0J249999D01*
G01*
G37*
%TD.AperFunction*%
%TD*%
%TO.P,R4,2*%
%TO.N,Net-(D3-Pad2)*%
%TA.AperFunction,SMDPad,CuDef*%
G36*
G01*
X147049999Y-90400000D02*
X147950001Y-90400000D01*
G75*
G02*
X148200000Y-90649999I0J-249999D01*
G01*
X148200000Y-91350001D01*
G75*
G02*
X147950001Y-91600000I-249999J0D01*
G01*
X147049999Y-91600000D01*
G75*
G02*
X146800000Y-91350001I0J249999D01*
G01*
X146800000Y-90649999D01*
G75*
G02*
X147049999Y-90400000I249999J0D01*
G01*
G37*
%TD.AperFunction*%
%TO.P,R4,1*%
%TO.N,N*%
%TA.AperFunction,SMDPad,CuDef*%
G36*
G01*
X147049999Y-88400000D02*
X147950001Y-88400000D01*
G75*
G02*
X148200000Y-88649999I0J-249999D01*
G01*
X148200000Y-89350001D01*
G75*
G02*
X147950001Y-89600000I-249999J0D01*
G01*
X147049999Y-89600000D01*
G75*
G02*
X146800000Y-89350001I0J249999D01*
G01*
X146800000Y-88649999D01*
G75*
G02*
X147049999Y-88400000I249999J0D01*
G01*
G37*
%TD.AperFunction*%
%TD*%
%TO.P,R3,2*%
%TO.N,Net-(D2-Pad2)*%
%TA.AperFunction,SMDPad,CuDef*%
G36*
G01*
X143549999Y-90400000D02*
X144450001Y-90400000D01*
G75*
G02*
X144700000Y-90649999I0J-249999D01*
G01*
X144700000Y-91350001D01*
G75*
G02*
X144450001Y-91600000I-249999J0D01*
G01*
X143549999Y-91600000D01*
G75*
G02*
X143300000Y-91350001I0J249999D01*
G01*
X143300000Y-90649999D01*
G75*
G02*
X143549999Y-90400000I249999J0D01*
G01*
G37*
%TD.AperFunction*%
%TO.P,R3,1*%
%TO.N,R*%
%TA.AperFunction,SMDPad,CuDef*%
G36*
G01*
X143549999Y-88400000D02*
X144450001Y-88400000D01*
G75*
G02*
X144700000Y-88649999I0J-249999D01*
G01*
X144700000Y-89350001D01*
G75*
G02*
X144450001Y-89600000I-249999J0D01*
G01*
X143549999Y-89600000D01*
G75*
G02*
X143300000Y-89350001I0J249999D01*
G01*
X143300000Y-88649999D01*
G75*
G02*
X143549999Y-88400000I249999J0D01*
G01*
G37*
%TD.AperFunction*%
%TD*%
%TO.P,R2,2*%
%TO.N,Net-(D1-Pad2)*%
%TA.AperFunction,SMDPad,CuDef*%
G36*
G01*
X140549999Y-90400000D02*
X141450001Y-90400000D01*
G75*
G02*
X141700000Y-90649999I0J-249999D01*
G01*
X141700000Y-91350001D01*
G75*
G02*
X141450001Y-91600000I-249999J0D01*
G01*
X140549999Y-91600000D01*
G75*
G02*
X140300000Y-91350001I0J249999D01*
G01*
X140300000Y-90649999D01*
G75*
G02*
X140549999Y-90400000I249999J0D01*
G01*
G37*
%TD.AperFunction*%
%TO.P,R2,1*%
%TO.N,A*%
%TA.AperFunction,SMDPad,CuDef*%
G36*
G01*
X140549999Y-88400000D02*
X141450001Y-88400000D01*
G75*
G02*
X141700000Y-88649999I0J-249999D01*
G01*
X141700000Y-89350001D01*
G75*
G02*
X141450001Y-89600000I-249999J0D01*
G01*
X140549999Y-89600000D01*
G75*
G02*
X140300000Y-89350001I0J249999D01*
G01*
X140300000Y-88649999D01*
G75*
G02*
X140549999Y-88400000I249999J0D01*
G01*
G37*
%TD.AperFunction*%
%TD*%
D12*
%TO.P,J3,5*%
%TO.N,UART_RESET*%
X114000000Y-78380000D03*
%TO.P,J3,4*%
%TO.N,UART_SBUS*%
X114000000Y-80920000D03*
%TO.P,J3,3*%
%TO.N,UART_TELEM_FC*%
X114000000Y-83460000D03*
%TO.P,J3,2*%
%TO.N,GND*%
X114000000Y-86000000D03*
D13*
%TO.P,J3,1*%
%TO.N,+5V*%
X114000000Y-88540000D03*
%TD*%
%TO.P,D5,2*%
%TO.N,Net-(D5-Pad2)*%
%TA.AperFunction,SMDPad,CuDef*%
G36*
G01*
X123662500Y-79400000D02*
X123662500Y-80200000D01*
G75*
G02*
X123412500Y-80450000I-250000J0D01*
G01*
X122587500Y-80450000D01*
G75*
G02*
X122337500Y-80200000I0J250000D01*
G01*
X122337500Y-79400000D01*
G75*
G02*
X122587500Y-79150000I250000J0D01*
G01*
X123412500Y-79150000D01*
G75*
G02*
X123662500Y-79400000I0J-250000D01*
G01*
G37*
%TD.AperFunction*%
%TO.P,D5,1*%
%TO.N,GND*%
%TA.AperFunction,SMDPad,CuDef*%
G36*
G01*
X125587500Y-79400000D02*
X125587500Y-80200000D01*
G75*
G02*
X125337500Y-80450000I-250000J0D01*
G01*
X124512500Y-80450000D01*
G75*
G02*
X124262500Y-80200000I0J250000D01*
G01*
X124262500Y-79400000D01*
G75*
G02*
X124512500Y-79150000I250000J0D01*
G01*
X125337500Y-79150000D01*
G75*
G02*
X125587500Y-79400000I0J-250000D01*
G01*
G37*
%TD.AperFunction*%
%TD*%
%TO.P,D4,2*%
%TO.N,Net-(D4-Pad2)*%
%TA.AperFunction,SMDPad,CuDef*%
G36*
G01*
X123637500Y-76000000D02*
X123637500Y-76800000D01*
G75*
G02*
X123387500Y-77050000I-250000J0D01*
G01*
X122562500Y-77050000D01*
G75*
G02*
X122312500Y-76800000I0J250000D01*
G01*
X122312500Y-76000000D01*
G75*
G02*
X122562500Y-75750000I250000J0D01*
G01*
X123387500Y-75750000D01*
G75*
G02*
X123637500Y-76000000I0J-250000D01*
G01*
G37*
%TD.AperFunction*%
%TO.P,D4,1*%
%TO.N,GND*%
%TA.AperFunction,SMDPad,CuDef*%
G36*
G01*
X125562500Y-76000000D02*
X125562500Y-76800000D01*
G75*
G02*
X125312500Y-77050000I-250000J0D01*
G01*
X124487500Y-77050000D01*
G75*
G02*
X124237500Y-76800000I0J250000D01*
G01*
X124237500Y-76000000D01*
G75*
G02*
X124487500Y-75750000I250000J0D01*
G01*
X125312500Y-75750000D01*
G75*
G02*
X125562500Y-76000000I0J-250000D01*
G01*
G37*
%TD.AperFunction*%
%TD*%
%TO.P,D3,2*%
%TO.N,Net-(D3-Pad2)*%
%TA.AperFunction,SMDPad,CuDef*%
G36*
G01*
X147900000Y-94162500D02*
X147100000Y-94162500D01*
G75*
G02*
X146850000Y-93912500I0J250000D01*
G01*
X146850000Y-93087500D01*
G75*
G02*
X147100000Y-92837500I250000J0D01*
G01*
X147900000Y-92837500D01*
G75*
G02*
X148150000Y-93087500I0J-250000D01*
G01*
X148150000Y-93912500D01*
G75*
G02*
X147900000Y-94162500I-250000J0D01*
G01*
G37*
%TD.AperFunction*%
%TO.P,D3,1*%
%TO.N,GND*%
%TA.AperFunction,SMDPad,CuDef*%
G36*
G01*
X147900000Y-96087500D02*
X147100000Y-96087500D01*
G75*
G02*
X146850000Y-95837500I0J250000D01*
G01*
X146850000Y-95012500D01*
G75*
G02*
X147100000Y-94762500I250000J0D01*
G01*
X147900000Y-94762500D01*
G75*
G02*
X148150000Y-95012500I0J-250000D01*
G01*
X148150000Y-95837500D01*
G75*
G02*
X147900000Y-96087500I-250000J0D01*
G01*
G37*
%TD.AperFunction*%
%TD*%
%TO.P,D2,2*%
%TO.N,Net-(D2-Pad2)*%
%TA.AperFunction,SMDPad,CuDef*%
G36*
G01*
X144400000Y-94162500D02*
X143600000Y-94162500D01*
G75*
G02*
X143350000Y-93912500I0J250000D01*
G01*
X143350000Y-93087500D01*
G75*
G02*
X143600000Y-92837500I250000J0D01*
G01*
X144400000Y-92837500D01*
G75*
G02*
X144650000Y-93087500I0J-250000D01*
G01*
X144650000Y-93912500D01*
G75*
G02*
X144400000Y-94162500I-250000J0D01*
G01*
G37*
%TD.AperFunction*%
%TO.P,D2,1*%
%TO.N,GND*%
%TA.AperFunction,SMDPad,CuDef*%
G36*
G01*
X144400000Y-96087500D02*
X143600000Y-96087500D01*
G75*
G02*
X143350000Y-95837500I0J250000D01*
G01*
X143350000Y-95012500D01*
G75*
G02*
X143600000Y-94762500I250000J0D01*
G01*
X144400000Y-94762500D01*
G75*
G02*
X144650000Y-95012500I0J-250000D01*
G01*
X144650000Y-95837500D01*
G75*
G02*
X144400000Y-96087500I-250000J0D01*
G01*
G37*
%TD.AperFunction*%
%TD*%
%TO.P,D1,2*%
%TO.N,Net-(D1-Pad2)*%
%TA.AperFunction,SMDPad,CuDef*%
G36*
G01*
X141400000Y-94162500D02*
X140600000Y-94162500D01*
G75*
G02*
X140350000Y-93912500I0J250000D01*
G01*
X140350000Y-93087500D01*
G75*
G02*
X140600000Y-92837500I250000J0D01*
G01*
X141400000Y-92837500D01*
G75*
G02*
X141650000Y-93087500I0J-250000D01*
G01*
X141650000Y-93912500D01*
G75*
G02*
X141400000Y-94162500I-250000J0D01*
G01*
G37*
%TD.AperFunction*%
%TO.P,D1,1*%
%TO.N,GND*%
%TA.AperFunction,SMDPad,CuDef*%
G36*
G01*
X141400000Y-96087500D02*
X140600000Y-96087500D01*
G75*
G02*
X140350000Y-95837500I0J250000D01*
G01*
X140350000Y-95012500D01*
G75*
G02*
X140600000Y-94762500I250000J0D01*
G01*
X141400000Y-94762500D01*
G75*
G02*
X141650000Y-95012500I0J-250000D01*
G01*
X141650000Y-95837500D01*
G75*
G02*
X141400000Y-96087500I-250000J0D01*
G01*
G37*
%TD.AperFunction*%
%TD*%
D14*
%TO.P,Y1,2*%
%TO.N,Net-(C2-Pad2)*%
X162500000Y-77000000D03*
%TO.P,Y1,1*%
%TO.N,Net-(C1-Pad1)*%
X154000000Y-77000000D03*
%TD*%
%TO.P,R1,2*%
%TO.N,~RST~*%
%TA.AperFunction,SMDPad,CuDef*%
G36*
G01*
X172150000Y-78700001D02*
X172150000Y-77799999D01*
G75*
G02*
X172399999Y-77550000I249999J0D01*
G01*
X173100001Y-77550000D01*
G75*
G02*
X173350000Y-77799999I0J-249999D01*
G01*
X173350000Y-78700001D01*
G75*
G02*
X173100001Y-78950000I-249999J0D01*
G01*
X172399999Y-78950000D01*
G75*
G02*
X172150000Y-78700001I0J249999D01*
G01*
G37*
%TD.AperFunction*%
%TO.P,R1,1*%
%TO.N,+3V3*%
%TA.AperFunction,SMDPad,CuDef*%
G36*
G01*
X170150000Y-78700001D02*
X170150000Y-77799999D01*
G75*
G02*
X170399999Y-77550000I249999J0D01*
G01*
X171100001Y-77550000D01*
G75*
G02*
X171350000Y-77799999I0J-249999D01*
G01*
X171350000Y-78700001D01*
G75*
G02*
X171100001Y-78950000I-249999J0D01*
G01*
X170399999Y-78950000D01*
G75*
G02*
X170150000Y-78700001I0J249999D01*
G01*
G37*
%TD.AperFunction*%
%TD*%
D12*
%TO.P,J1,40*%
%TO.N,Net-(J1-Pad40)*%
X166878000Y-70234000D03*
%TO.P,J1,39*%
%TO.N,GND*%
X166878000Y-72774000D03*
%TO.P,J1,38*%
%TO.N,Net-(J1-Pad38)*%
X164338000Y-70234000D03*
%TO.P,J1,37*%
%TO.N,Net-(J1-Pad37)*%
X164338000Y-72774000D03*
%TO.P,J1,36*%
%TO.N,Net-(J1-Pad36)*%
X161798000Y-70234000D03*
%TO.P,J1,35*%
%TO.N,Net-(J1-Pad35)*%
X161798000Y-72774000D03*
%TO.P,J1,34*%
%TO.N,GND*%
X159258000Y-70234000D03*
%TO.P,J1,33*%
%TO.N,Net-(J1-Pad33)*%
X159258000Y-72774000D03*
%TO.P,J1,32*%
%TO.N,Net-(J1-Pad32)*%
X156718000Y-70234000D03*
%TO.P,J1,31*%
%TO.N,Net-(J1-Pad31)*%
X156718000Y-72774000D03*
%TO.P,J1,30*%
%TO.N,GND*%
X154178000Y-70234000D03*
%TO.P,J1,29*%
%TO.N,Net-(J1-Pad29)*%
X154178000Y-72774000D03*
%TO.P,J1,28*%
%TO.N,Net-(J1-Pad28)*%
X151638000Y-70234000D03*
%TO.P,J1,27*%
%TO.N,Net-(J1-Pad27)*%
X151638000Y-72774000D03*
%TO.P,J1,26*%
%TO.N,Net-(J1-Pad26)*%
X149098000Y-70234000D03*
%TO.P,J1,25*%
%TO.N,GND*%
X149098000Y-72774000D03*
%TO.P,J1,24*%
%TO.N,Net-(J1-Pad24)*%
X146558000Y-70234000D03*
%TO.P,J1,23*%
%TO.N,Net-(J1-Pad23)*%
X146558000Y-72774000D03*
%TO.P,J1,22*%
%TO.N,Net-(J1-Pad22)*%
X144018000Y-70234000D03*
%TO.P,J1,21*%
%TO.N,Net-(J1-Pad21)*%
X144018000Y-72774000D03*
%TO.P,J1,20*%
%TO.N,GND*%
X141478000Y-70234000D03*
%TO.P,J1,19*%
%TO.N,Net-(J1-Pad19)*%
X141478000Y-72774000D03*
%TO.P,J1,18*%
%TO.N,Net-(J1-Pad18)*%
X138938000Y-70234000D03*
%TO.P,J1,17*%
%TO.N,+3V3*%
X138938000Y-72774000D03*
%TO.P,J1,16*%
%TO.N,SUPERVISOR_RESET*%
X136398000Y-70234000D03*
%TO.P,J1,15*%
%TO.N,ABORT*%
X136398000Y-72774000D03*
%TO.P,J1,14*%
%TO.N,GND*%
X133858000Y-70234000D03*
%TO.P,J1,13*%
%TO.N,Net-(J1-Pad13)*%
X133858000Y-72774000D03*
%TO.P,J1,12*%
%TO.N,Net-(J1-Pad12)*%
X131318000Y-70234000D03*
%TO.P,J1,11*%
%TO.N,Net-(J1-Pad11)*%
X131318000Y-72774000D03*
%TO.P,J1,10*%
%TO.N,UART_TELEM_PI*%
X128778000Y-70234000D03*
%TO.P,J1,9*%
%TO.N,GND*%
X128778000Y-72774000D03*
%TO.P,J1,8*%
%TO.N,UART_SBUS*%
X126238000Y-70234000D03*
%TO.P,J1,7*%
%TO.N,Net-(J1-Pad7)*%
X126238000Y-72774000D03*
%TO.P,J1,6*%
%TO.N,GND*%
X123698000Y-70234000D03*
%TO.P,J1,5*%
%TO.N,Net-(J1-Pad5)*%
X123698000Y-72774000D03*
%TO.P,J1,4*%
%TO.N,+5V*%
X121158000Y-70234000D03*
%TO.P,J1,3*%
%TO.N,Net-(J1-Pad3)*%
X121158000Y-72774000D03*
%TO.P,J1,2*%
%TO.N,+5V*%
X118618000Y-70234000D03*
D13*
%TO.P,J1,1*%
%TO.N,+3V3*%
X118618000Y-72774000D03*
%TD*%
%TO.P,C2,2*%
%TO.N,Net-(C2-Pad2)*%
%TA.AperFunction,SMDPad,CuDef*%
G36*
G01*
X167087500Y-76525000D02*
X167087500Y-77475000D01*
G75*
G02*
X166837500Y-77725000I-250000J0D01*
G01*
X166162500Y-77725000D01*
G75*
G02*
X165912500Y-77475000I0J250000D01*
G01*
X165912500Y-76525000D01*
G75*
G02*
X166162500Y-76275000I250000J0D01*
G01*
X166837500Y-76275000D01*
G75*
G02*
X167087500Y-76525000I0J-250000D01*
G01*
G37*
%TD.AperFunction*%
%TO.P,C2,1*%
%TO.N,GND*%
%TA.AperFunction,SMDPad,CuDef*%
G36*
G01*
X169162500Y-76525000D02*
X169162500Y-77475000D01*
G75*
G02*
X168912500Y-77725000I-250000J0D01*
G01*
X168237500Y-77725000D01*
G75*
G02*
X167987500Y-77475000I0J250000D01*
G01*
X167987500Y-76525000D01*
G75*
G02*
X168237500Y-76275000I250000J0D01*
G01*
X168912500Y-76275000D01*
G75*
G02*
X169162500Y-76525000I0J-250000D01*
G01*
G37*
%TD.AperFunction*%
%TD*%
%TO.P,C1,2*%
%TO.N,GND*%
%TA.AperFunction,SMDPad,CuDef*%
G36*
G01*
X148512500Y-76525000D02*
X148512500Y-77475000D01*
G75*
G02*
X148262500Y-77725000I-250000J0D01*
G01*
X147587500Y-77725000D01*
G75*
G02*
X147337500Y-77475000I0J250000D01*
G01*
X147337500Y-76525000D01*
G75*
G02*
X147587500Y-76275000I250000J0D01*
G01*
X148262500Y-76275000D01*
G75*
G02*
X148512500Y-76525000I0J-250000D01*
G01*
G37*
%TD.AperFunction*%
%TO.P,C1,1*%
%TO.N,Net-(C1-Pad1)*%
%TA.AperFunction,SMDPad,CuDef*%
G36*
G01*
X150587500Y-76525000D02*
X150587500Y-77475000D01*
G75*
G02*
X150337500Y-77725000I-250000J0D01*
G01*
X149662500Y-77725000D01*
G75*
G02*
X149412500Y-77475000I0J250000D01*
G01*
X149412500Y-76525000D01*
G75*
G02*
X149662500Y-76275000I250000J0D01*
G01*
X150337500Y-76275000D01*
G75*
G02*
X150587500Y-76525000I0J-250000D01*
G01*
G37*
%TD.AperFunction*%
%TD*%
D15*
%TO.N,GND*%
X162500000Y-94750000D03*
X155956671Y-94913342D03*
X139000000Y-95500000D03*
X160250000Y-82250000D03*
%TO.N,+3V3*%
X168000000Y-90500000D03*
X164000000Y-90500000D03*
X137000000Y-89000000D03*
X137000000Y-85500000D03*
X137000000Y-80000000D03*
X164500000Y-82500000D03*
X169000000Y-78500000D03*
X124000000Y-78000000D03*
X126000000Y-78000000D03*
X129000000Y-78000000D03*
X134500000Y-78000000D03*
X140250000Y-75000000D03*
X137750000Y-77500000D03*
X153000000Y-86000000D03*
X145000000Y-85749994D03*
%TO.N,+5V*%
X117000000Y-91500000D03*
X121250000Y-91500000D03*
X118364000Y-81280000D03*
%TO.N,UART_TELEM_PI*%
X164000000Y-92000000D03*
X145000000Y-81250000D03*
%TO.N,UART_SBUS*%
X163167948Y-92554701D03*
X145000000Y-82500000D03*
%TO.N,UART_RESET*%
X152500000Y-83500000D03*
X145000000Y-83500000D03*
%TO.N,A*%
X155000000Y-90000000D03*
X145000000Y-86749997D03*
%TO.N,R*%
X153750000Y-90000000D03*
X145000000Y-87750000D03*
%TO.N,UART_TELEM*%
X152500000Y-84500000D03*
X145000000Y-84500000D03*
%TO.N,AUX2*%
X152500000Y-91750000D03*
X138750000Y-90000000D03*
%TO.N,AUX1*%
X152500000Y-93250000D03*
X138750000Y-91250000D03*
%TD*%
D16*
%TO.N,GND*%
X124925000Y-76425000D02*
X124900000Y-76400000D01*
X124925000Y-79800000D02*
X124925000Y-76425000D01*
X125152000Y-76400000D02*
X124900000Y-76400000D01*
X128778000Y-72774000D02*
X125152000Y-76400000D01*
X141000000Y-95425000D02*
X144000000Y-95425000D01*
X144000000Y-95425000D02*
X147500000Y-95425000D01*
X134460000Y-94000000D02*
X135885000Y-95425000D01*
X168575000Y-74471000D02*
X166878000Y-72774000D01*
X168575000Y-77000000D02*
X168575000Y-74471000D01*
X149098000Y-72774000D02*
X149098000Y-72848000D01*
X147925000Y-77000000D02*
X147925000Y-75825000D01*
X149098000Y-74652000D02*
X149098000Y-72774000D01*
X147925000Y-75825000D02*
X149098000Y-74652000D01*
X163508000Y-94750000D02*
X162500000Y-94750000D01*
X163700000Y-94942000D02*
X163508000Y-94750000D01*
X163700000Y-96200000D02*
X163700000Y-94942000D01*
X155700000Y-95170013D02*
X155956671Y-94913342D01*
X155700000Y-96200000D02*
X155700000Y-95170013D01*
X138925000Y-95425000D02*
X139000000Y-95500000D01*
X138425000Y-95425000D02*
X138925000Y-95425000D01*
X135885000Y-95425000D02*
X138425000Y-95425000D01*
X138425000Y-95425000D02*
X141000000Y-95425000D01*
X160500000Y-82000000D02*
X160250000Y-82250000D01*
X160500000Y-80800000D02*
X160500000Y-82000000D01*
%TO.N,Net-(C1-Pad1)*%
X156358000Y-77000000D02*
X154000000Y-77000000D01*
X158900000Y-79542000D02*
X156358000Y-77000000D01*
X158900000Y-80800000D02*
X158900000Y-79542000D01*
X150000000Y-77000000D02*
X154000000Y-77000000D01*
%TO.N,Net-(C2-Pad2)*%
X159700000Y-79542000D02*
X160242000Y-79000000D01*
X159700000Y-80800000D02*
X159700000Y-79542000D01*
X160242000Y-79000000D02*
X162000000Y-79000000D01*
X162500000Y-78500000D02*
X162500000Y-77000000D01*
X162000000Y-79000000D02*
X162500000Y-78500000D01*
X162500000Y-77000000D02*
X166500000Y-77000000D01*
%TO.N,+3V3*%
X118618000Y-76318000D02*
X118700000Y-76400000D01*
X118618000Y-72774000D02*
X118618000Y-76318000D01*
X170210000Y-88290000D02*
X168000000Y-90500000D01*
X170210000Y-86250000D02*
X170210000Y-88290000D01*
X161500000Y-90500000D02*
X161300000Y-90300000D01*
X164000000Y-90500000D02*
X161500000Y-90500000D01*
X161300000Y-90300000D02*
X161300000Y-92450000D01*
D17*
X164500000Y-96200000D02*
X164500000Y-94750000D01*
X162022999Y-94022999D02*
X160875000Y-92875000D01*
X163772999Y-94022999D02*
X162022999Y-94022999D01*
X164500000Y-94750000D02*
X163772999Y-94022999D01*
D16*
X160875000Y-92875000D02*
X160375000Y-93375000D01*
X161300000Y-92450000D02*
X160875000Y-92875000D01*
X161550000Y-82050000D02*
X162250000Y-82750000D01*
X161300000Y-82050000D02*
X161550000Y-82050000D01*
X161300000Y-80800000D02*
X161300000Y-82050000D01*
X164250000Y-82750000D02*
X164500000Y-82500000D01*
X162250000Y-82750000D02*
X164250000Y-82750000D01*
X170500000Y-78500000D02*
X170750000Y-78250000D01*
X169000000Y-78500000D02*
X170500000Y-78500000D01*
X154900000Y-94706091D02*
X155606091Y-94000000D01*
X154900000Y-96200000D02*
X154900000Y-94706091D01*
X155606091Y-94000000D02*
X159750000Y-94000000D01*
X160375000Y-93375000D02*
X159750000Y-94000000D01*
X118700000Y-76400000D02*
X118700000Y-77700000D01*
X119000000Y-78000000D02*
X124000000Y-78000000D01*
X118700000Y-77700000D02*
X119000000Y-78000000D01*
X126000000Y-78000000D02*
X129000000Y-78000000D01*
X134500000Y-78000000D02*
X135000000Y-78000000D01*
X138938000Y-73688000D02*
X140250000Y-75000000D01*
X138938000Y-72774000D02*
X138938000Y-73688000D01*
X137750000Y-77500000D02*
X136125000Y-79125000D01*
X136125000Y-79125000D02*
X137000000Y-80000000D01*
X135000000Y-78000000D02*
X136125000Y-79125000D01*
X153050000Y-86050000D02*
X153000000Y-86000000D01*
X161300000Y-86050000D02*
X153050000Y-86050000D01*
X161300000Y-82050000D02*
X161300000Y-86050000D01*
X161300000Y-86050000D02*
X161300000Y-90300000D01*
X137250006Y-85749994D02*
X137000000Y-86000000D01*
X145000000Y-85749994D02*
X137250006Y-85749994D01*
X137000000Y-86000000D02*
X137000000Y-85500000D01*
X137000000Y-89000000D02*
X137000000Y-86000000D01*
%TO.N,+5V*%
X117000000Y-79500000D02*
X117300000Y-79800000D01*
X117000000Y-71852000D02*
X117000000Y-79500000D01*
X118618000Y-70234000D02*
X117000000Y-71852000D01*
X114000000Y-88540000D02*
X114000000Y-90000000D01*
X115500000Y-91500000D02*
X117000000Y-91500000D01*
X114000000Y-90000000D02*
X115500000Y-91500000D01*
X122500000Y-91500000D02*
X125000000Y-94000000D01*
X121250000Y-91500000D02*
X122500000Y-91500000D01*
X117250000Y-79750000D02*
X117000000Y-79500000D01*
X118618000Y-70234000D02*
X121158000Y-70234000D01*
X117646000Y-79800000D02*
X118700000Y-79800000D01*
X117300000Y-79800000D02*
X117646000Y-79800000D01*
X118700000Y-80944000D02*
X118364000Y-81280000D01*
X118700000Y-79800000D02*
X118700000Y-80944000D01*
D17*
%TO.N,~RST~*%
X162100000Y-79986398D02*
X162586398Y-79500000D01*
X162100000Y-80800000D02*
X162100000Y-79986398D01*
X162586398Y-79500000D02*
X172750000Y-79500000D01*
X172750000Y-79500000D02*
X172750000Y-81170000D01*
X172750000Y-78250000D02*
X172750000Y-79500000D01*
%TO.N,MOSI*%
X170210000Y-83710000D02*
X169540000Y-83710000D01*
X167550000Y-85700000D02*
X166200000Y-85700000D01*
X169540000Y-83710000D02*
X167550000Y-85700000D01*
%TO.N,SCK*%
X172750000Y-83710000D02*
X171460000Y-85000000D01*
X171460000Y-85000000D02*
X169500000Y-85000000D01*
X168000000Y-86500000D02*
X166200000Y-86500000D01*
X169500000Y-85000000D02*
X168000000Y-86500000D01*
%TO.N,MISO*%
X174250000Y-85500000D02*
X173500000Y-86250000D01*
X174250000Y-83250000D02*
X174250000Y-85500000D01*
X173500000Y-82500000D02*
X174250000Y-83250000D01*
X169750000Y-82500000D02*
X173500000Y-82500000D01*
X173500000Y-86250000D02*
X172750000Y-86250000D01*
X167350000Y-84900000D02*
X169750000Y-82500000D01*
X166200000Y-84900000D02*
X167350000Y-84900000D01*
D16*
%TO.N,Net-(D1-Pad2)*%
X141000000Y-91000000D02*
X141000000Y-93500000D01*
%TO.N,Net-(D2-Pad2)*%
X144000000Y-91000000D02*
X144000000Y-93500000D01*
%TO.N,Net-(D3-Pad2)*%
X147500000Y-91000000D02*
X147500000Y-93500000D01*
%TO.N,Net-(D4-Pad2)*%
X120700000Y-76400000D02*
X122975000Y-76400000D01*
%TO.N,Net-(D5-Pad2)*%
X120700000Y-79800000D02*
X123000000Y-79800000D01*
D17*
%TO.N,SUPERVISOR_RESET*%
X136398000Y-70234000D02*
X135220999Y-71411001D01*
D16*
X135691998Y-74500000D02*
X135220999Y-74029001D01*
X136750000Y-74500000D02*
X135691998Y-74500000D01*
X141750000Y-79500000D02*
X136750000Y-74500000D01*
X148000000Y-79500000D02*
X141750000Y-79500000D01*
D17*
X135220999Y-74029001D02*
X135220999Y-74220999D01*
X135220999Y-71411001D02*
X135220999Y-74029001D01*
D16*
X148000000Y-79500000D02*
X148000000Y-84000000D01*
X148900000Y-84900000D02*
X150800000Y-84900000D01*
X148000000Y-84000000D02*
X148900000Y-84900000D01*
%TO.N,ABORT*%
X150800000Y-84100000D02*
X149600000Y-84100000D01*
X149600000Y-84100000D02*
X149000000Y-83500000D01*
X149000000Y-79000000D02*
X148500000Y-78500000D01*
X149000000Y-83500000D02*
X149000000Y-79000000D01*
X142124000Y-78500000D02*
X136398000Y-72774000D01*
X148500000Y-78500000D02*
X142124000Y-78500000D01*
%TO.N,UART_TELEM_PI*%
X164900000Y-92900000D02*
X164000000Y-92000000D01*
X166200000Y-92900000D02*
X164900000Y-92900000D01*
D17*
X131661001Y-71411001D02*
X132500000Y-72250000D01*
X129955001Y-71411001D02*
X131661001Y-71411001D01*
X128778000Y-70234000D02*
X129955001Y-71411001D01*
X132500000Y-72250000D02*
X132500000Y-75000000D01*
D16*
X132500000Y-78000000D02*
X132500000Y-75000000D01*
X135750000Y-81250000D02*
X132500000Y-78000000D01*
X145000000Y-81250000D02*
X135750000Y-81250000D01*
%TO.N,UART_SBUS*%
X164313247Y-93700000D02*
X163167948Y-92554701D01*
X166200000Y-93700000D02*
X164313247Y-93700000D01*
D17*
X126238000Y-70234000D02*
X127504000Y-71500000D01*
X129245962Y-71500000D02*
X130000000Y-72254038D01*
X127504000Y-71500000D02*
X129245962Y-71500000D01*
X130000000Y-72254038D02*
X130000000Y-72500000D01*
X130000000Y-72500000D02*
X130000000Y-73197962D01*
X130000000Y-73197962D02*
X130000000Y-75000000D01*
D16*
X130000000Y-75000000D02*
X130000000Y-78750000D01*
X145000000Y-82500000D02*
X133750000Y-82500000D01*
X133750000Y-82500000D02*
X132125000Y-80875000D01*
X132125000Y-80875000D02*
X132500000Y-81250000D01*
X130000000Y-78750000D02*
X132125000Y-80875000D01*
%TO.N,UART_RESET*%
X155700000Y-83050000D02*
X155700000Y-80800000D01*
X155250000Y-83500000D02*
X155700000Y-83050000D01*
X152500000Y-83500000D02*
X155250000Y-83500000D01*
X118000000Y-83500000D02*
X122500000Y-83500000D01*
X116000000Y-81500000D02*
X118000000Y-83500000D01*
X116000000Y-79000000D02*
X116000000Y-81500000D01*
X115380000Y-78380000D02*
X116000000Y-79000000D01*
X122500000Y-83500000D02*
X145000000Y-83500000D01*
X114000000Y-78380000D02*
X115380000Y-78380000D01*
%TO.N,UART_TELEM_FC*%
X114000000Y-83460000D02*
X115960000Y-83460000D01*
X115960000Y-83460000D02*
X116500000Y-84000000D01*
X116500000Y-84000000D02*
X116500000Y-86500000D01*
X116500000Y-86500000D02*
X117000000Y-87000000D01*
X117000000Y-87000000D02*
X118000000Y-87000000D01*
%TO.N,UART_TELEM_EXT*%
X119920000Y-94000000D02*
X119920000Y-92170000D01*
X118000000Y-90250000D02*
X118000000Y-89500000D01*
X119920000Y-92170000D02*
X118000000Y-90250000D01*
%TO.N,A*%
X152500000Y-96200000D02*
X152500000Y-95059277D01*
X152500000Y-95059277D02*
X152529639Y-95029638D01*
X152529639Y-95029638D02*
X152563278Y-94995999D01*
X152563278Y-94995999D02*
X153504001Y-94995999D01*
X155000000Y-93500000D02*
X155000000Y-90000000D01*
X153504001Y-94995999D02*
X155000000Y-93500000D01*
X145000000Y-86749997D02*
X142250003Y-86749997D01*
X141000000Y-88000000D02*
X141000000Y-89000000D01*
X142250003Y-86749997D02*
X141000000Y-88000000D01*
%TO.N,R*%
X150800000Y-94500000D02*
X152058000Y-94500000D01*
X152308000Y-94250000D02*
X153000000Y-94250000D01*
X152058000Y-94500000D02*
X152308000Y-94250000D01*
X153750000Y-93500000D02*
X153750000Y-90000000D01*
X153000000Y-94250000D02*
X153750000Y-93500000D01*
X145000000Y-87750000D02*
X144500000Y-87750000D01*
X144000000Y-88250000D02*
X144000000Y-89000000D01*
X144500000Y-87750000D02*
X144000000Y-88250000D01*
%TO.N,N*%
X150800000Y-93700000D02*
X149450000Y-93700000D01*
X149450000Y-93700000D02*
X149000000Y-93250000D01*
X149000000Y-93250000D02*
X149000000Y-89250000D01*
X148750000Y-89000000D02*
X147500000Y-89000000D01*
X149000000Y-89250000D02*
X148750000Y-89000000D01*
%TO.N,UART_TELEM*%
X120000000Y-89500000D02*
X120000000Y-87000000D01*
X155500000Y-84500000D02*
X156500000Y-83500000D01*
X156500000Y-82250000D02*
X156500000Y-80800000D01*
X156500000Y-83500000D02*
X156500000Y-82250000D01*
X152500000Y-84500000D02*
X155500000Y-84500000D01*
X120000000Y-85000000D02*
X120000000Y-87000000D01*
X120500000Y-84500000D02*
X120000000Y-85000000D01*
X145000000Y-84500000D02*
X120500000Y-84500000D01*
%TO.N,AUX2*%
X152150000Y-92100000D02*
X152500000Y-91750000D01*
X150800000Y-92100000D02*
X152150000Y-92100000D01*
X138750000Y-90000000D02*
X131000000Y-90000000D01*
X129380000Y-91620000D02*
X129380000Y-94000000D01*
X131000000Y-90000000D02*
X129380000Y-91620000D01*
%TO.N,AUX1*%
X152150000Y-92900000D02*
X152500000Y-93250000D01*
X150800000Y-92900000D02*
X152150000Y-92900000D01*
X138750000Y-91250000D02*
X132500000Y-91250000D01*
X131920000Y-91830000D02*
X131920000Y-94000000D01*
X132500000Y-91250000D02*
X131920000Y-91830000D01*
%TD*%
M02*
