%TF.GenerationSoftware,KiCad,Pcbnew,(5.1.9)-1*%
%TF.CreationDate,2021-04-12T22:32:52+10:00*%
%TF.ProjectId,FlightBridgePCB,466c6967-6874-4427-9269-646765504342,rev?*%
%TF.SameCoordinates,Original*%
%TF.FileFunction,Legend,Bot*%
%TF.FilePolarity,Positive*%
%FSLAX46Y46*%
G04 Gerber Fmt 4.6, Leading zero omitted, Abs format (unit mm)*
G04 Created by KiCad (PCBNEW (5.1.9)-1) date 2021-04-12 22:32:52*
%MOMM*%
%LPD*%
G01*
G04 APERTURE LIST*
%ADD10C,0.120000*%
%ADD11C,0.150000*%
G04 APERTURE END LIST*
D10*
%TO.C,U2*%
X126710000Y-82160000D02*
X126710000Y-80400000D01*
X129780000Y-80400000D02*
X129780000Y-82830000D01*
%TO.C,J1*%
X117288000Y-68904000D02*
X117288000Y-71504000D01*
X117288000Y-68904000D02*
X168208000Y-68904000D01*
X168208000Y-68904000D02*
X168208000Y-74104000D01*
X119888000Y-74104000D02*
X168208000Y-74104000D01*
X119888000Y-71504000D02*
X119888000Y-74104000D01*
X117288000Y-71504000D02*
X119888000Y-71504000D01*
X117288000Y-74104000D02*
X118618000Y-74104000D01*
X117288000Y-72774000D02*
X117288000Y-74104000D01*
%TO.C,U2*%
D11*
X131267619Y-82041904D02*
X130458095Y-82041904D01*
X130362857Y-81994285D01*
X130315238Y-81946666D01*
X130267619Y-81851428D01*
X130267619Y-81660952D01*
X130315238Y-81565714D01*
X130362857Y-81518095D01*
X130458095Y-81470476D01*
X131267619Y-81470476D01*
X131172380Y-81041904D02*
X131220000Y-80994285D01*
X131267619Y-80899047D01*
X131267619Y-80660952D01*
X131220000Y-80565714D01*
X131172380Y-80518095D01*
X131077142Y-80470476D01*
X130981904Y-80470476D01*
X130839047Y-80518095D01*
X130267619Y-81089523D01*
X130267619Y-80470476D01*
%TO.C,J1*%
X115300380Y-71170666D02*
X116014666Y-71170666D01*
X116157523Y-71123047D01*
X116252761Y-71027809D01*
X116300380Y-70884952D01*
X116300380Y-70789714D01*
X116300380Y-72170666D02*
X116300380Y-71599238D01*
X116300380Y-71884952D02*
X115300380Y-71884952D01*
X115443238Y-71789714D01*
X115538476Y-71694476D01*
X115586095Y-71599238D01*
%TD*%
M02*
