M48
; DRILL file {KiCad (5.1.9)-1} date 04/12/21 22:32:50
; FORMAT={-:-/ absolute / inch / decimal}
; #@! TF.CreationDate,2021-04-12T22:32:50+10:00
; #@! TF.GenerationSoftware,Kicad,Pcbnew,(5.1.9)-1
; #@! TF.FileFunction,Plated,1,2,PTH
FMAT,2
INCH
T1C0.0157
T2C0.0394
%
G90
G05
T1
X4.6063Y-3.6024
X4.66Y-3.2
X4.7736Y-3.6024
X4.8819Y-3.0709
X4.9606Y-3.0709
X5.0787Y-3.0709
X5.2953Y-3.0709
X5.3937Y-3.1496
X5.3937Y-3.3661
X5.3937Y-3.5039
X5.4232Y-3.0512
X5.4626Y-3.5433
X5.4626Y-3.5925
X5.4724Y-3.7598
X5.5217Y-2.9528
X5.7087Y-3.1988
X5.7087Y-3.248
X5.7087Y-3.2874
X5.7087Y-3.3268
X5.7087Y-3.376
X5.7087Y-3.4154
X5.7087Y-3.4547
X6.0039Y-3.2874
X6.0039Y-3.3268
X6.0039Y-3.6122
X6.0039Y-3.6713
X6.0236Y-3.3858
X6.0531Y-3.5433
X6.1024Y-3.5433
X6.14Y-3.7367
X6.3091Y-3.2382
X6.3976Y-3.7303
X6.4239Y-3.6439
X6.4567Y-3.563
X6.4567Y-3.622
X6.4764Y-3.248
X6.6142Y-3.563
X6.6535Y-3.0906
T2
X4.4882Y-3.0858
X4.4882Y-3.1858
X4.4882Y-3.2858
X4.4882Y-3.3858
X4.4882Y-3.4858
X4.67Y-2.7651
X4.67Y-2.8651
X4.7213Y-3.7008
X4.77Y-2.7651
X4.77Y-2.8651
X4.8213Y-3.7008
X4.87Y-2.7651
X4.87Y-2.8651
X4.9213Y-3.7008
X4.97Y-2.7651
X4.97Y-2.8651
X5.07Y-2.7651
X5.07Y-2.8651
X5.0937Y-3.7008
X5.17Y-2.7651
X5.17Y-2.8651
X5.1937Y-3.7008
X5.27Y-2.7651
X5.27Y-2.8651
X5.2937Y-3.7008
X5.37Y-2.7651
X5.37Y-2.8651
X5.3937Y-3.7008
X5.47Y-2.7651
X5.47Y-2.8651
X5.57Y-2.7651
X5.57Y-2.8651
X5.67Y-2.7651
X5.67Y-2.8651
X5.77Y-2.7651
X5.77Y-2.8651
X5.87Y-2.7651
X5.87Y-2.8651
X5.97Y-2.7651
X5.97Y-2.8651
X6.07Y-2.7651
X6.07Y-2.8651
X6.17Y-2.7651
X6.17Y-2.8651
X6.27Y-2.7651
X6.27Y-2.8651
X6.37Y-2.7651
X6.37Y-2.8651
X6.47Y-2.7651
X6.47Y-2.8651
X6.57Y-2.7651
X6.57Y-2.8651
X6.7012Y-3.1957
X6.7012Y-3.2957
X6.7012Y-3.3957
X6.8012Y-3.1957
X6.8012Y-3.2957
X6.8012Y-3.3957
T0
M30
