%TF.GenerationSoftware,KiCad,Pcbnew,(5.1.9)-1*%
%TF.CreationDate,2021-05-10T08:30:50+10:00*%
%TF.ProjectId,FlightBridgePCB,466c6967-6874-4427-9269-646765504342,rev?*%
%TF.SameCoordinates,Original*%
%TF.FileFunction,Soldermask,Bot*%
%TF.FilePolarity,Negative*%
%FSLAX46Y46*%
G04 Gerber Fmt 4.6, Leading zero omitted, Abs format (unit mm)*
G04 Created by KiCad (PCBNEW (5.1.9)-1) date 2021-05-10 08:30:50*
%MOMM*%
%LPD*%
G01*
G04 APERTURE LIST*
%ADD10C,5.700000*%
%ADD11O,1.700000X1.700000*%
%ADD12R,1.700000X1.700000*%
%ADD13R,1.050000X1.500000*%
%ADD14O,1.050000X1.500000*%
%ADD15O,2.000000X1.905000*%
%ADD16R,2.000000X1.905000*%
G04 APERTURE END LIST*
D10*
%TO.C,REF\u002A\u002A*%
X171748000Y-94500000D03*
%TD*%
%TO.C,REF\u002A\u002A*%
X171748000Y-71504000D03*
%TD*%
%TO.C,REF\u002A\u002A*%
X113748000Y-94500000D03*
%TD*%
%TO.C,REF\u002A\u002A*%
X113748000Y-71504000D03*
%TD*%
D11*
%TO.C,J4*%
X121158000Y-93726000D03*
X123698000Y-93726000D03*
X126238000Y-93726000D03*
D12*
X128778000Y-93726000D03*
%TD*%
D11*
%TO.C,J3*%
X132334000Y-93726000D03*
X134874000Y-93726000D03*
D12*
X137414000Y-93726000D03*
%TD*%
D13*
%TO.C,U2*%
X130048000Y-77470000D03*
D14*
X132588000Y-77470000D03*
X131318000Y-77470000D03*
%TD*%
%TO.C,C6*%
G36*
G01*
X122253500Y-80424000D02*
X122253500Y-81374000D01*
G75*
G02*
X122003500Y-81624000I-250000J0D01*
G01*
X121328500Y-81624000D01*
G75*
G02*
X121078500Y-81374000I0J250000D01*
G01*
X121078500Y-80424000D01*
G75*
G02*
X121328500Y-80174000I250000J0D01*
G01*
X122003500Y-80174000D01*
G75*
G02*
X122253500Y-80424000I0J-250000D01*
G01*
G37*
G36*
G01*
X124328500Y-80424000D02*
X124328500Y-81374000D01*
G75*
G02*
X124078500Y-81624000I-250000J0D01*
G01*
X123403500Y-81624000D01*
G75*
G02*
X123153500Y-81374000I0J250000D01*
G01*
X123153500Y-80424000D01*
G75*
G02*
X123403500Y-80174000I250000J0D01*
G01*
X124078500Y-80174000D01*
G75*
G02*
X124328500Y-80424000I0J-250000D01*
G01*
G37*
%TD*%
%TO.C,C5*%
G36*
G01*
X122337500Y-78392000D02*
X122337500Y-79342000D01*
G75*
G02*
X122087500Y-79592000I-250000J0D01*
G01*
X121412500Y-79592000D01*
G75*
G02*
X121162500Y-79342000I0J250000D01*
G01*
X121162500Y-78392000D01*
G75*
G02*
X121412500Y-78142000I250000J0D01*
G01*
X122087500Y-78142000D01*
G75*
G02*
X122337500Y-78392000I0J-250000D01*
G01*
G37*
G36*
G01*
X124412500Y-78392000D02*
X124412500Y-79342000D01*
G75*
G02*
X124162500Y-79592000I-250000J0D01*
G01*
X123487500Y-79592000D01*
G75*
G02*
X123237500Y-79342000I0J250000D01*
G01*
X123237500Y-78392000D01*
G75*
G02*
X123487500Y-78142000I250000J0D01*
G01*
X124162500Y-78142000D01*
G75*
G02*
X124412500Y-78392000I0J-250000D01*
G01*
G37*
%TD*%
%TO.C,J5*%
G36*
G01*
X114542000Y-78208000D02*
X113042000Y-78208000D01*
G75*
G02*
X112292000Y-77458000I0J750000D01*
G01*
X112292000Y-75958000D01*
G75*
G02*
X113042000Y-75208000I750000J0D01*
G01*
X114542000Y-75208000D01*
G75*
G02*
X115292000Y-75958000I0J-750000D01*
G01*
X115292000Y-77458000D01*
G75*
G02*
X114542000Y-78208000I-750000J0D01*
G01*
G37*
G36*
G01*
X114542000Y-84558000D02*
X113042000Y-84558000D01*
G75*
G02*
X112292000Y-83808000I0J750000D01*
G01*
X112292000Y-82308000D01*
G75*
G02*
X113042000Y-81558000I750000J0D01*
G01*
X114542000Y-81558000D01*
G75*
G02*
X115292000Y-82308000I0J-750000D01*
G01*
X115292000Y-83808000D01*
G75*
G02*
X114542000Y-84558000I-750000J0D01*
G01*
G37*
G36*
G01*
X114542000Y-90908000D02*
X113042000Y-90908000D01*
G75*
G02*
X112292000Y-90158000I0J750000D01*
G01*
X112292000Y-88658000D01*
G75*
G02*
X113042000Y-87908000I750000J0D01*
G01*
X114542000Y-87908000D01*
G75*
G02*
X115292000Y-88658000I0J-750000D01*
G01*
X115292000Y-90158000D01*
G75*
G02*
X114542000Y-90908000I-750000J0D01*
G01*
G37*
%TD*%
D15*
%TO.C,Q1*%
X120015000Y-83820000D03*
X120015000Y-86360000D03*
D16*
X120015000Y-88900000D03*
%TD*%
D11*
%TO.C,J2*%
X170210000Y-81170000D03*
X172750000Y-81170000D03*
X170210000Y-83710000D03*
X172750000Y-83710000D03*
X170210000Y-86250000D03*
D12*
X172750000Y-86250000D03*
%TD*%
D11*
%TO.C,J1*%
X166878000Y-70234000D03*
X166878000Y-72774000D03*
X164338000Y-70234000D03*
X164338000Y-72774000D03*
X161798000Y-70234000D03*
X161798000Y-72774000D03*
X159258000Y-70234000D03*
X159258000Y-72774000D03*
X156718000Y-70234000D03*
X156718000Y-72774000D03*
X154178000Y-70234000D03*
X154178000Y-72774000D03*
X151638000Y-70234000D03*
X151638000Y-72774000D03*
X149098000Y-70234000D03*
X149098000Y-72774000D03*
X146558000Y-70234000D03*
X146558000Y-72774000D03*
X144018000Y-70234000D03*
X144018000Y-72774000D03*
X141478000Y-70234000D03*
X141478000Y-72774000D03*
X138938000Y-70234000D03*
X138938000Y-72774000D03*
X136398000Y-70234000D03*
X136398000Y-72774000D03*
X133858000Y-70234000D03*
X133858000Y-72774000D03*
X131318000Y-70234000D03*
X131318000Y-72774000D03*
X128778000Y-70234000D03*
X128778000Y-72774000D03*
X126238000Y-70234000D03*
X126238000Y-72774000D03*
X123698000Y-70234000D03*
X123698000Y-72774000D03*
X121158000Y-70234000D03*
X121158000Y-72774000D03*
X118618000Y-70234000D03*
D12*
X118618000Y-72774000D03*
%TD*%
M02*
